<?xml version="1.0" standalone="no"?>
<!DOCTYPE svg PUBLIC "-//W3C//DTD SVG 1.1//EN" "http://www.w3.org/Graphics/SVG/1.1/DTD/svg11.dtd" >
<svg xmlns="http://www.w3.org/2000/svg" xmlns:xlink="http://www.w3.org/1999/xlink" version="1.1">
<metadata>
Created by FontForge 20201107 at Fri Sep 20 20:26:03 2024
 By 
(c) Copyright OH no Type Company, LLC. 2020. All rights reserved.
</metadata>
<defs>
<font id="SwearDisplay-BoldCilati" horiz-adv-x="1228" >
  <font-face 
    font-family="Swear Display Bold Cilati"
    font-weight="750"
    font-stretch="normal"
    units-per-em="2048"
    panose-1="2 3 7 2 7 4 2 13 2 3"
    ascent="1372"
    descent="-676"
    x-height="1034"
    cap-height="1229"
    bbox="-592 -449 2636 2017"
    underline-thickness="102"
    underline-position="-286"
    unicode-range="U+0020-FB02"
  />
<missing-glyph horiz-adv-x="1751" 
d="M741 76q72 0 127.5 4.5t87 10.5t101.5 20q0 169 46.5 278.5t110.5 142.5q-21 -71 -51 -249q232 139 232 505q0 233 -124 353.5t-366 120.5q-194 0 -333.5 -91.5t-176.5 -240.5q12 2 35 2q106 0 157.5 -64.5t51.5 -156.5q0 -56 -21.5 -101t-56 -71t-73.5 -39t-78 -13
q10 -254 12 -350q28 -28 127.5 -44.5t191.5 -16.5zM745 -68q-326 0 -442 129q-1 26 -8.5 97t-10 119.5t9 112.5t42.5 110q-59 23 -96 77.5t-37 129.5q0 68 33.5 122t91.5 80q-22 140 49 253.5t212 176t322 62.5q313 0 474 -157.5t161 -446.5q0 -104 -22.5 -194.5t-69 -169
t-123.5 -138.5t-180 -94q-21 -137 -21 -183q-138 -86 -385 -86zM932 936q109 0 167 -64t58 -155q0 -104 -73.5 -176t-168.5 -72q-96 0 -159.5 64t-63.5 172q0 93 62.5 162t177.5 69z" />
    <glyph glyph-name=".notdef" horiz-adv-x="1751" 
d="M741 76q72 0 127.5 4.5t87 10.5t101.5 20q0 169 46.5 278.5t110.5 142.5q-21 -71 -51 -249q232 139 232 505q0 233 -124 353.5t-366 120.5q-194 0 -333.5 -91.5t-176.5 -240.5q12 2 35 2q106 0 157.5 -64.5t51.5 -156.5q0 -56 -21.5 -101t-56 -71t-73.5 -39t-78 -13
q10 -254 12 -350q28 -28 127.5 -44.5t191.5 -16.5zM745 -68q-326 0 -442 129q-1 26 -8.5 97t-10 119.5t9 112.5t42.5 110q-59 23 -96 77.5t-37 129.5q0 68 33.5 122t91.5 80q-22 140 49 253.5t212 176t322 62.5q313 0 474 -157.5t161 -446.5q0 -104 -22.5 -194.5t-69 -169
t-123.5 -138.5t-180 -94q-21 -137 -21 -183q-138 -86 -385 -86zM932 936q109 0 167 -64t58 -155q0 -104 -73.5 -176t-168.5 -72q-96 0 -159.5 64t-63.5 172q0 93 62.5 162t177.5 69z" />
    <glyph glyph-name=".null" horiz-adv-x="0" 
 />
    <glyph glyph-name="nonmarkingreturn" horiz-adv-x="682" 
 />
    <glyph glyph-name="space" unicode=" " horiz-adv-x="292" 
 />
    <glyph glyph-name="exclam" unicode="!" horiz-adv-x="557" 
d="M653 1229q-232 -439 -360 -754l-45 2q20 209 23.5 441t-1.5 317zM180 -14q-77 0 -120.5 41.5t-43.5 117.5q0 99 59.5 149t157.5 50q79 0 122.5 -40t43.5 -118q0 -96 -60.5 -148t-158.5 -52z" />
    <glyph glyph-name="quotedbl" unicode="&#x22;" horiz-adv-x="681" 
d="M494 1229q-141 -279 -283 -602h-33q26 396 19 602h297zM829 1229q-133 -263 -282 -602h-33q25 386 18 602h297z" />
    <glyph glyph-name="numbersign" unicode="#" horiz-adv-x="1267" 
d="M657 0h-77q41 106 127 328h-113h-184q-21 -63 -58 -174.5t-51 -153.5h-78q21 54 63.5 163t63.5 163q-108 0 -330 -4l54 219q262 -4 358 -6q1 5 17 47q26 70 45 131q-60 -1 -377 -6l53 221q297 -4 397 -6q21 60 59 169t48 138h69q-17 -44 -56.5 -147.5t-61.5 -159.5h114
h183q20 58 56 162t50 145h72q-101 -258 -119 -307q220 4 332 6l-56 -221q-117 2 -356 6q-9 -27 -18 -51q-29 -79 -45 -127q251 4 379 6l-56 -219q-124 2 -395 6q-21 -63 -58 -174.5t-51 -153.5zM645 535h141q1 5 17 47q8 21 23.5 65t23.5 66h-160h-143q-3 -8 -9.5 -25.5
t-9.5 -25.5q-29 -79 -45 -127h162z" />
    <glyph glyph-name="dollar" unicode="$" horiz-adv-x="1036" 
d="M393 -242h-59q46 166 59 219q-124 0 -223 39.5t-160 94.5q54 181 101 456h47q-26 -297 297 -358q22 78 88 336q-62 27 -100 45t-88.5 47t-78.5 55t-48.5 61.5t-20.5 73.5q0 77 33 149.5t94.5 132t159.5 97t217 41.5q7 31 21.5 96t21.5 97h53q-7 -26 -24.5 -91.5
t-26.5 -101.5q89 -1 178.5 -15.5t142.5 -33.5q-59 -229 -104 -465l-45 2q9 53 10 91t-8 66.5t-26.5 45.5t-49.5 28t-71 15.5t-97 5.5q-53 -204 -74 -293q52 -8 92 -16.5t86 -21t79 -28.5t61 -37.5t42.5 -50t14.5 -63.5q0 -67 -46.5 -149.5t-120.5 -155t-176 -127t-202 -65.5
q-8 -37 -24.5 -111t-24.5 -111zM258 819q0 -54 117 -84q41 -10 205 -37q11 43 22.5 91.5t25 106.5t21.5 91h-2q-189 0 -289 -50t-100 -118zM639 193q219 0 219 141q0 19 -10 37.5t-32.5 36.5t-44 32t-60.5 32t-65.5 29.5t-74.5 30.5q-33 -136 -77 -331q63 -8 145 -8z" />
    <glyph glyph-name="percent" unicode="%" horiz-adv-x="1398" 
d="M748 612q-249 -254 -580 -612h-96l4 16q52 49 197 181.5t249.5 231.5t198.5 194q116 117 319.5 338t247.5 268h96l-4 -15q-66 -63 -289 -273t-343 -329zM356 711q140 0 234 80t94 178q0 78 -168 78q-134 0 -226.5 -78t-92.5 -172q0 -86 159 -86zM516 1249q93 0 152 -80
t59 -227q0 -106 -48.5 -205t-134 -162t-182.5 -63q-93 0 -151.5 81t-58.5 228q0 105 48 203.5t133 161.5t183 63zM942 178q140 0 233 80t93 178q0 78 -166 78q-134 0 -228 -78t-94 -172q0 -86 162 -86zM1102 717q92 0 150.5 -80t58.5 -227q0 -106 -48 -205t-133.5 -162
t-183.5 -63q-92 0 -151.5 81t-59.5 228q0 105 48.5 203.5t134.5 161.5t184 63z" />
    <glyph glyph-name="ampersand" unicode="&#x26;" horiz-adv-x="1275" 
d="M1255 455q-26 1 -103.5 5.5t-121.5 6.5q-11 -260 -137.5 -373.5t-413.5 -113.5q-233 0 -350 93t-117 246q0 74 32 133t93 102t134.5 72.5t170.5 53.5q-145 93 -145 250q0 61 26 116t77.5 101.5t139.5 74t201 27.5q81 0 162.5 -15.5t126.5 -43.5l-104 -399h-37l6 86
q2 49 -12 77.5t-62.5 46t-138.5 17.5q-144 0 -243 -46t-99 -106q0 -43 112.5 -72.5t272.5 -29.5h45v-29q-255 -47 -403 -135t-148 -207q0 -76 84.5 -122t247.5 -46q199 0 313 60t129 182q-180 8 -262 8q-57 0 -88.5 -29t-44.5 -102h-31q21 185 82.5 257.5t206.5 72.5
q55 0 155 -3t126 -3q71 0 94.5 15t50.5 71l39 80l33 -3q-47 -141 -99 -376z" />
    <glyph glyph-name="quotesingle" unicode="'" horiz-adv-x="352" 
d="M498 1229q-141 -279 -283 -602h-33q26 396 19 602h297z" />
    <glyph glyph-name="parenleft" unicode="(" horiz-adv-x="612" 
d="M571 -317l-10 -45q-231 25 -363 185t-132 417q0 237 78 451t208.5 369t301.5 257.5t358 130.5l-11 -45q-100 -22 -197.5 -104t-177.5 -210t-141.5 -285.5t-96 -341t-34.5 -366.5q0 -359 217 -413z" />
    <glyph glyph-name="parenright" unicode=")" horiz-adv-x="612" 
d="M72 1403l10 45q231 -25 363.5 -185t132.5 -417q0 -237 -78 -451t-209 -369t-302 -257.5t-358 -130.5l11 45q125 27 244 148.5t207.5 298.5t142 404t53.5 455q0 360 -217 414z" />
    <glyph glyph-name="asterisk" unicode="*" horiz-adv-x="927" 
d="M432 348h-24q30 158 20 348q-200 -42 -362 -116l-7 22q69 36 162 102t170 132q-117 148 -219 225l18 22q109 -63 302 -127q108 194 155 357h25q-33 -170 -23 -350q208 47 363 118l8 -22q-70 -37 -164.5 -103.5t-169.5 -132.5q122 -151 219 -221l-16 -22q-108 63 -303 122
q-46 -83 -89 -182.5t-65 -171.5z" />
    <glyph glyph-name="plus" unicode="+" horiz-adv-x="960" 
d="M317 225q51 183 95 350q-172 0 -353 -6l43 176q179 -6 351 -6q15 66 42 186.5t37 164.5h177l-93 -351q176 0 351 6l-43 -176q-173 6 -349 6q-19 -76 -81 -350h-177z" />
    <glyph glyph-name="comma" unicode="," horiz-adv-x="471" 
d="M-152 -309l-16 30q122 76 192 144.5t70 134.5q0 37 -17 68.5t-39.5 54t-74.5 67.5q99 154 234 154q80 0 122.5 -44t42.5 -130q0 -33 -10 -66t-24 -60.5t-43 -58.5t-52 -53.5t-66.5 -52.5t-70.5 -48t-80.5 -48.5t-81.5 -45.5t-86 -46z" />
    <glyph glyph-name="hyphen" unicode="-" horiz-adv-x="741" 
d="M90 625q178 -7 307 -7t308 7l-52 -213q-150 6 -305 6q-153 0 -309 -6z" />
    <glyph glyph-name="period" unicode="." horiz-adv-x="471" 
d="M147 -14q-77 0 -120 41.5t-43 117.5q0 99 59.5 149t157.5 50q79 0 122.5 -40t43.5 -118q0 -96 -61 -148t-159 -52z" />
    <glyph glyph-name="slash" unicode="/" horiz-adv-x="532" 
d="M-35 -342h-241q472 922 868 1776h233q-514 -1016 -860 -1776z" />
    <glyph glyph-name="zero" unicode="0" horiz-adv-x="1124" 
d="M760 965q-136 0 -255.5 -42t-199 -109.5t-125 -151t-45.5 -168.5q0 -101 82.5 -158t233.5 -57q133 0 251 44t196.5 114t123.5 156t45 171q0 92 -83 146.5t-224 54.5zM1126 770q0 -137 -54.5 -279.5t-143.5 -255t-212 -184t-251 -71.5q-175 0 -283 137.5t-108 363.5
q0 109 30 219.5t87 208t133.5 173.5t177.5 120.5t211 44.5q186 0 299.5 -129t113.5 -348z" />
    <glyph glyph-name="one" unicode="1" horiz-adv-x="636" 
d="M639 1260l39 -5q-2 -9 -15.5 -52t-29 -97t-49 -179.5t-74.5 -289.5q-105 -428 -113 -500q-6 -55 14 -66q4 -3 13 -5l94 -21l-10 -45h-604l10 45l111 18q9 1 15.5 3t14 8t13 13.5t13.5 23.5t14.5 34.5t16.5 50t19.5 66.5t23.5 87t28 108.5t34 134.5q80 323 82.5 387.5
t-60.5 68.5q-2 1 -3 1l-66 6l8 39q257 27 461 166z" />
    <glyph glyph-name="two" unicode="2" horiz-adv-x="1110" 
d="M926 0h-1043l11 45q413 263 517 335q254 176 336 294q54 78 54 151q0 80 -49.5 122t-163.5 42q-372 0 -408 -424l-41 6q15 343 158 510.5t385 167.5q196 0 296.5 -93.5t100.5 -252.5q0 -50 -16 -98.5t-41 -89.5t-68 -82.5t-84.5 -74.5t-103.5 -69.5t-112.5 -63t-124 -60
t-125 -55t-128.5 -52.5h386q97 1 149 5.5t88 24t52 43t40 75.5l60 131h39q-75 -211 -164 -537z" />
    <glyph glyph-name="three" unicode="3" horiz-adv-x="968" 
d="M936 438q0 -50 -21.5 -98.5t-67 -98.5t-125.5 -92.5t-188.5 -77t-266 -55t-347.5 -22.5v49q354 43 529.5 146.5t175.5 226.5q0 67 -39.5 106t-141.5 39q-74 0 -159 -12l8 45q237 78 343.5 150t106.5 147q0 60 -46 88.5t-154 28.5q-132 0 -226 -68t-131 -209l-43 6
q71 510 480 510q166 0 254 -71.5t88 -188.5q0 -192 -334 -278v-15q154 -23 229.5 -89.5t75.5 -166.5z" />
    <glyph glyph-name="four" unicode="4" horiz-adv-x="1097" 
d="M190 0l9 43l184 23q25 3 42 23.5t39.5 84.5t57.5 197q-272 0 -534 -4l-4 43q156 134 501 428t516 442l43 -4q-91 -320 -174 -651q-10 -38 -25 -101t-16 -67q85 3 117.5 16.5t52.5 56.5l64 150h29q-42 -125 -129 -510h-25l8 123q2 32 -5.5 46t-37 22t-96.5 10
q-26 -106 -37.5 -162.5t-12.5 -88.5t5.5 -41t23.5 -13l113 -23l-10 -43h-699zM575 578q65 243 89 350l-15 6q-366 -324 -522 -459l6 -18h412q13 49 30 121z" />
    <glyph glyph-name="five" unicode="5" horiz-adv-x="1011" 
d="M-88 -6l10 49q162 23 289.5 60t208 79t133 91.5t73.5 97t21 96.5q0 63 -42 101t-148 63t-295 37q84 269 147 561q67 0 205 -1t207 -1q133 0 192.5 5.5t84 19t42.5 46.5l43 72l35 -2q-17 -49 -56.5 -197.5t-53.5 -207.5q-426 7 -717 4q-5 -27 -17 -87.5t-18 -91.5
q121 -8 212 -18t175 -27t141.5 -41t100.5 -58t63.5 -80t20.5 -105q0 -79 -36.5 -146.5t-117.5 -125.5t-203 -99.5t-299.5 -66t-400.5 -27.5z" />
    <glyph glyph-name="six" unicode="6" horiz-adv-x="1044" 
d="M147 326q0 -50 77.5 -87.5t205.5 -37.5q224 0 348.5 60t124.5 153q0 54 -71.5 84t-202.5 30q-96 0 -188 -21t-154.5 -52t-101 -66t-38.5 -63zM492 -20q-104 0 -185.5 36.5t-132 101t-76.5 147t-26 177.5q0 120 42.5 233t132 213.5t216.5 175.5t307.5 119.5t394.5 45.5
v-43q-195 -57 -380 -151t-323 -199.5t-227.5 -219t-103.5 -210.5l25 -11q84 143 228 248t282 105q132 0 214.5 -99t82.5 -243q0 -77 -34 -153t-94 -137t-150 -98.5t-193 -37.5z" />
    <glyph glyph-name="seven" unicode="7" horiz-adv-x="964" 
d="M106 39q78 104 208.5 240.5t247.5 248t241 236.5t188 205q-218 4 -495 4q-32 0 -54 -0.5t-44.5 -3.5t-36 -4.5t-30 -10.5t-24.5 -13.5t-21 -21t-19 -25.5t-19.5 -35t-20.5 -41.5t-24 -51.5l-74 -164h-39q86 245 189 627h895l-9 -43q-184 -289 -375 -618t-305 -568h-385z
" />
    <glyph glyph-name="eight" unicode="8" horiz-adv-x="1013" 
d="M252 899q0 -17 10 -32.5t33 -30t46 -25.5t62.5 -25t68 -23t78 -24t77.5 -24q91 67 132.5 115t41.5 106q0 65 -56 89t-174 24q-138 0 -228.5 -44.5t-90.5 -105.5zM387 -20q-99 0 -178.5 25t-127.5 66t-73.5 91t-25.5 104q0 179 442 365q-106 60 -165.5 127t-59.5 155
q0 143 134 239.5t374 96.5q165 0 264.5 -49t99.5 -137q0 -44 -22.5 -85t-55 -71.5t-81.5 -61.5t-90 -51.5l-92 -46t-77 -40.5q70 -22 122.5 -44.5t101 -53t74.5 -69.5t26 -85q0 -59 -28 -125t-82 -127.5t-124.5 -111.5t-164 -80.5t-191.5 -30.5zM541 190q175 0 245 33
t70 107q0 29 -18 56t-46 48.5t-72 46t-84 43.5t-95.5 46t-94.5 48q-122 -89 -184.5 -162.5t-62.5 -138.5q0 -127 342 -127z" />
    <glyph glyph-name="nine" unicode="9" horiz-adv-x="1040" 
d="M969 893q0 52 -80 89.5t-215 37.5q-217 0 -337 -56.5t-120 -148.5q0 -58 69 -89.5t197 -31.5q96 0 189 20.5t156 51t102 65t39 62.5zM-45 -6v43q269 94 498.5 228.5t373.5 283t162 276.5l-22 11q-87 -146 -234.5 -253.5t-288.5 -107.5q-127 0 -206.5 99.5t-79.5 246.5
q0 80 34 156.5t94 136.5t150 96.5t193 36.5q104 0 185.5 -37t132 -101t76.5 -146t26 -177q0 -122 -37 -231.5t-121 -209t-208.5 -173.5t-310.5 -121.5t-417 -56.5z" />
    <glyph glyph-name="colon" unicode=":" horiz-adv-x="559" 
d="M186 -14q-77 0 -120 41.5t-43 117.5q0 99 59.5 149t157.5 50q79 0 122.5 -40t43.5 -118q0 -96 -61 -148t-159 -52zM358 678q-77 0 -120 42t-43 118q0 99 59 148.5t158 49.5q80 0 123 -39.5t43 -117.5q0 -96 -61 -148.5t-159 -52.5z" />
    <glyph glyph-name="semicolon" unicode=";" horiz-adv-x="561" 
d="M360 678q-77 0 -120 42t-43 118q0 99 59 148.5t158 49.5q80 0 123 -39.5t43 -117.5q0 -96 -61 -148.5t-159 -52.5zM-111 -309l-16 30q122 76 192 144.5t70 134.5q0 37 -17 68.5t-39.5 54t-74.5 67.5q99 154 234 154q80 0 122.5 -44t42.5 -130q0 -33 -10 -66t-24 -60.5
t-43 -58.5t-52 -53.5t-66.5 -52.5t-70.5 -48t-80.5 -48.5t-81.5 -45.5t-86 -46z" />
    <glyph glyph-name="less" unicode="&#x3c;" horiz-adv-x="843" 
d="M662 37q-95 64 -337 218.5t-286 182.5l41 164q742 363 823 404l-53 -220q-29 -13 -169 -73t-249 -109t-211 -98q152 -94 488 -287z" />
    <glyph glyph-name="equal" unicode="=" horiz-adv-x="974" 
d="M70 567q127 -6 430 -6t434 6l-43 -176q-125 6 -428 6t-436 -6zM158 920q148 -7 430 -7q281 0 434 7l-43 -177q-146 7 -428 7q-281 0 -436 -7z" />
    <glyph glyph-name="greater" unicode="&#x3e;" horiz-adv-x="843" 
d="M-14 37l53 219q37 16 132.5 57.5t161.5 70.5t161 72t174 81q-131 81 -488 286l47 183q72 -48 176 -115.5t239.5 -154t207.5 -132.5l-41 -164q-798 -390 -823 -403z" />
    <glyph glyph-name="question" unicode="?" horiz-adv-x="788" 
d="M197 481l-7 39q572 235 572 385q0 41 -19.5 61.5t-64.5 20.5q-44 0 -201 -28.5t-207 -28.5q-43 0 -64.5 16.5t-21.5 59.5q0 22 5.5 48.5t20 65.5t24 61.5t33.5 77t32 72.5l39 -2q-12 -53 -12 -67q0 -19 11.5 -28t39.5 -9t76.5 2t72.5 2q279 0 279 -367q0 -71 -28 -126.5
t-77 -95.5t-127.5 -70.5t-167.5 -50.5t-208 -38zM197 -14q-77 0 -120.5 41.5t-43.5 117.5q0 99 59.5 149t157.5 50q79 0 122.5 -40t43.5 -118q0 -96 -60.5 -148t-158.5 -52z" />
    <glyph glyph-name="at" unicode="@" horiz-adv-x="1587" 
d="M1190 334q120 0 208.5 137.5t88.5 384.5q0 182 -112.5 281.5t-321.5 99.5q-165 0 -311.5 -49t-257.5 -135.5t-191.5 -202t-122 -252.5t-41.5 -283q0 -170 126.5 -265t373.5 -95q235 0 426 82l14 -31q-199 -231 -444 -231q-154 0 -285 95.5t-206 253.5t-75 337
q0 137 45 275t128.5 256t193.5 210t249 144.5t286 52.5q110 0 206 -37t166.5 -101.5t121 -150t76 -184.5t25.5 -203q0 -113 -30.5 -215t-80 -174t-111 -126t-123.5 -80t-117 -26q-79 1 -126.5 60t-47.5 145q0 25 9 64.5t20 75t33.5 94t34.5 89.5t39 96t34 81l-23 10
q-202 -398 -308.5 -556.5t-185.5 -158.5q-69 0 -118 104t-49 279q0 93 29 179.5t92 164.5t154 134.5t225 85.5t294 20q-45 -127 -89 -325.5t-44 -292.5q0 -55 33 -86t90 -31zM592 379q37 0 84 24.5t108.5 78.5t138 158.5t156.5 248.5q-162 -32 -288 -82t-199 -107
t-109.5 -113.5t-36.5 -109.5q0 -46 40.5 -72t105.5 -26z" />
    <glyph glyph-name="A" unicode="A" horiz-adv-x="1202" 
d="M385 45l-10 -45h-514l10 45l31 14q47 19 141 153.5t437 663.5q154 238 247 381h51q10 -52 129 -593q8 -39 23 -111q55 -268 83.5 -368t69.5 -128l19 -12l-8 -45h-570l11 45l83 10q89 11 89 80q0 68 -45 324q-158 -3 -349 -10q-102 -235 -102 -318q0 -56 76 -68zM649 530
q-35 185 -88 402q-137 -246 -221 -426q103 -6 315 -10q-1 6 -3 17t-3 17z" />
    <glyph glyph-name="B" unicode="B" horiz-adv-x="1167" 
d="M811 449q0 101 -33.5 143.5t-113.5 42.5q-62 0 -175 -10l-4 -21q-79 -311 -102 -414.5t-23 -140.5q230 9 340.5 115.5t110.5 284.5zM537 0h-639l10 45l90 16q53 10 82 85.5t115 422.5q108 434 116 520q7 62 -18 75q-8 4 -25 7l-78 13l13 45h598q195 0 279.5 -51
t84.5 -162q0 -109 -106 -200.5t-260 -139.5v-10q161 -14 224.5 -74.5t63.5 -165.5q0 -181 -156 -303.5t-394 -122.5zM897 999q0 96 -52 133t-204 46q-17 -36 -42.5 -128t-96.5 -382q66 2 196 2h45q65 60 109.5 151t44.5 178z" />
    <glyph glyph-name="C" unicode="C" horiz-adv-x="1144" 
d="M543 276q140 0 232 22t137.5 58.5t70.5 94.5l47 108h39l-82 -397q-209 -182 -452 -182q-224 0 -343.5 132t-119.5 373q0 112 31.5 221t97 207.5t157 173t221 118.5t279.5 44q109 0 205 -23.5t156 -60.5l-121 -463h-39l6 117q3 41 -4 68t-30.5 50t-72 33.5t-124.5 10.5
q-157 0 -292.5 -46t-224 -120.5t-138.5 -167.5t-50 -190q0 -84 108.5 -132.5t305.5 -48.5z" />
    <glyph glyph-name="D" unicode="D" horiz-adv-x="1263" 
d="M494 621q-72 -295 -94.5 -397.5t-26.5 -172.5q142 8 253.5 65t178 138.5t109.5 189t59 207t16 203.5q0 174 -72.5 251t-207.5 77q-33 0 -47 -2q-25 -40 -59 -150t-109 -409zM809 1229q465 0 465 -424q0 -162 -55 -310t-150 -257t-229 -173.5t-285 -64.5h-653l10 45l84 16
q41 7 60 34q31 42 82 239q18 68 67 262q103 415 112 495q6 62 -18 74q-7 4 -23 6l-79 13l12 45h600z" />
    <glyph glyph-name="E" unicode="E" horiz-adv-x="1116" 
d="M483 600q-116 -456 -125 -549q151 8 240.5 32.5t149 71.5t122.5 138l127 196h41q-89 -247 -159 -489h-983l10 45l100 18q35 6 53 34q27 43 83 260q16 60 57 223q107 432 113 518q4 57 -21 67q-7 4 -23 6l-84 13l13 45h983q-47 -214 -86 -461h-41l-29 166
q-17 69 -37.5 109.5t-63.5 72t-109.5 45.5t-174.5 19q-31 -75 -143 -533q95 4 149 20.5t86 48t66 93.5l53 111l29 -2q-29 -100 -72.5 -292t-63.5 -304h-28l-2 110q-6 96 -51 130.5t-179 41.5v-4z" />
    <glyph glyph-name="F" unicode="F" horiz-adv-x="1050" 
d="M498 662q-2 -7 -5.5 -20.5t-5.5 -20.5q98 3 154.5 19t90 47.5t69.5 94.5l55 109h29q-32 -105 -78 -308t-66 -321h-26l-6 111q-5 60 -14.5 93t-35 58.5t-68 36t-114.5 14.5q-47 -193 -67.5 -287t-19 -148t15 -63.5t53.5 -15.5l127 -16l-11 -45h-686l11 45l94 16
q58 10 84.5 78t113.5 414q5 18 7 27q107 428 114 514q5 59 -20 71q-8 3 -27 6l-80 13l13 45h954q-59 -265 -92 -486h-41l-25 187q-13 96 -44 144.5t-102 74t-210 33.5q-29 -65 -141 -520z" />
    <glyph glyph-name="G" unicode="G" 
d="M553 -20q-230 0 -355.5 128.5t-125.5 352.5q0 119 31 232.5t96 214.5t157 177t222.5 120t283.5 44q113 0 210.5 -23t156.5 -61l-119 -458h-39l6 112q2 42 -5 69.5t-30 51t-71 34.5t-123 11q-128 0 -243.5 -29.5t-201 -79.5t-148 -115t-94.5 -137.5t-32 -144.5
q0 -54 79.5 -104.5t194.5 -83t235.5 -52.5t209.5 -20q81 0 117 30t36 95q0 38 -14 61t-66 49t-157 56l-246 55l6 37q390 -9 680 0l-8 -37l-43 -12q-33 -14 -51 -44t-34 -101.5t-42 -235.5q-249 -192 -473 -192z" />
    <glyph glyph-name="H" unicode="H" horiz-adv-x="1368" 
d="M915 592q1 5 4.5 16.5t4.5 16.5h-88q-42 0 -344 -15q-52 -204 -75 -301.5t-30.5 -158t0 -72.5t29.5 -17l92 -16l-10 -45h-600l10 45l106 18q41 9 69 88.5t120 440.5q105 426 114 503q6 58 -17 69q-5 3 -15 5l-92 15l12 45h598l-10 -45l-105 -17q-15 -2 -24.5 -7
t-21.5 -25t-23 -49t-28 -88t-35.5 -132.5t-47.5 -191.5q198 -10 336 -10h90q92 374 96 444q3 47 -20 57q-5 2 -13 4l-92 15l13 45h598l-11 -45l-104 -17q-23 -2 -36.5 -15.5t-35.5 -73.5t-46.5 -154t-72.5 -287q-54 -215 -78 -317t-32.5 -165.5t-1 -76t29.5 -17.5l93 -16
l-11 -45h-600l11 45l106 18q41 9 68.5 87.5t119.5 441.5z" />
    <glyph glyph-name="I" unicode="I" horiz-adv-x="655" 
d="M201 592q105 426 114 503q6 58 -17 69q-5 3 -15 5l-93 15l13 45h598l-10 -45l-105 -17q-23 -2 -36 -15t-35 -74.5t-46.5 -153.5t-72.5 -287q-54 -215 -78 -317t-32.5 -165.5t-1 -76t29.5 -17.5l92 -16l-10 -45h-600l10 45l106 18q41 9 69 88.5t120 440.5z" />
    <glyph glyph-name="J" unicode="J" horiz-adv-x="628" 
d="M-201 -201l11 62q40 0 64.5 1.5t52.5 14.5t44.5 29.5t39.5 57t39 85t41 127t47.5 169.5t56.5 224q109 440 116 525q6 60 -18 71q-7 4 -21 6l-77 13l10 45h590l-11 -45l-90 -13q-17 -2 -28 -8t-25 -27t-24.5 -49t-28.5 -89t-36 -131t-48 -189q-18 -73 -44.5 -198
t-39.5 -175q-49 -198 -215.5 -338.5t-405.5 -167.5z" />
    <glyph glyph-name="K" unicode="K" horiz-adv-x="1273" 
d="M569 618q261 204 353.5 298.5t97.5 156.5q3 73 -72 96l-76 15l13 45h549l-11 -45l-43 -13q-61 -18 -171.5 -96t-383.5 -299q92 -278 144 -418t102 -227q36 -54 105 -86l-11 -45h-389q-37 96 -99 279.5t-108 338.5zM203 592q105 426 114 503q6 58 -17 69q-5 3 -15 5
l-92 15l12 45h598l-10 -45l-105 -17q-23 -2 -36 -15t-35 -74.5t-46.5 -153.5t-72.5 -287q-54 -215 -78 -317t-32.5 -165.5t-1 -76t29.5 -17.5l92 -16l-10 -45h-600l10 45l106 18q41 9 69 88.5t120 440.5z" />
    <glyph glyph-name="L" unicode="L" horiz-adv-x="983" 
d="M782 0h-880l8 45l94 16q53 10 80 81.5t113 422.5q58 229 84 341t31 175.5t-4.5 74.5t-39.5 15l-78 13l11 45h614l-10 -45l-109 -13q-25 -3 -39 -15t-37 -74.5t-47.5 -153t-74.5 -291.5q-127 -508 -133 -588q86 14 146.5 36.5t110 63t84.5 82.5t87 119l145 246l43 -2
q-141 -384 -199 -594z" />
    <glyph glyph-name="M" unicode="M" horiz-adv-x="1763" 
d="M498 45l-11 -45h-589l10 45l69 14q25 5 40.5 16.5t37 47t44.5 96.5t60 172t85 266.5t119 385.5q20 64 30 98q-30 15 -82 24l-100 19l10 45h529q29 -226 66 -410t97 -405q339 501 531 815h448l-10 -45l-86 -13q-54 -9 -79 -77t-98 -390q-5 -20 -7 -30q-53 -228 -76.5 -339
t-29 -178t4 -80.5t37.5 -19.5l68 -12l-10 -45h-676l12 45l154 21q28 4 44 9.5t34.5 27.5t30 49.5t29.5 90t34 134t43 196.5q115 523 119 541q-300 -448 -715 -1114h-39q-121 718 -211 1036q-16 50 -35 74q-39 -180 -65.5 -310.5t-45.5 -239t-29 -179t-11.5 -126t2.5 -85.5
t18 -51.5t29.5 -30.5t42.5 -16z" />
    <glyph glyph-name="N" unicode="N" horiz-adv-x="1275" 
d="M971 -25h-56q-17 35 -136 283t-211.5 438.5t-149.5 298.5q-22 43 -39 68q-47 -199 -73 -350.5t-30.5 -254.5t3 -172t33.5 -109.5t55.5 -60t74.5 -30.5l187 -41l-11 -45h-718l10 45l70 16q47 13 75 54q45 68 120 343q42 153 169 650q-39 44 -94 59l-74 17l8 45h508
q148 -437 342 -791q45 193 68.5 325t30.5 206t-3.5 115t-25.5 53t-45 18l-144 29l11 45h499l-8 -45l-55 -15q-43 -11 -73.5 -59t-88.5 -233.5t-153 -567.5q-60 -240 -76 -334z" />
    <glyph glyph-name="O" unicode="O" horiz-adv-x="1234" 
d="M823 965q-151 0 -283.5 -43t-221 -112.5t-139 -156.5t-50.5 -176q0 -198 350 -198q145 0 274.5 45.5t215.5 117.5t136 161t50 177q0 87 -83 136t-249 49zM1208 770q0 -137 -59 -279.5t-154.5 -255t-229 -184t-271.5 -71.5q-188 0 -304 137.5t-116 363.5q0 137 52 273.5
t142 246t224 178t284 68.5q195 0 313.5 -129t118.5 -348z" />
    <glyph glyph-name="P" unicode="P" horiz-adv-x="1161" 
d="M498 635l-2 -12q71 -9 145 -9q117 0 197 104.5t80 264.5q0 99 -43.5 148t-147.5 49q-28 0 -78 -4q-42 -98 -151 -541zM606 45l-10 -45h-692l10 45l84 16q31 6 46.5 17.5t40 74t48 151.5t74.5 292q100 403 107 486q6 65 -20 80q-10 5 -32 9l-67 13l10 45h633
q108 0 181.5 -18.5t111.5 -54t53.5 -78t15.5 -101.5q0 -126 -58.5 -233t-158.5 -169.5t-217 -62.5q-146 0 -281 76q-31 -125 -49.5 -205t-28.5 -140.5t-12.5 -91t5.5 -49.5t18.5 -24t32.5 -8z" />
    <glyph glyph-name="Q" unicode="Q" horiz-adv-x="1257" 
d="M823 965q-151 0 -283.5 -43t-221 -112.5t-139 -156.5t-50.5 -176q0 -198 350 -198q156 0 297 53q-33 71 -90.5 138.5t-110.5 111.5q115 0 213 12q-4 -45 -2 -113t21 -137q159 69 253.5 190.5t94.5 245.5q0 87 -83 136t-249 49zM1208 770q0 -173 -89.5 -349t-235.5 -294
q67 -92 139 -92q45 0 82.5 42t77.5 159l30 -11q-63 -253 -115.5 -351.5t-117.5 -98.5q-32 0 -55.5 24.5t-37 74t-21 101.5t-13.5 129q-169 -124 -358 -124q-188 0 -304 137.5t-116 363.5q0 137 52 273.5t142 246t224 178t284 68.5q195 0 313.5 -129t118.5 -348z" />
    <glyph glyph-name="R" unicode="R" horiz-adv-x="1236" 
d="M668 694q116 0 196 96.5t80 215.5q0 83 -57.5 128.5t-159.5 45.5q-43 0 -80 -6q-34 -77 -133 -472q63 -8 154 -8zM498 635q-51 -207 -74.5 -310t-26.5 -163.5t8.5 -73.5t43.5 -18l147 -25l-10 -45h-688l12 45l94 18q28 6 42 17.5t37.5 72.5t48 151.5t75.5 291.5
q101 411 108 494q4 60 -21 74q-8 4 -24 7l-77 13l12 45h651q110 0 185 -17t114 -49.5t54.5 -71.5t15.5 -92q0 -155 -106 -271.5t-257 -131.5q122 -380 211 -487q8 -10 18 -18t16.5 -12t27 -15.5t32.5 -18.5l-10 -45h-389q-75 175 -133 618q-72 18 -129 52q-1 -6 -4 -17.5
t-4 -17.5z" />
    <glyph glyph-name="S" unicode="S" horiz-adv-x="1036" 
d="M733 1247q94 0 191 -14.5t153 -34.5q-59 -229 -104 -465l-45 2q10 56 10.5 95.5t-11 68t-31 45.5t-57.5 27t-81.5 13t-110.5 3q-189 0 -289 -50t-100 -118q0 -33 40 -55.5t104.5 -35t142 -23.5t155.5 -26.5t142.5 -38t104.5 -64.5t40 -99q0 -71 -52 -158.5t-132.5 -163
t-191 -127t-216.5 -51.5q-126 0 -225 39.5t-160 94.5q54 181 101 456h47q-8 -89 16.5 -156.5t69 -108t112 -66t135 -34.5t148.5 -9q219 0 219 141q0 35 -36 68t-93.5 61t-126.5 57t-138.5 61t-127 66.5t-93.5 81t-36 98.5q0 78 34.5 152t98.5 134.5t166.5 97t226.5 36.5z
" />
    <glyph glyph-name="T" unicode="T" horiz-adv-x="1224" 
d="M872 45l-10 -45h-749l10 45l125 21q85 15 117 85t118 418q133 532 140 611q-84 -11 -136.5 -38.5t-88.5 -69.5t-95 -134l-182 -293h-39q100 281 186 584h1045q-66 -278 -113 -584h-37l-33 293q-8 57 -14.5 87t-19 60.5t-33 45.5t-52 27.5t-81.5 21.5
q-20 -48 -45.5 -141.5t-91.5 -360.5q-102 -408 -109 -505q-6 -76 26 -95q14 -9 50 -15z" />
    <glyph glyph-name="U" unicode="U" horiz-adv-x="1257" 
d="M1139 682q-15 -57 -31.5 -129.5t-22.5 -97.5q-55 -206 -202 -340.5t-346 -134.5q-206 0 -310 85t-104 240q0 71 57 293q103 414 110 496q5 61 -20 73q-8 4 -24 7l-68 10l12 45h596l-10 -45l-106 -15q-51 -7 -82.5 -97.5t-141.5 -534.5q-26 -114 -26 -181
q0 -131 70.5 -187t216.5 -56q122 0 175 60t99 249q61 241 89 381.5t27 219.5t-21 106t-66 38l-80 17l10 45h477l-10 -45l-76 -17q-23 -7 -36.5 -18t-28.5 -34.5t-32.5 -81.5t-38.5 -134.5t-56 -216.5z" />
    <glyph glyph-name="V" unicode="V" horiz-adv-x="1218" 
d="M530 -29h-43q-43 195 -137 602q-87 386 -101 439q-36 131 -75 159l-18 13l10 45h563l-10 -45l-74 -10q-44 -6 -64.5 -22.5t-23.5 -47.5q-4 -74 61 -416q26 -143 84 -389q150 269 243 480t99 296q11 75 -75 92l-99 17l11 45h524l-10 -45l-25 -10q-43 -16 -131 -139
t-381 -568q-199 -302 -328 -496z" />
    <glyph glyph-name="W" unicode="W" horiz-adv-x="1828" 
d="M1159 1190q-81 0 -92 -49q-7 -39 47 -217q99 139 111 200q7 35 -8 50.5t-58 15.5zM967 580q-6 36 -15 65q-43 -63 -205 -304t-266 -392h-39q-18 106 -118 620q-79 390 -104 475q-28 97 -58 123l-19 17l13 45h573l-10 -45l-64 -6q-98 -16 -110 -88q-16 -89 63 -412
q10 -43 40 -175t40 -175q43 60 131 180.5t127 175.5q-56 273 -82 368.5t-57 121.5l-12 10l12 45h610l-12 -45l-33 -15q-34 -12 -90.5 -75t-157.5 -203q7 -23 20.5 -64t18.5 -57q94 -312 148 -473q130 217 224 409.5t112 288.5q33 153 -70 172l-94 17l12 45h541l-11 -45
l-28 -19q-25 -14 -63 -57.5t-117 -152.5t-155.5 -218.5t-240.5 -344.5t-311 -443h-39q-50 373 -104 631z" />
    <glyph glyph-name="X" unicode="X" horiz-adv-x="1292" 
d="M418 45l-8 -45h-531l12 45l27 12q59 30 217.5 168.5t384.5 362.5q-190 410 -239 496q-34 61 -56 79l-24 21l10 45h580l-11 -45l-73 -8q-83 -12 -80 -66q-1 -18 8.5 -49t35.5 -91t44 -98t63 -132q14 -29 21 -44l8 -16q224 257 246 387q10 51 -3 76.5t-63 32.5l-69 8l8 45
h516l-10 -45l-27 -13q-119 -58 -586 -522q133 -285 205.5 -420t112.5 -163l26 -21l-10 -45h-600l10 45l78 10q42 7 60 20.5t18 37.5q0 68 -172 417q-7 15 -10 25q-232 -261 -254 -391q-11 -51 2 -77.5t63 -33.5z" />
    <glyph glyph-name="Y" unicode="Y" horiz-adv-x="1294" 
d="M870 0h-694l10 45l113 21q75 15 104 79.5t107 380.5q-7 16 -47 109.5t-57 132.5q-96 221 -138.5 302t-81.5 101l-22 13l12 45h596l-10 -45l-72 -6q-52 -6 -76 -20t-24 -42q0 -51 68 -228t130 -315q125 159 216.5 310.5t91.5 210.5q0 35 -24.5 53t-80.5 27l-86 10l10 45
h560l-9 -45l-24 -6q-47 -12 -169.5 -136.5t-479.5 -509.5q-44 -175 -62.5 -260.5t-17 -134.5t14.5 -58t50 -16l103 -18z" />
    <glyph glyph-name="Z" unicode="Z" horiz-adv-x="1171" 
d="M944 0h-999l6 49q719 628 1010 916q-154 -1 -250.5 -4t-173.5 -12.5t-116 -19.5t-70.5 -34.5t-45.5 -48t-33 -68.5l-92 -211l-37 4q133 385 201 658h946l-8 -43q-482 -425 -1010 -920q160 1 268.5 5t189 14t126 21.5t78 35.5t48 47t32.5 64l86 204l37 -2
q-138 -411 -193 -655z" />
    <glyph glyph-name="bracketleft" unicode="[" horiz-adv-x="626" 
d="M463 618q-172 -687 -189 -807q-10 -72 10 -83q5 -2 19 -4l154 -21l-13 -45h-505q110 399 241 924q111 448 201 843h504l-11 -45l-165 -20q-26 -4 -37.5 -14t-39 -87.5t-62.5 -214t-107 -426.5z" />
    <glyph glyph-name="backslash" unicode="\" horiz-adv-x="532" 
d="M152 -342q28 635 28 1776h234q-26 -819 -19 -1776h-243z" />
    <glyph glyph-name="bracketright" unicode="]" horiz-adv-x="628" 
d="M201 465q173 688 188 809q10 72 -11 82q-5 2 -18 4l-153 20l12 45h506q-123 -446 -242 -923q-95 -383 -200 -844h-504l10 45l166 21q28 4 40 19q30 38 93 275q36 137 113 447z" />
    <glyph glyph-name="asciicircum" unicode="^" horiz-adv-x="964" 
d="M887 418q-35 13 -70.5 31t-59 30.5t-63.5 39t-54 36.5t-62 44.5t-58 41.5q-104 -57 -165.5 -89.5t-149 -71t-166.5 -62.5l-14 37q290 218 555 512h36q130 -314 302 -512z" />
    <glyph glyph-name="underscore" unicode="_" horiz-adv-x="819" 
d="M657 -231h-819l51 211h820z" />
    <glyph glyph-name="grave" unicode="`" horiz-adv-x="608" 
d="M301 1436q77 22 250 57q55 -191 135 -385l-29 -4q-196 150 -360 317z" />
    <glyph glyph-name="a" unicode="a" horiz-adv-x="974" 
d="M705 -23q-51 0 -86 58.5t-35 138.5q0 21 5.5 49.5t17.5 68.5t22.5 71.5t30.5 84t30.5 79t33 83t28.5 70.5l-21 6q-199 -377 -319.5 -543t-202.5 -166q-69 0 -118.5 101.5t-49.5 279.5q0 103 30.5 198.5t98.5 182.5t166.5 151.5t244 102.5t322.5 37q-58 -157 -112 -372.5
t-54 -311.5q0 -48 22.5 -74t55.5 -26q31 0 54.5 32.5t72.5 139.5l31 -15q-75 -242 -134.5 -334t-133.5 -92zM233 268q40 0 91 23.5t117 75.5t145.5 153.5t158.5 239.5q-138 -21 -250.5 -57.5t-185 -77.5t-122 -88.5t-70.5 -91.5t-21 -85q0 -43 38 -67.5t99 -24.5z" />
    <glyph glyph-name="b" unicode="b" horiz-adv-x="882" 
d="M670 752q-56 0 -102 -21.5t-98.5 -77t-108 -159.5t-117.5 -261q89 -12 176 11t153 70t117 107t78 123.5t27 117.5q0 38 -33.5 64t-91.5 26zM395 -18q-86 0 -191.5 50.5t-211.5 137.5q39 138 104 306.5t117.5 287.5t91.5 223.5t39 145.5q0 28 -23 44.5t-61 16.5
q-80 0 -170 -55l-20 22q136 232 239 232q44 0 74.5 -38.5t30.5 -99.5q0 -103 -85 -460t-108 -490q16 -4 25 -4q93 283 166 444.5t132 225t124 63.5q182 0 182 -338q0 -106 -36 -230.5t-95.5 -232t-146 -179.5t-177.5 -72z" />
    <glyph glyph-name="c" unicode="c" horiz-adv-x="808" 
d="M596 764q-93 0 -182 -27.5t-158 -75.5t-111.5 -119t-42.5 -151q0 -69 55.5 -104t153.5 -35q139 0 256.5 57.5t161.5 151.5l29 -19q-29 -95 -69.5 -176t-94 -146t-122 -102.5t-144.5 -37.5q-131 0 -209 112.5t-78 325.5q0 117 39 227t109 196t176 138t231 51
q68 0 139 -13.5t115 -31.5q-87 -333 -105 -403l-38 4q14 94 -6.5 136t-104.5 42z" />
    <glyph glyph-name="d" unicode="d" horiz-adv-x="974" 
d="M705 -23q-51 0 -86 58.5t-35 138.5q0 20 5 48t17 66t22.5 70t29 81t30 78t32.5 81.5t28 71.5l-21 6q-201 -375 -319 -537t-199 -162q-69 0 -117.5 101.5t-48.5 281.5q0 98 29 189.5t92 175t154.5 146t226 100.5t297.5 41q20 88 20 135q0 65 -86 65q-85 0 -190 -55l-11 31
q142 205 256 205q44 0 73.5 -33t29.5 -88q0 -123 -47 -285q-150 -499 -150 -641q0 -48 22.5 -74t55.5 -26q30 0 54.5 33.5t72.5 138.5l29 -15q-50 -165 -93 -258.5t-83 -130.5t-90 -37zM236 270q142 0 259 117.5t240 370.5q-135 -22 -246 -58t-182.5 -77t-120 -88
t-69.5 -90.5t-21 -84.5q0 -42 40 -66t100 -24z" />
    <glyph glyph-name="e" unicode="e" horiz-adv-x="833" 
d="M516 778q-131 0 -245.5 -83.5t-157.5 -196.5q530 114 530 204q0 30 -31.5 53t-95.5 23zM326 -23q-132 0 -210.5 114.5t-78.5 338.5q0 119 47 232.5t119.5 194t162 129t173.5 48.5q63 0 117.5 -23.5t89 -61.5t54 -82.5t19.5 -88.5q0 -116 -162 -181.5t-553 -123.5
q-12 -40 -12 -76q0 -47 38.5 -80t88.5 -46t105 -13q129 0 269 62t187 155l29 -18q-80 -212 -209.5 -346t-273.5 -134z" />
    <glyph glyph-name="f" unicode="f" horiz-adv-x="571" 
d="M666 1182q-71 18 -154 18t-129.5 -39t-65.5 -147h330l-55 -273q-172 11 -313 11q5 -125 35 -428.5t26 -417.5q-4 -128 -61 -199.5t-150 -71.5q-103 0 -156 79.5t-57 256.5l29 6q13 -78 27.5 -105.5t39.5 -27.5q21 0 34 20.5t24 65.5q15 62 38.5 192t57 321t55.5 309
q-117 0 -168 -2v38q164 60 217 213q1 6 4.5 18.5t4.5 18.5q42 193 117 277t192 84q33 0 96 -13z" />
    <glyph glyph-name="g" unicode="g" horiz-adv-x="921" 
d="M92 -358q-81 0 -180 16l31 256q92 -21 238.5 -37t246.5 -16q99 0 132.5 37t55.5 159q43 306 154 623l-22 6q-365 -674 -537 -674q-70 0 -119 94t-49 263q0 101 32 195.5t101.5 180t170 149t246.5 100.5t322 36q-34 -356 -129 -760q-75 -316 -254 -472t-440 -156zM236 279
q40 0 92.5 22.5t121 73t151 150t159.5 235.5q-170 -26 -302.5 -72.5t-208 -101t-113.5 -109.5t-38 -106q0 -42 39 -67t99 -25z" />
    <glyph glyph-name="h" unicode="h" horiz-adv-x="1009" 
d="M383 1133q0 29 -24.5 45t-65.5 16q-78 0 -168 -55l-21 24q140 230 240 230q43 0 74 -38.5t31 -99.5q0 -110 -26 -264t-71.5 -362.5t-64.5 -317.5l20 -6q76 263 152.5 428.5t145 233t140.5 67.5t120 -60.5t48 -137.5q0 -59 -68.5 -245t-68.5 -241q0 -41 19 -61.5t47 -20.5
q36 0 65 31.5t70 122.5l29 -12q-73 -244 -141 -338.5t-158 -94.5q-70 0 -120 60.5t-50 134.5q0 50 28 111t68.5 116t81 106.5t68.5 98t28 76.5q0 28 -28 45.5t-81 17.5q-48 0 -90 -19t-88.5 -68.5t-91 -132t-94.5 -214t-102 -309.5h-295q20 99 94 278.5t150 338t137 309.5
t61 207z" />
    <glyph glyph-name="i" unicode="i" horiz-adv-x="524" 
d="M408 1135q-59 0 -92 33.5t-33 99.5q0 83 47.5 124.5t132.5 41.5q59 0 92 -31.5t33 -93.5q0 -87 -47 -130.5t-133 -43.5zM313 686q0 29 -24 46.5t-70 17.5q-56 0 -95.5 -30t-76.5 -118l-31 12q74 225 132.5 322.5t132.5 97.5q51 0 91 -55t40 -133q0 -64 -63.5 -248
t-63.5 -238q0 -81 67 -81q34 0 61 31.5t68 119.5l29 -14q-50 -167 -98 -265t-94 -136t-101 -38q-71 0 -121.5 58t-50.5 131q0 53 27.5 116t66.5 119.5t78.5 109.5t67 99.5t28.5 75.5z" />
    <glyph glyph-name="j" unicode="j" horiz-adv-x="475" 
d="M354 1135q-57 0 -90 34t-33 99q0 83 47.5 124.5t131.5 41.5q59 0 93 -32t34 -93q0 -87 -48.5 -130.5t-134.5 -43.5zM-162 -309q70 -1 107.5 30.5t67 132.5t59.5 316q14 72 56 157.5t84.5 146.5t76 121t33.5 91q0 29 -24.5 46.5t-70.5 17.5q-57 0 -96 -29.5t-76 -118.5
l-30 12q74 225 131 322.5t125 97.5q106 0 106 -317q0 -354 -100 -707q-20 -68 -60.5 -133.5t-97 -119t-132.5 -86.5t-159 -33v53z" />
    <glyph glyph-name="k" unicode="k" horiz-adv-x="993" 
d="M678 -23q-34 0 -65.5 24t-56.5 63t-51.5 104t-47 130t-47.5 159q220 31 344.5 101.5t126.5 133.5q0 32 -34.5 52t-103.5 20q-59 0 -111.5 -21.5t-107 -75.5t-103.5 -139.5t-98 -218.5t-94 -309h-288q47 142 157.5 406t187 462t76.5 267q0 26 -24 42.5t-62 16.5
q-80 0 -170 -55l-22 24q144 230 244 230q42 0 72 -35.5t30 -87.5q0 -61 -8.5 -143.5t-29 -200t-34 -192t-43.5 -226.5t-39 -197l21 -6q52 197 112.5 341.5t123.5 227.5t125 121.5t126 38.5q89 0 143 -59t54 -139q0 -34 -17.5 -85t-52.5 -108t-80.5 -106.5t-109 -82
t-131.5 -32.5q-75 0 -156 22q209 -180 328 -180q39 0 80.5 38t93.5 144l35 -10q-47 -174 -97 -278t-96 -142.5t-100 -38.5zM240 63q1 7 4 21.5t4 21.5q-1 -7 -4 -21.5t-4 -21.5z" />
    <glyph glyph-name="l" unicode="l" horiz-adv-x="497" 
d="M360 1135q0 26 -23 42.5t-61 16.5q-76 0 -167 -59l-23 28q140 230 242 230q43 0 73.5 -38.5t30.5 -99.5q-1 -86 -42 -269.5t-81.5 -359t-40.5 -243.5q0 -104 72 -104q34 0 61 30t64 113l29 -12q-70 -241 -138.5 -337t-152.5 -96q-74 0 -125 62.5t-51 150.5q0 78 52 222
t114.5 276.5t114.5 263t52 183.5z" />
    <glyph glyph-name="m" unicode="m" horiz-adv-x="1564" 
d="M1366 680q0 28 -28 45.5t-81 17.5q-59 0 -110.5 -31.5t-109 -111t-118 -229t-124.5 -371.5h-285q23 88 68.5 181.5t93 166.5t91.5 138t72.5 115.5t28.5 78.5t-27.5 45.5t-80.5 17.5q-60 0 -112.5 -31.5t-110.5 -111t-119 -229t-125 -371.5h-297q28 82 89 195t117 201
t99 168.5t43 111.5q0 32 -29.5 53t-85.5 21q-62 0 -102.5 -29.5t-77.5 -118.5l-31 12q73 224 132 322t130 98q57 0 93.5 -82.5t36.5 -242.5q0 -74 -66 -398l16 -4q125 390 226 558.5t200 168.5q73 0 112.5 -83.5t39.5 -200.5q0 -78 -86 -439l14 -4q124 393 226.5 560
t211.5 167q72 0 121 -60.5t49 -137.5q0 -69 -69.5 -251t-69.5 -235q0 -41 19 -61.5t47 -20.5q37 0 67 32.5t72 127.5l27 -12q-72 -246 -141 -342.5t-158 -96.5q-71 0 -121.5 60t-50.5 135q0 50 28 111t68.5 116t81 106.5t68.5 98t28 76.5z" />
    <glyph glyph-name="n" unicode="n" horiz-adv-x="1062" 
d="M762 -23q-70 0 -120 60.5t-50 134.5q0 50 28 111t68.5 116t81 106.5t68.5 98t28 76.5q0 28 -27.5 45.5t-80.5 17.5q-48 0 -90 -18.5t-89 -68t-92 -132t-95.5 -214.5t-102.5 -310h-297q28 82 89 195t117 201t99 168.5t43 111.5q0 32 -29.5 53t-85.5 21q-62 0 -102.5 -30
t-77.5 -120l-31 14q73 224 132 322t130 98q57 0 93.5 -82.5t36.5 -242.5q0 -74 -66 -398l16 -4q125 392 229.5 558.5t215.5 166.5q71 0 119.5 -60t48.5 -136q0 -59 -69 -245t-69 -241q0 -41 19 -61.5t47 -20.5q37 0 67 32.5t72 127.5l27 -12q-72 -246 -141.5 -342.5
t-159.5 -96.5z" />
    <glyph glyph-name="o" unicode="o" horiz-adv-x="876" 
d="M322 256q102 0 192 33t150.5 86.5t95.5 121t35 136.5q0 121 -234 121q-97 0 -185.5 -32.5t-149 -84.5t-96.5 -118t-36 -132q0 -65 59.5 -98t168.5 -33zM549 1034q133 0 217 -114.5t84 -323.5q0 -152 -67.5 -293.5t-186.5 -232t-256 -90.5q-132 0 -216.5 115.5
t-84.5 326.5q0 112 40.5 223t108 197t163 139t198.5 53z" />
    <glyph glyph-name="p" unicode="p" horiz-adv-x="976" 
d="M489 258q72 0 135.5 27.5t107 71t75 98.5t46.5 110t15 105q0 73 -106 73q-44 0 -90.5 -24.5t-96.5 -77t-100.5 -146.5t-93.5 -221q59 -16 108 -16zM549 -18q-117 0 -189 231q-69 -223 -112 -555h-342q44 133 123 308t145.5 304t117 245t50.5 161q0 33 -30 53.5t-87 20.5
q-62 0 -102.5 -29.5t-77.5 -118.5l-31 12q73 224 132 322t130 98q58 0 95 -83t37 -242q0 -77 -60 -365l19 -4q119 370 220.5 532t205.5 162q68 0 105.5 -90.5t37.5 -216.5q0 -110 -30.5 -240t-81 -242.5t-124 -187.5t-151.5 -75z" />
    <glyph glyph-name="q" unicode="q" horiz-adv-x="886" 
d="M406 -342q19 84 43.5 170.5t54 175t53 156.5t58.5 157.5t52.5 132.5t52 127.5t40.5 98.5l-21 6q-199 -374 -322.5 -539.5t-207.5 -165.5q-69 0 -118.5 101.5t-49.5 279.5q0 103 31 199t98.5 183t165.5 151.5t242 102t317 36.5q-28 -114 -47.5 -204.5t-51.5 -272
t-52.5 -411t-26.5 -484.5h-311zM236 268q39 0 90.5 23t119 75t149 153.5t161.5 240.5q-173 -26 -305.5 -74t-207 -104.5t-111 -112.5t-36.5 -109q0 -42 40 -67t100 -25z" />
    <glyph glyph-name="r" unicode="r" horiz-adv-x="759" 
d="M803 1030l-37 -350q-176 21 -260 -111.5t-199 -568.5h-315q28 82 89 195t117 200.5t99 167.5t43 111q0 34 -29.5 55t-85.5 21q-62 0 -102.5 -29.5t-77.5 -118.5l-31 12q73 224 132 322t130 98q56 0 90.5 -82.5t34.5 -242.5q0 -45 -13 -124.5t-38 -206t-35 -183.5l15 -7
q89 334 164 517.5t145.5 254t163.5 70.5z" />
    <glyph glyph-name="s" unicode="s" horiz-adv-x="798" 
d="M555 1034q76 0 150.5 -13t117.5 -30q-43 -142 -86 -381h-39q18 111 -29 147t-192 36q-146 0 -222.5 -34.5t-76.5 -82.5q0 -31 42 -51.5t104.5 -29.5t136 -22.5t136 -30t104.5 -54t42 -91.5q0 -56 -41.5 -129t-106.5 -137.5t-154 -109t-173 -44.5q-162 0 -286 115
q48 156 81 371h39q-6 -71 10.5 -123t48 -83t82.5 -49.5t105.5 -25t126.5 -6.5q143 0 143 92q0 33 -37 65.5t-92 57.5t-119.5 56.5t-119.5 62.5t-92 75.5t-37 94.5q0 66 29 129t82 113.5t137 81t186 30.5z" />
    <glyph glyph-name="t" unicode="t" horiz-adv-x="616" 
d="M39 791q110 67 196.5 177.5t159.5 286.5l35 -2q-26 -117 -57 -239h295l-54 -273q-122 7 -303 11q-59 -274 -57 -369q3 -102 92 -102q115 0 201 180l26 -15q-34 -126 -77 -220t-88 -146.5t-88.5 -77.5t-86.5 -25q-81 0 -134.5 53t-53.5 150q0 229 217 572h-223v39z" />
    <glyph glyph-name="u" unicode="u" horiz-adv-x="1036" 
d="M381 279q91 0 158.5 60t105.5 164t53.5 235t8.5 282l251 -12q-55 -157 -102 -347.5t-47 -293.5q0 -99 78 -99q31 0 62 33t69 123l29 -12q-76 -249 -135 -342t-138 -93q-49 0 -88 54t-39 133q0 121 178 545l-18 6q-76 -139 -122.5 -222.5t-103 -179.5t-94.5 -148.5
t-80 -100.5t-77.5 -67.5t-69.5 -19.5q-99 0 -157 57.5t-58 133.5q0 52 28 113t67.5 116t79.5 107t68 99.5t29 78.5q0 31 -25 49.5t-73 18.5q-57 0 -95.5 -29.5t-78.5 -120.5l-31 14q74 225 132.5 322.5t132.5 97.5q51 0 91 -56t40 -132q0 -68 -32.5 -170t-65 -193
t-33.5 -131q0 -73 102 -73z" />
    <glyph glyph-name="v" unicode="v" horiz-adv-x="866" 
d="M612 1026q212 -14 308 -14q-50 -235 -148 -475t-212 -400t-200 -160q-108 0 -196 81t-88 182q0 44 26.5 95.5t64 97.5t75 89t64 84t26.5 70q0 33 -24 53.5t-72 20.5q-65 0 -105 -27.5t-84 -120.5l-29 12q77 229 135 324.5t117 95.5q55 0 95.5 -78.5t40.5 -189.5
q0 -75 -51.5 -229t-51.5 -207q0 -60 37 -89.5t100 -29.5q85 0 143 74.5t79 193.5q31 191 -50 547z" />
    <glyph glyph-name="w" unicode="w" horiz-adv-x="1318" 
d="M1358 1012q-56 -247 -144 -481.5t-190 -392.5t-182 -158q-60 0 -110.5 93.5t-78.5 250.5q-84 -152 -169.5 -249.5t-151.5 -97.5q-100 0 -186.5 84t-86.5 185q0 44 30.5 94.5t73.5 96t86.5 88.5t74 84t30.5 71t-28.5 50t-83.5 20q-71 0 -113 -31.5t-68 -124.5l-30 12
q58 227 118 327.5t127 100.5q61 0 106.5 -77.5t45.5 -188.5q0 -60 -35 -143t-69.5 -160.5t-34.5 -122.5q0 -61 37.5 -96t99.5 -35q55 1 113.5 50.5t103.5 123.5q-45 304 10 637q110 -8 246 -8q-26 -166 -76.5 -315t-134.5 -308q36 -90 89.5 -138t117.5 -44q88 0 140.5 64
t66.5 169q33 194 -51 586q157 -13 307 -16z" />
    <glyph glyph-name="x" unicode="x" horiz-adv-x="917" 
d="M604 -20q-22 0 -40.5 9t-32.5 30t-24.5 44.5t-18.5 63t-13 74.5t-9.5 89t-7 97t-5.5 109q-194 -372 -265 -516q-143 161 -192 239q87 66 253 180t185 127q-10 111 -48.5 167.5t-123.5 56.5q-74 0 -114.5 -29t-86.5 -119l-28 12q81 230 142 325t138 95q74 0 116 -123.5
t60 -357.5q94 168 252 481q138 -88 209 -178q-229 -176 -442 -338q13 -117 54 -177t124 -60q60 0 100 30.5t80 116.5l31 -12q-80 -248 -142.5 -342t-150.5 -94z" />
    <glyph glyph-name="y" unicode="y" horiz-adv-x="876" 
d="M92 -362q-99 0 -211 34l51 258q48 -16 118.5 -28.5t127.5 -12.5q88 0 167 34.5t120 111.5l-291 86q6 71 36 157t61.5 150t54.5 132t18 110q-3 38 -34 58t-83 20q-63 0 -104 -27t-84 -109l-31 13q86 230 140 319.5t110 89.5q98 0 152 -334q41 -224 63 -591l29 -3
q171 398 137 918q183 -3 307 -20q-114 -278 -315 -728q-149 -333 -273 -485.5t-266 -152.5z" />
    <glyph glyph-name="z" unicode="z" horiz-adv-x="942" 
d="M422 530q90 68 182 160l-10 15q-43 -33 -92 -33q-31 0 -116.5 23.5t-121.5 23.5q-70 0 -97.5 -29t-45.5 -127l-41 6q43 250 94 359.5t127 109.5q43 0 80.5 -32t63 -78t47.5 -92.5t45 -78.5t45 -32q42 0 83.5 60.5t133.5 235.5q5 10 8 15q96 -83 174 -176
q-299 -159 -492 -340q-104 -91 -188 -178l10 -14q43 28 97 28q35 0 128.5 -27.5t133.5 -27.5q34 0 56.5 4.5t49 20t49 50t41.5 89.5l37 -8q-32 -140 -65 -236.5t-66.5 -148.5t-65 -73.5t-67.5 -21.5q-50 0 -90.5 34t-66 82t-47 96t-45 82t-50.5 34q-43 0 -86.5 -75
t-108.5 -244q-109 98 -153 276q54 42 214.5 135t215.5 133z" />
    <glyph glyph-name="braceleft" unicode="{" horiz-adv-x="632" 
d="M446 -309l-12 -45q-271 21 -373 57.5t-102 108.5q0 46 34 111t82 130.5t96 132t82 133t34 115.5q0 60 -52 82.5t-180 24.5l15 47q172 3 242.5 62.5t70.5 164.5q0 76 -36 200.5t-36 168.5q0 72 50.5 123t173.5 87.5t325 53.5l-6 -43q-92 -18 -143 -43.5t-69 -55t-26 -79.5
q-7 -43 -4 -186t-12 -216q-10 -61 -41.5 -105.5t-83.5 -73t-113.5 -44.5t-140.5 -24l-8 -27q141 -12 213 -41t72 -92q0 -56 -36 -144t-79 -164.5t-79 -162t-36 -137.5t38.5 -79t139.5 -40z" />
    <glyph glyph-name="bar" unicode="|" horiz-adv-x="497" 
d="M166 -342h-246q114 404 244 928q126 506 201 854h239q-108 -402 -203 -783q-109 -428 -235 -999z" />
    <glyph glyph-name="braceright" unicode="}" horiz-adv-x="632" 
d="M227 1403l13 45q184 -15 286.5 -35.5t145.5 -51.5t43 -79q0 -46 -34 -110t-82 -128t-96 -129t-82 -130.5t-34 -114.5q0 -60 52.5 -82.5t178.5 -22.5l-12 -49q-172 -3 -243.5 -63t-71.5 -164q0 -76 34.5 -205.5t34.5 -173.5q0 -73 -49.5 -124t-172 -87t-324.5 -53l6 43
q92 18 142.5 44t67.5 55t25 79q8 46 7 190.5t12 221.5q11 61 42.5 106t83 73t112.5 44t141 24l6 27q-138 12 -210.5 41.5t-72.5 91.5q0 56 36 142.5t79 161.5t79 158.5t36 135.5t-39.5 79t-139.5 40z" />
    <glyph glyph-name="asciitilde" unicode="~" horiz-adv-x="970" 
d="M375 907q47 0 89.5 -15.5t72.5 -39t63 -51t61 -51t64.5 -39t75.5 -15.5q59 0 99.5 46t76.5 149h41q-25 -77 -46.5 -134t-54.5 -122t-66 -106.5t-78 -69t-95 -27.5q-54 0 -102.5 24.5t-85 59.5t-71.5 70t-76.5 59.5t-84.5 24.5q-58 0 -99.5 -52t-82.5 -169h-41
q24 74 46 133t54.5 122.5t66.5 105.5t79 69.5t94 27.5z" />
    <glyph glyph-name="uni00A0" unicode="&#xa0;" horiz-adv-x="372" 
 />
    <glyph glyph-name="exclamdown" unicode="&#xa1;" horiz-adv-x="546" 
d="M-88 -209q232 439 360 754l45 -2q-20 -209 -23.5 -441t1.5 -317zM385 1034q77 0 120.5 -42t43.5 -118q0 -99 -59 -148.5t-158 -49.5q-79 0 -122.5 40t-43.5 118q0 96 60.5 148t158.5 52z" />
    <glyph glyph-name="cent" unicode="&#xa2;" horiz-adv-x="808" 
d="M289 -244h-56q8 28 29.5 105.5t32.5 120.5q-117 14 -185.5 126t-68.5 310q0 113 36 219t100.5 190.5t163 139t214.5 61.5q8 37 24.5 110.5t24.5 110.5h51q-4 -13 -26.5 -94t-34.5 -125h2q68 0 139 -13.5t115 -31.5q-87 -333 -105 -403l-38 4q14 94 -6.5 136t-104.5 42
q-24 0 -74 -4q-7 -27 -20.5 -81.5t-20.5 -82.5q-70 -295 -80 -338q113 18 202.5 71.5t125.5 131.5l29 -19q-29 -94 -69.5 -175.5t-93 -146.5t-119 -102.5t-138.5 -37.5q-9 -43 -26 -120.5t-23 -103.5zM311 252q38 0 56 2l69 276q9 38 28 113t28 113q-164 -29 -277 -128.5
t-113 -236.5q0 -69 55.5 -104t153.5 -35z" />
    <glyph glyph-name="sterling" unicode="&#xa3;" horiz-adv-x="1198" 
d="M164 49q134 0 225 344q-16 4 -24 4q-48 0 -107 -46t-101 -116t-42 -133q0 -53 49 -53zM881 -23q-48 0 -86.5 34t-62 78t-60 111t-70.5 109q-12 -58 -35.5 -112.5t-61 -105t-94.5 -81t-126 -30.5q-121 0 -210 77.5t-89 180.5q0 91 67.5 156t163.5 65t180 -37q25 99 41 196
q-156 0 -215 -2l8 43q55 -2 213 -2q29 160 83.5 274.5t130 181.5t163.5 97.5t195 30.5q79 0 186 -22q-43 -184 -90 -476h-39v101q0 83 -54.5 117t-187.5 34q-153 0 -220 -49.5t-81 -171.5q-3 -45 15 -117h2q356 0 450 2l-8 -43q-96 2 -434 2q1 -5 9 -32t10 -34.5t9 -32
t9 -35.5t6.5 -32t6 -35.5t2.5 -33t1 -35.5q15 -6 54.5 -22t55.5 -21.5t45.5 -15t53.5 -12.5t51 -3q60 0 97 17.5t68 70t57 152.5h40q-36 -212 -70 -326.5t-75.5 -162.5t-103.5 -48z" />
    <glyph glyph-name="yen" unicode="&#xa5;" horiz-adv-x="1308" 
d="M881 45l-11 -45h-694l10 45l113 21q47 9 69.5 29.5t44.5 78t56 193.5q-44 -1 -177.5 -2.5t-174.5 -2.5l8 39q38 -1 167 -2t185 -2q22 83 31 123q-212 0 -352 -4l8 39q132 -4 336 -4q-17 39 -48.5 113t-45.5 104q-96 221 -138.5 302t-81.5 101l-22 13l12 45h596l-10 -45
l-72 -6q-52 -6 -76 -20t-24 -42q0 -51 68 -228t130 -315q125 159 216.5 310.5t91.5 210.5q0 35 -24.5 53t-80.5 27l-86 10l10 45h560l-9 -45l-24 -6q-47 -13 -176.5 -143t-454.5 -484q217 0 365 4l-11 -39q-152 4 -374 4q-23 -87 -31 -123q59 1 198 2t179 2l-9 -39
q-43 1 -184.5 2.5t-189.5 2.5q-25 -108 -35 -165t-4 -87.5t18.5 -38t44.5 -13.5z" />
    <glyph glyph-name="brokenbar" unicode="&#xa6;" horiz-adv-x="497" 
d="M401 653h-219q109 438 187 787h237q-53 -191 -205 -787zM168 -342h-244q99 356 211 809h219q-88 -364 -186 -809z" />
    <glyph glyph-name="section" unicode="&#xa7;" horiz-adv-x="1110" 
d="M786 1247q94 0 191 -14.5t153 -34.5q-38 -147 -92 -434l-47 2q7 39 4.5 69.5t-7 54t-21 40t-37.5 27.5t-55.5 18t-76 9.5t-98.5 2.5q-182 0 -277 -49t-95 -117q0 -27 42.5 -44t110.5 -26.5t150 -18.5t164 -23.5t150 -36.5t110.5 -64t42.5 -100q0 -71 -58.5 -151
t-158.5 -140q34 -43 34 -102q0 -68 -47.5 -151.5t-122 -155t-177 -120t-201.5 -48.5q-118 0 -212.5 39t-154.5 92q65 213 98 397h47q-8 -80 13.5 -140.5t61 -96.5t99.5 -58.5t120.5 -30.5t131.5 -8q211 0 211 137q0 40 -55.5 78.5t-139 69t-181 69t-181 76.5t-139 94
t-55.5 119q0 150 256 297q-21 34 -21 74q0 74 34.5 144.5t98 128t164.5 92t223 34.5zM186 584q0 -50 52 -87.5t135 -64t171 -50.5t176.5 -60t135.5 -80q46 43 67 72.5t21 64.5q0 46 -52 85t-133.5 69.5t-167.5 60t-167.5 70.5t-120.5 88q-61 -54 -89 -92.5t-28 -75.5z" />
    <glyph glyph-name="dieresis" unicode="&#xa8;" horiz-adv-x="688" 
d="M387 1417q55 0 84 -28t29 -80q0 -64 -46 -107t-108 -43q-55 0 -84 28t-29 79q0 64 46 107.5t108 43.5zM725 1417q55 0 84 -28t29 -80q0 -64 -46 -107t-108 -43q-55 0 -84 28t-29 79q0 64 46 107.5t108 43.5z" />
    <glyph glyph-name="copyright" unicode="&#xa9;" horiz-adv-x="1609" 
d="M1518 743q0 94 -22 179t-68.5 159t-113.5 128.5t-163 86t-211 31.5q-170 -1 -322.5 -68t-260.5 -179.5t-171 -266t-63 -321.5q0 -121 34.5 -225.5t101.5 -186t176.5 -128t250.5 -46.5q174 0 329 67t265 180t174 267t64 323zM946 1372q153 1 274 -50.5t195.5 -140
t113 -199.5t38.5 -237q0 -174 -67.5 -335.5t-183 -282.5t-281.5 -193.5t-353 -72.5q-121 0 -222 33t-172 90.5t-120 137t-72.5 171.5t-23.5 194q0 174 66.5 335.5t181.5 282.5t278.5 193.5t347.5 73.5zM1077 473l43 96h37q-11 -57 -31.5 -160t-29.5 -149
q-161 -141 -373 -141q-182 0 -272.5 102.5t-90.5 288.5q0 118 40.5 226t115.5 193.5t193.5 137t263.5 51.5q185 0 305 -71q-17 -61 -48 -182t-48 -183h-37l2 88q-2 68 -38.5 99.5t-139.5 31.5q-119 0 -220 -32t-168 -85t-105 -121t-40 -141q-7 -82 71 -122t238 -40
q159 0 233 26.5t99 86.5z" />
    <glyph glyph-name="ordfeminine" unicode="&#xaa;" horiz-adv-x="790" 
d="M616 662q-35 0 -59.5 40.5t-24.5 96.5q0 12 2 27t7.5 35t10.5 37t14.5 43.5t15 42.5t17.5 46.5t17 43.5t17.5 44.5t15.5 38.5l-12 4q-144 -269 -227 -384t-140 -115q-48 0 -82 69t-34 193q0 92 35.5 174.5t105.5 150.5t189 107.5t272 38.5q-40 -109 -78.5 -260
t-38.5 -217q0 -70 49 -70q23 0 40.5 24t51.5 101l23 -19q-51 -167 -92.5 -229.5t-94.5 -62.5zM287 862q27 0 62.5 16.5t81 53t101.5 109t111 171.5q-116 -18 -206 -52t-141.5 -74.5t-77 -81t-25.5 -78.5q0 -30 26 -47t68 -17z" />
    <glyph glyph-name="guillemotleft" unicode="&#xab;" horiz-adv-x="1034" 
d="M647 954l37 -24q-68 -113 -144.5 -212t-189.5 -229q82 -218 117 -421l-45 -23q-143 240 -377 436l10 37q354 212 592 436zM1063 954l37 -24q-68 -113 -144.5 -212t-189.5 -229q82 -218 117 -421l-45 -23q-143 240 -377 436l10 37q354 212 592 436z" />
    <glyph glyph-name="registered" unicode="&#xae;" horiz-adv-x="1605" 
d="M831 680q85 0 145 73.5t60 159.5q0 62 -43.5 96.5t-115.5 34.5q-16 0 -48 -4q-33 -78 -102 -356q33 -4 104 -4zM260 158l6 32l70 15q20 3 31 12t29 54.5t36.5 114.5t56.5 220q75 303 81.5 364.5t-33.5 67.5l-56 9l8 34h482q163 0 226 -47t63 -133q0 -114 -80.5 -202
t-194.5 -97q57 -174 99 -261t81 -118q19 -17 56 -33l-9 -32h-309q-50 120 -92 465q-60 19 -90 36l-6 -26q-38 -154 -55.5 -232.5t-19.5 -123t6 -54.5t32 -14l110 -16l-8 -35h-520zM686 -94q174 0 329 67t265 180t174 267t64 323q0 94 -22 179t-68.5 159t-113.5 128.5
t-163 86t-211 31.5q-170 -1 -322.5 -68t-260.5 -179.5t-171 -266t-63 -321.5q0 -121 34.5 -225.5t101.5 -186t176.5 -128t250.5 -46.5zM946 1372q153 1 274 -50.5t195.5 -140t113 -199.5t38.5 -237q0 -174 -67.5 -335.5t-183 -282.5t-281.5 -193.5t-353 -72.5
q-121 0 -222 33t-172 90.5t-120 137t-72.5 171.5t-23.5 194q0 174 66.5 335.5t181.5 282.5t278.5 193.5t347.5 73.5z" />
    <glyph glyph-name="macron" unicode="&#xaf;" horiz-adv-x="657" 
d="M498 1180q-44 0 -141.5 -1t-141.5 -1l29 114q164 -4 280 -4q111 0 279 4l-29 -114q-43 0 -138.5 1t-137.5 1z" />
    <glyph glyph-name="degree" unicode="&#xb0;" horiz-adv-x="550" 
d="M365 825q83 0 144 54.5t62 146.5q2 69 -36.5 108.5t-112.5 39.5q-83 0 -143.5 -54t-61.5 -149q-2 -67 36 -107t112 -39zM434 1245q102 0 159.5 -57t55.5 -150q-1 -129 -85 -205.5t-206 -76.5q-104 0 -162.5 55.5t-56.5 149.5q1 128 86.5 206t208.5 78z" />
    <glyph glyph-name="twosuperior" unicode="&#xb2;" horiz-adv-x="727" 
d="M696 657h-663l4 27q269 155 324 190q168 108 206 189q15 31 15 63q0 43 -28.5 65.5t-96.5 22.5q-81 0 -143.5 -45t-112.5 -151l-25 10q56 177 148.5 266.5t253.5 89.5q243 0 243 -163q0 -43 -19.5 -83.5t-58 -76t-82.5 -66t-108.5 -62t-119 -54.5t-128.5 -52h285
q75 0 98.5 14.5t50.5 71.5l31 64h25q-48 -137 -99 -320z" />
    <glyph glyph-name="threesuperior" unicode="&#xb3;" horiz-adv-x="638" 
d="M711 915q0 -36 -17 -68.5t-63 -66.5t-117.5 -60.5t-189.5 -47.5t-271 -31l6 31q113 15 198.5 43t131.5 62t67.5 67.5t20.5 66.5q0 76 -88 76q-54 0 -113 -16l5 30q136 26 189.5 64t53.5 92q0 40 -26 59t-88 19q-73 0 -121.5 -34t-75.5 -109h-25q35 144 121.5 217
t237.5 73q211 0 211 -133q0 -84 -83.5 -137.5t-244.5 -89.5l2 -10q52 10 105 10q174 0 174 -107z" />
    <glyph glyph-name="acute" unicode="&#xb4;" horiz-adv-x="604" 
d="M760 1436l-2 -15q-264 -178 -512 -317l-27 4q195 241 283 385q7 -2 107 -22t151 -35z" />
    <glyph glyph-name="paragraph" unicode="&#xb6;" horiz-adv-x="1204" 
d="M1094 735q-38 -149 -72 -299t-41 -178q-37 -149 -161.5 -284t-301.5 -223t-364 -105l18 106q63 -1 100.5 -0.5t82 7.5t68 13t55 28.5t47 41.5t40 63.5t38 83.5t36 113t39.5 140t45 176q-141 -53 -260 -53q-169 0 -254 91.5t-82 233.5q3 236 157.5 387.5t383.5 151.5h704
l-10 -45l-80 -15q-62 -10 -86 -67t-99 -356q-2 -7 -3 -11z" />
    <glyph glyph-name="periodcentered" unicode="&#xb7;" horiz-adv-x="501" 
d="M252 399q-77 0 -120.5 42t-43.5 118q0 99 59.5 149t157.5 50q79 0 122.5 -40t43.5 -118q0 -97 -61 -149t-158 -52z" />
    <glyph glyph-name="cedilla" unicode="&#xb8;" horiz-adv-x="561" 
d="M-160 -305l4 31q157 15 219 36.5t70 61.5q4 25 -11 36t-52 11q-36 0 -86 -6l110 170h15l-76 -141q80 22 170 22q80 0 117 -19.5t30 -60.5q-12 -69 -145 -105t-365 -36z" />
    <glyph glyph-name="onesuperior" unicode="&#xb9;" horiz-adv-x="464" 
d="M541 1391l24 -2q-32 -94 -98 -363q-68 -270 -68 -308q1 -22 16 -25q2 -1 3 -1l59 -8l-6 -27h-418l6 27l78 10q19 3 31 20.5t31.5 81t54.5 208.5q46 184 46.5 221t-38.5 39l-55 2l4 22q103 12 178 33.5t152 69.5z" />
    <glyph glyph-name="ordmasculine" unicode="&#xba;" horiz-adv-x="706" 
d="M371 848q145 0 240.5 81t95.5 183q0 88 -164 88q-138 0 -234 -80.5t-96 -179.5q0 -92 158 -92zM535 1391q96 0 155.5 -79t59.5 -225q0 -106 -48.5 -204.5t-134.5 -161t-184 -62.5q-94 0 -153.5 80t-59.5 226q0 105 48 203t133.5 160.5t183.5 62.5z" />
    <glyph glyph-name="guillemotright" unicode="&#xbb;" horiz-adv-x="1034" 
d="M406 43l-37 25q68 113 144 212t189 228q-80 212 -116 422l45 22q143 -240 377 -436l-11 -37q-351 -210 -591 -436zM-10 43l-37 25q67 113 143.5 211t190.5 229q-81 217 -117 422l45 22q143 -240 377 -436l-10 -37q-354 -212 -592 -436z" />
    <glyph glyph-name="onequarter" unicode="&#xbc;" horiz-adv-x="1181" 
d="M541 1391l24 -2q-32 -94 -98 -363q-68 -270 -68 -308q1 -22 16 -25q2 -1 3 -1l59 -8l-6 -27h-418l6 27l78 10q19 3 31 20.5t31.5 81t54.5 208.5q46 184 46.5 221t-38.5 39l-55 2l4 22q103 12 178 33.5t152 69.5zM561 612q-275 -275 -590 -612h-100l4 16q51 47 200 181.5
t255 232.5t202 193q90 90 185.5 190.5t214.5 229t174 186.5h100l-4 -15q-69 -66 -295.5 -275t-345.5 -327zM471 -150l6 27l119 14q24 3 39 32t43 138q-260 0 -346 -2v25q13 10 281 213.5t384 300.5l27 -2q-2 -8 -12.5 -44.5t-34.5 -126.5t-55 -212q-7 -34 -25 -98
q51 1 70.5 10t33.5 35l39 90h21q-43 -134 -76 -305h-18l2 69q0 29 -13.5 37.5t-70.5 9.5q-19 -78 -24 -112.5t-1.5 -45t17.5 -14.5l63 -12l-6 -27h-463zM711 186q12 49 29.5 115.5t19.5 73.5l-10 4q-32 -25 -150 -115t-180 -139l4 -10q28 1 68.5 1t100.5 -0.5t99 -0.5
q1 5 8 30t11 41z" />
    <glyph glyph-name="onehalf" unicode="&#xbd;" horiz-adv-x="1239" 
d="M541 1391l24 -2q-32 -94 -98 -363q-68 -270 -68 -308q1 -22 16 -25q2 -1 3 -1l59 -8l-6 -27h-418l6 27l78 10q19 3 31 20.5t31.5 81t54.5 208.5q46 184 46.5 221t-38.5 39l-55 2l4 22q103 12 178 33.5t152 69.5zM561 612q-275 -275 -590 -612h-100l4 16q51 47 200 181.5
t255 232.5t202 193q90 90 185.5 190.5t214.5 229t174 186.5h100l-4 -15q-69 -66 -295.5 -275t-345.5 -327zM989 -150h-663l4 27q269 155 327 192q165 107 203 188q14 31 14 62q0 43 -28 66t-96 23q-80 0 -143 -45.5t-113 -151.5l-25 10q56 178 148.5 267.5t252.5 89.5
q244 0 244 -164q0 -43 -19.5 -83.5t-58 -76t-82.5 -66t-108.5 -62t-119 -54.5t-128.5 -52h285q75 0 98.5 14.5t50.5 71.5l31 64h24q-44 -124 -98 -320z" />
    <glyph glyph-name="threequarters" unicode="&#xbe;" horiz-adv-x="1179" 
d="M541 1391l24 -2q-32 -94 -98 -363q-68 -270 -68 -308q1 -22 16 -25q2 -1 3 -1l59 -8l-6 -27h-418l6 27l78 10q19 3 31 20.5t31.5 81t54.5 208.5q46 184 46.5 221t-38.5 39l-55 2l4 22q103 12 178 33.5t152 69.5zM561 612q-275 -275 -590 -612h-100l4 16q51 47 200 181.5
t255 232.5t202 193q90 90 185.5 190.5t214.5 229t174 186.5h100l-4 -15q-69 -66 -295.5 -275t-345.5 -327zM465 -150l6 27l119 14q24 3 39 32t43 138q-260 0 -346 -2v25q13 10 281 213.5t384 300.5l27 -2q-2 -7 -12.5 -44t-35 -127t-55.5 -212q-11 -51 -24 -98q51 1 70.5 10
t33.5 35l39 90h21q-43 -134 -76 -305h-18l2 69q0 29 -13.5 37.5t-70.5 9.5q-14 -60 -20.5 -91t-7 -49.5t3.5 -23.5t15 -8l64 -12l-6 -27h-463zM705 186q12 49 29.5 115.5t19.5 73.5l-11 4q-26 -20 -146 -112t-183 -142l4 -10q28 1 68.5 1t100.5 -0.5t99 -0.5q1 5 8 30t11 41
z" />
    <glyph glyph-name="questiondown" unicode="&#xbf;" horiz-adv-x="788" 
d="M616 539l7 -39q-572 -235 -572 -385q0 -41 19.5 -61.5t64.5 -20.5q44 0 201 28.5t207 28.5q43 0 64.5 -16.5t21.5 -59.5q0 -22 -5.5 -48.5t-20 -65.5t-24 -61.5t-33.5 -77t-32 -72.5l-39 2q12 53 12 67q0 19 -11.5 28t-39.5 9t-76.5 -2t-72.5 -2q-279 0 -279 367
q0 71 28 126.5t77 95.5t127.5 70.5t167.5 50.5t208 38zM616 1034q77 0 120.5 -42t43.5 -118q0 -99 -59 -148.5t-158 -49.5q-79 0 -122.5 40t-43.5 118q0 96 60.5 148t158.5 52z" />
    <glyph glyph-name="Agrave" unicode="&#xc0;" horiz-adv-x="1173" 
d="M385 45l-10 -45h-514l10 45l31 14q47 19 141 153.5t437 663.5q154 238 247 381h51q10 -52 129 -593q8 -39 23 -111q55 -268 83.5 -368t69.5 -128l19 -12l-8 -45h-570l11 45l83 10q89 11 89 80q0 68 -45 324q-158 -3 -349 -10q-102 -235 -102 -318q0 -56 76 -68zM569 1657
q77 22 250 57q55 -191 135 -385l-28 -4q-200 153 -361 317zM649 530q-35 185 -88 402q-137 -246 -221 -426q103 -6 315 -10q-1 6 -3 17t-3 17z" />
    <glyph glyph-name="Aacute" unicode="&#xc1;" horiz-adv-x="1173" 
d="M385 45l-10 -45h-514l10 45l31 14q47 19 141 153.5t437 663.5q154 238 247 381h51q10 -52 129 -593q8 -39 23 -111q55 -268 83.5 -368t69.5 -128l19 -12l-8 -45h-570l11 45l83 10q89 11 89 80q0 68 -45 324q-158 -3 -349 -10q-102 -235 -102 -318q0 -56 76 -68z
M1153 1657l-2 -15q-264 -178 -512 -317l-27 4q195 241 283 385q7 -2 107 -22t151 -35zM649 530q-35 185 -88 402q-137 -246 -221 -426q103 -6 315 -10q-1 6 -3 17t-3 17z" />
    <glyph glyph-name="Acircumflex" unicode="&#xc2;" horiz-adv-x="1173" 
d="M385 45l-10 -45h-514l10 45l31 14q47 19 141 153.5t437 663.5q154 238 247 381h51q10 -52 129 -593q8 -39 23 -111q55 -268 83.5 -368t69.5 -128l19 -12l-8 -45h-570l11 45l83 10q89 11 89 80q0 68 -45 324q-158 -3 -349 -10q-102 -235 -102 -318q0 -56 76 -68zM883 1702
q105 -189 223 -346l-39 -6q-121 54 -248 141q-172 -89 -327 -141l-35 6q221 178 397 346h29zM649 530q-35 185 -88 402q-137 -246 -221 -426q103 -6 315 -10q-1 6 -3 17t-3 17z" />
    <glyph glyph-name="Atilde" unicode="&#xc3;" horiz-adv-x="1173" 
d="M385 45l-10 -45h-514l10 45l31 14q47 19 141 153.5t437 663.5q154 238 247 381h51q10 -52 129 -593q8 -39 23 -111q55 -268 83.5 -368t69.5 -128l19 -12l-8 -45h-570l11 45l83 10q89 11 89 80q0 68 -45 324q-158 -3 -349 -10q-102 -235 -102 -318q0 -56 76 -68zM735 1677
q39 0 75 -18t63.5 -43.5t53 -51t53 -43.5t54.5 -18q43 0 73 37.5t62 122.5h31q-20 -64 -42.5 -113t-55 -94t-76 -69.5t-96.5 -24.5q-41 0 -78 18t-65 43.5t-53 51t-52 43.5t-53 18q-44 0 -74.5 -37t-62.5 -121h-31q16 50 32.5 90t41 80.5t52.5 67.5t66 44t82 17zM649 530
q-35 185 -88 402q-137 -246 -221 -426q103 -6 315 -10q-1 6 -3 17t-3 17z" />
    <glyph glyph-name="Adieresis" unicode="&#xc4;" horiz-adv-x="1173" 
d="M385 45l-10 -45h-514l10 45l31 14q47 19 141 153.5t437 663.5q154 238 247 381h51q10 -52 129 -593q8 -39 23 -111q55 -268 83.5 -368t69.5 -128l19 -12l-8 -45h-570l11 45l83 10q89 11 89 80q0 68 -45 324q-158 -3 -349 -10q-102 -235 -102 -318q0 -56 76 -68zM649 530
q-35 185 -88 402q-137 -246 -221 -426q103 -6 315 -10q-1 6 -3 17t-3 17zM674 1638q55 0 83.5 -28t28.5 -80q0 -64 -45.5 -107t-107.5 -43q-55 0 -84 28t-29 79q0 64 46 107.5t108 43.5zM1012 1638q55 0 83.5 -28t28.5 -80q0 -64 -45.5 -107t-107.5 -43q-55 0 -84 28t-29 79
q0 64 46 107.5t108 43.5z" />
    <glyph glyph-name="Aring" unicode="&#xc5;" horiz-adv-x="1173" 
d="M385 45l-10 -45h-514l10 45l31 14q47 19 141 153.5t437 663.5q154 238 247 381h51q10 -52 129 -593q8 -39 23 -111q55 -268 83.5 -368t69.5 -128l19 -12l-8 -45h-570l11 45l83 10q89 11 89 80q0 68 -45 324q-158 -3 -349 -10q-102 -235 -102 -318q0 -56 76 -68zM649 530
q-35 185 -88 402q-137 -246 -221 -426q103 -6 315 -10q-1 6 -3 17t-3 17zM809 1415q56 0 97.5 36t41.5 99q0 45 -25.5 71t-76.5 26q-56 0 -97.5 -37t-41.5 -101q0 -43 25 -68.5t77 -25.5zM854 1712q76 0 119 -42t43 -109q0 -94 -61.5 -151.5t-151.5 -57.5q-78 0 -121 40.5
t-43 106.5q0 95 62.5 154t152.5 59z" />
    <glyph glyph-name="AE" unicode="&#xc6;" horiz-adv-x="1646" 
d="M586 479q55 0 153 4q25 96 25 97q89 355 127 522l-8 2q-389 -533 -449 -621q94 -4 152 -4zM-117 0l11 45l38 25q162 103 838 931q47 63 47 95q0 28 -24.5 41.5t-92.5 27.5l-106 19l14 45h1118q-47 -199 -88 -461h-41l-26 166q-20 94 -53.5 141.5t-109 72.5t-220.5 32
q-34 -80 -144 -533q95 4 150 20.5t88.5 48t65.5 93.5l49 111h28q-27 -100 -64 -291.5t-54 -306.5h-27l-6 110q-9 95 -57 129t-185 43v-4q-117 -473 -125 -549q151 8 240 32t149 71t123 139l121 196h41q-113 -327 -156 -489h-950l12 45l86 25q32 9 49 31.5t40.5 96
t66.5 246.5q-24 0 -75 1t-79 1q-112 0 -169 -2q-177 -264 -177 -321q0 -27 15.5 -38.5t56.5 -23.5l76 -14l-12 -47h-482z" />
    <glyph glyph-name="Ccedilla" unicode="&#xc7;" horiz-adv-x="1144" 
d="M543 276q140 0 232 22t137.5 58.5t70.5 94.5l47 108h39l-82 -397q-209 -182 -452 -182q-67 0 -123 12l-54 -98q80 22 170 22q81 0 118 -19.5t30 -60.5q-12 -69 -145 -105t-365 -36l4 31q157 15 219 36.5t70 61.5q4 25 -11.5 36t-52.5 11t-86 -6l84 131
q-157 38 -239 163.5t-82 325.5q0 112 31.5 221t97 207.5t157 173t221 118.5t279.5 44q109 0 205 -23.5t156 -60.5l-121 -463h-39l6 117q3 41 -4 68t-30.5 50t-72 33.5t-124.5 10.5q-157 0 -292.5 -46t-224 -120.5t-138.5 -167.5t-50 -190q0 -84 108.5 -132.5t305.5 -48.5z
" />
    <glyph glyph-name="Egrave" unicode="&#xc8;" horiz-adv-x="1112" 
d="M483 600q-116 -456 -125 -549q151 8 240.5 32.5t149 71.5t122.5 138l127 196h41q-89 -247 -159 -489h-983l10 45l100 18q35 6 53 34q27 43 83 260q16 60 57 223q107 432 113 518q4 57 -21 67q-7 4 -23 6l-84 13l13 45h983q-47 -214 -86 -461h-41l-29 166
q-17 69 -37.5 109.5t-63.5 72t-109.5 45.5t-174.5 19q-31 -75 -143 -533q95 4 149 20.5t86 48t66 93.5l53 111l29 -2q-29 -100 -72.5 -292t-63.5 -304h-28l-2 110q-6 96 -51 130.5t-179 41.5v-4zM565 1628q90 25 250 58q56 -194 135 -386l-28 -4q-196 150 -361 318z" />
    <glyph glyph-name="Eacute" unicode="&#xc9;" horiz-adv-x="1112" 
d="M483 600q-116 -456 -125 -549q151 8 240.5 32.5t149 71.5t122.5 138l127 196h41q-89 -247 -159 -489h-983l10 45l100 18q35 6 53 34q27 43 83 260q16 60 57 223q107 432 113 518q4 57 -21 67q-7 4 -23 6l-84 13l13 45h983q-47 -214 -86 -461h-41l-29 166
q-17 69 -37.5 109.5t-63.5 72t-109.5 45.5t-174.5 19q-31 -75 -143 -533q95 4 149 20.5t86 48t66 93.5l53 111l29 -2q-29 -100 -72.5 -292t-63.5 -304h-28l-2 110q-6 96 -51 130.5t-179 41.5v-4zM1149 1628l-2 -14q-272 -184 -512 -318l-27 4q192 238 283 386
q26 -6 78.5 -16.5t97 -20.5t82.5 -21z" />
    <glyph glyph-name="Ecircumflex" unicode="&#xca;" horiz-adv-x="1112" 
d="M483 600q-116 -456 -125 -549q151 8 240.5 32.5t149 71.5t122.5 138l127 196h41q-89 -247 -159 -489h-983l10 45l100 18q35 6 53 34q27 43 83 260q16 60 57 223q107 432 113 518q4 57 -21 67q-7 4 -23 6l-84 13l13 45h983q-47 -214 -86 -461h-41l-29 166
q-17 69 -37.5 109.5t-63.5 72t-109.5 45.5t-174.5 19q-31 -75 -143 -533q95 4 149 20.5t86 48t66 93.5l53 111l29 -2q-29 -100 -72.5 -292t-63.5 -304h-28l-2 110q-6 96 -51 130.5t-179 41.5v-4zM879 1673q105 -189 223 -346l-39 -6q-121 54 -248 141q-170 -88 -328 -141
l-34 6q221 178 397 346h29z" />
    <glyph glyph-name="Edieresis" unicode="&#xcb;" horiz-adv-x="1112" 
d="M483 600q-116 -456 -125 -549q151 8 240.5 32.5t149 71.5t122.5 138l127 196h41q-89 -247 -159 -489h-983l10 45l100 18q35 6 53 34q27 43 83 260q16 60 57 223q107 432 113 518q4 57 -21 67q-7 4 -23 6l-84 13l13 45h983q-47 -214 -86 -461h-41l-29 166
q-17 69 -37.5 109.5t-63.5 72t-109.5 45.5t-174.5 19q-31 -75 -143 -533q95 4 149 20.5t86 48t66 93.5l53 111l29 -2q-29 -100 -72.5 -292t-63.5 -304h-28l-2 110q-6 96 -51 130.5t-179 41.5v-4zM672 1610q55 0 83.5 -28.5t28.5 -80.5q0 -64 -45.5 -106.5t-107.5 -42.5
q-55 0 -84 27.5t-29 78.5q0 64 46 108t108 44zM1010 1610q55 0 83.5 -28.5t28.5 -80.5q0 -64 -45.5 -106.5t-107.5 -42.5q-55 0 -84 27.5t-29 78.5q0 64 46 108t108 44z" />
    <glyph glyph-name="Igrave" unicode="&#xcc;" horiz-adv-x="651" 
d="M201 592q105 426 114 503q6 58 -17 69q-5 3 -15 5l-93 15l13 45h598l-10 -45l-105 -17q-23 -2 -36 -15t-35 -74.5t-46.5 -153.5t-72.5 -287q-54 -215 -78 -317t-32.5 -165.5t-1 -76t29.5 -17.5l92 -16l-10 -45h-600l10 45l106 18q41 9 69 88.5t120 440.5zM283 1626
q35 11 71 20.5t86 21t68 15.5q81 -214 180 -383l-26 -4q-183 131 -381 316z" />
    <glyph glyph-name="Iacute" unicode="&#xcd;" horiz-adv-x="651" 
d="M201 592q105 426 114 503q6 58 -17 69q-5 3 -15 5l-93 15l13 45h598l-10 -45l-105 -17q-23 -2 -36 -15t-35 -74.5t-46.5 -153.5t-72.5 -287q-54 -215 -78 -317t-32.5 -165.5t-1 -76t29.5 -17.5l92 -16l-10 -45h-600l10 45l106 18q41 9 69 88.5t120 440.5zM870 1626
l-4 -14q-252 -191 -458 -316l-25 4q158 213 260 383q23 -6 69.5 -16t85 -20t72.5 -21z" />
    <glyph glyph-name="Icircumflex" unicode="&#xce;" horiz-adv-x="651" 
d="M201 592q105 426 114 503q6 58 -17 69q-5 3 -15 5l-93 15l13 45h598l-10 -45l-105 -17q-23 -2 -36 -15t-35 -74.5t-46.5 -153.5t-72.5 -287q-54 -215 -78 -317t-32.5 -165.5t-1 -76t29.5 -17.5l92 -16l-10 -45h-600l10 45l106 18q41 9 69 88.5t120 440.5zM637 1659
q65 -164 158 -330l-33 -6q-101 56 -184 125q-124 -73 -252 -125l-31 6q142 135 321 330h21z" />
    <glyph glyph-name="Idieresis" unicode="&#xcf;" horiz-adv-x="651" 
d="M201 592q105 426 114 503q6 58 -17 69q-5 3 -15 5l-93 15l13 45h598l-10 -45l-105 -17q-23 -2 -36 -15t-35 -74.5t-46.5 -153.5t-72.5 -287q-54 -215 -78 -317t-32.5 -165.5t-1 -76t29.5 -17.5l92 -16l-10 -45h-600l10 45l106 18q41 9 69 88.5t120 440.5zM453 1581
q47 0 72.5 -24.5t25.5 -67.5q0 -58 -39.5 -95.5t-91.5 -37.5q-49 0 -73.5 24t-24.5 68q0 57 39 95t92 38zM735 1581q47 0 73 -24.5t26 -67.5q0 -58 -40 -95.5t-92 -37.5q-49 0 -73.5 24t-24.5 68q0 57 39 95t92 38z" />
    <glyph glyph-name="Eth" unicode="&#xd0;" horiz-adv-x="1290" 
d="M760 600q-77 2 -271 6q-68 -280 -90 -383t-26 -172q142 8 253.5 65t178 138.5t109.5 189t59 207t16 203.5q0 174 -72.5 251t-207.5 77q-33 0 -47 -2q-24 -37 -56 -140t-106 -391q146 0 272 4zM809 1229q465 0 465 -424q0 -162 -55 -310t-150 -257t-229 -173.5t-285 -64.5
h-653l10 45l84 16q41 7 60 34q31 42 82 239q18 68 67 262l2 8q-26 -1 -78 -2t-72 -2l15 53q70 -4 145 -4q95 380 100 454q4 53 -21 63q-7 3 -20 5l-79 13l12 45h600z" />
    <glyph glyph-name="Ntilde" unicode="&#xd1;" horiz-adv-x="1271" 
d="M971 -25h-56q-17 35 -136 283t-211.5 438.5t-149.5 298.5q-22 43 -39 68q-47 -199 -73 -350.5t-30.5 -254.5t3 -172t33.5 -109.5t55.5 -60t74.5 -30.5l187 -41l-11 -45h-718l10 45l70 16q47 13 75 54q45 68 120 343q42 153 169 650q-39 44 -94 59l-74 17l8 45h508
q148 -437 342 -791q45 193 68.5 325t30.5 206t-3.5 115t-25.5 53t-45 18l-144 29l11 45h499l-8 -45l-55 -15q-43 -11 -73.5 -59t-88.5 -233.5t-153 -567.5q-60 -240 -76 -334zM829 1649q39 0 75 -18t63.5 -43.5t53 -51t53 -43.5t54.5 -18q43 0 73.5 37t62.5 122h30
q-20 -64 -42.5 -113t-55 -94t-76 -69.5t-96.5 -24.5q-41 0 -78 18t-65 43.5t-53 51t-52 43.5t-53 18q-44 0 -74.5 -36.5t-62.5 -120.5h-31q16 50 32.5 90t41 80.5t52.5 67.5t66 44t82 17z" />
    <glyph glyph-name="Ograve" unicode="&#xd2;" horiz-adv-x="1234" 
d="M823 965q-151 0 -283.5 -43t-221 -112.5t-139 -156.5t-50.5 -176q0 -198 350 -198q145 0 274.5 45.5t215.5 117.5t136 161t50 177q0 87 -83 136t-249 49zM1208 770q0 -137 -59 -279.5t-154.5 -255t-229 -184t-271.5 -71.5q-188 0 -304 137.5t-116 363.5q0 137 52 273.5
t142 246t224 178t284 68.5q195 0 313.5 -129t118.5 -348zM588 1647q77 22 250 57q55 -191 135 -385l-29 -4q-196 150 -360 317z" />
    <glyph glyph-name="Oacute" unicode="&#xd3;" horiz-adv-x="1234" 
d="M823 965q-151 0 -283.5 -43t-221 -112.5t-139 -156.5t-50.5 -176q0 -198 350 -198q145 0 274.5 45.5t215.5 117.5t136 161t50 177q0 87 -83 136t-249 49zM1208 770q0 -137 -59 -279.5t-154.5 -255t-229 -184t-271.5 -71.5q-188 0 -304 137.5t-116 363.5q0 137 52 273.5
t142 246t224 178t284 68.5q195 0 313.5 -129t118.5 -348zM1171 1647l-2 -15q-264 -178 -512 -317l-26 4q190 236 282 385q7 -2 107 -22t151 -35z" />
    <glyph glyph-name="Ocircumflex" unicode="&#xd4;" horiz-adv-x="1234" 
d="M823 965q-151 0 -283.5 -43t-221 -112.5t-139 -156.5t-50.5 -176q0 -198 350 -198q145 0 274.5 45.5t215.5 117.5t136 161t50 177q0 87 -83 136t-249 49zM1208 770q0 -137 -59 -279.5t-154.5 -255t-229 -184t-271.5 -71.5q-188 0 -304 137.5t-116 363.5q0 137 52 273.5
t142 246t224 178t284 68.5q195 0 313.5 -129t118.5 -348zM903 1692q105 -189 223 -346l-39 -7q-114 50 -247 142q-176 -90 -328 -142l-35 7q221 178 397 346h29z" />
    <glyph glyph-name="Otilde" unicode="&#xd5;" horiz-adv-x="1234" 
d="M823 965q-151 0 -283.5 -43t-221 -112.5t-139 -156.5t-50.5 -176q0 -198 350 -198q145 0 274.5 45.5t215.5 117.5t136 161t50 177q0 87 -83 136t-249 49zM1208 770q0 -137 -59 -279.5t-154.5 -255t-229 -184t-271.5 -71.5q-188 0 -304 137.5t-116 363.5q0 137 52 273.5
t142 246t224 178t284 68.5q195 0 313.5 -129t118.5 -348zM754 1667q39 0 75 -18t63.5 -43.5t53 -51t53 -43.5t54.5 -18q43 0 73 37.5t62 122.5h31q-20 -64 -43 -113t-55 -94t-76 -69.5t-97 -24.5q-41 0 -78 18t-65 43.5t-53 51t-52 43.5t-53 18q-44 0 -74.5 -37t-62.5 -121
h-31q21 64 43.5 112t55 93.5t77 69.5t99.5 24z" />
    <glyph glyph-name="Odieresis" unicode="&#xd6;" horiz-adv-x="1234" 
d="M823 965q-151 0 -283.5 -43t-221 -112.5t-139 -156.5t-50.5 -176q0 -198 350 -198q145 0 274.5 45.5t215.5 117.5t136 161t50 177q0 87 -83 136t-249 49zM1208 770q0 -137 -59 -279.5t-154.5 -255t-229 -184t-271.5 -71.5q-188 0 -304 137.5t-116 363.5q0 137 52 273.5
t142 246t224 178t284 68.5q195 0 313.5 -129t118.5 -348zM694 1628q55 0 84 -28t29 -80q0 -64 -46 -107t-108 -43q-55 0 -83.5 27.5t-28.5 79.5q0 64 45.5 107.5t107.5 43.5zM1032 1628q55 0 84 -28t29 -80q0 -64 -46 -107t-108 -43q-55 0 -83.5 27.5t-28.5 79.5
q0 64 45.5 107.5t107.5 43.5z" />
    <glyph glyph-name="multiply" unicode="&#xd7;" horiz-adv-x="933" 
d="M686 258q-63 91 -205 283q-67 -54 -195 -158.5t-165 -134.5l-101 133q112 84 365 287q-109 148 -213 276l139 111q64 -90 205 -281q142 112 361 293l100 -135q-118 -87 -365 -287q115 -153 213 -274z" />
    <glyph glyph-name="Oslash" unicode="&#xd8;" horiz-adv-x="1234" 
d="M479 272q145 0 274.5 46.5t215.5 120t136 164t50 179.5q0 123 -151 166q-113 -112 -349 -338.5t-333 -322.5q65 -15 157 -15zM129 475q0 -132 158 -180q107 107 341.5 332t342.5 331q-70 13 -148 13q-151 0 -283.5 -43.5t-221 -114.5t-139 -159.5t-50.5 -178.5zM1208 770
q0 -137 -59 -279.5t-154.5 -255t-229 -184t-271.5 -71.5q-208 0 -328 167q-117 -114 -160 -157l-26 28q21 18 170 156q-76 127 -76 307q0 137 52 273.5t142 246t224 178t284 68.5q219 0 336 -157q137 129 160 153l26 -31q-42 -30 -168 -147q78 -124 78 -295z" />
    <glyph glyph-name="Ugrave" unicode="&#xd9;" horiz-adv-x="1284" 
d="M1139 682q-15 -57 -31.5 -129.5t-22.5 -97.5q-55 -206 -202 -340.5t-346 -134.5q-206 0 -310 85t-104 240q0 71 57 293q103 414 110 496q5 61 -20 73q-8 4 -24 7l-68 10l12 45h596l-10 -45l-106 -15q-51 -7 -82.5 -97.5t-141.5 -534.5q-26 -114 -26 -181
q0 -131 70.5 -187t216.5 -56q122 0 175 60t99 249q61 241 89 381.5t27 219.5t-21 106t-66 38l-80 17l10 45h477l-10 -45l-76 -17q-23 -7 -36.5 -18t-28.5 -34.5t-32.5 -81.5t-38.5 -134.5t-56 -216.5zM659 1628q90 25 250 58q56 -194 135 -386l-28 -4q-196 150 -361 318z
" />
    <glyph glyph-name="Uacute" unicode="&#xda;" horiz-adv-x="1284" 
d="M1139 682q-15 -57 -31.5 -129.5t-22.5 -97.5q-55 -206 -202 -340.5t-346 -134.5q-206 0 -310 85t-104 240q0 71 57 293q103 414 110 496q5 61 -20 73q-8 4 -24 7l-68 10l12 45h596l-10 -45l-106 -15q-51 -7 -82.5 -97.5t-141.5 -534.5q-26 -114 -26 -181
q0 -131 70.5 -187t216.5 -56q122 0 175 60t99 249q61 241 89 381.5t27 219.5t-21 106t-66 38l-80 17l10 45h477l-10 -45l-76 -17q-23 -7 -36.5 -18t-28.5 -34.5t-32.5 -81.5t-38.5 -134.5t-56 -216.5zM1243 1628l-2 -14q-272 -184 -512 -318l-27 4q192 238 283 386
q26 -6 78.5 -16.5t97 -20.5t82.5 -21z" />
    <glyph glyph-name="Ucircumflex" unicode="&#xdb;" horiz-adv-x="1284" 
d="M1139 682q-15 -57 -31.5 -129.5t-22.5 -97.5q-55 -206 -202 -340.5t-346 -134.5q-206 0 -310 85t-104 240q0 71 57 293q103 414 110 496q5 61 -20 73q-8 4 -24 7l-68 10l12 45h596l-10 -45l-106 -15q-51 -7 -82.5 -97.5t-141.5 -534.5q-26 -114 -26 -181
q0 -131 70.5 -187t216.5 -56q122 0 175 60t99 249q61 241 89 381.5t27 219.5t-21 106t-66 38l-80 17l10 45h477l-10 -45l-76 -17q-23 -7 -36.5 -18t-28.5 -34.5t-32.5 -81.5t-38.5 -134.5t-56 -216.5zM973 1673q105 -189 223 -346l-39 -6q-121 54 -248 141
q-172 -89 -327 -141l-35 6q221 178 397 346h29z" />
    <glyph glyph-name="Udieresis" unicode="&#xdc;" horiz-adv-x="1284" 
d="M1139 682q-15 -57 -31.5 -129.5t-22.5 -97.5q-55 -206 -202 -340.5t-346 -134.5q-206 0 -310 85t-104 240q0 71 57 293q103 414 110 496q5 61 -20 73q-8 4 -24 7l-68 10l12 45h596l-10 -45l-106 -15q-51 -7 -82.5 -97.5t-141.5 -534.5q-26 -114 -26 -181
q0 -131 70.5 -187t216.5 -56q122 0 175 60t99 249q61 241 89 381.5t27 219.5t-21 106t-66 38l-80 17l10 45h477l-10 -45l-76 -17q-23 -7 -36.5 -18t-28.5 -34.5t-32.5 -81.5t-38.5 -134.5t-56 -216.5zM764 1610q55 0 84 -28.5t29 -80.5q0 -64 -46 -106.5t-108 -42.5
q-55 0 -84 27.5t-29 78.5q0 64 46 108t108 44zM1102 1610q55 0 83.5 -28.5t28.5 -80.5q0 -64 -45.5 -106.5t-107.5 -42.5q-55 0 -84 27.5t-29 78.5q0 64 46 108t108 44z" />
    <glyph glyph-name="Yacute" unicode="&#xdd;" horiz-adv-x="1288" 
d="M870 0h-694l10 45l113 21q75 15 104 79.5t107 380.5q-7 16 -47 109.5t-57 132.5q-96 221 -138.5 302t-81.5 101l-22 13l12 45h596l-10 -45l-72 -6q-52 -6 -76 -20t-24 -42q0 -51 68 -228t130 -315q125 159 216.5 310.5t91.5 210.5q0 35 -24.5 53t-80.5 27l-86 10l10 45
h560l-9 -45l-24 -6q-47 -12 -169.5 -136.5t-479.5 -509.5q-44 -175 -62.5 -260.5t-17 -134.5t14.5 -58t50 -16l103 -18zM1253 1628l-2 -14q-272 -184 -512 -318l-26 4q188 233 282 386q26 -6 78.5 -16.5t97 -20.5t82.5 -21z" />
    <glyph glyph-name="Thorn" unicode="&#xde;" horiz-adv-x="1099" 
d="M201 594q106 426 114 503q6 57 -16 67q-6 3 -16 5l-93 15l13 45h598l-8 -39l-107 -14q-21 -3 -34.5 -18t-31 -61t-42.5 -141h202q103 0 174 -18t109 -53.5t54 -78.5t16 -101q0 -118 -54.5 -221.5t-152 -166.5t-213.5 -63q-149 0 -291 80q-22 -96 -32.5 -149t-9.5 -82
t8 -37t24 -11l92 -16l-8 -39h-600l10 45l106 18q41 9 69.5 89t119.5 442zM545 358q131 0 225 110.5t94 256.5q0 92 -59.5 139t-169.5 47h-70q-11 -44 -69 -274q-10 -41 -24.5 -98.5t-24.5 -98.5t-17 -73q56 -9 115 -9z" />
    <glyph glyph-name="germandbls" unicode="&#xdf;" horiz-adv-x="1050" 
d="M1012 395q0 -71 -57 -167.5t-155 -172t-196 -75.5q-120 0 -227 98q4 16 16.5 61t17.5 65.5t14 57.5t15 71.5t11 72.5h28q0 -138 71 -190t204 -52q158 0 161 110q-1 40 -52 76.5t-123.5 70t-145 73t-123.5 102t-51 139.5q0 60 44.5 93t162.5 59q146 33 200 66t54 94
q0 65 -74 102t-213 37q-141 0 -207 -55t-78 -201q-11 -177 -3.5 -573.5t3.5 -462.5q-5 -124 -53.5 -190t-138.5 -66q-97 0 -145 78t-60 253l29 8q13 -77 28 -105t37 -28q25 0 37.5 19.5t22.5 62.5q17 77 88 471t108 566q14 65 27 112t31.5 94.5t40 80t50.5 61.5t65.5 46
t84 26.5t105.5 9.5q158 0 238.5 -59t80.5 -169q0 -125 -68.5 -201t-232.5 -155q-139 -75 -164 -93q-41 -30 -41 -59q0 -24 39.5 -38t98.5 -19t128.5 -16.5t128.5 -28.5t98.5 -58t39.5 -102z" />
    <glyph glyph-name="agrave" unicode="&#xe0;" horiz-adv-x="974" 
d="M705 -23q-51 0 -86 58.5t-35 138.5q0 21 5.5 49.5t17.5 68.5t22.5 71.5t30.5 84t30.5 79t33 83t28.5 70.5l-21 6q-199 -377 -319.5 -543t-202.5 -166q-69 0 -118.5 101.5t-49.5 279.5q0 103 30.5 198.5t98.5 182.5t166.5 151.5t244 102.5t322.5 37q-58 -157 -112 -372.5
t-54 -311.5q0 -48 22.5 -74t55.5 -26q31 0 54.5 32.5t72.5 139.5l31 -15q-75 -242 -134.5 -334t-133.5 -92zM416 1436q77 22 250 57q55 -191 135 -385l-29 -4q-196 150 -360 317zM233 268q40 0 91 23.5t117 75.5t145.5 153.5t158.5 239.5q-138 -21 -250.5 -57.5t-185 -77.5
t-122 -88.5t-70.5 -91.5t-21 -85q0 -43 38 -67.5t99 -24.5z" />
    <glyph glyph-name="aacute" unicode="&#xe1;" horiz-adv-x="974" 
d="M705 -23q-51 0 -86 58.5t-35 138.5q0 21 5.5 49.5t17.5 68.5t22.5 71.5t30.5 84t30.5 79t33 83t28.5 70.5l-21 6q-199 -377 -319.5 -543t-202.5 -166q-69 0 -118.5 101.5t-49.5 279.5q0 103 30.5 198.5t98.5 182.5t166.5 151.5t244 102.5t322.5 37q-58 -157 -112 -372.5
t-54 -311.5q0 -48 22.5 -74t55.5 -26q31 0 54.5 32.5t72.5 139.5l31 -15q-75 -242 -134.5 -334t-133.5 -92zM999 1436l-2 -15q-264 -178 -512 -317l-26 4q190 236 282 385q7 -2 107 -22t151 -35zM233 268q40 0 91 23.5t117 75.5t145.5 153.5t158.5 239.5
q-138 -21 -250.5 -57.5t-185 -77.5t-122 -88.5t-70.5 -91.5t-21 -85q0 -43 38 -67.5t99 -24.5z" />
    <glyph glyph-name="acircumflex" unicode="&#xe2;" horiz-adv-x="974" 
d="M705 -23q-51 0 -86 58.5t-35 138.5q0 21 5.5 49.5t17.5 68.5t22.5 71.5t30.5 84t30.5 79t33 83t28.5 70.5l-21 6q-199 -377 -319.5 -543t-202.5 -166q-69 0 -118.5 101.5t-49.5 279.5q0 103 30.5 198.5t98.5 182.5t166.5 151.5t244 102.5t322.5 37q-58 -157 -112 -372.5
t-54 -311.5q0 -48 22.5 -74t55.5 -26q31 0 54.5 32.5t72.5 139.5l31 -15q-75 -242 -134.5 -334t-133.5 -92zM731 1481q105 -189 223 -346l-39 -7q-114 50 -247 142q-176 -90 -328 -142l-35 7q221 178 397 346h29zM233 268q40 0 91 23.5t117 75.5t145.5 153.5t158.5 239.5
q-138 -21 -250.5 -57.5t-185 -77.5t-122 -88.5t-70.5 -91.5t-21 -85q0 -43 38 -67.5t99 -24.5z" />
    <glyph glyph-name="atilde" unicode="&#xe3;" horiz-adv-x="974" 
d="M705 -23q-51 0 -86 58.5t-35 138.5q0 21 5.5 49.5t17.5 68.5t22.5 71.5t30.5 84t30.5 79t33 83t28.5 70.5l-21 6q-199 -377 -319.5 -543t-202.5 -166q-69 0 -118.5 101.5t-49.5 279.5q0 103 30.5 198.5t98.5 182.5t166.5 151.5t244 102.5t322.5 37q-58 -157 -112 -372.5
t-54 -311.5q0 -48 22.5 -74t55.5 -26q31 0 54.5 32.5t72.5 139.5l31 -15q-75 -242 -134.5 -334t-133.5 -92zM582 1456q39 0 75 -18t63.5 -43.5t53 -51t53 -43.5t54.5 -18q43 0 73 37.5t62 122.5h31q-20 -64 -43 -113t-55 -94t-76 -69.5t-97 -24.5q-41 0 -78 18t-65 43.5
t-53 51t-52 43.5t-53 18q-44 0 -74.5 -37t-62.5 -121h-31q21 64 43.5 112t55 93.5t77 69.5t99.5 24zM233 268q40 0 91 23.5t117 75.5t145.5 153.5t158.5 239.5q-138 -21 -250.5 -57.5t-185 -77.5t-122 -88.5t-70.5 -91.5t-21 -85q0 -43 38 -67.5t99 -24.5z" />
    <glyph glyph-name="adieresis" unicode="&#xe4;" horiz-adv-x="974" 
d="M705 -23q-51 0 -86 58.5t-35 138.5q0 21 5.5 49.5t17.5 68.5t22.5 71.5t30.5 84t30.5 79t33 83t28.5 70.5l-21 6q-199 -377 -319.5 -543t-202.5 -166q-69 0 -118.5 101.5t-49.5 279.5q0 103 30.5 198.5t98.5 182.5t166.5 151.5t244 102.5t322.5 37q-58 -157 -112 -372.5
t-54 -311.5q0 -48 22.5 -74t55.5 -26q31 0 54.5 32.5t72.5 139.5l31 -15q-75 -242 -134.5 -334t-133.5 -92zM524 1417q55 0 84 -28t29 -80q0 -64 -46 -107t-108 -43q-55 0 -83.5 27.5t-28.5 79.5q0 64 45.5 107.5t107.5 43.5zM862 1417q55 0 84 -28t29 -80q0 -64 -46 -107
t-108 -43q-55 0 -83.5 27.5t-28.5 79.5q0 64 45.5 107.5t107.5 43.5zM233 268q40 0 91 23.5t117 75.5t145.5 153.5t158.5 239.5q-138 -21 -250.5 -57.5t-185 -77.5t-122 -88.5t-70.5 -91.5t-21 -85q0 -43 38 -67.5t99 -24.5z" />
    <glyph glyph-name="aring" unicode="&#xe5;" horiz-adv-x="974" 
d="M705 -23q-51 0 -86 58.5t-35 138.5q0 21 5.5 49.5t17.5 68.5t22.5 71.5t30.5 84t30.5 79t33 83t28.5 70.5l-21 6q-199 -377 -319.5 -543t-202.5 -166q-69 0 -118.5 101.5t-49.5 279.5q0 103 30.5 198.5t98.5 182.5t166.5 151.5t244 102.5t322.5 37q-58 -157 -112 -372.5
t-54 -311.5q0 -48 22.5 -74t55.5 -26q31 0 54.5 32.5t72.5 139.5l31 -15q-75 -242 -134.5 -334t-133.5 -92zM657 1194q56 0 98 36t42 99q0 44 -26 70t-77 26q-56 0 -97.5 -36.5t-41.5 -100.5q0 -43 25 -68.5t77 -25.5zM702 1491q76 0 119 -42.5t43 -109.5
q0 -94 -61.5 -151.5t-151.5 -57.5q-78 0 -121 41t-43 107q0 95 62.5 154t152.5 59zM233 268q40 0 91 23.5t117 75.5t145.5 153.5t158.5 239.5q-138 -21 -250.5 -57.5t-185 -77.5t-122 -88.5t-70.5 -91.5t-21 -85q0 -43 38 -67.5t99 -24.5z" />
    <glyph glyph-name="ae" unicode="&#xe6;" horiz-adv-x="1497" 
d="M1180 778q-132 0 -245.5 -83t-156.5 -197q531 113 531 204q0 30 -32 53t-97 23zM209 -23q-69 0 -118.5 101.5t-49.5 279.5q0 102 31 198.5t98 183.5t163.5 151.5t237.5 102t310 36.5q-9 -36 -28 -109t-34.5 -134.5t-25.5 -110.5l16 -4q58 172 164 267t225 95
q68 0 124 -23.5t90 -61.5t52.5 -82.5t18.5 -88.5q0 -116 -161 -181.5t-552 -123.5q-12 -40 -12 -76q0 -47 38 -80t88 -46t103 -13q82 0 176 27t174.5 80t108.5 118l29 -22q-78 -213 -209 -348.5t-277 -135.5q-132 0 -212.5 113t-80.5 336q0 86 54 254l-17 6
q-206 -388 -323.5 -548.5t-200.5 -160.5zM233 268q40 0 91 23.5t117 75.5t145.5 153.5t158.5 239.5q-138 -21 -250.5 -57.5t-185 -77.5t-122 -88.5t-70.5 -91.5t-21 -85q0 -43 38 -67.5t99 -24.5z" />
    <glyph glyph-name="ccedilla" unicode="&#xe7;" horiz-adv-x="808" 
d="M596 764q-93 0 -182 -27.5t-158 -75.5t-111.5 -119t-42.5 -151q0 -69 55.5 -104t153.5 -35q139 0 256.5 57.5t161.5 151.5l29 -19q-29 -95 -69.5 -176t-94 -146t-122 -102.5t-144.5 -37.5q-40 0 -78 12l-53 -98q80 22 170 22q80 0 117 -19.5t30 -60.5q-12 -69 -145 -105
t-365 -36l4 31q157 15 219 36.5t70 61.5q4 25 -11.5 36t-52.5 11t-86 -6l86 131q-90 36 -141 143.5t-51 278.5q0 117 39 227t109 196t176 138t231 51q68 0 139 -13.5t115 -31.5q-87 -333 -105 -403l-38 4q14 94 -6.5 136t-104.5 42z" />
    <glyph glyph-name="egrave" unicode="&#xe8;" horiz-adv-x="833" 
d="M516 778q-131 0 -245.5 -83.5t-157.5 -196.5q530 114 530 204q0 30 -31.5 53t-95.5 23zM326 -23q-132 0 -210.5 114.5t-78.5 338.5q0 119 47 232.5t119.5 194t162 129t173.5 48.5q63 0 117.5 -23.5t89 -61.5t54 -82.5t19.5 -88.5q0 -116 -162 -181.5t-553 -123.5
q-12 -40 -12 -76q0 -47 38.5 -80t88.5 -46t105 -13q129 0 269 62t187 155l29 -18q-80 -212 -209.5 -346t-273.5 -134zM354 1436q77 22 250 57q55 -191 135 -385l-28 -4q-200 153 -361 317z" />
    <glyph glyph-name="eacute" unicode="&#xe9;" horiz-adv-x="833" 
d="M516 778q-131 0 -245.5 -83.5t-157.5 -196.5q530 114 530 204q0 30 -31.5 53t-95.5 23zM326 -23q-132 0 -210.5 114.5t-78.5 338.5q0 119 47 232.5t119.5 194t162 129t173.5 48.5q63 0 117.5 -23.5t89 -61.5t54 -82.5t19.5 -88.5q0 -116 -162 -181.5t-553 -123.5
q-12 -40 -12 -76q0 -47 38.5 -80t88.5 -46t105 -13q129 0 269 62t187 155l29 -18q-80 -212 -209.5 -346t-273.5 -134zM938 1436l-2 -15q-264 -178 -512 -317l-27 4q195 241 283 385q7 -2 107 -22t151 -35z" />
    <glyph glyph-name="ecircumflex" unicode="&#xea;" horiz-adv-x="833" 
d="M516 778q-131 0 -245.5 -83.5t-157.5 -196.5q530 114 530 204q0 30 -31.5 53t-95.5 23zM326 -23q-132 0 -210.5 114.5t-78.5 338.5q0 119 47 232.5t119.5 194t162 129t173.5 48.5q63 0 117.5 -23.5t89 -61.5t54 -82.5t19.5 -88.5q0 -116 -162 -181.5t-553 -123.5
q-12 -40 -12 -76q0 -47 38.5 -80t88.5 -46t105 -13q129 0 269 62t187 155l29 -18q-80 -212 -209.5 -346t-273.5 -134zM670 1481q105 -189 223 -346l-39 -7q-117 52 -248 142q-178 -91 -327 -142l-35 7q221 178 397 346h29z" />
    <glyph glyph-name="edieresis" unicode="&#xeb;" horiz-adv-x="833" 
d="M516 778q-131 0 -245.5 -83.5t-157.5 -196.5q530 114 530 204q0 30 -31.5 53t-95.5 23zM326 -23q-132 0 -210.5 114.5t-78.5 338.5q0 119 47 232.5t119.5 194t162 129t173.5 48.5q63 0 117.5 -23.5t89 -61.5t54 -82.5t19.5 -88.5q0 -116 -162 -181.5t-553 -123.5
q-12 -40 -12 -76q0 -47 38.5 -80t88.5 -46t105 -13q129 0 269 62t187 155l29 -18q-80 -212 -209.5 -346t-273.5 -134zM463 1417q55 0 83.5 -28t28.5 -80q0 -64 -45.5 -107t-107.5 -43q-55 0 -84 28t-29 79q0 64 46 107.5t108 43.5zM801 1417q55 0 83.5 -28t28.5 -80
q0 -64 -45.5 -107t-107.5 -43q-55 0 -84 28t-29 79q0 64 46 107.5t108 43.5z" />
    <glyph glyph-name="igrave" unicode="&#xec;" horiz-adv-x="512" 
d="M311 686q0 29 -24 46.5t-70 17.5q-56 0 -95.5 -30t-76.5 -118l-31 12q74 225 132.5 322.5t132.5 97.5q51 0 91 -55t40 -133q0 -64 -63.5 -248t-63.5 -238q0 -81 67 -81q34 0 61 31.5t68 119.5l29 -14q-50 -167 -98 -265t-94 -136t-101 -38q-71 0 -121.5 58t-50.5 131
q0 53 27.5 116t66.5 119.5t78.5 109.5t67 99.5t28.5 75.5zM172 1434q35 11 71 20.5t86 21t68 15.5q79 -209 181 -383l-27 -4q-188 134 -381 315z" />
    <glyph glyph-name="iacute" unicode="&#xed;" horiz-adv-x="512" 
d="M311 686q0 29 -24 46.5t-70 17.5q-56 0 -95.5 -30t-76.5 -118l-31 12q74 225 132.5 322.5t132.5 97.5q51 0 91 -55t40 -133q0 -64 -63.5 -248t-63.5 -238q0 -81 67 -81q34 0 61 31.5t68 119.5l29 -14q-50 -167 -98 -265t-94 -136t-101 -38q-71 0 -121.5 58t-50.5 131
q0 53 27.5 116t66.5 119.5t78.5 109.5t67 99.5t28.5 75.5zM760 1434l-4 -15q-242 -183 -459 -315l-25 4q158 213 260 383q24 -6 70 -16t85 -20t73 -21z" />
    <glyph glyph-name="icircumflex" unicode="&#xee;" horiz-adv-x="512" 
d="M311 686q0 29 -24 46.5t-70 17.5q-56 0 -95.5 -30t-76.5 -118l-31 12q74 225 132.5 322.5t132.5 97.5q51 0 91 -55t40 -133q0 -64 -63.5 -248t-63.5 -238q0 -81 67 -81q34 0 61 31.5t68 119.5l29 -14q-50 -167 -98 -265t-94 -136t-101 -38q-71 0 -121.5 58t-50.5 131
q0 53 27.5 116t66.5 119.5t78.5 109.5t67 99.5t28.5 75.5zM526 1466q64 -161 158 -329l-33 -7q-101 56 -184 125q-124 -73 -252 -125l-31 7q158 150 322 329h20z" />
    <glyph glyph-name="idieresis" unicode="&#xef;" horiz-adv-x="512" 
d="M311 686q0 29 -24 46.5t-70 17.5q-56 0 -95.5 -30t-76.5 -118l-31 12q74 225 132.5 322.5t132.5 97.5q51 0 91 -55t40 -133q0 -64 -63.5 -248t-63.5 -238q0 -81 67 -81q34 0 61 31.5t68 119.5l29 -14q-50 -167 -98 -265t-94 -136t-101 -38q-71 0 -121.5 58t-50.5 131
q0 53 27.5 116t66.5 119.5t78.5 109.5t67 99.5t28.5 75.5zM340 1389q47 0 72.5 -25t25.5 -68q0 -58 -39.5 -95.5t-91.5 -37.5q-49 0 -73.5 24t-24.5 68q0 57 39.5 95.5t91.5 38.5zM623 1389q47 0 72.5 -25t25.5 -68q0 -58 -39.5 -95.5t-91.5 -37.5q-49 0 -73.5 24t-24.5 68
q0 57 39.5 95.5t91.5 38.5z" />
    <glyph glyph-name="eth" unicode="&#xf0;" horiz-adv-x="890" 
d="M330 256q99 0 187 33.5t147 87.5t93 122t34 136q0 119 -228 119q-97 0 -185 -32.5t-148.5 -85t-96 -119.5t-35.5 -134q0 -62 61 -94.5t171 -32.5zM340 -23q-132 0 -216.5 116t-84.5 323q0 143 58.5 277t158 218t209.5 84q94 0 178.5 -73.5t138.5 -194.5l21 12
q-63 264 -285 441q-56 -27 -264 -136l-18 31q158 72 260 123q-108 81 -287 162l6 35q289 -31 430 -121q28 15 85.5 44t86.5 44l19 -31q-41 -18 -164 -76q103 -73 150.5 -194t47.5 -307q0 -141 -42 -281.5t-112.5 -250t-169.5 -177.5t-206 -68z" />
    <glyph glyph-name="ntilde" unicode="&#xf1;" horiz-adv-x="1062" 
d="M762 -23q-70 0 -120 60.5t-50 134.5q0 50 28 111t68.5 116t81 106.5t68.5 98t28 76.5q0 28 -27.5 45.5t-80.5 17.5q-48 0 -90 -18.5t-89 -68t-92 -132t-95.5 -214.5t-102.5 -310h-297q28 82 89 195t117 201t99 168.5t43 111.5q0 32 -29.5 53t-85.5 21q-62 0 -102.5 -30
t-77.5 -120l-31 14q73 224 132 322t130 98q57 0 93.5 -82.5t36.5 -242.5q0 -74 -66 -398l16 -4q125 392 229.5 558.5t215.5 166.5q71 0 119.5 -60t48.5 -136q0 -59 -69 -245t-69 -241q0 -41 19 -61.5t47 -20.5q37 0 67 32.5t72 127.5l27 -12q-72 -246 -141.5 -342.5
t-159.5 -96.5zM670 1456q39 0 75 -18t63.5 -43.5t53 -51t53 -43.5t54.5 -18q43 0 73 37.5t62 122.5h31q-20 -64 -43 -113t-55 -94t-76 -69.5t-97 -24.5q-41 0 -78 18t-65 43.5t-53 51t-52 43.5t-53 18q-44 0 -74.5 -37t-62.5 -121h-31q21 64 43.5 112t55 93.5t77 69.5
t99.5 24z" />
    <glyph glyph-name="ograve" unicode="&#xf2;" horiz-adv-x="876" 
d="M322 256q102 0 192 33t150.5 86.5t95.5 121t35 136.5q0 121 -234 121q-97 0 -185.5 -32.5t-149 -84.5t-96.5 -118t-36 -132q0 -65 59.5 -98t168.5 -33zM549 1034q133 0 217 -114.5t84 -323.5q0 -152 -67.5 -293.5t-186.5 -232t-256 -90.5q-132 0 -216.5 115.5
t-84.5 326.5q0 112 40.5 223t108 197t163 139t198.5 53zM356 1436q77 22 250 57q55 -191 135 -385l-28 -4q-200 153 -361 317z" />
    <glyph glyph-name="oacute" unicode="&#xf3;" horiz-adv-x="876" 
d="M322 256q102 0 192 33t150.5 86.5t95.5 121t35 136.5q0 121 -234 121q-97 0 -185.5 -32.5t-149 -84.5t-96.5 -118t-36 -132q0 -65 59.5 -98t168.5 -33zM549 1034q133 0 217 -114.5t84 -323.5q0 -152 -67.5 -293.5t-186.5 -232t-256 -90.5q-132 0 -216.5 115.5
t-84.5 326.5q0 112 40.5 223t108 197t163 139t198.5 53zM940 1436l-2 -15q-264 -178 -512 -317l-27 4q195 241 283 385q7 -2 107 -22t151 -35z" />
    <glyph glyph-name="ocircumflex" unicode="&#xf4;" horiz-adv-x="876" 
d="M322 256q102 0 192 33t150.5 86.5t95.5 121t35 136.5q0 121 -234 121q-97 0 -185.5 -32.5t-149 -84.5t-96.5 -118t-36 -132q0 -65 59.5 -98t168.5 -33zM549 1034q133 0 217 -114.5t84 -323.5q0 -152 -67.5 -293.5t-186.5 -232t-256 -90.5q-132 0 -216.5 115.5
t-84.5 326.5q0 112 40.5 223t108 197t163 139t198.5 53zM670 1481q105 -189 223 -346l-39 -7q-117 52 -248 142q-178 -91 -327 -142l-35 7q221 178 397 346h29z" />
    <glyph glyph-name="otilde" unicode="&#xf5;" horiz-adv-x="876" 
d="M322 256q102 0 192 33t150.5 86.5t95.5 121t35 136.5q0 121 -234 121q-97 0 -185.5 -32.5t-149 -84.5t-96.5 -118t-36 -132q0 -65 59.5 -98t168.5 -33zM549 1034q133 0 217 -114.5t84 -323.5q0 -152 -67.5 -293.5t-186.5 -232t-256 -90.5q-132 0 -216.5 115.5
t-84.5 326.5q0 112 40.5 223t108 197t163 139t198.5 53zM522 1456q39 0 75 -18t63.5 -43.5t53 -51t53 -43.5t54.5 -18q43 0 73 37.5t62 122.5h31q-20 -64 -42.5 -113t-55 -94t-76 -69.5t-96.5 -24.5q-41 0 -78 18t-65 43.5t-53 51t-52 43.5t-53 18q-44 0 -74.5 -37
t-62.5 -121h-31q16 50 32.5 90t41 80.5t52.5 67.5t66 44t82 17z" />
    <glyph glyph-name="odieresis" unicode="&#xf6;" horiz-adv-x="876" 
d="M322 256q102 0 192 33t150.5 86.5t95.5 121t35 136.5q0 121 -234 121q-97 0 -185.5 -32.5t-149 -84.5t-96.5 -118t-36 -132q0 -65 59.5 -98t168.5 -33zM549 1034q133 0 217 -114.5t84 -323.5q0 -152 -67.5 -293.5t-186.5 -232t-256 -90.5q-132 0 -216.5 115.5
t-84.5 326.5q0 112 40.5 223t108 197t163 139t198.5 53zM465 1417q55 0 84 -28t29 -80q0 -64 -46 -107t-108 -43q-55 0 -84 28t-29 79q0 64 46 107.5t108 43.5zM803 1417q55 0 83.5 -28t28.5 -80q0 -64 -45.5 -107t-107.5 -43q-55 0 -84 28t-29 79q0 64 46 107.5t108 43.5z
" />
    <glyph glyph-name="divide" unicode="&#xf7;" horiz-adv-x="960" 
d="M102 745q127 -6 430 -6q304 0 435 6l-43 -176q-125 6 -428 6q-304 0 -437 -6zM575 854q-53 0 -81.5 28.5t-28.5 82.5q0 67 40 101t107 34q54 0 83.5 -27.5t29.5 -81.5q0 -65 -42 -101t-108 -36zM418 215q-53 0 -82 28.5t-29 82.5q0 67 40.5 101t107.5 34q112 0 112 -109
q0 -65 -41.5 -101t-107.5 -36z" />
    <glyph glyph-name="oslash" unicode="&#xf8;" horiz-adv-x="876" 
d="M322 252q103 0 193 33.5t150.5 88t95 123t34.5 138.5q0 88 -123 113q-39 -47 -420 -492q40 -4 70 -4zM94 385q0 -98 123 -123q72 86 217.5 252.5t206.5 239.5q-50 4 -80 4q-97 0 -185.5 -33t-149 -86t-96.5 -120t-36 -134zM549 1034q145 0 225 -127q55 59 111 123l24 -26
q-52 -52 -118 -125q59 -115 59 -283q0 -153 -67.5 -294.5t-186.5 -231.5t-256 -90q-143 0 -225 126q-85 -95 -101 -116l-26 26q48 48 112 117q-61 113 -61 289q0 112 40.5 223t108 197t163 139t198.5 53z" />
    <glyph glyph-name="ugrave" unicode="&#xf9;" horiz-adv-x="1036" 
d="M381 279q91 0 158.5 60t105.5 164t53.5 235t8.5 282l251 -12q-55 -157 -102 -347.5t-47 -293.5q0 -99 78 -99q31 0 62 33t69 123l29 -12q-76 -249 -135 -342t-138 -93q-49 0 -88 54t-39 133q0 121 178 545l-18 6q-76 -139 -122.5 -222.5t-103 -179.5t-94.5 -148.5
t-80 -100.5t-77.5 -67.5t-69.5 -19.5q-99 0 -157 57.5t-58 133.5q0 52 28 113t67.5 116t79.5 107t68 99.5t29 78.5q0 31 -25 49.5t-73 18.5q-57 0 -95.5 -29.5t-78.5 -120.5l-31 14q74 225 132.5 322.5t132.5 97.5q51 0 91 -56t40 -132q0 -68 -32.5 -170t-65 -193
t-33.5 -131q0 -73 102 -73zM408 1436q80 22 249 57q53 -182 136 -385l-29 -4q-200 153 -361 317z" />
    <glyph glyph-name="uacute" unicode="&#xfa;" horiz-adv-x="1036" 
d="M381 279q91 0 158.5 60t105.5 164t53.5 235t8.5 282l251 -12q-55 -157 -102 -347.5t-47 -293.5q0 -99 78 -99q31 0 62 33t69 123l29 -12q-76 -249 -135 -342t-138 -93q-49 0 -88 54t-39 133q0 121 178 545l-18 6q-76 -139 -122.5 -222.5t-103 -179.5t-94.5 -148.5
t-80 -100.5t-77.5 -67.5t-69.5 -19.5q-99 0 -157 57.5t-58 133.5q0 52 28 113t67.5 116t79.5 107t68 99.5t29 78.5q0 31 -25 49.5t-73 18.5q-57 0 -95.5 -29.5t-78.5 -120.5l-31 14q74 225 132.5 322.5t132.5 97.5q51 0 91 -56t40 -132q0 -68 -32.5 -170t-65 -193
t-33.5 -131q0 -73 102 -73zM991 1436l-2 -15q-264 -178 -512 -317l-26 4q190 236 282 385q7 -2 107 -22t151 -35z" />
    <glyph glyph-name="ucircumflex" unicode="&#xfb;" horiz-adv-x="1036" 
d="M381 279q91 0 158.5 60t105.5 164t53.5 235t8.5 282l251 -12q-55 -157 -102 -347.5t-47 -293.5q0 -99 78 -99q31 0 62 33t69 123l29 -12q-76 -249 -135 -342t-138 -93q-49 0 -88 54t-39 133q0 121 178 545l-18 6q-76 -139 -122.5 -222.5t-103 -179.5t-94.5 -148.5
t-80 -100.5t-77.5 -67.5t-69.5 -19.5q-99 0 -157 57.5t-58 133.5q0 52 28 113t67.5 116t79.5 107t68 99.5t29 78.5q0 31 -25 49.5t-73 18.5q-57 0 -95.5 -29.5t-78.5 -120.5l-31 14q74 225 132.5 322.5t132.5 97.5q51 0 91 -56t40 -132q0 -68 -32.5 -170t-65 -193
t-33.5 -131q0 -73 102 -73zM721 1481q105 -189 223 -346l-39 -7q-117 52 -248 142q-178 -91 -327 -142l-35 7q221 178 397 346h29z" />
    <glyph glyph-name="udieresis" unicode="&#xfc;" horiz-adv-x="1036" 
d="M381 279q91 0 158.5 60t105.5 164t53.5 235t8.5 282l251 -12q-55 -157 -102 -347.5t-47 -293.5q0 -99 78 -99q31 0 62 33t69 123l29 -12q-76 -249 -135 -342t-138 -93q-49 0 -88 54t-39 133q0 121 178 545l-18 6q-76 -139 -122.5 -222.5t-103 -179.5t-94.5 -148.5
t-80 -100.5t-77.5 -67.5t-69.5 -19.5q-99 0 -157 57.5t-58 133.5q0 52 28 113t67.5 116t79.5 107t68 99.5t29 78.5q0 31 -25 49.5t-73 18.5q-57 0 -95.5 -29.5t-78.5 -120.5l-31 14q74 225 132.5 322.5t132.5 97.5q51 0 91 -56t40 -132q0 -68 -32.5 -170t-65 -193
t-33.5 -131q0 -73 102 -73zM516 1417q55 0 84 -28t29 -80q0 -64 -46 -107t-108 -43q-55 0 -84 28t-29 79q0 64 46 107.5t108 43.5zM854 1417q55 0 84 -28t29 -80q0 -64 -46 -107t-108 -43q-55 0 -84 28t-29 79q0 64 46 107.5t108 43.5z" />
    <glyph glyph-name="yacute" unicode="&#xfd;" horiz-adv-x="876" 
d="M92 -362q-99 0 -211 34l51 258q48 -16 118.5 -28.5t127.5 -12.5q88 0 167 34.5t120 111.5l-291 86q6 71 36 157t61.5 150t54.5 132t18 110q-3 38 -34 58t-83 20q-63 0 -104 -27t-84 -109l-31 13q86 230 140 319.5t110 89.5q98 0 152 -334q41 -224 63 -591l29 -3
q171 398 137 918q183 -3 307 -20q-114 -278 -315 -728q-149 -333 -273 -485.5t-266 -152.5zM948 1436l-2 -15q-264 -178 -512 -317l-26 4q190 236 282 385q7 -2 107 -22t151 -35z" />
    <glyph glyph-name="thorn" unicode="&#xfe;" horiz-adv-x="913" 
d="M426 258q72 0 135.5 27.5t107 71t75 98.5t46.5 110t15 105q0 73 -107 73q-96 0 -199 -112t-186 -355q56 -18 113 -18zM-158 -342q41 169 134 409.5t178.5 430t152 372t66.5 265.5q0 26 -25 42.5t-63 16.5q-80 0 -170 -55l-23 24q140 230 244 230q43 0 72.5 -38.5
t29.5 -99.5q-1 -90 -19.5 -219.5t-35.5 -214t-58 -269t-53 -239.5l19 -6q123 388 227.5 557.5t210.5 169.5q68 0 105.5 -90.5t37.5 -216.5q0 -110 -30.5 -240t-81 -242.5t-124 -187.5t-151.5 -75q-66 0 -111 63t-79 176q-75 -243 -115 -563h-338z" />
    <glyph glyph-name="ydieresis" unicode="&#xff;" horiz-adv-x="876" 
d="M92 -362q-99 0 -211 34l51 258q48 -16 118.5 -28.5t127.5 -12.5q88 0 167 34.5t120 111.5l-291 86q6 71 36 157t61.5 150t54.5 132t18 110q-3 38 -34 58t-83 20q-63 0 -104 -27t-84 -109l-31 13q86 230 140 319.5t110 89.5q98 0 152 -334q41 -224 63 -591l29 -3
q171 398 137 918q183 -3 307 -20q-114 -278 -315 -728q-149 -333 -273 -485.5t-266 -152.5zM473 1417q55 0 84 -28t29 -80q0 -64 -46 -107t-108 -43q-55 0 -84 28t-29 79q0 64 46 107.5t108 43.5zM811 1417q55 0 84 -28t29 -80q0 -64 -46 -107t-108 -43q-55 0 -84 28t-29 79
q0 64 46 107.5t108 43.5z" />
    <glyph glyph-name="Amacron" unicode="&#x100;" horiz-adv-x="1173" 
d="M385 45l-10 -45h-514l10 45l31 14q47 19 141 153.5t437 663.5q154 238 247 381h51q10 -52 129 -593q8 -39 23 -111q55 -268 83.5 -368t69.5 -128l19 -12l-8 -45h-570l11 45l83 10q89 11 89 80q0 68 -45 324q-158 -3 -349 -10q-102 -235 -102 -318q0 -56 76 -68zM797 1401
q-44 0 -141.5 -1t-141.5 -1l29 114q164 -4 280 -4q111 0 279 4l-29 -114q-43 0 -138.5 1t-137.5 1zM649 530q-35 185 -88 402q-137 -246 -221 -426q103 -6 315 -10q-1 6 -3 17t-3 17z" />
    <glyph glyph-name="amacron" unicode="&#x101;" horiz-adv-x="974" 
d="M705 -23q-51 0 -86 58.5t-35 138.5q0 21 5.5 49.5t17.5 68.5t22.5 71.5t30.5 84t30.5 79t33 83t28.5 70.5l-21 6q-199 -377 -319.5 -543t-202.5 -166q-69 0 -118.5 101.5t-49.5 279.5q0 103 30.5 198.5t98.5 182.5t166.5 151.5t244 102.5t322.5 37q-58 -157 -112 -372.5
t-54 -311.5q0 -48 22.5 -74t55.5 -26q31 0 54.5 32.5t72.5 139.5l31 -15q-75 -242 -134.5 -334t-133.5 -92zM643 1180q-44 0 -141.5 -1t-141.5 -1l29 114q164 -4 281 -4q110 0 278 4l-28 -114q-43 0 -139 1t-138 1zM233 268q40 0 91 23.5t117 75.5t145.5 153.5t158.5 239.5
q-138 -21 -250.5 -57.5t-185 -77.5t-122 -88.5t-70.5 -91.5t-21 -85q0 -43 38 -67.5t99 -24.5z" />
    <glyph glyph-name="Abreve" unicode="&#x102;" horiz-adv-x="1173" 
d="M385 45l-10 -45h-514l10 45l31 14q47 19 141 153.5t437 663.5q154 238 247 381h51q10 -52 129 -593q8 -39 23 -111q55 -268 83.5 -368t69.5 -128l19 -12l-8 -45h-570l11 45l83 10q89 11 89 80q0 68 -45 324q-158 -3 -349 -10q-102 -235 -102 -318q0 -56 76 -68zM782 1356
q-138 0 -198 71t-33 226h31q-2 -47 16.5 -71t82 -38t189.5 -14q125 0 176 26.5t80 96.5h31q-26 -85 -63.5 -144t-87 -92t-103.5 -47t-121 -14zM649 530q-35 185 -88 402q-137 -246 -221 -426q103 -6 315 -10q-1 6 -3 17t-3 17z" />
    <glyph glyph-name="abreve" unicode="&#x103;" horiz-adv-x="974" 
d="M705 -23q-51 0 -86 58.5t-35 138.5q0 21 5.5 49.5t17.5 68.5t22.5 71.5t30.5 84t30.5 79t33 83t28.5 70.5l-21 6q-199 -377 -319.5 -543t-202.5 -166q-69 0 -118.5 101.5t-49.5 279.5q0 103 30.5 198.5t98.5 182.5t166.5 151.5t244 102.5t322.5 37q-58 -157 -112 -372.5
t-54 -311.5q0 -48 22.5 -74t55.5 -26q31 0 54.5 32.5t72.5 139.5l31 -15q-75 -242 -134.5 -334t-133.5 -92zM631 1135q-138 0 -198.5 71t-33.5 226h31q-2 -47 16.5 -71t82.5 -38t190 -14q125 0 176 26.5t80 96.5h31q-26 -85 -63.5 -144t-87 -92t-103.5 -47t-121 -14z
M233 268q40 0 91 23.5t117 75.5t145.5 153.5t158.5 239.5q-138 -21 -250.5 -57.5t-185 -77.5t-122 -88.5t-70.5 -91.5t-21 -85q0 -43 38 -67.5t99 -24.5z" />
    <glyph glyph-name="Aogonek" unicode="&#x104;" horiz-adv-x="1173" 
d="M1079 -160q-55 -53 -142 -96t-194 -43q-147 0 -147 88q0 152 422 211h-494l11 45l83 10q89 11 89 80q0 68 -45 324q-158 -3 -349 -10q-102 -235 -102 -318q0 -56 76 -68l98 -18l-10 -45h-514l10 45l31 14q47 19 141 153.5t437 663.5q154 238 247 381h51q10 -52 129 -593
q8 -39 23 -111q55 -268 83.5 -368t69.5 -128l19 -12l-8 -45q-306 -55 -306 -141q0 -23 19 -34t67 -11q102 0 195 51zM649 530q-35 185 -88 402q-137 -246 -221 -426q103 -6 315 -10q-1 6 -3 17t-3 17z" />
    <glyph glyph-name="aogonek" unicode="&#x105;" horiz-adv-x="974" 
d="M233 268q40 0 91 23.5t117 75.5t145.5 153.5t158.5 239.5q-138 -21 -250.5 -57.5t-185 -77.5t-122 -88.5t-70.5 -91.5t-21 -85q0 -43 38 -67.5t99 -24.5zM553 -299q-131 0 -131 92q0 19 7.5 35.5t26 32t34.5 27t47.5 25.5t49.5 21.5t56 22t53 20.5q-47 6 -79.5 63
t-32.5 134q0 21 5.5 49.5t17.5 68.5t22.5 71.5t30.5 84t30.5 79t33 83t28.5 70.5l-21 6q-199 -377 -319.5 -543t-202.5 -166q-69 0 -118.5 101.5t-49.5 279.5q0 103 30.5 198.5t98.5 182.5t166.5 151.5t244 102.5t322.5 37q-58 -157 -112 -372.5t-54 -311.5q0 -48 22.5 -74
t55.5 -26q31 0 54.5 32.5t72.5 139.5l31 -15q-96 -310 -178 -389l-9 -6q-2 -2 -5.5 -4.5t-4.5 -3.5q-22 -16 -58.5 -40t-56 -37.5t-35.5 -32t-16 -35.5q0 -41 70 -41q59 0 154 51l12 -25q-145 -139 -293 -139z" />
    <glyph glyph-name="Cacute" unicode="&#x106;" horiz-adv-x="1144" 
d="M543 276q140 0 232 22t137.5 58.5t70.5 94.5l47 108h39l-82 -397q-209 -182 -452 -182q-224 0 -343.5 132t-119.5 373q0 112 31.5 221t97 207.5t157 173t221 118.5t279.5 44q109 0 205 -23.5t156 -60.5l-121 -463h-39l6 117q3 41 -4 68t-30.5 50t-72 33.5t-124.5 10.5
q-157 0 -292.5 -46t-224 -120.5t-138.5 -167.5t-50 -190q0 -84 108.5 -132.5t305.5 -48.5zM1184 1649l-2 -15q-264 -178 -512 -317l-27 4q195 241 283 385q7 -2 107 -22t151 -35z" />
    <glyph glyph-name="cacute" unicode="&#x107;" horiz-adv-x="808" 
d="M596 764q-93 0 -182 -27.5t-158 -75.5t-111.5 -119t-42.5 -151q0 -69 55.5 -104t153.5 -35q139 0 256.5 57.5t161.5 151.5l29 -19q-29 -95 -69.5 -176t-94 -146t-122 -102.5t-144.5 -37.5q-131 0 -209 112.5t-78 325.5q0 117 39 227t109 196t176 138t231 51
q68 0 139 -13.5t115 -31.5q-87 -333 -105 -403l-38 4q14 94 -6.5 136t-104.5 42zM971 1436l-2 -15q-264 -178 -512 -317l-27 4q195 241 283 385q7 -2 107 -22t151 -35z" />
    <glyph glyph-name="Ccircumflex" unicode="&#x108;" horiz-adv-x="1144" 
d="M543 276q140 0 232 22t137.5 58.5t70.5 94.5l47 108h39l-82 -397q-209 -182 -452 -182q-224 0 -343.5 132t-119.5 373q0 112 31.5 221t97 207.5t157 173t221 118.5t279.5 44q109 0 205 -23.5t156 -60.5l-121 -463h-39l6 117q3 41 -4 68t-30.5 50t-72 33.5t-124.5 10.5
q-157 0 -292.5 -46t-224 -120.5t-138.5 -167.5t-50 -190q0 -84 108.5 -132.5t305.5 -48.5zM915 1694q102 -184 224 -346l-39 -7q-117 52 -248 142q-176 -90 -328 -142l-35 7q228 184 398 346h28z" />
    <glyph glyph-name="ccircumflex" unicode="&#x109;" horiz-adv-x="808" 
d="M596 764q-93 0 -182 -27.5t-158 -75.5t-111.5 -119t-42.5 -151q0 -69 55.5 -104t153.5 -35q139 0 256.5 57.5t161.5 151.5l29 -19q-29 -95 -69.5 -176t-94 -146t-122 -102.5t-144.5 -37.5q-131 0 -209 112.5t-78 325.5q0 117 39 227t109 196t176 138t231 51
q68 0 139 -13.5t115 -31.5q-87 -333 -105 -403l-38 4q14 94 -6.5 136t-104.5 42zM700 1481q102 -184 224 -346l-39 -7q-117 52 -248 142q-176 -90 -328 -142l-35 7q228 184 398 346h28z" />
    <glyph glyph-name="Cdotaccent" unicode="&#x10a;" horiz-adv-x="1144" 
d="M543 276q140 0 232 22t137.5 58.5t70.5 94.5l47 108h39l-82 -397q-209 -182 -452 -182q-224 0 -343.5 132t-119.5 373q0 112 31.5 221t97 207.5t157 173t221 118.5t279.5 44q109 0 205 -23.5t156 -60.5l-121 -463h-39l6 117q3 41 -4 68t-30.5 50t-72 33.5t-124.5 10.5
q-157 0 -292.5 -46t-224 -120.5t-138.5 -167.5t-50 -190q0 -84 108.5 -132.5t305.5 -48.5zM870 1628q59 0 90 -30t31 -85q0 -69 -50 -115t-116 -46q-59 0 -89.5 29.5t-30.5 84.5q0 70 49 116t116 46z" />
    <glyph glyph-name="cdotaccent" unicode="&#x10b;" horiz-adv-x="808" 
d="M596 764q-93 0 -182 -27.5t-158 -75.5t-111.5 -119t-42.5 -151q0 -69 55.5 -104t153.5 -35q139 0 256.5 57.5t161.5 151.5l29 -19q-29 -95 -69.5 -176t-94 -146t-122 -102.5t-144.5 -37.5q-131 0 -209 112.5t-78 325.5q0 117 39 227t109 196t176 138t231 51
q68 0 139 -13.5t115 -31.5q-87 -333 -105 -403l-38 4q14 94 -6.5 136t-104.5 42zM655 1415q59 0 90 -30t31 -85q0 -69 -50 -115t-116 -46q-59 0 -90 29.5t-31 84.5q0 70 49.5 116t116.5 46z" />
    <glyph glyph-name="Ccaron" unicode="&#x10c;" horiz-adv-x="1144" 
d="M543 276q140 0 232 22t137.5 58.5t70.5 94.5l47 108h39l-82 -397q-209 -182 -452 -182q-224 0 -343.5 132t-119.5 373q0 112 31.5 221t97 207.5t157 173t221 118.5t279.5 44q109 0 205 -23.5t156 -60.5l-121 -463h-39l6 117q3 41 -4 68t-30.5 50t-72 33.5t-124.5 10.5
q-157 0 -292.5 -46t-224 -120.5t-138.5 -167.5t-50 -190q0 -84 108.5 -132.5t305.5 -48.5zM793 1317q-102 184 -224 346l39 6q121 -54 248 -141q170 88 328 141l35 -6q-228 -184 -398 -346h-28z" />
    <glyph glyph-name="ccaron" unicode="&#x10d;" horiz-adv-x="808" 
d="M596 764q-93 0 -182 -27.5t-158 -75.5t-111.5 -119t-42.5 -151q0 -69 55.5 -104t153.5 -35q139 0 256.5 57.5t161.5 151.5l29 -19q-29 -95 -69.5 -176t-94 -146t-122 -102.5t-144.5 -37.5q-131 0 -209 112.5t-78 325.5q0 117 39 227t109 196t176 138t231 51
q68 0 139 -13.5t115 -31.5q-87 -333 -105 -403l-38 4q14 94 -6.5 136t-104.5 42zM578 1104q-102 184 -224 346l39 6q121 -54 248 -141q170 88 328 141l35 -6q-228 -184 -398 -346h-28z" />
    <glyph glyph-name="Dcaron" unicode="&#x10e;" horiz-adv-x="1290" 
d="M494 621q-72 -295 -94.5 -397.5t-26.5 -172.5q142 8 253.5 65t178 138.5t109.5 189t59 207t16 203.5q0 174 -72.5 251t-207.5 77q-33 0 -47 -2q-25 -40 -59 -150t-109 -409zM809 1229q465 0 465 -424q0 -162 -55 -310t-150 -257t-229 -173.5t-285 -64.5h-653l10 45l84 16
q41 7 60 34q31 42 82 239q18 68 67 262q103 415 112 495q6 62 -18 74q-7 4 -23 6l-79 13l12 45h600zM821 1296q-105 189 -223 346l39 7q117 -52 248 -142q178 91 327 142l35 -7q-221 -178 -397 -346h-29z" />
    <glyph glyph-name="dcaron" unicode="&#x10f;" horiz-adv-x="1304" 
d="M705 -23q-51 0 -86 58.5t-35 138.5q0 20 5 48t17 66t22.5 70t29 81t30 78t32.5 81.5t28 71.5l-21 6q-201 -375 -319 -537t-199 -162q-69 0 -117.5 101.5t-48.5 281.5q0 98 29 189.5t92 175t154.5 146t226 100.5t297.5 41q20 88 20 135q0 65 -86 65q-85 0 -190 -55l-11 31
q142 205 256 205q44 0 73.5 -33t29.5 -88q0 -123 -47 -285q-150 -499 -150 -641q0 -48 22.5 -74t55.5 -26q30 0 54.5 33.5t72.5 138.5l29 -15q-50 -165 -93 -258.5t-83 -130.5t-90 -37zM918 700l-25 19q184 216 221 391q27 138 -53 211q68 72 151 72q115 0 84 -160
q-18 -90 -78 -187.5t-130 -175t-170 -170.5zM236 270q142 0 259 117.5t240 370.5q-135 -22 -246 -58t-182.5 -77t-120 -88t-69.5 -90.5t-21 -84.5q0 -42 40 -66t100 -24z" />
    <glyph glyph-name="Dcroat" unicode="&#x110;" horiz-adv-x="1290" 
d="M760 600q-77 2 -271 6q-68 -280 -90 -383t-26 -172q142 8 253.5 65t178 138.5t109.5 189t59 207t16 203.5q0 174 -72.5 251t-207.5 77q-33 0 -47 -2q-24 -37 -56 -140t-106 -391q146 0 272 4zM809 1229q465 0 465 -424q0 -162 -55 -310t-150 -257t-229 -173.5t-285 -64.5
h-653l10 45l84 16q41 7 60 34q31 42 82 239q18 68 67 262l2 8q-26 -1 -78 -2t-72 -2l15 53q70 -4 145 -4q95 380 100 454q4 53 -21 63q-7 3 -20 5l-79 13l12 45h600z" />
    <glyph glyph-name="dcroat" unicode="&#x111;" horiz-adv-x="974" 
d="M969 399q-71 -240 -130 -331t-134 -91q-51 0 -86 58.5t-35 138.5q0 20 5 48t17 66t22.5 70t29 81t30 78t32.5 81.5t28 71.5l-21 6q-201 -375 -319 -537t-199 -162q-69 0 -118.5 101.5t-49.5 279.5q0 94 28.5 181t91.5 166.5t153.5 138.5t224.5 95.5t295 39.5q3 14 9 41.5
t9 40.5q-272 0 -348 -2l8 37q144 -4 344 -4q6 38 6 61q0 66 -86 66q-95 0 -180 -33l-8 24q134 183 243 183q44 0 73.5 -33t29.5 -88q0 -72 -23 -180h2q85 0 179 4l-9 -37q-47 2 -178 2q-3 -12 -9 -37t-9 -37q-150 -499 -150 -641q0 -48 22.5 -74t55.5 -26q32 0 58 35t71 143
zM236 268q142 0 259 118t240 372q-135 -22 -246 -58t-182.5 -77t-120 -88t-69.5 -90.5t-21 -84.5q0 -42 40 -67t100 -25z" />
    <glyph glyph-name="Emacron" unicode="&#x112;" horiz-adv-x="1112" 
d="M483 600q-116 -456 -125 -549q151 8 240.5 32.5t149 71.5t122.5 138l127 196h41q-89 -247 -159 -489h-983l10 45l100 18q35 6 53 34q27 43 83 260q16 60 57 223q107 432 113 518q4 57 -21 67q-7 4 -23 6l-84 13l13 45h983q-47 -214 -86 -461h-41l-29 166
q-17 69 -37.5 109.5t-63.5 72t-109.5 45.5t-174.5 19q-31 -75 -143 -533q95 4 149 20.5t86 48t66 93.5l53 111l29 -2q-29 -100 -72.5 -292t-63.5 -304h-28l-2 110q-6 96 -51 130.5t-179 41.5v-4zM793 1372q-44 0 -141.5 -1t-141.5 -1l29 115q164 -4 280 -4q111 0 279 4
l-29 -115q-43 0 -138.5 1t-137.5 1z" />
    <glyph glyph-name="emacron" unicode="&#x113;" horiz-adv-x="833" 
d="M516 778q-131 0 -245.5 -83.5t-157.5 -196.5q530 114 530 204q0 30 -31.5 53t-95.5 23zM326 -23q-132 0 -210.5 114.5t-78.5 338.5q0 119 47 232.5t119.5 194t162 129t173.5 48.5q63 0 117.5 -23.5t89 -61.5t54 -82.5t19.5 -88.5q0 -116 -162 -181.5t-553 -123.5
q-12 -40 -12 -76q0 -47 38.5 -80t88.5 -46t105 -13q129 0 269 62t187 155l29 -18q-80 -212 -209.5 -346t-273.5 -134zM582 1180q-44 0 -141.5 -1t-141.5 -1l29 114q164 -4 280 -4q111 0 279 4l-29 -114q-43 0 -138.5 1t-137.5 1z" />
    <glyph glyph-name="Ebreve" unicode="&#x114;" horiz-adv-x="1112" 
d="M483 600q-116 -456 -125 -549q151 8 240.5 32.5t149 71.5t122.5 138l127 196h41q-89 -247 -159 -489h-983l10 45l100 18q35 6 53 34q27 43 83 260q16 60 57 223q107 432 113 518q4 57 -21 67q-7 4 -23 6l-84 13l13 45h983q-47 -214 -86 -461h-41l-29 166
q-17 69 -37.5 109.5t-63.5 72t-109.5 45.5t-174.5 19q-31 -75 -143 -533q95 4 149 20.5t86 48t66 93.5l53 111l29 -2q-29 -100 -72.5 -292t-63.5 -304h-28l-2 110q-6 96 -51 130.5t-179 41.5v-4zM780 1327q-138 0 -198 71t-33 226h31q-2 -47 16.5 -71t82 -38t189.5 -14
q125 0 176 26.5t80 96.5h31q-26 -85 -63.5 -144t-87 -92t-103.5 -47t-121 -14z" />
    <glyph glyph-name="ebreve" unicode="&#x115;" horiz-adv-x="833" 
d="M516 778q-131 0 -245.5 -83.5t-157.5 -196.5q530 114 530 204q0 30 -31.5 53t-95.5 23zM326 -23q-132 0 -210.5 114.5t-78.5 338.5q0 119 47 232.5t119.5 194t162 129t173.5 48.5q63 0 117.5 -23.5t89 -61.5t54 -82.5t19.5 -88.5q0 -116 -162 -181.5t-553 -123.5
q-12 -40 -12 -76q0 -47 38.5 -80t88.5 -46t105 -13q129 0 269 62t187 155l29 -18q-80 -212 -209.5 -346t-273.5 -134zM569 1135q-138 0 -198 71t-33 226h31q-2 -47 16.5 -71t82 -38t189.5 -14q125 0 176 26.5t80 96.5h31q-26 -85 -63.5 -144t-87 -92t-103.5 -47t-121 -14z
" />
    <glyph glyph-name="Edotaccent" unicode="&#x116;" horiz-adv-x="1112" 
d="M483 600q-116 -456 -125 -549q151 8 240.5 32.5t149 71.5t122.5 138l127 196h41q-89 -247 -159 -489h-983l10 45l100 18q35 6 53 34q27 43 83 260q16 60 57 223q107 432 113 518q4 57 -21 67q-7 4 -23 6l-84 13l13 45h983q-47 -214 -86 -461h-41l-29 166
q-17 69 -37.5 109.5t-63.5 72t-109.5 45.5t-174.5 19q-31 -75 -143 -533q95 4 149 20.5t86 48t66 93.5l53 111l29 -2q-29 -100 -72.5 -292t-63.5 -304h-28l-2 110q-6 96 -51 130.5t-179 41.5v-4zM834 1608q59 0 89.5 -30t30.5 -85q0 -69 -50 -115.5t-116 -46.5
q-59 0 -89.5 30t-30.5 85q0 70 49.5 116t116.5 46z" />
    <glyph glyph-name="edotaccent" unicode="&#x117;" horiz-adv-x="833" 
d="M516 778q-131 0 -245.5 -83.5t-157.5 -196.5q530 114 530 204q0 30 -31.5 53t-95.5 23zM326 -23q-132 0 -210.5 114.5t-78.5 338.5q0 119 47 232.5t119.5 194t162 129t173.5 48.5q63 0 117.5 -23.5t89 -61.5t54 -82.5t19.5 -88.5q0 -116 -162 -181.5t-553 -123.5
q-12 -40 -12 -76q0 -47 38.5 -80t88.5 -46t105 -13q129 0 269 62t187 155l29 -18q-80 -212 -209.5 -346t-273.5 -134zM623 1415q59 0 89.5 -30t30.5 -85q0 -69 -49.5 -115t-115.5 -46q-59 0 -90 29.5t-31 84.5q0 70 49.5 116t116.5 46z" />
    <glyph glyph-name="Eogonek" unicode="&#x118;" horiz-adv-x="1112" 
d="M483 600q-116 -456 -125 -549q151 8 240.5 32.5t149 71.5t122.5 138l127 196h41q-86 -240 -159 -487l2 -2q-306 -55 -306 -141q0 -23 19.5 -34t67.5 -11q101 0 194 51l10 -25q-55 -53 -142 -96t-194 -43q-147 0 -147 88q0 152 422 211h-909l10 45l100 18q35 6 53 34
q27 43 83 260q16 60 57 223q107 432 113 518q4 57 -21 67q-7 4 -23 6l-84 13l13 45h983q-47 -214 -86 -461h-41l-29 166q-17 69 -37.5 109.5t-63.5 72t-109.5 45.5t-174.5 19q-31 -75 -143 -533q95 4 149 20.5t86 48t66 93.5l53 111l29 -2q-29 -100 -72.5 -292t-63.5 -304
h-28l-2 110q-6 96 -51 130.5t-179 41.5v-4z" />
    <glyph glyph-name="eogonek" unicode="&#x119;" horiz-adv-x="833" 
d="M516 778q-131 0 -245.5 -83.5t-157.5 -196.5q530 114 530 204q0 30 -31.5 53t-95.5 23zM330 -299q-69 0 -105.5 21.5t-36.5 60.5q0 31 30.5 61.5t70.5 53t103.5 61t107.5 72.5q-85 -54 -174 -54q-132 0 -210.5 114.5t-78.5 338.5q0 119 47 232.5t119.5 194t162 129
t173.5 48.5q63 0 117.5 -23.5t89 -61.5t54 -82.5t19.5 -88.5q0 -116 -162 -181.5t-553 -123.5q-12 -40 -12 -76q0 -47 38.5 -80t88.5 -46t105 -13q129 0 269 62t187 155l29 -18q-79 -210 -205 -342q-44 -54 -91.5 -100.5t-73.5 -68t-43 -44.5t-17 -45q0 -43 82 -43
q90 0 190 51l11 -25q-56 -53 -140.5 -96t-191.5 -43z" />
    <glyph glyph-name="Ecaron" unicode="&#x11a;" horiz-adv-x="1112" 
d="M483 600q-116 -456 -125 -549q151 8 240.5 32.5t149 71.5t122.5 138l127 196h41q-89 -247 -159 -489h-983l10 45l100 18q35 6 53 34q27 43 83 260q16 60 57 223q107 432 113 518q4 57 -21 67q-7 4 -23 6l-84 13l13 45h983q-47 -214 -86 -461h-41l-29 166
q-17 69 -37.5 109.5t-63.5 72t-109.5 45.5t-174.5 19q-31 -75 -143 -533q95 4 149 20.5t86 48t66 93.5l53 111l29 -2q-29 -100 -72.5 -292t-63.5 -304h-28l-2 110q-6 96 -51 130.5t-179 41.5v-4zM756 1296q-102 184 -224 346l39 7q117 -52 248 -142q176 90 328 142l35 -7
q-228 -184 -398 -346h-28z" />
    <glyph glyph-name="ecaron" unicode="&#x11b;" horiz-adv-x="833" 
d="M516 778q-131 0 -245.5 -83.5t-157.5 -196.5q530 114 530 204q0 30 -31.5 53t-95.5 23zM326 -23q-132 0 -210.5 114.5t-78.5 338.5q0 119 47 232.5t119.5 194t162 129t173.5 48.5q63 0 117.5 -23.5t89 -61.5t54 -82.5t19.5 -88.5q0 -116 -162 -181.5t-553 -123.5
q-12 -40 -12 -76q0 -47 38.5 -80t88.5 -46t105 -13q129 0 269 62t187 155l29 -18q-80 -212 -209.5 -346t-273.5 -134zM545 1104q-105 189 -223 346l38 6q121 -54 248 -141q170 88 328 141l35 -6q-228 -184 -398 -346h-28z" />
    <glyph glyph-name="Gcircumflex" unicode="&#x11c;" 
d="M553 -20q-230 0 -355.5 128.5t-125.5 352.5q0 119 31 232.5t96 214.5t157 177t222.5 120t283.5 44q113 0 210.5 -23t156.5 -61l-119 -458h-39l6 112q2 42 -5 69.5t-30 51t-71 34.5t-123 11q-128 0 -243.5 -29.5t-201 -79.5t-148 -115t-94.5 -137.5t-32 -144.5
q0 -54 79.5 -104.5t194.5 -83t235.5 -52.5t209.5 -20q81 0 117 30t36 95q0 38 -14 61t-66 49t-157 56l-246 55l6 37q390 -9 680 0l-8 -37l-43 -12q-33 -14 -51 -44t-34 -101.5t-42 -235.5q-249 -192 -473 -192zM946 1694q105 -189 223 -346l-39 -7q-114 50 -247 142
q-176 -90 -328 -142l-35 7q228 184 398 346h28z" />
    <glyph glyph-name="gcircumflex" unicode="&#x11d;" horiz-adv-x="921" 
d="M92 -358q-81 0 -180 16l31 256q92 -21 238.5 -37t246.5 -16q99 0 132.5 37t55.5 159q43 306 154 623l-22 6q-365 -674 -537 -674q-70 0 -119 94t-49 263q0 101 32 195.5t101.5 180t170 149t246.5 100.5t322 36q-34 -356 -129 -760q-75 -316 -254 -472t-440 -156z
M795 1481q105 -189 223 -346l-39 -7q-117 52 -248 142q-176 -90 -328 -142l-34 7q221 178 397 346h29zM236 279q40 0 92.5 22.5t121 73t151 150t159.5 235.5q-170 -26 -302.5 -72.5t-208 -101t-113.5 -109.5t-38 -106q0 -42 39 -67t99 -25z" />
    <glyph glyph-name="Gbreve" unicode="&#x11e;" 
d="M553 -20q-230 0 -355.5 128.5t-125.5 352.5q0 119 31 232.5t96 214.5t157 177t222.5 120t283.5 44q113 0 210.5 -23t156.5 -61l-119 -458h-39l6 112q2 42 -5 69.5t-30 51t-71 34.5t-123 11q-128 0 -243.5 -29.5t-201 -79.5t-148 -115t-94.5 -137.5t-32 -144.5
q0 -54 79.5 -104.5t194.5 -83t235.5 -52.5t209.5 -20q81 0 117 30t36 95q0 38 -14 61t-66 49t-157 56l-246 55l6 37q390 -9 680 0l-8 -37l-43 -12q-33 -14 -51 -44t-34 -101.5t-42 -235.5q-249 -192 -473 -192zM846 1348q-138 0 -198.5 71t-33.5 226h31q-2 -47 16.5 -71
t82.5 -38t190 -14q125 0 176 26.5t80 96.5h31q-26 -85 -63.5 -144t-87 -92t-103.5 -47t-121 -14z" />
    <glyph glyph-name="gbreve" unicode="&#x11f;" horiz-adv-x="921" 
d="M92 -358q-81 0 -180 16l31 256q92 -21 238.5 -37t246.5 -16q99 0 132.5 37t55.5 159q43 306 154 623l-22 6q-365 -674 -537 -674q-70 0 -119 94t-49 263q0 101 32 195.5t101.5 180t170 149t246.5 100.5t322 36q-34 -356 -129 -760q-75 -316 -254 -472t-440 -156z
M694 1135q-138 0 -198 71t-33 226h31q-2 -47 16.5 -71t82 -38t189.5 -14q125 0 176 26.5t80 96.5h31q-26 -85 -63.5 -144t-87 -92t-103.5 -47t-121 -14zM236 279q40 0 92.5 22.5t121 73t151 150t159.5 235.5q-170 -26 -302.5 -72.5t-208 -101t-113.5 -109.5t-38 -106
q0 -42 39 -67t99 -25z" />
    <glyph glyph-name="Gdotaccent" unicode="&#x120;" 
d="M553 -20q-230 0 -355.5 128.5t-125.5 352.5q0 119 31 232.5t96 214.5t157 177t222.5 120t283.5 44q113 0 210.5 -23t156.5 -61l-119 -458h-39l6 112q2 42 -5 69.5t-30 51t-71 34.5t-123 11q-128 0 -243.5 -29.5t-201 -79.5t-148 -115t-94.5 -137.5t-32 -144.5
q0 -54 79.5 -104.5t194.5 -83t235.5 -52.5t209.5 -20q81 0 117 30t36 95q0 38 -14 61t-66 49t-157 56l-246 55l6 37q390 -9 680 0l-8 -37l-43 -12q-33 -14 -51 -44t-34 -101.5t-42 -235.5q-249 -192 -473 -192zM899 1628q59 0 90 -30t31 -85q0 -69 -50 -115t-116 -46
q-59 0 -90 29.5t-31 84.5q0 70 49.5 116t116.5 46z" />
    <glyph glyph-name="gdotaccent" unicode="&#x121;" horiz-adv-x="921" 
d="M92 -358q-81 0 -180 16l31 256q92 -21 238.5 -37t246.5 -16q99 0 132.5 37t55.5 159q43 306 154 623l-22 6q-365 -674 -537 -674q-70 0 -119 94t-49 263q0 101 32 195.5t101.5 180t170 149t246.5 100.5t322 36q-34 -356 -129 -760q-75 -316 -254 -472t-440 -156z
M750 1415q59 0 89.5 -30t30.5 -85q0 -69 -49.5 -115t-115.5 -46q-59 0 -90 29.5t-31 84.5q0 70 49.5 116t116.5 46zM236 279q40 0 92.5 22.5t121 73t151 150t159.5 235.5q-170 -26 -302.5 -72.5t-208 -101t-113.5 -109.5t-38 -106q0 -42 39 -67t99 -25z" />
    <glyph glyph-name="Gcommaaccent" unicode="&#x122;" 
d="M553 -20q-230 0 -355.5 128.5t-125.5 352.5q0 119 31 232.5t96 214.5t157 177t222.5 120t283.5 44q113 0 210.5 -23t156.5 -61l-119 -458h-39l6 112q2 42 -5 69.5t-30 51t-71 34.5t-123 11q-128 0 -243.5 -29.5t-201 -79.5t-148 -115t-94.5 -137.5t-32 -144.5
q0 -54 79.5 -104.5t194.5 -83t235.5 -52.5t209.5 -20q81 0 117 30t36 95q0 38 -14 61t-66 49t-157 56l-246 55l6 37q390 -9 680 0l-8 -37l-43 -12q-33 -14 -51 -44t-34 -101.5t-42 -235.5q-249 -192 -473 -192zM262 -449l-4 15q150 86 158 155q8 51 -68 111q66 86 160 86
q54 0 79 -28t19 -76q-20 -141 -344 -263z" />
    <glyph glyph-name="gcommaaccent" unicode="&#x123;" horiz-adv-x="927" 
d="M92 -358q-81 0 -180 16l31 256q92 -21 238.5 -37t246.5 -16q99 0 132.5 37t55.5 159q43 306 154 623l-22 6q-365 -674 -537 -674q-70 0 -119 94t-49 263q0 101 32 195.5t101.5 180t170 149t246.5 100.5t322 36q-34 -356 -129 -760q-75 -316 -254 -472t-440 -156z
M889 1526l4 -15q-150 -86 -158 -155q-8 -51 68 -111q-66 -86 -160 -86q-54 0 -79 28t-19 77q20 140 344 262zM236 279q40 0 92.5 22.5t121 73t151 150t159.5 235.5q-170 -26 -302.5 -72.5t-208 -101t-113.5 -109.5t-38 -106q0 -42 39 -67t99 -25z" />
    <glyph glyph-name="Hcircumflex" unicode="&#x124;" horiz-adv-x="1363" 
d="M915 592q1 5 4.5 16.5t4.5 16.5h-88q-42 0 -344 -15q-52 -204 -75 -301.5t-30.5 -158t0 -72.5t29.5 -17l92 -16l-10 -45h-600l10 45l106 18q41 9 69 88.5t120 440.5q105 426 114 503q6 58 -17 69q-5 3 -15 5l-92 15l12 45h598l-10 -45l-105 -17q-15 -2 -24.5 -7
t-21.5 -25t-23 -49t-28 -88t-35.5 -132.5t-47.5 -191.5q198 -10 336 -10h90q92 374 96 444q3 47 -20 57q-5 2 -13 4l-92 15l13 45h598l-11 -45l-104 -17q-23 -2 -36.5 -15.5t-35.5 -73.5t-46.5 -154t-72.5 -287q-54 -215 -78 -317t-32.5 -165.5t-1 -76t29.5 -17.5l93 -16
l-11 -45h-600l11 45l106 18q41 9 68.5 87.5t119.5 441.5zM995 1673q102 -184 224 -346l-39 -6q-121 54 -248 141q-170 -88 -328 -141l-35 6q228 184 398 346h28z" />
    <glyph glyph-name="hcircumflex" unicode="&#x125;" horiz-adv-x="1009" 
d="M383 1133q0 29 -24.5 45t-65.5 16q-78 0 -168 -55l-21 24q140 230 240 230q43 0 74 -38.5t31 -99.5q0 -110 -26 -264t-71.5 -362.5t-64.5 -317.5l20 -6q76 263 152.5 428.5t145 233t140.5 67.5t120 -60.5t48 -137.5q0 -59 -68.5 -245t-68.5 -241q0 -41 19 -61.5t47 -20.5
q36 0 65 31.5t70 122.5l29 -12q-73 -244 -141 -338.5t-158 -94.5q-70 0 -120 60.5t-50 134.5q0 50 28 111t68.5 116t81 106.5t68.5 98t28 76.5q0 28 -28 45.5t-81 17.5q-48 0 -90 -19t-88.5 -68.5t-91 -132t-94.5 -214t-102 -309.5h-295q20 99 94 278.5t150 338t137 309.5
t61 207zM498 1735q105 -189 223 -346l-39 -7q-117 52 -248 142q-176 -90 -328 -142l-34 7q221 178 397 346h29z" />
    <glyph glyph-name="Hbar" unicode="&#x126;" horiz-adv-x="1359" 
d="M838 653h94q35 138 55 224h-201h-229q-29 -120 -53 -213q218 -11 334 -11zM918 592l4 20h-95q-100 0 -338 -12q-50 -199 -72.5 -296t-29.5 -155.5t0 -70.5t29 -17l92 -16l-10 -45h-600l10 45l106 18q23 5 35.5 17.5t35 75t45.5 150t73 286.5q22 88 69 282q-71 0 -161 -4
l12 48q107 -5 158 -5q26 114 33 167t0.5 69t-29.5 20l-90 15l10 45h598l-10 -45l-105 -17q-23 -2 -38 -19t-34 -70.5t-49 -166.5h230h198q26 114 32.5 168.5t-0.5 70t-30 19.5l-90 15l11 45h598l-11 -45l-104 -17q-22 -2 -37 -18.5t-35 -70.5t-49 -165q64 0 186 5l-12 -48
q-98 4 -184 4q-1 -3 -23 -91.5t-37 -145.5q-105 -426 -113 -504q-5 -56 18 -67q6 -3 15 -5l91 -16l-11 -45h-598l11 45l104 18q15 3 24.5 9t22.5 28t23.5 51.5t29.5 94.5t38.5 140.5t52.5 205.5z" />
    <glyph glyph-name="hbar" unicode="&#x127;" horiz-adv-x="1011" 
d="M449 1272q0 -71 -13 -170h13q208 0 376 4l-12 -37q-84 2 -373 2h-8q-17 -127 -72.5 -392.5t-72.5 -367.5l20 -6q109 369 216 530.5t218 161.5q72 0 120 -53.5t48 -122.5q0 -57 -66.5 -237t-66.5 -234q0 -41 19 -61.5t47 -20.5q36 0 65 31t70 123l29 -12
q-73 -244 -141 -338.5t-158 -94.5q-70 0 -120 60.5t-50 134.5q0 49 28 108.5t67.5 113t79 104t67.5 95.5t28 73t-28 46.5t-81 18.5q-48 0 -90 -18.5t-88.5 -67t-90.5 -129.5t-93 -210.5t-100 -305.5h-295q24 115 114 327.5t187.5 429t126.5 314.5q-182 0 -248 -2l12 37
q122 -4 244 -4q8 31 8 55q0 27 -25.5 44.5t-64.5 17.5q-80 0 -156 -33l-12 22q133 185 223 185q43 0 71 -33t28 -88z" />
    <glyph glyph-name="Itilde" unicode="&#x128;" horiz-adv-x="651" 
d="M201 592q105 426 114 503q6 58 -17 69q-5 3 -15 5l-93 15l13 45h598l-10 -45l-105 -17q-23 -2 -36 -15t-35 -74.5t-46.5 -153.5t-72.5 -287q-54 -215 -78 -317t-32.5 -165.5t-1 -76t29.5 -17.5l92 -16l-10 -45h-600l10 45l106 18q41 9 69 88.5t120 440.5zM494 1649
q39 0 75 -18t63.5 -43.5t53 -51t53 -43.5t54.5 -18q43 0 73 37t62 122h30q-20 -64 -42.5 -113t-55 -94t-76 -69.5t-96.5 -24.5q-41 0 -78 18t-65 43.5t-53 51t-52 43.5t-53 18q-44 0 -74.5 -36.5t-62.5 -120.5h-31q21 64 43.5 112t55 93.5t77 69.5t99.5 24z" />
    <glyph glyph-name="itilde" unicode="&#x129;" horiz-adv-x="512" 
d="M311 686q0 29 -24 46.5t-70 17.5q-56 0 -95.5 -30t-76.5 -118l-31 12q74 225 132.5 322.5t132.5 97.5q51 0 91 -55t40 -133q0 -64 -63.5 -248t-63.5 -238q0 -81 67 -81q34 0 61 31.5t68 119.5l29 -14q-50 -167 -98 -265t-94 -136t-101 -38q-71 0 -121.5 58t-50.5 131
q0 53 27.5 116t66.5 119.5t78.5 109.5t67 99.5t28.5 75.5zM416 1446q34 0 65 -24t50 -52t44.5 -52t49.5 -24q28 0 48 30t48 106h33q-19 -61 -38.5 -107t-47 -89.5t-64.5 -67t-80 -23.5q-36 0 -67.5 23.5t-51 52t-44 52t-48.5 23.5q-28 0 -49 -31.5t-47 -105.5h-33
q20 63 39.5 108.5t47.5 90t64.5 67.5t80.5 23z" />
    <glyph glyph-name="Imacron" unicode="&#x12a;" horiz-adv-x="651" 
d="M201 592q105 426 114 503q6 58 -17 69q-5 3 -15 5l-93 15l13 45h598l-10 -45l-105 -17q-23 -2 -36 -15t-35 -74.5t-46.5 -153.5t-72.5 -287q-54 -215 -78 -317t-32.5 -165.5t-1 -76t29.5 -17.5l92 -16l-10 -45h-600l10 45l106 18q41 9 69 88.5t120 440.5zM553 1374
q-170 0 -246 -2l29 117q222 -6 244 -6q23 0 245 6l-28 -117q-76 2 -244 2z" />
    <glyph glyph-name="imacron" unicode="&#x12b;" horiz-adv-x="512" 
d="M311 686q0 29 -24 46.5t-70 17.5q-56 0 -95.5 -30t-76.5 -118l-31 12q74 225 132.5 322.5t132.5 97.5q51 0 91 -55t40 -133q0 -64 -63.5 -248t-63.5 -238q0 -81 67 -81q34 0 61 31.5t68 119.5l29 -14q-50 -167 -98 -265t-94 -136t-101 -38q-71 0 -121.5 58t-50.5 131
q0 53 27.5 116t66.5 119.5t78.5 109.5t67 99.5t28.5 75.5zM442 1182q-169 0 -245 -2l28 116q222 -6 244 -6q24 0 246 6l-29 -116q-76 2 -244 2z" />
    <glyph glyph-name="Ibreve" unicode="&#x12c;" horiz-adv-x="651" 
d="M201 592q105 426 114 503q6 58 -17 69q-5 3 -15 5l-93 15l13 45h598l-10 -45l-105 -17q-23 -2 -36 -15t-35 -74.5t-46.5 -153.5t-72.5 -287q-54 -215 -78 -317t-32.5 -165.5t-1 -76t29.5 -17.5l92 -16l-10 -45h-600l10 45l106 18q41 9 69 88.5t120 440.5zM559 1327
q-116 0 -163 69t-23 218h33q-5 -63 37.5 -87t179.5 -24q64 0 101.5 12t57.5 34t39 65h31q-47 -158 -120 -222.5t-173 -64.5z" />
    <glyph glyph-name="ibreve" unicode="&#x12d;" horiz-adv-x="512" 
d="M311 686q0 29 -24 46.5t-70 17.5q-56 0 -95.5 -30t-76.5 -118l-31 12q74 225 132.5 322.5t132.5 97.5q51 0 91 -55t40 -133q0 -64 -63.5 -248t-63.5 -238q0 -81 67 -81q34 0 61 31.5t68 119.5l29 -14q-50 -167 -98 -265t-94 -136t-101 -38q-71 0 -121.5 58t-50.5 131
q0 53 27.5 116t66.5 119.5t78.5 109.5t67 99.5t28.5 75.5zM446 1135q-117 0 -163.5 68.5t-22.5 217.5h33q-5 -63 37.5 -86.5t179.5 -23.5q64 0 102 11.5t58 33.5t39 65h30q-47 -158 -120 -222t-173 -64z" />
    <glyph glyph-name="Iogonek" unicode="&#x12e;" horiz-adv-x="651" 
d="M201 592q105 426 114 503q6 58 -17 69q-5 3 -15 5l-93 15l13 45h598l-10 -45l-105 -17q-23 -2 -36 -15t-35 -74.5t-46.5 -153.5t-72.5 -287q-54 -215 -78 -317t-32.5 -165.5t-1 -76t29.5 -17.5l92 -16l-10 -45q-306 -55 -306 -141q0 -23 19 -34t67 -11q102 0 195 51
l10 -25q-55 -53 -142 -96t-194 -43q-147 0 -147 88q0 152 422 211h-524l10 45l106 18q41 9 69 88.5t120 440.5z" />
    <glyph glyph-name="iogonek" unicode="&#x12f;" horiz-adv-x="524" 
d="M408 1135q-59 0 -92 33.5t-33 99.5q0 83 47.5 124.5t132.5 41.5q59 0 92 -31.5t33 -93.5q0 -87 -47 -130.5t-133 -43.5zM313 686q0 29 -24 46.5t-70 17.5q-56 0 -95.5 -30t-76.5 -118l-31 12q74 225 132.5 322.5t132.5 97.5q51 0 91 -55t40 -133q0 -64 -63.5 -248
t-63.5 -238q0 -81 67 -81q34 0 61 31.5t68 119.5l29 -14q-102 -334 -201 -408q-29 -27 -73.5 -56.5t-65 -49t-20.5 -43.5q0 -23 17 -34t60 -11q84 0 174 53l11 -25q-147 -141 -316 -141q-137 0 -137 88q0 27 16 49t47 40t62 32t77 33t75 34h-19q-71 0 -121.5 58t-50.5 131
q0 53 27.5 116t66.5 119.5t78.5 109.5t67 99.5t28.5 75.5z" />
    <glyph glyph-name="Idotaccent" unicode="&#x130;" horiz-adv-x="651" 
d="M201 592q105 426 114 503q6 58 -17 69q-5 3 -15 5l-93 15l13 45h598l-10 -45l-105 -17q-23 -2 -36 -15t-35 -74.5t-46.5 -153.5t-72.5 -287q-54 -215 -78 -317t-32.5 -165.5t-1 -76t29.5 -17.5l92 -16l-10 -45h-600l10 45l106 18q41 9 69 88.5t120 440.5zM596 1608
q59 0 90 -30t31 -85q0 -69 -50 -115.5t-116 -46.5q-59 0 -90 30t-31 85q0 70 49.5 116t116.5 46z" />
    <glyph glyph-name="dotlessi" unicode="&#x131;" horiz-adv-x="512" 
d="M311 686q0 29 -24 46.5t-70 17.5q-56 0 -95.5 -30t-76.5 -118l-31 12q74 225 132.5 322.5t132.5 97.5q51 0 91 -55t40 -133q0 -64 -63.5 -248t-63.5 -238q0 -81 67 -81q34 0 61 31.5t68 119.5l29 -14q-50 -167 -98 -265t-94 -136t-101 -38q-71 0 -121.5 58t-50.5 131
q0 53 27.5 116t66.5 119.5t78.5 109.5t67 99.5t28.5 75.5z" />
    <glyph glyph-name="IJ" unicode="&#x132;" horiz-adv-x="1298" 
d="M201 592q105 426 114 503q6 58 -17 69q-5 3 -15 5l-93 15l13 45h598l-10 -45l-105 -17q-23 -2 -36 -15t-35 -74.5t-46.5 -153.5t-72.5 -287q-54 -215 -78 -317t-32.5 -165.5t-1 -76t29.5 -17.5l92 -16l-10 -45h-600l10 45l106 18q41 9 69 88.5t120 440.5zM449 -201l10 62
q40 0 64.5 1.5t52.5 14.5t44.5 29.5t39.5 57t39 85t41 127t47.5 169.5t56.5 224q109 440 117 524q6 61 -17 72q-7 4 -22 6l-78 13l10 45h590l-10 -45l-91 -13q-17 -2 -28 -8t-25 -27t-24.5 -49t-28.5 -89t-36 -131t-48 -189q-18 -73 -44.5 -198t-39.5 -175
q-49 -198 -215.5 -338.5t-404.5 -167.5z" />
    <glyph glyph-name="ij" unicode="&#x133;" horiz-adv-x="999" 
d="M408 1135q-59 0 -92 33.5t-33 99.5q0 83 47.5 124.5t132.5 41.5q59 0 92 -31.5t33 -93.5q0 -87 -47 -130.5t-133 -43.5zM313 686q0 29 -24 46.5t-70 17.5q-56 0 -95.5 -30t-76.5 -118l-31 12q74 225 132.5 322.5t132.5 97.5q51 0 91 -55t40 -133q0 -64 -63.5 -248
t-63.5 -238q0 -81 67 -81q34 0 61 31.5t68 119.5l29 -14q-50 -167 -98 -265t-94 -136t-101 -38q-71 0 -121.5 58t-50.5 131q0 53 27.5 116t66.5 119.5t78.5 109.5t67 99.5t28.5 75.5zM879 1135q-57 0 -90 34t-33 99q0 83 47 124.5t131 41.5q59 0 93 -32t34 -93
q0 -87 -48 -130.5t-134 -43.5zM362 -309q70 -1 107.5 30.5t67 132.5t59.5 316q14 72 56 157.5t84.5 146.5t76 121t33.5 91q0 29 -24 46.5t-70 17.5q-57 0 -96 -29.5t-76 -118.5l-31 12q74 225 131 322.5t125 97.5q106 0 106 -317q0 -354 -100 -707q-20 -68 -60.5 -133.5
t-97 -119t-132.5 -86.5t-159 -33v53z" />
    <glyph glyph-name="Jcircumflex" unicode="&#x134;" horiz-adv-x="649" 
d="M-201 -201l11 62q40 0 64.5 1.5t52.5 14.5t44.5 29.5t39.5 57t39 85t41 127t47.5 169.5t56.5 224q109 440 116 525q6 60 -18 71q-7 4 -21 6l-77 13l10 45h590l-11 -45l-90 -13q-17 -2 -28 -8t-25 -27t-24.5 -49t-28.5 -89t-36 -131t-48 -189q-18 -73 -44.5 -198
t-39.5 -175q-49 -198 -215.5 -338.5t-405.5 -167.5zM629 1659q68 -171 157 -330l-32 -6q-104 58 -185 125q-124 -73 -252 -125l-30 6q142 135 321 330h21z" />
    <glyph glyph-name="jcircumflex" unicode="&#x135;" horiz-adv-x="475" 
d="M-162 -309q42 -1 68.5 8.5t51.5 36t43 81.5t35 138.5t36 214.5q11 59 41 126t64.5 122.5t67.5 106t55 93t22 68.5q0 29 -24.5 46.5t-70.5 17.5q-56 0 -96 -31t-80 -123l-24 25q73 221 130 317t124 96q106 0 106 -317q0 -354 -100 -707q-20 -68 -60.5 -133.5t-97 -119
t-132.5 -86.5t-159 -33v53zM422 1466q64 -161 158 -329l-33 -7q-104 58 -185 125q-126 -75 -251 -125l-31 7q149 143 321 329h21z" />
    <glyph glyph-name="Kcommaaccent" unicode="&#x136;" horiz-adv-x="1269" 
d="M569 618q261 204 353.5 298.5t97.5 156.5q3 73 -72 96l-76 15l13 45h549l-11 -45l-43 -13q-61 -18 -171.5 -96t-383.5 -299q92 -278 144 -418t102 -227q36 -54 105 -86l-11 -45h-389q-37 96 -99 279.5t-108 338.5zM203 592q105 426 114 503q6 58 -17 69q-5 3 -15 5
l-92 15l12 45h598l-10 -45l-105 -17q-23 -2 -36 -15t-35 -74.5t-46.5 -153.5t-72.5 -287q-54 -215 -78 -317t-32.5 -165.5t-1 -76t29.5 -17.5l92 -16l-10 -45h-600l10 45l106 18q41 9 69 88.5t120 440.5zM307 -449l-4 15q150 86 158 155q8 51 -68 111q66 86 160 86
q54 0 79 -28t19 -76q-20 -141 -344 -263z" />
    <glyph glyph-name="kcommaaccent" unicode="&#x137;" horiz-adv-x="993" 
d="M678 -23q-34 0 -65.5 24t-56.5 63t-51.5 104t-47 130t-47.5 159q220 31 344.5 101.5t126.5 133.5q0 32 -34.5 52t-103.5 20q-59 0 -111.5 -21.5t-107 -75.5t-103.5 -139.5t-98 -218.5t-94 -309h-288q47 142 157.5 406t187 462t76.5 267q0 26 -24 42.5t-62 16.5
q-80 0 -170 -55l-22 24q144 230 244 230q42 0 72 -35.5t30 -87.5q0 -61 -8.5 -143.5t-29 -200t-34 -192t-43.5 -226.5t-39 -197l21 -6q52 197 112.5 341.5t123.5 227.5t125 121.5t126 38.5q89 0 143 -59t54 -139q0 -34 -17.5 -85t-52.5 -108t-80.5 -106.5t-109 -82
t-131.5 -32.5q-75 0 -156 22q209 -180 328 -180q39 0 80.5 38t93.5 144l35 -10q-47 -174 -97 -278t-96 -142.5t-100 -38.5zM154 -449l-4 15q149 85 157 155q8 51 -67 111q66 86 159 86q54 0 79.5 -28t19.5 -76q-20 -141 -344 -263zM240 63q1 7 4 21.5t4 21.5q-1 -7 -4 -21.5
t-4 -21.5z" />
    <glyph glyph-name="kgreenlandic" unicode="&#x138;" horiz-adv-x="1046" 
d="M279 1034q55 0 88.5 -81t33.5 -240q0 -78 -69 -402l26 -8q217 731 480 731q89 0 142.5 -59t53.5 -139q0 -33 -17.5 -83.5t-52.5 -108t-80.5 -107t-109 -82.5t-131.5 -33q-62 0 -139 22q202 -180 311 -180q39 0 80.5 38t93.5 144l37 -8q-71 -257 -141.5 -359t-153.5 -102
q-29 0 -53.5 14.5t-47.5 49.5t-40.5 69t-39.5 99.5t-36 113t-39 134.5q220 31 339.5 100.5t119.5 134.5q0 33 -34 52.5t-103 19.5q-74 0 -136 -35.5t-125.5 -120.5t-125.5 -235.5t-125 -372.5q-169 7 -291 0q27 82 88 195t116.5 201t98.5 168.5t43 111.5q0 33 -29 53.5
t-86 20.5q-61 0 -102 -31t-80 -123l-27 25q73 220 132.5 316.5t130.5 96.5zM293 66q6 24 17.5 67.5t13.5 52.5q-19 -66 -31 -120z" />
    <glyph glyph-name="Lacute" unicode="&#x139;" horiz-adv-x="978" 
d="M782 0h-880l8 45l94 16q53 10 80 81.5t113 422.5q58 229 84 341t31 175.5t-4.5 74.5t-39.5 15l-78 13l11 45h614l-10 -45l-109 -13q-25 -3 -39 -15t-37 -74.5t-47.5 -153t-74.5 -291.5q-127 -508 -133 -588q86 14 146.5 36.5t110 63t84.5 82.5t87 119l145 246l43 -2
q-141 -384 -199 -594zM920 1628l-2 -14q-272 -184 -512 -318l-27 4q192 238 283 386q26 -6 78.5 -16.5t97 -20.5t82.5 -21z" />
    <glyph glyph-name="lacute" unicode="&#x13a;" horiz-adv-x="497" 
d="M360 1135q0 26 -23 42.5t-61 16.5q-76 0 -167 -59l-23 28q140 230 242 230q43 0 73.5 -38.5t30.5 -99.5q-1 -86 -42 -269.5t-81.5 -359t-40.5 -243.5q0 -104 72 -104q34 0 61 30t64 113l29 -12q-70 -241 -138.5 -337t-152.5 -96q-74 0 -125 62.5t-51 150.5q0 78 52 222
t114.5 276.5t114.5 263t52 183.5zM907 1792l-2 -14q-272 -184 -512 -318l-26 4q190 236 282 385q7 -2 107 -22t151 -35z" />
    <glyph glyph-name="Lcommaaccent" unicode="&#x13b;" horiz-adv-x="978" 
d="M782 0h-880l8 45l94 16q53 10 80 81.5t113 422.5q58 229 84 341t31 175.5t-4.5 74.5t-39.5 15l-78 13l11 45h614l-10 -45l-109 -13q-25 -3 -39 -15t-37 -74.5t-47.5 -153t-74.5 -291.5q-127 -508 -133 -588q86 14 146.5 36.5t110 63t84.5 82.5t87 119l145 246l43 -2
q-141 -384 -199 -594zM184 -449l-4 15q150 86 158 155q8 51 -68 111q66 86 160 86q54 0 79 -28t19 -76q-20 -141 -344 -263z" />
    <glyph glyph-name="lcommaaccent" unicode="&#x13c;" horiz-adv-x="497" 
d="M360 1135q0 26 -23 42.5t-61 16.5q-76 0 -167 -59l-23 28q140 230 242 230q43 0 73.5 -38.5t30.5 -99.5q-1 -86 -42 -269.5t-81.5 -359t-40.5 -243.5q0 -104 72 -104q34 0 61 30t64 113l29 -12q-70 -241 -138.5 -337t-152.5 -96q-74 0 -125 62.5t-51 150.5q0 78 52 222
t114.5 276.5t114.5 263t52 183.5zM-78 -449l-4 15q150 86 158 155q8 51 -68 111q66 86 160 86q54 0 79 -28t19 -76q-20 -141 -344 -263z" />
    <glyph glyph-name="Lcaron" unicode="&#x13d;" horiz-adv-x="978" 
d="M782 0h-880l8 45l94 16q53 10 80 81.5t113 422.5q58 229 84 341t31 175.5t-4.5 74.5t-39.5 15l-78 13l11 45h614l-10 -45l-109 -13q-25 -3 -39 -15t-37 -74.5t-47.5 -153t-74.5 -291.5q-127 -508 -133 -588q86 14 146.5 36.5t110 63t84.5 82.5t87 119l145 246l43 -2
q-141 -384 -199 -594zM786 700l-24 19q184 216 221 391q27 138 -53 211q68 72 151 72q115 0 84 -160q-27 -130 -125 -259t-254 -274z" />
    <glyph glyph-name="lcaron" unicode="&#x13e;" horiz-adv-x="968" 
d="M360 1135q0 26 -23 42.5t-61 16.5q-76 0 -167 -59l-23 28q140 230 242 230q43 0 73.5 -38.5t30.5 -99.5q-1 -86 -42 -269.5t-81.5 -359t-40.5 -243.5q0 -104 72 -104q34 0 61 30t64 113l29 -12q-70 -241 -138.5 -337t-152.5 -96q-74 0 -125 62.5t-51 150.5q0 78 52 222
t114.5 276.5t114.5 263t52 183.5zM578 700l-25 19q184 216 221 391q27 138 -53 211q68 72 151 72q115 0 84 -160q-18 -90 -78 -187.5t-130 -175t-170 -170.5z" />
    <glyph glyph-name="Ldot" unicode="&#x13f;" horiz-adv-x="978" 
d="M782 0h-880l8 45l94 16q53 10 80 81.5t113 422.5q58 229 84 341t31 175.5t-4.5 74.5t-39.5 15l-78 13l11 45h614l-10 -45l-109 -13q-25 -3 -39 -15t-37 -74.5t-47.5 -153t-74.5 -291.5q-127 -508 -133 -588q86 14 146.5 36.5t110 63t84.5 82.5t87 119l145 246l43 -2
q-141 -384 -199 -594zM883 930q59 0 90 -30t31 -85q0 -69 -50 -115.5t-116 -46.5q-59 0 -90 30t-31 85q0 70 49.5 116t116.5 46z" />
    <glyph glyph-name="ldot" unicode="&#x140;" horiz-adv-x="743" 
d="M360 1135q0 26 -23 42.5t-61 16.5q-76 0 -167 -59l-23 28q140 230 242 230q43 0 73.5 -38.5t30.5 -99.5q-1 -86 -42 -269.5t-81.5 -359t-40.5 -243.5q0 -104 72 -104q34 0 61 30t64 113l29 -12q-70 -241 -138.5 -337t-152.5 -96q-74 0 -125 62.5t-51 150.5q0 78 52 222
t114.5 276.5t114.5 263t52 183.5zM608 805q59 0 90 -30t31 -85q0 -69 -50 -115.5t-116 -46.5q-59 0 -90 30t-31 85q0 70 49.5 116t116.5 46z" />
    <glyph glyph-name="Lslash" unicode="&#x141;" horiz-adv-x="978" 
d="M782 0h-880l8 45l94 16q34 6 52.5 30.5t40.5 93t63 235.5q-131 -75 -137 -80l-17 37q54 26 166 88q21 81 25 100q58 229 84 341t31 175.5t-4.5 74.5t-39.5 15l-78 13l11 45h614l-10 -45l-109 -13q-25 -3 -39 -15t-37 -74t-47.5 -152.5t-74.5 -290.5q172 102 268 160
l20 -37q-69 -33 -299 -168q-115 -460 -122 -545q86 14 146.5 36.5t110 63t84.5 82.5t87 119l145 246l43 -2q-141 -384 -199 -594z" />
    <glyph glyph-name="lslash" unicode="&#x142;" horiz-adv-x="499" 
d="M360 1135q0 26 -23 42.5t-61 16.5q-76 0 -167 -59l-23 28q140 230 242 230q43 0 73.5 -38.5t30.5 -99.5q-1 -37 -7.5 -87t-21.5 -121.5t-25 -117.5t-33 -140.5t-30 -124.5q166 85 185 94l14 -35q-39 -13 -207 -94q-39 -173 -39 -246q0 -104 72 -104q34 0 61 30t64 113
l29 -12q-70 -241 -138.5 -337t-152.5 -96q-74 0 -125 62.5t-51 150.5q0 110 106 363q-107 -54 -133 -70l-16 35q92 40 168 78q16 37 56.5 126.5t59.5 133.5t44.5 107.5t36.5 104t11 67.5z" />
    <glyph glyph-name="Nacute" unicode="&#x143;" horiz-adv-x="1271" 
d="M971 -25h-56q-17 35 -136 283t-211.5 438.5t-149.5 298.5q-22 43 -39 68q-47 -199 -73 -350.5t-30.5 -254.5t3 -172t33.5 -109.5t55.5 -60t74.5 -30.5l187 -41l-11 -45h-718l10 45l70 16q47 13 75 54q45 68 120 343q42 153 169 650q-39 44 -94 59l-74 17l8 45h508
q148 -437 342 -791q45 193 68.5 325t30.5 206t-3.5 115t-25.5 53t-45 18l-144 29l11 45h499l-8 -45l-55 -15q-43 -11 -73.5 -59t-88.5 -233.5t-153 -567.5q-60 -240 -76 -334zM1247 1628l-2 -14q-272 -184 -512 -318l-26 4q188 233 282 386q26 -6 78.5 -16.5t97 -20.5
t82.5 -21z" />
    <glyph glyph-name="nacute" unicode="&#x144;" horiz-adv-x="1062" 
d="M762 -23q-70 0 -120 60.5t-50 134.5q0 50 28 111t68.5 116t81 106.5t68.5 98t28 76.5q0 28 -27.5 45.5t-80.5 17.5q-48 0 -90 -18.5t-89 -68t-92 -132t-95.5 -214.5t-102.5 -310h-297q28 82 89 195t117 201t99 168.5t43 111.5q0 32 -29.5 53t-85.5 21q-62 0 -102.5 -30
t-77.5 -120l-31 14q73 224 132 322t130 98q57 0 93.5 -82.5t36.5 -242.5q0 -74 -66 -398l16 -4q125 392 229.5 558.5t215.5 166.5q71 0 119.5 -60t48.5 -136q0 -59 -69 -245t-69 -241q0 -41 19 -61.5t47 -20.5q37 0 67 32.5t72 127.5l27 -12q-72 -246 -141.5 -342.5
t-159.5 -96.5zM1087 1436l-2 -15q-264 -178 -512 -317l-26 4q190 236 282 385q7 -2 107 -22t151 -35z" />
    <glyph glyph-name="Ncommaaccent" unicode="&#x145;" horiz-adv-x="1271" 
d="M971 -25h-56q-17 35 -136 283t-211.5 438.5t-149.5 298.5q-22 43 -39 68q-47 -199 -73 -350.5t-30.5 -254.5t3 -172t33.5 -109.5t55.5 -60t74.5 -30.5l187 -41l-11 -45h-718l10 45l70 16q47 13 75 54q45 68 120 343q42 153 169 650q-39 44 -94 59l-74 17l8 45h508
q148 -437 342 -791q45 193 68.5 325t30.5 206t-3.5 115t-25.5 53t-45 18l-144 29l11 45h499l-8 -45l-55 -15q-43 -11 -73.5 -59t-88.5 -233.5t-153 -567.5q-60 -240 -76 -334zM299 -449l-4 15q150 86 158 155q8 51 -68 111q66 86 160 86q54 0 79 -28t19 -76
q-20 -141 -344 -263z" />
    <glyph glyph-name="ncommaaccent" unicode="&#x146;" horiz-adv-x="1062" 
d="M762 -23q-70 0 -120 60.5t-50 134.5q0 50 28 111t68.5 116t81 106.5t68.5 98t28 76.5q0 28 -27.5 45.5t-80.5 17.5q-48 0 -90 -18.5t-89 -68t-92 -132t-95.5 -214.5t-102.5 -310h-297q28 82 89 195t117 201t99 168.5t43 111.5q0 32 -29.5 53t-85.5 21q-62 0 -102.5 -30
t-77.5 -120l-31 14q73 224 132 322t130 98q57 0 93.5 -82.5t36.5 -242.5q0 -74 -66 -398l16 -4q125 392 229.5 558.5t215.5 166.5q71 0 119.5 -60t48.5 -136q0 -59 -69 -245t-69 -241q0 -41 19 -61.5t47 -20.5q37 0 67 32.5t72 127.5l27 -12q-72 -246 -141.5 -342.5
t-159.5 -96.5zM188 -449l-4 15q150 86 158 155q8 51 -68 111q66 86 160 86q54 0 79 -28t19 -76q-20 -141 -344 -263z" />
    <glyph glyph-name="Ncaron" unicode="&#x147;" horiz-adv-x="1271" 
d="M971 -25h-56q-17 35 -136 283t-211.5 438.5t-149.5 298.5q-22 43 -39 68q-47 -199 -73 -350.5t-30.5 -254.5t3 -172t33.5 -109.5t55.5 -60t74.5 -30.5l187 -41l-11 -45h-718l10 45l70 16q47 13 75 54q45 68 120 343q42 153 169 650q-39 44 -94 59l-74 17l8 45h508
q148 -437 342 -791q45 193 68.5 325t30.5 206t-3.5 115t-25.5 53t-45 18l-144 29l11 45h499l-8 -45l-55 -15q-43 -11 -73.5 -59t-88.5 -233.5t-153 -567.5q-60 -240 -76 -334zM854 1296q-105 189 -223 346l39 7q117 -52 248 -142q178 91 327 142l35 -7q-221 -178 -397 -346
h-29z" />
    <glyph glyph-name="ncaron" unicode="&#x148;" horiz-adv-x="1062" 
d="M762 -23q-70 0 -120 60.5t-50 134.5q0 50 28 111t68.5 116t81 106.5t68.5 98t28 76.5q0 28 -27.5 45.5t-80.5 17.5q-48 0 -90 -18.5t-89 -68t-92 -132t-95.5 -214.5t-102.5 -310h-297q28 82 89 195t117 201t99 168.5t43 111.5q0 32 -29.5 53t-85.5 21q-62 0 -102.5 -30
t-77.5 -120l-31 14q73 224 132 322t130 98q57 0 93.5 -82.5t36.5 -242.5q0 -74 -66 -398l16 -4q125 392 229.5 558.5t215.5 166.5q71 0 119.5 -60t48.5 -136q0 -59 -69 -245t-69 -241q0 -41 19 -61.5t47 -20.5q37 0 67 32.5t72 127.5l27 -12q-72 -246 -141.5 -342.5
t-159.5 -96.5zM694 1104q-105 189 -223 346l39 6q121 -54 248 -141q172 89 327 141l35 -6q-221 -178 -397 -346h-29z" />
    <glyph glyph-name="napostrophe" unicode="&#x149;" horiz-adv-x="1482" 
d="M1182 -23q-70 0 -120 60.5t-50 134.5q0 50 28 111t68.5 116t81 106.5t68.5 98t28 76.5q0 28 -27.5 45.5t-80.5 17.5q-48 0 -90 -18.5t-89 -68t-92 -132t-95.5 -214.5t-102.5 -310h-297q28 82 89 195t117 201t99 168.5t43 111.5q0 32 -29.5 53t-85.5 21q-62 0 -102.5 -30
t-77.5 -120l-31 14q73 224 132 322t130 98q57 0 93 -82.5t36 -242.5q0 -79 -65 -398l16 -4q125 392 229.5 558.5t215.5 166.5q71 0 119.5 -60t48.5 -136q0 -59 -69 -245t-69 -241q0 -41 19 -61.5t47 -20.5q37 0 67 32.5t72 127.5l27 -12q-72 -246 -141.5 -342.5
t-159.5 -96.5zM94 616l-14 27q213 145 213 275q0 51 -30 98.5t-97 109.5q41 58 86 89.5t108 31.5q75 0 114.5 -44t39.5 -126q0 -70 -32 -135t-94 -122.5t-130.5 -104t-163.5 -99.5z" />
    <glyph glyph-name="Eng" unicode="&#x14a;" horiz-adv-x="1292" 
d="M510 -223l33 149q181 1 251 22.5t107 84.5q-13 28 -76 164t-102.5 219.5t-97.5 206.5t-105 216.5t-82 157.5q-23 45 -45 72q-144 -586 -168 -726q-28 -165 1 -214q19 -32 82 -46q12 -2 48 -9l160 -29l-12 -45h-590l10 45l72 16q18 5 30.5 12.5t29 28.5t30 50t34 86
t41 127.5t51.5 183t64.5 243.5t81.5 318q-40 40 -96 57l-72 17l11 45h516q50 -155 142.5 -369.5t205.5 -413.5q45 191 68 321.5t30 203.5t-4.5 113.5t-27 52.5t-46.5 18l-147 29l12 45h510l-12 -45l-53 -15q-47 -14 -82 -74t-98.5 -267.5t-170.5 -634.5q-44 -181 -182 -292
t-352 -124z" />
    <glyph glyph-name="eng" unicode="&#x14b;" horiz-adv-x="970" 
d="M582 180q7 59 39 122.5t72 115.5t79.5 99.5t66.5 90t27 72.5q0 28 -27.5 45.5t-80.5 17.5q-48 0 -90 -18.5t-89 -68t-92 -132t-95.5 -214.5t-102.5 -310h-297q28 82 89 195t117 201t99 168.5t43 111.5q0 32 -29.5 53t-85.5 21q-62 0 -102.5 -29.5t-77.5 -118.5l-31 12
q73 224 132 322t130 98q57 0 93.5 -82.5t36.5 -242.5q0 -74 -66 -398l16 -4q125 391 230 559t215 168q72 0 120 -60.5t48 -137.5q0 -59 -66 -236.5t-72 -249.5q-29 -712 -497 -712v53q76 -1 117 30.5t73.5 137.5t57.5 321z" />
    <glyph glyph-name="Omacron" unicode="&#x14c;" horiz-adv-x="1234" 
d="M823 965q-151 0 -283.5 -43t-221 -112.5t-139 -156.5t-50.5 -176q0 -198 350 -198q145 0 274.5 45.5t215.5 117.5t136 161t50 177q0 87 -83 136t-249 49zM1208 770q0 -137 -59 -279.5t-154.5 -255t-229 -184t-271.5 -71.5q-188 0 -304 137.5t-116 363.5q0 137 52 273.5
t142 246t224 178t284 68.5q195 0 313.5 -129t118.5 -348zM815 1391q-44 0 -141.5 -1t-141.5 -1l29 114q164 -4 281 -4q110 0 278 4l-28 -114q-43 0 -139 1t-138 1z" />
    <glyph glyph-name="omacron" unicode="&#x14d;" horiz-adv-x="876" 
d="M322 256q102 0 192 33t150.5 86.5t95.5 121t35 136.5q0 121 -234 121q-97 0 -185.5 -32.5t-149 -84.5t-96.5 -118t-36 -132q0 -65 59.5 -98t168.5 -33zM549 1034q133 0 217 -114.5t84 -323.5q0 -152 -67.5 -293.5t-186.5 -232t-256 -90.5q-132 0 -216.5 115.5
t-84.5 326.5q0 112 40.5 223t108 197t163 139t198.5 53zM582 1180q-44 0 -141.5 -1t-141.5 -1l29 114q164 -4 280 -4q111 0 279 4l-29 -114q-43 0 -138.5 1t-137.5 1z" />
    <glyph glyph-name="Obreve" unicode="&#x14e;" horiz-adv-x="1234" 
d="M823 965q-151 0 -283.5 -43t-221 -112.5t-139 -156.5t-50.5 -176q0 -198 350 -198q145 0 274.5 45.5t215.5 117.5t136 161t50 177q0 87 -83 136t-249 49zM1208 770q0 -137 -59 -279.5t-154.5 -255t-229 -184t-271.5 -71.5q-188 0 -304 137.5t-116 363.5q0 137 52 273.5
t142 246t224 178t284 68.5q195 0 313.5 -129t118.5 -348zM803 1346q-139 0 -199 70.5t-33 225.5h31q-2 -47 16.5 -71t82.5 -37.5t190 -13.5q86 0 136 13t75 37.5t45 71.5h31q-26 -85 -63.5 -144t-87 -91.5t-103.5 -46.5t-121 -14z" />
    <glyph glyph-name="obreve" unicode="&#x14f;" horiz-adv-x="876" 
d="M322 256q102 0 192 33t150.5 86.5t95.5 121t35 136.5q0 121 -234 121q-97 0 -185.5 -32.5t-149 -84.5t-96.5 -118t-36 -132q0 -65 59.5 -98t168.5 -33zM549 1034q133 0 217 -114.5t84 -323.5q0 -152 -67.5 -293.5t-186.5 -232t-256 -90.5q-132 0 -216.5 115.5
t-84.5 326.5q0 112 40.5 223t108 197t163 139t198.5 53zM569 1135q-138 0 -198 71t-33 226h31q-2 -47 16.5 -71t82 -38t189.5 -14q125 0 176 26.5t80 96.5h31q-26 -85 -63.5 -144t-87 -92t-103.5 -47t-121 -14z" />
    <glyph glyph-name="Ohungarumlaut" unicode="&#x150;" horiz-adv-x="1234" 
d="M823 965q-151 0 -283.5 -43t-221 -112.5t-139 -156.5t-50.5 -176q0 -198 350 -198q145 0 274.5 45.5t215.5 117.5t136 161t50 177q0 87 -83 136t-249 49zM1208 770q0 -137 -59 -279.5t-154.5 -255t-229 -184t-271.5 -71.5q-188 0 -304 137.5t-116 363.5q0 137 52 273.5
t142 246t224 178t284 68.5q195 0 313.5 -129t118.5 -348zM975 1675l-2 -14q-144 -161 -348 -344l-27 2q88 152 186 379q108 -10 191 -23zM1239 1675l-2 -14q-166 -181 -350 -344l-25 2q100 172 185 379q110 -10 192 -23z" />
    <glyph glyph-name="ohungarumlaut" unicode="&#x151;" horiz-adv-x="876" 
d="M322 256q102 0 192 33t150.5 86.5t95.5 121t35 136.5q0 121 -234 121q-97 0 -185.5 -32.5t-149 -84.5t-96.5 -118t-36 -132q0 -65 59.5 -98t168.5 -33zM549 1034q133 0 217 -114.5t84 -323.5q0 -152 -67.5 -293.5t-186.5 -232t-256 -90.5q-132 0 -216.5 115.5
t-84.5 326.5q0 112 40.5 223t108 197t163 139t198.5 53zM741 1464l-2 -14q-144 -161 -348 -344l-26 2q88 152 186 379q106 -10 190 -23zM1006 1464l-2 -14q-162 -176 -351 -344l-24 2q96 166 184 379q113 -10 193 -23z" />
    <glyph glyph-name="OE" unicode="&#x152;" horiz-adv-x="2041" 
d="M825 965q-149 0 -280 -43t-218.5 -112.5t-137.5 -156.5t-50 -176q0 -198 344 -198q119 0 228.5 29.5t191 79t142.5 112t92.5 131t31.5 133.5q0 95 -85 148t-259 53zM950 45q42 9 66 77t104 392q-47 -100 -114.5 -193.5t-149.5 -170.5t-179.5 -123.5t-191.5 -46.5
q-180 0 -290.5 137t-110.5 364q0 109 31.5 219.5t92.5 208t143 173.5t190.5 120.5t226.5 44.5q192 0 306 -122.5t120 -315.5q33 138 48 210.5t15 111t-8 47.5t-30 14l-45 10l6 27h940q-54 -245 -88 -461h-39l-31 166q-13 55 -28.5 90.5t-41.5 66t-67 47.5t-100.5 28
t-145.5 16q-30 -75 -145 -535q95 4 149.5 20.5t87 48t64.5 93.5l55 111l29 -2q-31 -101 -74.5 -293.5t-61.5 -302.5h-28l-4 110q-6 96 -50.5 130.5t-179.5 41.5v-4q-118 -476 -123 -549q150 8 239 32.5t149 71.5t122 138l127 196h41q-107 -309 -157 -489h-940l6 31z" />
    <glyph glyph-name="oe" unicode="&#x153;" horiz-adv-x="1570" 
d="M322 256q103 0 193 33t150.5 86.5t95 121t34.5 136.5q0 121 -234 121q-97 0 -185.5 -32.5t-149 -84.5t-96.5 -118t-36 -132q0 -65 59.5 -98t168.5 -33zM1255 778q-133 0 -246.5 -83t-156.5 -197q530 113 530 204q0 30 -31.5 53t-95.5 23zM1063 -23q-113 0 -186 94
t-86 279q-61 -161 -183 -265.5t-268 -104.5q-133 0 -217 115.5t-84 326.5q0 112 40.5 223t108 197t163 139t198.5 53q117 0 195.5 -95.5t91.5 -272.5q64 160 190 264t250 104q125 0 202.5 -80.5t77.5 -175.5q0 -116 -160.5 -181.5t-551.5 -123.5q-13 -44 -13 -76
q0 -47 38 -80t88 -46t104 -13q83 0 176.5 25.5t174.5 77.5t108 116l26 -22q-78 -211 -208 -344.5t-275 -133.5z" />
    <glyph glyph-name="Racute" unicode="&#x154;" horiz-adv-x="1232" 
d="M668 694q116 0 196 96.5t80 215.5q0 83 -57.5 128.5t-159.5 45.5q-43 0 -80 -6q-34 -77 -133 -472q63 -8 154 -8zM498 635q-51 -207 -74.5 -310t-26.5 -163.5t8.5 -73.5t43.5 -18l147 -25l-10 -45h-688l12 45l94 18q28 6 42 17.5t37.5 72.5t48 151.5t75.5 291.5
q101 411 108 494q4 60 -21 74q-8 4 -24 7l-77 13l12 45h651q110 0 185 -17t114 -49.5t54.5 -71.5t15.5 -92q0 -155 -106 -271.5t-257 -131.5q122 -380 211 -487q8 -10 18 -18t16.5 -12t27 -15.5t32.5 -18.5l-10 -45h-389q-75 175 -133 618q-72 18 -129 52q-1 -6 -4 -17.5
t-4 -17.5zM1200 1628l-2 -14q-272 -184 -512 -318l-27 4q192 238 283 386q26 -6 78.5 -16.5t97 -20.5t82.5 -21z" />
    <glyph glyph-name="racute" unicode="&#x155;" horiz-adv-x="759" 
d="M803 1030l-37 -350q-176 21 -260 -111.5t-199 -568.5h-315q28 82 89 195t117 200.5t99 167.5t43 111q0 34 -29.5 55t-85.5 21q-62 0 -102.5 -29.5t-77.5 -118.5l-31 12q73 224 132 322t130 98q56 0 90.5 -82.5t34.5 -242.5q0 -45 -13 -124.5t-38 -206t-35 -183.5l15 -7
q89 334 164 517.5t145.5 254t163.5 70.5zM899 1436l-2 -15q-264 -178 -512 -317l-27 4q195 241 283 385q7 -2 107 -22t151 -35z" />
    <glyph glyph-name="Rcommaaccent" unicode="&#x156;" horiz-adv-x="1232" 
d="M668 694q116 0 196 96.5t80 215.5q0 83 -57.5 128.5t-159.5 45.5q-43 0 -80 -6q-34 -77 -133 -472q63 -8 154 -8zM498 635q-51 -207 -74.5 -310t-26.5 -163.5t8.5 -73.5t43.5 -18l147 -25l-10 -45h-688l12 45l94 18q28 6 42 17.5t37.5 72.5t48 151.5t75.5 291.5
q101 411 108 494q4 60 -21 74q-8 4 -24 7l-77 13l12 45h651q110 0 185 -17t114 -49.5t54.5 -71.5t15.5 -92q0 -155 -106 -271.5t-257 -131.5q122 -380 211 -487q8 -10 18 -18t16.5 -12t27 -15.5t32.5 -18.5l-10 -45h-389q-75 175 -133 618q-72 18 -129 52q-1 -6 -4 -17.5
t-4 -17.5zM252 -449l-4 15q150 86 158 155q8 51 -68 111q66 86 160 86q54 0 79 -28t19 -76q-20 -141 -344 -263z" />
    <glyph glyph-name="rcommaaccent" unicode="&#x157;" horiz-adv-x="759" 
d="M803 1030l-37 -350q-176 21 -260 -111.5t-199 -568.5h-315q28 82 89 195t117 200.5t99 167.5t43 111q0 34 -29.5 55t-85.5 21q-62 0 -102.5 -29.5t-77.5 -118.5l-31 12q73 224 132 322t130 98q56 0 90.5 -82.5t34.5 -242.5q0 -45 -13 -124.5t-38 -206t-35 -183.5l15 -7
q89 334 164 517.5t145.5 254t163.5 70.5zM-82 -449l-4 15q150 86 158 155q8 51 -68 111q66 86 160 86q54 0 79 -28t19 -76q-20 -141 -344 -263z" />
    <glyph glyph-name="Rcaron" unicode="&#x158;" horiz-adv-x="1232" 
d="M668 694q116 0 196 96.5t80 215.5q0 83 -57.5 128.5t-159.5 45.5q-43 0 -80 -6q-34 -77 -133 -472q63 -8 154 -8zM498 635q-51 -207 -74.5 -310t-26.5 -163.5t8.5 -73.5t43.5 -18l147 -25l-10 -45h-688l12 45l94 18q28 6 42 17.5t37.5 72.5t48 151.5t75.5 291.5
q101 411 108 494q4 60 -21 74q-8 4 -24 7l-77 13l12 45h651q110 0 185 -17t114 -49.5t54.5 -71.5t15.5 -92q0 -155 -106 -271.5t-257 -131.5q122 -380 211 -487q8 -10 18 -18t16.5 -12t27 -15.5t32.5 -18.5l-10 -45h-389q-75 175 -133 618q-72 18 -129 52q-1 -6 -4 -17.5
t-4 -17.5zM807 1296q-105 189 -223 346l39 7q114 -50 247 -142q176 90 328 142l35 -7q-221 -178 -397 -346h-29z" />
    <glyph glyph-name="rcaron" unicode="&#x159;" horiz-adv-x="759" 
d="M803 1030l-37 -350q-176 21 -260 -111.5t-199 -568.5h-315q28 82 89 195t117 200.5t99 167.5t43 111q0 34 -29.5 55t-85.5 21q-62 0 -102.5 -29.5t-77.5 -118.5l-31 12q73 224 132 322t130 98q56 0 90.5 -82.5t34.5 -242.5q0 -45 -13 -124.5t-38 -206t-35 -183.5l15 -7
q89 334 164 517.5t145.5 254t163.5 70.5zM506 1104q-105 189 -223 346l39 6q118 -52 247 -141q170 88 328 141l35 -6q-221 -178 -397 -346h-29z" />
    <glyph glyph-name="Sacute" unicode="&#x15a;" horiz-adv-x="1036" 
d="M733 1247q94 0 191 -14.5t153 -34.5q-59 -229 -104 -465l-45 2q10 56 10.5 95.5t-11 68t-31 45.5t-57.5 27t-81.5 13t-110.5 3q-189 0 -289 -50t-100 -118q0 -33 40 -55.5t104.5 -35t142 -23.5t155.5 -26.5t142.5 -38t104.5 -64.5t40 -99q0 -71 -52 -158.5t-132.5 -163
t-191 -127t-216.5 -51.5q-126 0 -225 39.5t-160 94.5q54 181 101 456h47q-8 -89 16.5 -156.5t69 -108t112 -66t135 -34.5t148.5 -9q219 0 219 141q0 35 -36 68t-93.5 61t-126.5 57t-138.5 61t-127 66.5t-93.5 81t-36 98.5q0 78 34.5 152t98.5 134.5t166.5 97t226.5 36.5z
M1118 1647l-2 -15q-264 -178 -512 -317l-26 4q190 236 282 385q7 -2 107 -22t151 -35z" />
    <glyph glyph-name="sacute" unicode="&#x15b;" horiz-adv-x="798" 
d="M555 1034q76 0 150.5 -13t117.5 -30q-43 -142 -86 -381h-39q18 111 -29 147t-192 36q-146 0 -222.5 -34.5t-76.5 -82.5q0 -31 42 -51.5t104.5 -29.5t136 -22.5t136 -30t104.5 -54t42 -91.5q0 -56 -41.5 -129t-106.5 -137.5t-154 -109t-173 -44.5q-162 0 -286 115
q48 156 81 371h39q-6 -71 10.5 -123t48 -83t82.5 -49.5t105.5 -25t126.5 -6.5q143 0 143 92q0 33 -37 65.5t-92 57.5t-119.5 56.5t-119.5 62.5t-92 75.5t-37 94.5q0 66 29 129t82 113.5t137 81t186 30.5zM940 1436l-2 -15q-264 -178 -512 -317l-27 4q195 241 283 385
q7 -2 107 -22t151 -35z" />
    <glyph glyph-name="Scircumflex" unicode="&#x15c;" horiz-adv-x="1036" 
d="M733 1247q94 0 191 -14.5t153 -34.5q-59 -229 -104 -465l-45 2q10 56 10.5 95.5t-11 68t-31 45.5t-57.5 27t-81.5 13t-110.5 3q-189 0 -289 -50t-100 -118q0 -33 40 -55.5t104.5 -35t142 -23.5t155.5 -26.5t142.5 -38t104.5 -64.5t40 -99q0 -71 -52 -158.5t-132.5 -163
t-191 -127t-216.5 -51.5q-126 0 -225 39.5t-160 94.5q54 181 101 456h47q-8 -89 16.5 -156.5t69 -108t112 -66t135 -34.5t148.5 -9q219 0 219 141q0 35 -36 68t-93.5 61t-126.5 57t-138.5 61t-127 66.5t-93.5 81t-36 98.5q0 78 34.5 152t98.5 134.5t166.5 97t226.5 36.5z
M850 1692q105 -189 223 -346l-39 -7q-117 52 -248 142q-178 -91 -327 -142l-35 7q221 178 397 346h29z" />
    <glyph glyph-name="scircumflex" unicode="&#x15d;" horiz-adv-x="798" 
d="M555 1034q76 0 150.5 -13t117.5 -30q-43 -142 -86 -381h-39q18 111 -29 147t-192 36q-146 0 -222.5 -34.5t-76.5 -82.5q0 -31 42 -51.5t104.5 -29.5t136 -22.5t136 -30t104.5 -54t42 -91.5q0 -56 -41.5 -129t-106.5 -137.5t-154 -109t-173 -44.5q-162 0 -286 115
q48 156 81 371h39q-6 -71 10.5 -123t48 -83t82.5 -49.5t105.5 -25t126.5 -6.5q143 0 143 92q0 33 -37 65.5t-92 57.5t-119.5 56.5t-119.5 62.5t-92 75.5t-37 94.5q0 66 29 129t82 113.5t137 81t186 30.5zM672 1481q105 -189 223 -346l-39 -7q-117 52 -248 142
q-178 -91 -327 -142l-35 7q221 178 397 346h29z" />
    <glyph glyph-name="Scedilla" unicode="&#x15e;" horiz-adv-x="1036" 
d="M733 1247q94 0 191 -14.5t153 -34.5q-59 -229 -104 -465l-45 2q10 56 10.5 95.5t-11 68t-31 45.5t-57.5 27t-81.5 13t-110.5 3q-189 0 -289 -50t-100 -118q0 -33 40 -55.5t104.5 -35t142 -23.5t155.5 -26.5t142.5 -38t104.5 -64.5t40 -99q0 -71 -52 -158.5t-132.5 -163
t-191 -127t-216.5 -51.5q-31 0 -55 3l-47 -86q80 22 170 22q80 0 117 -19.5t30 -60.5q-12 -69 -145 -105t-365 -36l4 31q157 15 219 36.5t70 61.5q4 25 -11 36t-52 11q-36 0 -86 -6l75 117q-100 11 -180 47.5t-129 81.5q54 181 101 456h47q-8 -89 16.5 -156.5t69 -108
t112 -66t135 -34.5t148.5 -9q219 0 219 141q0 35 -36 68t-93.5 61t-126.5 57t-138.5 61t-127 66.5t-93.5 81t-36 98.5q0 78 34.5 152t98.5 134.5t166.5 97t226.5 36.5z" />
    <glyph glyph-name="scedilla" unicode="&#x15f;" horiz-adv-x="798" 
d="M555 1034q76 0 150.5 -13t117.5 -30q-43 -142 -86 -381h-39q18 111 -29 147t-192 36q-146 0 -222.5 -34.5t-76.5 -82.5q0 -31 42 -51.5t104.5 -29.5t136 -22.5t136 -30t104.5 -54t42 -91.5q0 -56 -41.5 -129t-106.5 -137.5t-154 -109t-173 -44.5q-10 0 -55 5l-47 -88
q80 22 170 22q80 0 117 -19.5t30 -60.5q-12 -69 -145 -105t-365 -36l4 31q157 15 219 36.5t70 61.5q4 25 -11 36t-52 11t-86 -6l78 119q-118 22 -213 108q48 156 81 371h39q-6 -71 10.5 -123t48 -83t82.5 -49.5t105.5 -25t126.5 -6.5q143 0 143 92q0 33 -37 65.5t-92 57.5
t-119.5 56.5t-119.5 62.5t-92 75.5t-37 94.5q0 66 29 129t82 113.5t137 81t186 30.5z" />
    <glyph glyph-name="Scaron" unicode="&#x160;" horiz-adv-x="1036" 
d="M733 1247q94 0 191 -14.5t153 -34.5q-59 -229 -104 -465l-45 2q10 56 10.5 95.5t-11 68t-31 45.5t-57.5 27t-81.5 13t-110.5 3q-189 0 -289 -50t-100 -118q0 -33 40 -55.5t104.5 -35t142 -23.5t155.5 -26.5t142.5 -38t104.5 -64.5t40 -99q0 -71 -52 -158.5t-132.5 -163
t-191 -127t-216.5 -51.5q-126 0 -225 39.5t-160 94.5q54 181 101 456h47q-8 -89 16.5 -156.5t69 -108t112 -66t135 -34.5t148.5 -9q219 0 219 141q0 35 -36 68t-93.5 61t-126.5 57t-138.5 61t-127 66.5t-93.5 81t-36 98.5q0 78 34.5 152t98.5 134.5t166.5 97t226.5 36.5z
M725 1315q-105 189 -223 346l39 6q118 -52 247 -141q170 88 328 141l35 -6q-221 -178 -397 -346h-29z" />
    <glyph glyph-name="scaron" unicode="&#x161;" horiz-adv-x="798" 
d="M555 1034q76 0 150.5 -13t117.5 -30q-43 -142 -86 -381h-39q18 111 -29 147t-192 36q-146 0 -222.5 -34.5t-76.5 -82.5q0 -31 42 -51.5t104.5 -29.5t136 -22.5t136 -30t104.5 -54t42 -91.5q0 -56 -41.5 -129t-106.5 -137.5t-154 -109t-173 -44.5q-162 0 -286 115
q48 156 81 371h39q-6 -71 10.5 -123t48 -83t82.5 -49.5t105.5 -25t126.5 -6.5q143 0 143 92q0 33 -37 65.5t-92 57.5t-119.5 56.5t-119.5 62.5t-92 75.5t-37 94.5q0 66 29 129t82 113.5t137 81t186 30.5zM549 1104q-105 189 -223 346l39 6q118 -52 247 -141q170 88 328 141
l35 -6q-221 -178 -397 -346h-29z" />
    <glyph glyph-name="uni0162" unicode="&#x162;" horiz-adv-x="1218" 
d="M686 -164q-12 -69 -145 -105t-365 -36l4 31q157 15 219 36.5t70 61.5q4 25 -11 36t-52 11q-38 0 -87 -6l89 135h-295l10 45l125 21q85 15 117 85t118 418q133 532 140 611q-84 -11 -136.5 -38.5t-88.5 -69.5t-95 -134l-182 -293h-39q100 281 186 584h1045
q-66 -278 -113 -584h-37l-33 293q-8 57 -14.5 87t-19 60.5t-33 45.5t-52 27.5t-81.5 21.5q-20 -48 -45.5 -141.5t-91.5 -360.5q-102 -408 -109 -505q-6 -76 26 -95q14 -9 50 -15l112 -18l-10 -45h-436l-57 -106q80 22 170 22q80 0 117 -19.5t30 -60.5z" />
    <glyph glyph-name="uni0163" unicode="&#x163;" horiz-adv-x="616" 
d="M39 791q110 67 196.5 177.5t159.5 286.5l35 -2q-26 -117 -57 -239h295l-54 -273q-122 7 -303 11q-59 -274 -57 -369q3 -102 92 -102q115 0 201 180l26 -15q-34 -126 -77 -220t-88 -146.5t-88.5 -77.5t-86.5 -25q-45 0 -88 19l-55 -102q80 22 170 22q81 0 118 -19.5
t30 -60.5q-12 -69 -145 -105t-365 -36l4 31q156 15 218 36.5t70 61.5q4 25 -11 36t-52 11t-86 -6l90 139q-86 52 -86 176q0 229 217 572h-223v39z" />
    <glyph glyph-name="Tcaron" unicode="&#x164;" horiz-adv-x="1218" 
d="M872 45l-10 -45h-749l10 45l125 21q85 15 117 85t118 418q133 532 140 611q-84 -11 -136.5 -38.5t-88.5 -69.5t-95 -134l-182 -293h-39q100 281 186 584h1045q-66 -278 -113 -584h-37l-33 293q-8 57 -14.5 87t-19 60.5t-33 45.5t-52 27.5t-81.5 21.5
q-20 -48 -45.5 -141.5t-91.5 -360.5q-102 -408 -109 -505q-6 -76 26 -95q14 -9 50 -15zM797 1296q-102 184 -224 346l39 7q117 -52 248 -142q176 90 328 142l35 -7q-228 -184 -398 -346h-28z" />
    <glyph glyph-name="tcaron" unicode="&#x165;" horiz-adv-x="616" 
d="M535 1108l-23 16q111 131 111 254q0 66 -41 107q45 45 110 45q82 0 82 -78q0 -117 -239 -344zM39 791q110 67 196.5 177.5t159.5 286.5l35 -2q-26 -117 -57 -239h295l-54 -273q-122 7 -303 11q-59 -274 -57 -369q3 -102 92 -102q115 0 201 180l26 -15q-34 -126 -77 -220
t-88 -146.5t-88.5 -77.5t-86.5 -25q-81 0 -134.5 53t-53.5 150q0 229 217 572h-223v39z" />
    <glyph glyph-name="Tbar" unicode="&#x166;" horiz-adv-x="1218" 
d="M872 45l-10 -45h-749l10 45l125 21q61 11 87 38q35 37 76 182q18 65 68 267q-40 -1 -121 -2t-112 -2l14 53q59 -2 229 -6q126 498 134 584q-63 -9 -104.5 -23t-78.5 -46t-63.5 -67t-73.5 -106l-178 -283h-39q85 243 182 574h1045q-66 -283 -111 -574h-37l-35 283
q-8 57 -14.5 87t-19 60.5t-33 45.5t-52 27.5t-81.5 21.5q-20 -48 -45.5 -141.5t-91.5 -360.5q-3 -15 -10.5 -42.5t-10.5 -39.5q197 4 260 6l-12 -53q-33 1 -123.5 2t-134.5 2q-29 -120 -46.5 -195t-25 -132t-8.5 -84.5t11 -46t25.5 -23t41.5 -9.5z" />
    <glyph glyph-name="tbar" unicode="&#x167;" horiz-adv-x="616" 
d="M39 791q110 67 196.5 177.5t159.5 286.5l35 -2q-26 -117 -57 -239h295l-54 -269q-121 7 -301 11q-23 -97 -34 -170q164 0 282 4l-14 -45q-110 4 -277 4q-16 -109 -16 -166q3 -102 92 -102q123 0 207 163l22 -14q-73 -241 -161.5 -347t-180.5 -106q-81 0 -134.5 53
t-53.5 150q0 155 102 367q-106 0 -137 -2l15 45q17 -1 67.5 -2t73.5 -2q47 96 96 170h-223v35z" />
    <glyph glyph-name="Utilde" unicode="&#x168;" horiz-adv-x="1284" 
d="M1139 682q-15 -57 -31.5 -129.5t-22.5 -97.5q-55 -206 -202 -340.5t-346 -134.5q-206 0 -310 85t-104 240q0 71 57 293q103 414 110 496q5 61 -20 73q-8 4 -24 7l-68 10l12 45h596l-10 -45l-106 -15q-51 -7 -82.5 -97.5t-141.5 -534.5q-26 -114 -26 -181
q0 -131 70.5 -187t216.5 -56q122 0 175 60t99 249q61 241 89 381.5t27 219.5t-21 106t-66 38l-80 17l10 45h477l-10 -45l-76 -17q-23 -7 -36.5 -18t-28.5 -34.5t-32.5 -81.5t-38.5 -134.5t-56 -216.5zM825 1649q39 0 75 -18t63.5 -43.5t53 -51t53 -43.5t54.5 -18
q43 0 73.5 37t62.5 122h30q-20 -64 -42.5 -113t-55 -94t-76 -69.5t-96.5 -24.5q-41 0 -78 18t-65 43.5t-53 51t-52 43.5t-53 18q-44 0 -74.5 -36.5t-62.5 -120.5h-31q16 50 32.5 90t41 80.5t52.5 67.5t66 44t82 17z" />
    <glyph glyph-name="utilde" unicode="&#x169;" horiz-adv-x="1036" 
d="M381 279q91 0 158.5 60t105.5 164t53.5 235t8.5 282l251 -12q-55 -157 -102 -347.5t-47 -293.5q0 -99 78 -99q31 0 62 33t69 123l29 -12q-76 -249 -135 -342t-138 -93q-49 0 -88 54t-39 133q0 121 178 545l-18 6q-76 -139 -122.5 -222.5t-103 -179.5t-94.5 -148.5
t-80 -100.5t-77.5 -67.5t-69.5 -19.5q-99 0 -157 57.5t-58 133.5q0 52 28 113t67.5 116t79.5 107t68 99.5t29 78.5q0 31 -25 49.5t-73 18.5q-57 0 -95.5 -29.5t-78.5 -120.5l-31 14q74 225 132.5 322.5t132.5 97.5q51 0 91 -56t40 -132q0 -68 -32.5 -170t-65 -193
t-33.5 -131q0 -73 102 -73zM573 1456q39 0 75 -18t63.5 -43.5t53 -51t53 -43.5t54.5 -18q43 0 73.5 37.5t62.5 122.5h30q-20 -64 -42.5 -113t-55 -94t-76 -69.5t-96.5 -24.5q-41 0 -78 18t-65 43.5t-53 51t-52 43.5t-53 18q-44 0 -74.5 -37t-62.5 -121h-31q16 50 32.5 90
t41 80.5t52.5 67.5t66 44t82 17z" />
    <glyph glyph-name="Umacron" unicode="&#x16a;" horiz-adv-x="1284" 
d="M1139 682q-15 -57 -31.5 -129.5t-22.5 -97.5q-55 -206 -202 -340.5t-346 -134.5q-206 0 -310 85t-104 240q0 71 57 293q103 414 110 496q5 61 -20 73q-8 4 -24 7l-68 10l12 45h596l-10 -45l-106 -15q-51 -7 -82.5 -97.5t-141.5 -534.5q-26 -114 -26 -181
q0 -131 70.5 -187t216.5 -56q122 0 175 60t99 249q61 241 89 381.5t27 219.5t-21 106t-66 38l-80 17l10 45h477l-10 -45l-76 -17q-23 -7 -36.5 -18t-28.5 -34.5t-32.5 -81.5t-38.5 -134.5t-56 -216.5zM887 1372q-44 0 -141.5 -1t-141.5 -1l29 115q164 -4 280 -4q111 0 279 4
l-29 -115q-43 0 -138.5 1t-137.5 1z" />
    <glyph glyph-name="umacron" unicode="&#x16b;" horiz-adv-x="1036" 
d="M381 279q91 0 158.5 60t105.5 164t53.5 235t8.5 282l251 -12q-55 -157 -102 -347.5t-47 -293.5q0 -99 78 -99q31 0 62 33t69 123l29 -12q-76 -249 -135 -342t-138 -93q-49 0 -88 54t-39 133q0 121 178 545l-18 6q-76 -139 -122.5 -222.5t-103 -179.5t-94.5 -148.5
t-80 -100.5t-77.5 -67.5t-69.5 -19.5q-99 0 -157 57.5t-58 133.5q0 52 28 113t67.5 116t79.5 107t68 99.5t29 78.5q0 31 -25 49.5t-73 18.5q-57 0 -95.5 -29.5t-78.5 -120.5l-31 14q74 225 132.5 322.5t132.5 97.5q51 0 91 -56t40 -132q0 -68 -32.5 -170t-65 -193
t-33.5 -131q0 -73 102 -73zM635 1180q-44 0 -141.5 -1t-141.5 -1l29 114q164 -4 281 -4q110 0 278 4l-29 -114q-43 0 -138.5 1t-137.5 1z" />
    <glyph glyph-name="Ubreve" unicode="&#x16c;" horiz-adv-x="1284" 
d="M1139 682q-15 -57 -31.5 -129.5t-22.5 -97.5q-55 -206 -202 -340.5t-346 -134.5q-206 0 -310 85t-104 240q0 71 57 293q103 414 110 496q5 61 -20 73q-8 4 -24 7l-68 10l12 45h596l-10 -45l-106 -15q-51 -7 -82.5 -97.5t-141.5 -534.5q-26 -114 -26 -181
q0 -131 70.5 -187t216.5 -56q122 0 175 60t99 249q61 241 89 381.5t27 219.5t-21 106t-66 38l-80 17l10 45h477l-10 -45l-76 -17q-23 -7 -36.5 -18t-28.5 -34.5t-32.5 -81.5t-38.5 -134.5t-56 -216.5zM872 1327q-138 0 -198 71t-33 226h31q-2 -47 16.5 -71t82.5 -38t190 -14
q125 0 176 26.5t80 96.5h30q-26 -85 -63.5 -144t-87 -92t-103.5 -47t-121 -14z" />
    <glyph glyph-name="ubreve" unicode="&#x16d;" horiz-adv-x="1036" 
d="M381 279q91 0 158.5 60t105.5 164t53.5 235t8.5 282l251 -12q-55 -157 -102 -347.5t-47 -293.5q0 -99 78 -99q31 0 62 33t69 123l29 -12q-76 -249 -135 -342t-138 -93q-49 0 -88 54t-39 133q0 121 178 545l-18 6q-76 -139 -122.5 -222.5t-103 -179.5t-94.5 -148.5
t-80 -100.5t-77.5 -67.5t-69.5 -19.5q-99 0 -157 57.5t-58 133.5q0 52 28 113t67.5 116t79.5 107t68 99.5t29 78.5q0 31 -25 49.5t-73 18.5q-57 0 -95.5 -29.5t-78.5 -120.5l-31 14q74 225 132.5 322.5t132.5 97.5q51 0 91 -56t40 -132q0 -68 -32.5 -170t-65 -193
t-33.5 -131q0 -73 102 -73zM621 1135q-138 0 -198.5 71t-33.5 226h31q-2 -47 16.5 -71t82.5 -38t190 -14q125 0 176 26.5t80 96.5h30q-50 -165 -143 -231t-231 -66z" />
    <glyph glyph-name="Uring" unicode="&#x16e;" horiz-adv-x="1284" 
d="M1139 682q-15 -57 -31.5 -129.5t-22.5 -97.5q-55 -206 -202 -340.5t-346 -134.5q-206 0 -310 85t-104 240q0 71 57 293q103 414 110 496q5 61 -20 73q-8 4 -24 7l-68 10l12 45h596l-10 -45l-106 -15q-51 -7 -82.5 -97.5t-141.5 -534.5q-26 -114 -26 -181
q0 -131 70.5 -187t216.5 -56q122 0 175 60t99 249q61 241 89 381.5t27 219.5t-21 106t-66 38l-80 17l10 45h477l-10 -45l-76 -17q-23 -7 -36.5 -18t-28.5 -34.5t-32.5 -81.5t-38.5 -134.5t-56 -216.5zM899 1386q56 0 97.5 36.5t41.5 99.5q0 44 -25.5 70t-76.5 26
q-56 0 -97.5 -36.5t-41.5 -100.5q0 -44 25 -69.5t77 -25.5zM944 1683q76 0 119 -42t43 -109q0 -94 -61.5 -151.5t-151.5 -57.5q-78 0 -121 40.5t-43 106.5q0 95 62.5 154t152.5 59z" />
    <glyph glyph-name="uring" unicode="&#x16f;" horiz-adv-x="1036" 
d="M381 279q91 0 158.5 60t105.5 164t53.5 235t8.5 282l251 -12q-55 -157 -102 -347.5t-47 -293.5q0 -99 78 -99q31 0 62 33t69 123l29 -12q-76 -249 -135 -342t-138 -93q-49 0 -88 54t-39 133q0 121 178 545l-18 6q-76 -139 -122.5 -222.5t-103 -179.5t-94.5 -148.5
t-80 -100.5t-77.5 -67.5t-69.5 -19.5q-99 0 -157 57.5t-58 133.5q0 52 28 113t67.5 116t79.5 107t68 99.5t29 78.5q0 31 -25 49.5t-73 18.5q-57 0 -95.5 -29.5t-78.5 -120.5l-31 14q74 225 132.5 322.5t132.5 97.5q51 0 91 -56t40 -132q0 -68 -32.5 -170t-65 -193
t-33.5 -131q0 -73 102 -73zM647 1194q56 0 97.5 36t41.5 99q0 44 -25.5 70t-76.5 26q-56 0 -97.5 -36.5t-41.5 -100.5q0 -43 25 -68.5t77 -25.5zM692 1491q76 0 119 -42.5t43 -109.5q0 -94 -61.5 -151.5t-151.5 -57.5q-78 0 -121 41t-43 107q0 95 62.5 154t152.5 59z" />
    <glyph glyph-name="Uhungarumlaut" unicode="&#x170;" horiz-adv-x="1284" 
d="M1139 682q-15 -57 -31.5 -129.5t-22.5 -97.5q-55 -206 -202 -340.5t-346 -134.5q-206 0 -310 85t-104 240q0 71 57 293q103 414 110 496q5 61 -20 73q-8 4 -24 7l-68 10l12 45h596l-10 -45l-106 -15q-51 -7 -82.5 -97.5t-141.5 -534.5q-26 -114 -26 -181
q0 -131 70.5 -187t216.5 -56q122 0 175 60t99 249q61 241 89 381.5t27 219.5t-21 106t-66 38l-80 17l10 45h477l-10 -45l-76 -17q-23 -7 -36.5 -18t-28.5 -34.5t-32.5 -81.5t-38.5 -134.5t-56 -216.5zM1044 1657l-2 -15q-144 -161 -348 -344l-26 2q88 152 186 379
q120 -11 190 -22zM1309 1657l-2 -15q-162 -176 -351 -344l-24 2q96 166 184 379q127 -12 193 -22z" />
    <glyph glyph-name="uhungarumlaut" unicode="&#x171;" horiz-adv-x="1036" 
d="M381 279q91 0 158.5 60t105.5 164t53.5 235t8.5 282l251 -12q-55 -157 -102 -347.5t-47 -293.5q0 -99 78 -99q31 0 62 33t69 123l29 -12q-76 -249 -135 -342t-138 -93q-49 0 -88 54t-39 133q0 121 178 545l-18 6q-76 -139 -122.5 -222.5t-103 -179.5t-94.5 -148.5
t-80 -100.5t-77.5 -67.5t-69.5 -19.5q-99 0 -157 57.5t-58 133.5q0 52 28 113t67.5 116t79.5 107t68 99.5t29 78.5q0 31 -25 49.5t-73 18.5q-57 0 -95.5 -29.5t-78.5 -120.5l-31 14q74 225 132.5 322.5t132.5 97.5q51 0 91 -56t40 -132q0 -68 -32.5 -170t-65 -193
t-33.5 -131q0 -73 102 -73zM793 1464l-2 -14q-140 -156 -349 -344l-26 2q88 152 186 379q108 -10 191 -23zM1057 1464l-2 -14q-166 -181 -350 -344l-25 2q96 166 184 379q113 -10 193 -23z" />
    <glyph glyph-name="Uogonek" unicode="&#x172;" horiz-adv-x="1284" 
d="M1139 682q-15 -57 -31.5 -129.5t-22.5 -97.5q-44 -168 -153.5 -292.5t-259.5 -164.5q-127 -43 -184.5 -73t-57.5 -66q0 -23 19 -34t67 -11q102 0 195 51l10 -25q-55 -53 -142 -96t-194 -43q-145 0 -145 88q0 28 16 53t42.5 44t66.5 36.5t81 31t93 26.5h-2q-206 0 -310 85
t-104 240q0 71 57 293q103 414 110 496q5 61 -20 73q-8 4 -24 7l-68 10l12 45h596l-10 -45l-106 -15q-51 -7 -82.5 -97.5t-141.5 -534.5q-26 -114 -26 -181q0 -131 70.5 -187t216.5 -56q122 0 175 60t99 249q61 241 89 381.5t27 219.5t-21 106t-66 38l-80 17l10 45h477
l-10 -45l-76 -17q-23 -7 -36.5 -18t-28.5 -34.5t-32.5 -81.5t-38.5 -134.5t-56 -216.5z" />
    <glyph glyph-name="uogonek" unicode="&#x173;" horiz-adv-x="1036" 
d="M381 279q91 0 158.5 60t105.5 164t53.5 235t8.5 282l251 -12q-55 -157 -102 -347.5t-47 -293.5q0 -99 78 -99q31 0 62 33t69 123l29 -12q-76 -249 -134.5 -342t-136.5 -93q-72 -30 -107.5 -55t-41.5 -57q-5 -25 15.5 -38t68.5 -13q90 0 190 51l10 -25q-55 -53 -140 -96
t-191 -43q-73 0 -112.5 25t-29.5 73q5 33 31 61.5t70 51.5t90.5 40t107.5 34q-39 20 -64.5 68t-25.5 110q0 121 178 545l-18 6q-76 -139 -122.5 -222.5t-103 -179.5t-94.5 -148.5t-80 -100.5t-77.5 -67.5t-69.5 -19.5q-99 0 -157 57.5t-58 133.5q0 52 28 113t67.5 116
t79.5 107t68 99.5t29 78.5q0 31 -25 49.5t-73 18.5q-57 0 -95.5 -29.5t-78.5 -120.5l-31 14q74 225 132.5 322.5t132.5 97.5q51 0 91 -56t40 -132q0 -68 -32.5 -170t-65 -193t-33.5 -131q0 -73 102 -73z" />
    <glyph glyph-name="Wcircumflex" unicode="&#x174;" horiz-adv-x="1824" 
d="M1159 1190q-81 0 -92 -49q-7 -39 47 -217q99 139 111 200q7 35 -8 50.5t-58 15.5zM967 580q-6 36 -15 65q-43 -63 -205 -304t-266 -392h-39q-18 106 -118 620q-79 390 -104 475q-28 97 -58 123l-19 17l13 45h573l-10 -45l-64 -6q-98 -16 -110 -88q-16 -89 63 -412
q10 -43 40 -175t40 -175q43 60 131 180.5t127 175.5q-56 273 -82 368.5t-57 121.5l-12 10l12 45h610l-12 -45l-33 -15q-34 -12 -90.5 -75t-157.5 -203q7 -23 20.5 -64t18.5 -57q94 -312 148 -473q130 217 224 409.5t112 288.5q33 153 -70 172l-94 17l12 45h541l-11 -45
l-28 -19q-25 -14 -63 -57.5t-117 -152.5t-155.5 -218.5t-240.5 -344.5t-311 -443h-39q-50 373 -104 631zM1251 1673q102 -184 224 -346l-39 -6q-121 54 -248 141q-170 -88 -328 -141l-35 6q228 184 398 346h28z" />
    <glyph glyph-name="wcircumflex" unicode="&#x175;" horiz-adv-x="1318" 
d="M1358 1012q-56 -247 -144 -481.5t-190 -392.5t-182 -158q-60 0 -110.5 93.5t-78.5 250.5q-84 -152 -169.5 -249.5t-151.5 -97.5q-100 0 -186.5 84t-86.5 185q0 44 30.5 94.5t73.5 96t86.5 88.5t74 84t30.5 71t-28.5 50t-83.5 20q-71 0 -113 -31.5t-68 -124.5l-30 12
q58 227 118 327.5t127 100.5q61 0 106.5 -77.5t45.5 -188.5q0 -60 -35 -143t-69.5 -160.5t-34.5 -122.5q0 -61 37.5 -96t99.5 -35q55 1 113.5 50.5t103.5 123.5q-45 304 10 637q110 -8 246 -8q-26 -166 -76.5 -315t-134.5 -308q36 -90 89.5 -138t117.5 -44q88 0 140.5 64
t66.5 169q33 194 -51 586q157 -13 307 -16zM915 1481q102 -184 224 -346l-39 -7q-117 52 -248 142q-176 -90 -328 -142l-35 7q228 184 398 346h28z" />
    <glyph glyph-name="Ycircumflex" unicode="&#x176;" horiz-adv-x="1288" 
d="M870 0h-694l10 45l113 21q75 15 104 79.5t107 380.5q-7 16 -47 109.5t-57 132.5q-96 221 -138.5 302t-81.5 101l-22 13l12 45h596l-10 -45l-72 -6q-52 -6 -76 -20t-24 -42q0 -51 68 -228t130 -315q125 159 216.5 310.5t91.5 210.5q0 35 -24.5 53t-80.5 27l-86 10l10 45
h560l-9 -45l-24 -6q-47 -12 -169.5 -136.5t-479.5 -509.5q-44 -175 -62.5 -260.5t-17 -134.5t14.5 -58t50 -16l103 -18zM983 1673q105 -189 223 -346l-39 -6q-118 52 -247 141q-170 -88 -328 -141l-35 6q221 178 397 346h29z" />
    <glyph glyph-name="ycircumflex" unicode="&#x177;" horiz-adv-x="876" 
d="M92 -362q-99 0 -211 34l51 258q48 -16 118.5 -28.5t127.5 -12.5q88 0 167 34.5t120 111.5l-291 86q6 71 36 157t61.5 150t54.5 132t18 110q-3 38 -34 58t-83 20q-63 0 -104 -27t-84 -109l-31 13q86 230 140 319.5t110 89.5q98 0 152 -334q41 -224 63 -591l29 -3
q171 398 137 918q183 -3 307 -20q-114 -278 -315 -728q-149 -333 -273 -485.5t-266 -152.5zM680 1481q105 -189 223 -346l-39 -7q-117 52 -248 142q-178 -91 -327 -142l-35 7q221 178 397 346h29z" />
    <glyph glyph-name="Ydieresis" unicode="&#x178;" horiz-adv-x="1288" 
d="M774 1610q55 0 84 -28.5t29 -80.5q0 -64 -46 -106.5t-108 -42.5q-112 0 -112 106q0 65 45.5 108.5t107.5 43.5zM1112 1610q55 0 84 -28.5t29 -80.5q0 -64 -46 -106.5t-108 -42.5q-55 0 -84 27.5t-29 78.5q0 64 46 108t108 44zM870 0h-694l10 45l113 21q75 15 104 79.5
t107 380.5q-7 16 -47 109.5t-57 132.5q-96 221 -138.5 302t-81.5 101l-22 13l12 45h596l-10 -45l-72 -6q-52 -6 -76 -20t-24 -42q0 -51 68 -228t130 -315q125 159 216.5 310.5t91.5 210.5q0 35 -24.5 53t-80.5 27l-86 10l10 45h560l-9 -45l-24 -6q-47 -12 -169.5 -136.5
t-479.5 -509.5q-44 -175 -62.5 -260.5t-17 -134.5t14.5 -58t50 -16l103 -18z" />
    <glyph glyph-name="Zacute" unicode="&#x179;" horiz-adv-x="1171" 
d="M944 0h-999l6 49q719 628 1010 916q-154 -1 -250.5 -4t-173.5 -12.5t-116 -19.5t-70.5 -34.5t-45.5 -48t-33 -68.5l-92 -211l-37 4q133 385 201 658h946l-8 -43q-482 -425 -1010 -920q160 1 268.5 5t189 14t126 21.5t78 35.5t48 47t32.5 64l86 204l37 -2
q-138 -411 -193 -655zM1192 1628l-2 -14q-272 -184 -512 -318l-27 4q192 238 283 386q26 -6 78.5 -16.5t97 -20.5t82.5 -21z" />
    <glyph glyph-name="zacute" unicode="&#x17a;" horiz-adv-x="942" 
d="M422 530q90 68 182 160l-10 15q-43 -33 -92 -33q-31 0 -116.5 23.5t-121.5 23.5q-70 0 -97.5 -29t-45.5 -127l-41 6q43 250 94 359.5t127 109.5q43 0 80.5 -32t63 -78t47.5 -92.5t45 -78.5t45 -32q42 0 83.5 60.5t133.5 235.5q5 10 8 15q96 -83 174 -176
q-299 -159 -492 -340q-104 -91 -188 -178l10 -14q43 28 97 28q35 0 128.5 -27.5t133.5 -27.5q34 0 56.5 4.5t49 20t49 50t41.5 89.5l37 -8q-32 -140 -65 -236.5t-66.5 -148.5t-65 -73.5t-67.5 -21.5q-50 0 -90.5 34t-66 82t-47 96t-45 82t-50.5 34q-43 0 -86.5 -75
t-108.5 -244q-109 98 -153 276q54 42 214.5 135t215.5 133zM977 1436l-2 -15q-264 -178 -512 -317l-27 4q195 241 283 385q7 -2 107 -22t151 -35z" />
    <glyph glyph-name="Zdotaccent" unicode="&#x17b;" horiz-adv-x="1171" 
d="M944 0h-999l6 49q719 628 1010 916q-154 -1 -250.5 -4t-173.5 -12.5t-116 -19.5t-70.5 -34.5t-45.5 -48t-33 -68.5l-92 -211l-37 4q133 385 201 658h946l-8 -43q-482 -425 -1010 -920q160 1 268.5 5t189 14t126 21.5t78 35.5t48 47t32.5 64l86 204l37 -2
q-138 -411 -193 -655zM877 1608q59 0 89.5 -30t30.5 -85q0 -69 -50 -115.5t-116 -46.5q-59 0 -89.5 30t-30.5 85q0 70 49.5 116t116.5 46z" />
    <glyph glyph-name="zdotaccent" unicode="&#x17c;" horiz-adv-x="942" 
d="M422 530q90 68 182 160l-10 15q-43 -33 -92 -33q-31 0 -116.5 23.5t-121.5 23.5q-70 0 -97.5 -29t-45.5 -127l-41 6q43 250 94 359.5t127 109.5q43 0 80.5 -32t63 -78t47.5 -92.5t45 -78.5t45 -32q42 0 83.5 60.5t133.5 235.5q5 10 8 15q96 -83 174 -176
q-299 -159 -492 -340q-104 -91 -188 -178l10 -14q43 28 97 28q35 0 128.5 -27.5t133.5 -27.5q34 0 56.5 4.5t49 20t49 50t41.5 89.5l37 -8q-32 -140 -65 -236.5t-66.5 -148.5t-65 -73.5t-67.5 -21.5q-50 0 -90.5 34t-66 82t-47 96t-45 82t-50.5 34q-43 0 -86.5 -75
t-108.5 -244q-109 98 -153 276q54 42 214.5 135t215.5 133zM662 1415q59 0 89.5 -30t30.5 -85q0 -69 -50 -115t-116 -46q-59 0 -89.5 29.5t-30.5 84.5q0 70 49.5 116t116.5 46z" />
    <glyph glyph-name="Zcaron" unicode="&#x17d;" horiz-adv-x="1171" 
d="M944 0h-999l6 49q719 628 1010 916q-154 -1 -250.5 -4t-173.5 -12.5t-116 -19.5t-70.5 -34.5t-45.5 -48t-33 -68.5l-92 -211l-37 4q133 385 201 658h946l-8 -43q-482 -425 -1010 -920q160 1 268.5 5t189 14t126 21.5t78 35.5t48 47t32.5 64l86 204l37 -2
q-138 -411 -193 -655zM801 1296q-105 189 -223 346l38 7q117 -52 248 -142q176 90 328 142l35 -7q-228 -184 -398 -346h-28z" />
    <glyph glyph-name="zcaron" unicode="&#x17e;" horiz-adv-x="942" 
d="M422 530q90 68 182 160l-10 15q-43 -33 -92 -33q-31 0 -116.5 23.5t-121.5 23.5q-70 0 -97.5 -29t-45.5 -127l-41 6q43 250 94 359.5t127 109.5q43 0 80.5 -32t63 -78t47.5 -92.5t45 -78.5t45 -32q42 0 83.5 60.5t133.5 235.5q5 10 8 15q96 -83 174 -176
q-299 -159 -492 -340q-104 -91 -188 -178l10 -14q43 28 97 28q35 0 128.5 -27.5t133.5 -27.5q34 0 56.5 4.5t49 20t49 50t41.5 89.5l37 -8q-32 -140 -65 -236.5t-66.5 -148.5t-65 -73.5t-67.5 -21.5q-50 0 -90.5 34t-66 82t-47 96t-45 82t-50.5 34q-43 0 -86.5 -75
t-108.5 -244q-109 98 -153 276q54 42 214.5 135t215.5 133zM584 1104q-102 184 -224 346l39 6q121 -54 248 -141q170 88 328 141l35 -6q-228 -184 -398 -346h-28z" />
    <glyph glyph-name="Aringacute" unicode="&#x1fa;" horiz-adv-x="1173" 
d="M385 45l-10 -45h-514l10 45l31 14q47 19 141 153.5t437 663.5q154 238 247 381h51q10 -52 129 -593q8 -39 23 -111q55 -268 83.5 -368t69.5 -128l19 -12l-8 -45h-570l11 45l83 10q89 11 89 80q0 68 -45 324q-158 -3 -349 -10q-102 -235 -102 -318q0 -56 76 -68zM649 530
q-35 185 -88 402q-137 -246 -221 -426q103 -6 315 -10q-1 6 -3 17t-3 17zM764 1327q56 0 97.5 36t41.5 99q0 45 -25.5 71t-76.5 26q-56 0 -97.5 -37t-41.5 -101q0 -43 25 -68.5t77 -25.5zM809 1624q76 0 119 -42t43 -109q0 -94 -61.5 -151.5t-151.5 -57.5q-78 0 -121 40.5
t-43 106.5q0 95 62.5 154t152.5 59zM1204 1960l-2 -14q-272 -184 -512 -318l-26 4q190 236 282 385q7 -2 107 -22t151 -35z" />
    <glyph glyph-name="aringacute" unicode="&#x1fb;" horiz-adv-x="974" 
d="M705 -23q-51 0 -86 58.5t-35 138.5q0 21 5.5 49.5t17.5 68.5t22.5 71.5t30.5 84t30.5 79t33 83t28.5 70.5l-21 6q-199 -377 -319.5 -543t-202.5 -166q-69 0 -118.5 101.5t-49.5 279.5q0 103 30.5 198.5t98.5 182.5t166.5 151.5t244 102.5t322.5 37q-58 -157 -112 -372.5
t-54 -311.5q0 -48 22.5 -74t55.5 -26q31 0 54.5 32.5t72.5 139.5l31 -15q-75 -242 -134.5 -334t-133.5 -92zM653 1186q56 0 98 36t42 99q0 44 -26 70t-77 26q-56 0 -97.5 -36.5t-41.5 -100.5q0 -43 25 -68.5t77 -25.5zM698 1483q76 0 119 -42.5t43 -109.5
q0 -94 -61.5 -151.5t-151.5 -57.5q-78 0 -121 41t-43 107q0 95 62.5 154t152.5 59zM1098 1821l-2 -15q-264 -178 -512 -317l-27 4q195 241 283 385q7 -2 107 -22t151 -35zM233 268q40 0 91 23.5t117 75.5t145.5 153.5t158.5 239.5q-138 -21 -250.5 -57.5t-185 -77.5
t-122 -88.5t-70.5 -91.5t-21 -85q0 -43 38 -67.5t99 -24.5z" />
    <glyph glyph-name="AEacute" unicode="&#x1fc;" horiz-adv-x="1646" 
d="M-117 0l11 45l38 25q162 103 838 931q47 63 47 95q0 28 -24.5 41.5t-92.5 27.5l-106 19l14 45h1118q-47 -199 -88 -461h-41l-26 166q-20 94 -53.5 141.5t-109 72.5t-220.5 32q-34 -80 -144 -533q95 4 150 20.5t88.5 48t65.5 93.5l49 111h28q-27 -100 -64 -291.5
t-54 -306.5h-27l-6 110q-9 95 -57 129t-185 43v-4q-117 -473 -125 -549q151 8 240 32t149 71t123 139l121 196h41q-113 -327 -156 -489h-950l12 45l86 25q32 9 49 31.5t40.5 96t66.5 246.5q-24 0 -75 1t-79 1q-112 0 -169 -2q-177 -264 -177 -321q0 -27 15.5 -38.5
t56.5 -23.5l76 -14l-12 -47h-482zM586 479q55 0 153 4q25 96 25 97q89 355 127 522l-8 2q-389 -533 -449 -621q94 -4 152 -4zM1446 1628l-2 -14q-272 -184 -512 -318l-27 4q192 238 283 386q26 -6 78.5 -16.5t97 -20.5t82.5 -21z" />
    <glyph glyph-name="aeacute" unicode="&#x1fd;" horiz-adv-x="1497" 
d="M1180 778q-132 0 -245.5 -83t-156.5 -197q531 113 531 204q0 30 -32 53t-97 23zM209 -23q-69 0 -118.5 101.5t-49.5 279.5q0 102 31 198.5t98 183.5t163.5 151.5t237.5 102t310 36.5q-9 -36 -28 -109t-34.5 -134.5t-25.5 -110.5l16 -4q58 172 164 267t225 95
q68 0 124 -23.5t90 -61.5t52.5 -82.5t18.5 -88.5q0 -116 -161 -181.5t-552 -123.5q-12 -40 -12 -76q0 -47 38 -80t88 -46t103 -13q82 0 176 27t174.5 80t108.5 118l29 -22q-78 -213 -209 -348.5t-277 -135.5q-132 0 -212.5 113t-80.5 336q0 86 54 254l-17 6
q-206 -388 -323.5 -548.5t-200.5 -160.5zM1294 1436l-2 -15q-264 -178 -512 -317l-26 4q190 236 282 385q7 -2 107 -22t151 -35zM233 268q40 0 91 23.5t117 75.5t145.5 153.5t158.5 239.5q-138 -21 -250.5 -57.5t-185 -77.5t-122 -88.5t-70.5 -91.5t-21 -85q0 -43 38 -67.5
t99 -24.5z" />
    <glyph glyph-name="Oslashacute" unicode="&#x1fe;" horiz-adv-x="1234" 
d="M479 272q145 0 274.5 46.5t215.5 120t136 164t50 179.5q0 123 -151 166q-113 -112 -349 -338.5t-333 -322.5q65 -15 157 -15zM129 475q0 -132 158 -180q107 107 341.5 332t342.5 331q-70 13 -148 13q-151 0 -283.5 -43.5t-221 -114.5t-139 -159.5t-50.5 -178.5zM1208 770
q0 -137 -59 -279.5t-154.5 -255t-229 -184t-271.5 -71.5q-208 0 -328 167q-117 -114 -160 -157l-26 28q21 18 170 156q-76 127 -76 307q0 137 52 273.5t142 246t224 178t284 68.5q219 0 336 -157q137 129 160 153l26 -31q-42 -30 -168 -147q78 -124 78 -295zM1190 1649
l-2 -15q-264 -178 -512 -317l-27 4q195 241 283 385q7 -2 107 -22t151 -35z" />
    <glyph glyph-name="oslashacute" unicode="&#x1ff;" horiz-adv-x="876" 
d="M322 252q103 0 193 33.5t150.5 88t95 123t34.5 138.5q0 88 -123 113q-39 -47 -420 -492q40 -4 70 -4zM94 385q0 -98 123 -123q72 86 217.5 252.5t206.5 239.5q-50 4 -80 4q-97 0 -185.5 -33t-149 -86t-96.5 -120t-36 -134zM549 1034q145 0 225 -127q55 59 111 123l24 -26
q-52 -52 -118 -125q59 -115 59 -283q0 -153 -67.5 -294.5t-186.5 -231.5t-256 -90q-143 0 -225 126q-85 -95 -101 -116l-26 26q48 48 112 117q-61 113 -61 289q0 112 40.5 223t108 197t163 139t198.5 53zM946 1436l-2 -15q-264 -178 -512 -317l-26 4q190 236 282 385
q7 -2 107 -22t151 -35z" />
    <glyph glyph-name="Scommaaccent" unicode="&#x218;" horiz-adv-x="1036" 
d="M733 1247q94 0 191 -14.5t153 -34.5q-59 -229 -104 -465l-45 2q10 56 10.5 95.5t-11 68t-31 45.5t-57.5 27t-81.5 13t-110.5 3q-189 0 -289 -50t-100 -118q0 -33 40 -55.5t104.5 -35t142 -23.5t155.5 -26.5t142.5 -38t104.5 -64.5t40 -99q0 -71 -52 -158.5t-132.5 -163
t-191 -127t-216.5 -51.5q-126 0 -225 39.5t-160 94.5q54 181 101 456h47q-8 -89 16.5 -156.5t69 -108t112 -66t135 -34.5t148.5 -9q219 0 219 141q0 35 -36 68t-93.5 61t-126.5 57t-138.5 61t-127 66.5t-93.5 81t-36 98.5q0 78 34.5 152t98.5 134.5t166.5 97t226.5 36.5z
M168 -449l-4 15q150 86 158 155q8 51 -68 111q66 86 160 86q54 0 79 -28t19 -76q-20 -141 -344 -263z" />
    <glyph glyph-name="scommaaccent" unicode="&#x219;" horiz-adv-x="798" 
d="M555 1034q76 0 150.5 -13t117.5 -30q-43 -142 -86 -381h-39q18 111 -29 147t-192 36q-146 0 -222.5 -34.5t-76.5 -82.5q0 -31 42 -51.5t104.5 -29.5t136 -22.5t136 -30t104.5 -54t42 -91.5q0 -56 -41.5 -129t-106.5 -137.5t-154 -109t-173 -44.5q-162 0 -286 115
q48 156 81 371h39q-6 -71 10.5 -123t48 -83t82.5 -49.5t105.5 -25t126.5 -6.5q143 0 143 92q0 33 -37 65.5t-92 57.5t-119.5 56.5t-119.5 62.5t-92 75.5t-37 94.5q0 66 29 129t82 113.5t137 81t186 30.5zM41 -449l-4 15q150 86 158 155q8 51 -68 111q66 86 160 86
q54 0 79 -28t19 -76q-20 -141 -344 -263z" />
    <glyph glyph-name="uni021A" unicode="&#x21a;" horiz-adv-x="1218" 
d="M872 45l-10 -45h-749l10 45l125 21q85 15 117 85t118 418q133 532 140 611q-84 -11 -136.5 -38.5t-88.5 -69.5t-95 -134l-182 -293h-39q100 281 186 584h1045q-66 -278 -113 -584h-37l-33 293q-8 57 -14.5 87t-19 60.5t-33 45.5t-52 27.5t-81.5 21.5
q-20 -48 -45.5 -141.5t-91.5 -360.5q-102 -408 -109 -505q-6 -76 26 -95q14 -9 50 -15zM244 -449l-4 15q149 85 157 155q8 51 -67 111q66 86 159 86q54 0 79.5 -28t19.5 -76q-20 -141 -344 -263z" />
    <glyph glyph-name="uni021B" unicode="&#x21b;" horiz-adv-x="616" 
d="M39 791q110 67 196.5 177.5t159.5 286.5l35 -2q-26 -117 -57 -239h295l-54 -273q-122 7 -303 11q-59 -274 -57 -369q3 -102 92 -102q115 0 201 180l26 -15q-34 -126 -77 -220t-88 -146.5t-88.5 -77.5t-86.5 -25q-81 0 -134.5 53t-53.5 150q0 229 217 572h-223v39z
M-35 -449l-4 15q150 86 158 155q8 51 -68 111q66 86 160 86q54 0 79 -28t19 -76q-20 -141 -344 -263z" />
    <glyph glyph-name="circumflex" unicode="&#x2c6;" horiz-adv-x="706" 
d="M610 1481q102 -184 224 -346l-39 -7q-117 52 -248 142q-176 -90 -328 -142l-35 7q228 184 398 346h28z" />
    <glyph glyph-name="caron" unicode="&#x2c7;" horiz-adv-x="706" 
d="M477 1104q-105 189 -223 346l39 6q121 -54 248 -141q172 89 327 141l35 -6q-221 -178 -397 -346h-29z" />
    <glyph glyph-name="breve" unicode="&#x2d8;" horiz-adv-x="679" 
d="M500 1135q-138 0 -198.5 71t-33.5 226h31q-2 -47 16.5 -71t82.5 -38t190 -14q125 0 176 26.5t80 96.5h30q-50 -165 -143 -231t-231 -66z" />
    <glyph glyph-name="dotaccent" unicode="&#x2d9;" horiz-adv-x="358" 
d="M391 1415q59 0 90 -30t31 -85q0 -69 -50 -115t-116 -46q-59 0 -90 29.5t-31 84.5q0 70 49.5 116t116.5 46z" />
    <glyph glyph-name="ring" unicode="&#x2da;" horiz-adv-x="454" 
d="M408 1194q56 0 97.5 36t41.5 99q0 44 -26 70t-77 26q-56 0 -97.5 -36.5t-41.5 -100.5q0 -43 25.5 -68.5t77.5 -25.5zM453 1491q76 0 118.5 -42.5t42.5 -109.5q0 -94 -61.5 -151.5t-151.5 -57.5q-78 0 -120.5 41t-42.5 107q0 95 62.5 154t152.5 59z" />
    <glyph glyph-name="ogonek" unicode="&#x2db;" horiz-adv-x="542" 
d="M332 -135l10 -25q-55 -53 -142 -96t-194 -43q-147 0 -147 88q0 48 43 87t118 64.5t154 41.5t172 26l10 -8q-305 -55 -305 -141q0 -23 19 -34t67 -11q102 0 195 51z" />
    <glyph glyph-name="tilde" unicode="&#x2dc;" horiz-adv-x="751" 
d="M477 1456q39 0 75 -18t63.5 -43.5t53 -51t53 -43.5t54.5 -18q43 0 73 37.5t62 122.5h31q-20 -64 -42.5 -113t-55 -94t-76 -69.5t-96.5 -24.5q-41 0 -78 18t-65 43.5t-53 51t-52 43.5t-53 18q-44 0 -75 -37t-63 -121h-30q16 50 32.5 90t41 80.5t52.5 67.5t66 44t82 17z
" />
    <glyph glyph-name="hungarumlaut" unicode="&#x2dd;" horiz-adv-x="663" 
d="M596 1464l-2 -14q-144 -161 -348 -344l-27 2q92 159 187 379q106 -10 190 -23zM860 1464l-2 -14q-166 -181 -350 -344l-25 2q100 172 185 379q110 -10 192 -23z" />
    <glyph glyph-name="Wgrave" unicode="&#x1e80;" horiz-adv-x="1824" 
d="M1159 1190q-81 0 -92 -49q-7 -39 47 -217q99 139 111 200q7 35 -8 50.5t-58 15.5zM967 580q-6 36 -15 65q-43 -63 -205 -304t-266 -392h-39q-18 106 -118 620q-79 390 -104 475q-28 97 -58 123l-19 17l13 45h573l-10 -45l-64 -6q-98 -16 -110 -88q-16 -89 63 -412
q10 -43 40 -175t40 -175q43 60 131 180.5t127 175.5q-56 273 -82 368.5t-57 121.5l-12 10l12 45h610l-12 -45l-33 -15q-34 -12 -90.5 -75t-157.5 -203q7 -23 20.5 -64t18.5 -57q94 -312 148 -473q130 217 224 409.5t112 288.5q33 153 -70 172l-94 17l12 45h541l-11 -45
l-28 -19q-25 -14 -63 -57.5t-117 -152.5t-155.5 -218.5t-240.5 -344.5t-311 -443h-39q-50 373 -104 631zM936 1628q90 25 250 58q56 -194 135 -386l-29 -4q-192 147 -360 318z" />
    <glyph glyph-name="wgrave" unicode="&#x1e81;" horiz-adv-x="1318" 
d="M1358 1012q-56 -247 -144 -481.5t-190 -392.5t-182 -158q-60 0 -110.5 93.5t-78.5 250.5q-84 -152 -169.5 -249.5t-151.5 -97.5q-100 0 -186.5 84t-86.5 185q0 44 30.5 94.5t73.5 96t86.5 88.5t74 84t30.5 71t-28.5 50t-83.5 20q-71 0 -113 -31.5t-68 -124.5l-30 12
q58 227 118 327.5t127 100.5q61 0 106.5 -77.5t45.5 -188.5q0 -60 -35 -143t-69.5 -160.5t-34.5 -122.5q0 -61 37.5 -96t99.5 -35q55 1 113.5 50.5t103.5 123.5q-45 304 10 637q110 -8 246 -8q-26 -166 -76.5 -315t-134.5 -308q36 -90 89.5 -138t117.5 -44q88 0 140.5 64
t66.5 169q33 194 -51 586q157 -13 307 -16zM602 1436q77 22 250 57q55 -191 135 -385l-29 -4q-196 150 -360 317z" />
    <glyph glyph-name="Wacute" unicode="&#x1e82;" horiz-adv-x="1824" 
d="M1159 1190q-81 0 -92 -49q-7 -39 47 -217q99 139 111 200q7 35 -8 50.5t-58 15.5zM967 580q-6 36 -15 65q-43 -63 -205 -304t-266 -392h-39q-18 106 -118 620q-79 390 -104 475q-28 97 -58 123l-19 17l13 45h573l-10 -45l-64 -6q-98 -16 -110 -88q-16 -89 63 -412
q10 -43 40 -175t40 -175q43 60 131 180.5t127 175.5q-56 273 -82 368.5t-57 121.5l-12 10l12 45h610l-12 -45l-33 -15q-34 -12 -90.5 -75t-157.5 -203q7 -23 20.5 -64t18.5 -57q94 -312 148 -473q130 217 224 409.5t112 288.5q33 153 -70 172l-94 17l12 45h541l-11 -45
l-28 -19q-25 -14 -63 -57.5t-117 -152.5t-155.5 -218.5t-240.5 -344.5t-311 -443h-39q-50 373 -104 631zM1520 1628l-2 -14q-272 -184 -512 -318l-27 4q192 238 283 386q26 -6 78.5 -16.5t97 -20.5t82.5 -21z" />
    <glyph glyph-name="wacute" unicode="&#x1e83;" horiz-adv-x="1318" 
d="M1358 1012q-56 -247 -144 -481.5t-190 -392.5t-182 -158q-60 0 -110.5 93.5t-78.5 250.5q-84 -152 -169.5 -249.5t-151.5 -97.5q-100 0 -186.5 84t-86.5 185q0 44 30.5 94.5t73.5 96t86.5 88.5t74 84t30.5 71t-28.5 50t-83.5 20q-71 0 -113 -31.5t-68 -124.5l-30 12
q58 227 118 327.5t127 100.5q61 0 106.5 -77.5t45.5 -188.5q0 -60 -35 -143t-69.5 -160.5t-34.5 -122.5q0 -61 37.5 -96t99.5 -35q55 1 113.5 50.5t103.5 123.5q-45 304 10 637q110 -8 246 -8q-26 -166 -76.5 -315t-134.5 -308q36 -90 89.5 -138t117.5 -44q88 0 140.5 64
t66.5 169q33 194 -51 586q157 -13 307 -16zM1184 1436l-2 -15q-264 -178 -512 -317l-27 4q195 241 283 385q7 -2 107 -22t151 -35z" />
    <glyph glyph-name="Wdieresis" unicode="&#x1e84;" horiz-adv-x="1824" 
d="M967 580q-6 36 -15 65q-43 -63 -205 -304t-266 -392h-39q-18 106 -118 620q-79 390 -104 475q-28 97 -58 123l-19 17l13 45h573l-10 -45l-64 -6q-98 -16 -110 -88q-16 -89 63 -412q10 -43 40 -175t40 -175q43 60 131 180.5t127 175.5q-56 273 -82 368.5t-57 121.5l-12 10
l12 45h610l-12 -45l-33 -15q-34 -12 -90.5 -75t-157.5 -203q7 -23 20.5 -64t18.5 -57q94 -312 148 -473q130 217 224 409.5t112 288.5q33 153 -70 172l-94 17l12 45h541l-11 -45l-28 -19q-25 -14 -63 -57.5t-117 -152.5t-155.5 -218.5t-240.5 -344.5t-311 -443h-39
q-50 373 -104 631zM1067 1141q-7 -39 47 -217q99 139 111 200q7 35 -8 50.5t-58 15.5q-81 0 -92 -49zM1042 1610q55 0 84 -28.5t29 -80.5q0 -64 -46 -106.5t-108 -42.5q-112 0 -112 106q0 65 45.5 108.5t107.5 43.5zM1380 1610q55 0 84 -28.5t29 -80.5q0 -64 -46 -106.5
t-108 -42.5q-112 0 -112 106q0 65 45.5 108.5t107.5 43.5z" />
    <glyph glyph-name="wdieresis" unicode="&#x1e85;" horiz-adv-x="1318" 
d="M1358 1012q-56 -247 -144 -481.5t-190 -392.5t-182 -158q-60 0 -110.5 93.5t-78.5 250.5q-84 -152 -169.5 -249.5t-151.5 -97.5q-100 0 -186.5 84t-86.5 185q0 44 30.5 94.5t73.5 96t86.5 88.5t74 84t30.5 71t-28.5 50t-83.5 20q-71 0 -113 -31.5t-68 -124.5l-30 12
q58 227 118 327.5t127 100.5q61 0 106.5 -77.5t45.5 -188.5q0 -60 -35 -143t-69.5 -160.5t-34.5 -122.5q0 -61 37.5 -96t99.5 -35q55 1 113.5 50.5t103.5 123.5q-45 304 10 637q110 -8 246 -8q-26 -166 -76.5 -315t-134.5 -308q36 -90 89.5 -138t117.5 -44q88 0 140.5 64
t66.5 169q33 194 -51 586q157 -13 307 -16zM711 1417q55 0 83.5 -28t28.5 -80q0 -64 -45.5 -107t-107.5 -43q-55 0 -84 28t-29 79q0 64 46 107.5t108 43.5zM1049 1417q55 0 83.5 -28t28.5 -80q0 -64 -45.5 -107t-107.5 -43q-55 0 -84 28t-29 79q0 64 46 107.5t108 43.5z" />
    <glyph glyph-name="uni1E9E" unicode="&#x1e9e;" horiz-adv-x="1355" 
d="M360 0h-456l10 45l115 27q42 10 69 84t111 409q110 444 117 527q4 53 -19 64q-5 2 -16 5l-96 23l12 45h1235l-10 -45q-158 -114 -321.5 -260t-264.5 -271l12 -16q129 70 207 70q120 0 191 -60t71 -164q0 -60 -25.5 -130t-72.5 -136t-106.5 -120t-134.5 -87t-150 -33
q-86 0 -170 30t-144 69q69 203 109 411h39q-7 -75 8.5 -130.5t45 -88.5t77.5 -53t97 -26.5t112 -6.5q102 0 145 33t45 100q0 44 -30.5 87t-78.5 79.5t-124.5 76.5t-149 71.5t-172.5 70.5q170 157 259 252t89 140q0 43 -54 67.5t-150 24.5q-28 0 -45.5 -1.5t-37.5 -11
t-32 -21.5t-28 -40.5t-27.5 -61t-29 -90.5t-33.5 -120.5t-40 -159.5q-133 -530 -158 -678z" />
    <glyph glyph-name="endash" unicode="&#x2013;" horiz-adv-x="1069" 
d="M90 625q208 -7 469 -7q265 0 473 7l-51 -213q-173 6 -471 6q-287 0 -471 -6z" />
    <glyph glyph-name="emdash" unicode="&#x2014;" horiz-adv-x="1560" 
d="M90 625q222 -7 758 -7q475 0 676 7l-51 -213q-166 6 -674 6q-565 0 -760 -6z" />
    <glyph glyph-name="quoteleft" unicode="&#x2018;" horiz-adv-x="430" 
d="M528 1260l15 -27q-213 -145 -213 -275q0 -51 30 -98.5t97 -109.5q-41 -57 -86.5 -89t-108.5 -32q-75 0 -114 44t-39 126q0 57 22.5 111t58.5 98.5t92.5 90.5t113.5 82.5t132 78.5z" />
    <glyph glyph-name="quoteright" unicode="&#x2019;" horiz-adv-x="430" 
d="M94 618l-14 27q213 145 213 275q0 51 -30 98.5t-97 109.5q41 58 86 89.5t108 31.5q75 0 114.5 -44t39.5 -126q0 -70 -32 -135t-94 -122.5t-130.5 -104t-163.5 -99.5z" />
    <glyph glyph-name="quotesinglbase" unicode="&#x201a;" horiz-adv-x="434" 
d="M-96 -281l-15 27q213 145 213 274q0 51 -30 99t-97 110q41 57 86.5 89t108.5 32q75 0 114.5 -44t39.5 -126q0 -70 -32 -135t-94 -122.5t-130.5 -104t-163.5 -99.5z" />
    <glyph glyph-name="quotedblleft" unicode="&#x201c;" horiz-adv-x="837" 
d="M913 1260l15 -27q-213 -145 -213 -275q0 -51 30 -98.5t97 -109.5q-41 -57 -86.5 -89t-108.5 -32q-75 0 -114 44t-39 126q0 57 22.5 111t58.5 98.5t92.5 90.5t113.5 82.5t132 78.5zM528 1260l15 -27q-213 -145 -213 -275q0 -51 30 -98.5t97 -109.5q-41 -57 -86.5 -89
t-108.5 -32q-75 0 -114 44t-39 126q0 57 22.5 111t58.5 98.5t92.5 90.5t113.5 82.5t132 78.5z" />
    <glyph glyph-name="quotedblright" unicode="&#x201d;" horiz-adv-x="837" 
d="M117 618l-15 27q213 145 213 275q0 51 -30 98.5t-97 109.5q41 57 86.5 89t108.5 32q75 0 114.5 -44t39.5 -126q0 -70 -32 -135t-94 -122.5t-130.5 -104t-163.5 -99.5zM502 618l-15 27q213 145 213 275q0 51 -30 98.5t-97 109.5q41 57 86.5 89t108.5 32q75 0 114.5 -44
t39.5 -126q0 -70 -32 -135t-94 -122.5t-130.5 -104t-163.5 -99.5z" />
    <glyph glyph-name="quotedblbase" unicode="&#x201e;" horiz-adv-x="821" 
d="M-94 -283l-15 27q213 145 213 274q0 51 -30 99t-97 110q41 57 86.5 89t108.5 32q75 0 114.5 -44t39.5 -126q0 -70 -32 -135t-94 -122.5t-130.5 -104t-163.5 -99.5zM291 -283l-15 27q213 145 213 274q0 51 -30 99t-97 110q41 57 86.5 89t108.5 32q75 0 114.5 -44
t39.5 -126q0 -70 -32 -135t-94 -122.5t-130.5 -104t-163.5 -99.5z" />
    <glyph glyph-name="dagger" unicode="&#x2020;" horiz-adv-x="1144" 
d="M862 1372q-64 -176 -129 -373q354 0 443 31q-2 -11 -32 -158t-53 -265.5t-28 -162.5h-29l2 189q1 41 -20 59.5t-102 28.5t-257 10q-24 -139 70 -299q-175 -343 -236 -483q-69 -160 -106 -291h-37q25 116 35.5 254t9 259t-1.5 261q170 156 221 299q-176 0 -264 -10.5
t-117 -28.5t-49 -59l-90 -189h-31q41 107 181 586q77 -31 428 -31q10 57 19 117t20 140t16 116h137z" />
    <glyph glyph-name="daggerdbl" unicode="&#x2021;" horiz-adv-x="1161" 
d="M862 1372q-43 -117 -131 -385q354 0 443 31q-3 -17 -25 -124.5t-39.5 -196.5t-22.5 -128h-28l-4 97q-1 22 -4.5 34t-19 23.5t-38.5 17t-70 9.5t-106.5 5t-154.5 1q-8 -56 6.5 -120.5t50.5 -119.5q-135 -120 -176 -240q114 0 181.5 2.5t115.5 7t73 16t38.5 25t27.5 38.5
l53 98h29q-14 -40 -42 -131.5t-58.5 -192.5t-38.5 -125q-85 31 -426 31q-44 -250 -62 -387h-137q82 228 133 387q-338 0 -440 -31q70 348 82 449h30l7 -98q1 -22 4.5 -34.5t19 -24t37.5 -16.5t70 -8.5t105 -4.5t153 -1q16 122 -58 240q64 55 110 119.5t66 120.5
q-141 0 -213.5 -2.5t-120.5 -13.5t-65 -26.5t-35 -47.5l-53 -97h-31q31 86 142 449q74 -31 424 -31q35 185 61 385h137z" />
    <glyph glyph-name="bullet" unicode="&#x2022;" horiz-adv-x="759" 
d="M369 309q-124 0 -193.5 65.5t-69.5 186.5q0 156 95 234.5t254 78.5q127 0 195.5 -61.5t68.5 -185.5q0 -153 -97.5 -235.5t-252.5 -82.5z" />
    <glyph glyph-name="ellipsis" unicode="&#x2026;" horiz-adv-x="1413" 
d="M147 -14q-77 0 -120 41.5t-43 117.5q0 99 59.5 149t157.5 50q79 0 122.5 -40t43.5 -118q0 -96 -61 -148t-159 -52zM618 -14q-77 0 -120 41.5t-43 117.5q0 99 59.5 149t157.5 50q79 0 122.5 -40t43.5 -118q0 -96 -61 -148t-159 -52zM1090 -14q-77 0 -120.5 41.5
t-43.5 117.5q0 99 59.5 149t157.5 50q79 0 122.5 -40t43.5 -118q0 -96 -60.5 -148t-158.5 -52z" />
    <glyph glyph-name="guilsinglleft" unicode="&#x2039;" horiz-adv-x="618" 
d="M647 954l37 -24q-68 -113 -144.5 -212t-189.5 -229q82 -218 117 -421l-45 -23q-143 240 -377 436l10 37q354 212 592 436z" />
    <glyph glyph-name="guilsinglright" unicode="&#x203a;" horiz-adv-x="618" 
d="M-6 45l-37 25q67 113 143.5 211t190.5 229q-81 217 -117 422l45 22q143 -240 377 -436l-10 -37q-354 -212 -592 -436z" />
    <glyph glyph-name="fraction" unicode="&#x2044;" horiz-adv-x="182" 
d="M98 612q-275 -275 -590 -612h-100l4 16q56 51 202 182t253 230.5t203 194.5q90 90 186 191.5t212.5 227.5t174.5 187h100l-4 -15q-69 -66 -295.5 -275t-345.5 -327z" />
    <glyph glyph-name="Euro" unicode="&#x20ac;" horiz-adv-x="1259" 
d="M659 268q106 0 183 12.5t127.5 37.5t80.5 56.5t50 76.5l47 108h39l-82 -397q-209 -182 -453 -182q-224 0 -343.5 132t-119.5 373q0 36 2 54q-87 0 -153 -4l10 38q58 -4 146 -4q6 61 24 123q-22 -1 -74 -2t-67 -2l8 39q14 -1 66.5 -2t74.5 -2q35 109 99.5 202t156.5 166.5
t219 115.5t275 42q110 0 205 -24t155 -62l-121 -461h-38l6 115q2 45 -5 74.5t-31 53.5t-72 35t-124 11q-204 0 -361.5 -73.5t-248.5 -194.5q259 0 455 4l-9 -39q-204 4 -469 4q-40 -63 -57 -123q276 0 498 4l-10 -38q-222 4 -496 4q-8 -36 -8 -82q0 -87 109 -138t306 -51z
" />
    <glyph glyph-name="uni2116" unicode="&#x2116;" horiz-adv-x="2179" 
d="M1264 43q38 -1 105.5 -2.5t123.5 -2.5t106 -1t106.5 1t125 2.5t106.5 2.5l-10 -43q-333 6 -334 6q-49 0 -105.5 -1t-126 -2.5t-108.5 -2.5zM971 -25h-56q-17 35 -136 283t-211.5 438.5t-149.5 298.5q-22 43 -39 68q-47 -199 -73 -350.5t-30.5 -254.5t3 -172t33.5 -109.5
t55.5 -60t74.5 -30.5l187 -41l-11 -45h-718l10 45l70 16q47 13 75 54q45 68 120 343q42 153 169 650q-39 44 -94 59l-74 17l8 45h508q148 -437 342 -791q45 193 68.5 325t30.5 206t-3.5 115t-25.5 53t-45 18l-144 29l11 45h499l-8 -45l-55 -15q-43 -11 -73.5 -59
t-88.5 -233.5t-153 -567.5q-60 -240 -76 -334zM1622 494q197 0 330 113t133 253q0 119 -230 119q-94 0 -180 -31.5t-145 -82t-94 -115t-35 -129.5q0 -127 221 -127zM1843 1253q130 0 212.5 -112t82.5 -316q0 -148 -66 -286.5t-182.5 -227t-249.5 -88.5q-128 0 -210 113
t-82 319q0 147 65.5 284.5t181 225.5t248.5 88z" />
    <glyph glyph-name="trademark" unicode="&#x2122;" horiz-adv-x="1720" 
d="M250 1229h584q-36 -162 -58 -305l-31 -2l-14 153q-10 70 -27 92t-77 29q-26 -77 -70 -256q-29 -117 -41.5 -173t-12.5 -88.5t7.5 -38.5t30.5 -11l53 -11l-10 -34h-406l8 34l62 13q23 5 33.5 11t25 34t26 70.5t34.5 136.5q65 260 71 313q-62 -6 -90 -28.5t-72 -90.5
l-94 -155l-30 2q41 117 98 305zM901 1229h303q40 -258 86 -416q25 36 73.5 105.5t73.5 106.5t62.5 93.5t69.5 110.5h274l-10 -39l-51 -12q-28 -7 -40.5 -41.5t-47.5 -200.5q-25 -117 -35.5 -172.5t-12.5 -87.5t2.5 -37.5t17.5 -9.5h1l45 -11l-10 -34h-397l10 34l82 13
q41 7 53.5 33t40.5 164q8 36 12 57q52 227 60 268q-58 -86 -187.5 -272t-204.5 -297h-24q-5 25 -19.5 103.5t-22.5 119t-21.5 104t-25.5 113t-24 90.5q-6 25 -16 37q-39 -179 -57 -276.5t-19 -151t9 -68t36 -22.5l68 -15l-11 -34h-313l10 34l39 9q35 9 63.5 84t145.5 458
q-22 9 -41 11l-57 10z" />
    <glyph glyph-name="arrowleft" unicode="&#x2190;" horiz-adv-x="1824" 
d="M76 668q475 257 878 587l23 -20q-186 -248 -502 -557q240 8 614.5 69t733.5 138l-113 -457q-315 75 -662.5 136t-582.5 69q163 -315 223 -555l-33 -21q-267 352 -583 588z" />
    <glyph glyph-name="arrowup" unicode="&#x2191;" horiz-adv-x="1282" 
d="M680 1481q126 -200 280.5 -392t307.5 -339l-21 -27q-142 71 -271.5 156.5t-285.5 205.5q8 -238 69 -596.5t138 -699.5h-457q76 335 136.5 696t68.5 600q-163 -124 -289.5 -208.5t-265.5 -153.5l-20 27q346 349 587 731h23z" />
    <glyph glyph-name="arrowright" unicode="&#x2192;" horiz-adv-x="1824" 
d="M1845 645q-472 -255 -878 -588l-23 21q186 248 502 557q-240 -8 -614.5 -69t-733.5 -138l113 457q315 -75 662.5 -136t582.5 -69q-163 315 -223 555l33 20q122 -161 271.5 -313.5t311.5 -273.5z" />
    <glyph glyph-name="arrowdown" unicode="&#x2193;" horiz-adv-x="1282" 
d="M928 1522q-75 -335 -136 -696.5t-69 -600.5q165 126 291 210t264 153l20 -27q-346 -349 -587 -731h-23q-126 200 -280.5 392t-307.5 339l21 27q238 -118 557 -363q-8 238 -69 597t-138 700h457z" />
    <glyph glyph-name="minus" unicode="&#x2212;" horiz-adv-x="960" 
d="M102 745q127 -6 430 -6q304 0 435 6l-43 -176q-125 6 -428 6q-304 0 -437 -6z" />
    <glyph glyph-name="commaaccent" unicode="&#xf6c3;" horiz-adv-x="360" 
d="M-205 -449l-4 15q150 86 158 155q8 51 -68 111q66 86 160 86q54 0 79 -28t19 -76q-20 -141 -344 -263z" />
    <glyph glyph-name="uniF8FF" unicode="&#xf8ff;" horiz-adv-x="2635" 
d="M1942 16q-13 -30 -123 -30l-50 2q9 212 13 508.5t8 406.5q-52 -160 -110.5 -387t-93.5 -364.5t-48 -147.5q-14 -12 -43 -12q-13 0 -50.5 5t-64.5 7q4 127 4 420q-63 2 -190 2q2 -51 2 -164q0 -244 -20 -256q-12 -10 -54 -10q-22 0 -59 3t-45 3h-6q14 232 14 422
q-30 0 -84 -1t-78 -1v-92q0 -57 1 -146.5t1 -111.5q0 -37 -2 -41q-10 -26 -39 -33.5t-123 -9.5q-2 59 -2 162q0 71 5 266q-114 -4 -132 -4q-54 -92 -120 -214.5t-95 -193.5q-14 4 -45 4q-20 0 -41.5 -2.5t-33.5 -5.5l-11 -2q-5 51 -32 102q-8 16 -98 156t-95 160
q-4 16 -4 24q0 34 27 90q-11 22 -11 50q0 35 17 98q12 38 47.5 121.5t93 213t92.5 212.5q68 0 144 20q90 -231 180 -667q10 -1 121 -5v25q0 41 -1 160t-1 182q0 239 16 262q16 29 147 31q-6 -123 -6 -236q0 -70 2 -191t2 -171v-64q25 0 78 -1t80 -1q0 183 -3 357.5t-3 185.5
q0 52 4 69.5t16 26.5q16 13 78 13h64q0 -27 -1 -78.5t-1 -75.5q0 -168 10 -496q114 3 194 9q0 53 -1 149.5t-1 138.5q0 321 17 344q20 29 86 29q14 0 40.5 -2t35.5 -2q-17 -121 -17 -541v-164q203 673 250 697q16 8 61 8l95 -6q-6 -147 -6 -350q0 -132 3 -370.5t3 -315.5
q0 -166 -8 -179zM2359 948q-24 -71 -68.5 -181t-71 -181.5t-26.5 -96.5v-4q2 -29 70 -141.5t80 -140.5q29 68 59 143t45 116l15 40q-23 127 -60.5 273.5t-42.5 172.5zM143 520q0 -16 24.5 -60.5t64.5 -116t65 -128.5q24 63 58 136.5t52.5 115.5t18.5 61v4q-1 23 -36 178.5
t-60 252.5q-187 -404 -187 -443zM2292 1245q24 -12 57 -12q40 0 61 24q149 -474 226 -763q-187 -488 -246 -500q-6 -2 -18 -2q-46 0 -136 37q-1 35 -23 87.5t-45 91t-58.5 94.5t-43.5 69q-22 40 -22 61q0 12 4.5 21.5t12.5 18.5t10 13q6 9 6 21q0 28 -35 37q187 458 250 702
z" />
    <glyph glyph-name="fi" unicode="&#xfb01;" horiz-adv-x="1095" 
d="M666 1182q-71 18 -154 18t-129.5 -39t-65.5 -147h330l-55 -273q-172 11 -313 11q5 -125 35 -428.5t26 -417.5q-4 -128 -61 -199.5t-150 -71.5q-103 0 -156 79.5t-57 256.5l29 6q13 -78 27.5 -105.5t39.5 -27.5q21 0 34 20.5t24 65.5q15 62 38.5 192t57 321t55.5 309
q-117 0 -168 -2v38q164 60 217 213q1 6 4.5 18.5t4.5 18.5q42 193 117 277t192 84q33 0 96 -13zM979 1135q-59 0 -92 33.5t-33 99.5q0 83 47.5 124.5t132.5 41.5q59 0 92 -31.5t33 -93.5q0 -87 -47 -130.5t-133 -43.5zM885 686q0 29 -24 46.5t-70 17.5q-56 0 -96 -30
t-77 -118l-30 12q74 226 132 323t132 97q51 0 91 -55t40 -133q0 -64 -63.5 -248t-63.5 -238q0 -42 19 -61.5t49 -19.5q34 0 61 31.5t68 119.5l28 -14q-50 -167 -98 -265t-94 -136t-101 -38q-71 0 -121.5 58t-50.5 131q0 53 27.5 116t67 119.5t79 109.5t67 99.5t28.5 75.5z
" />
    <glyph glyph-name="fl" unicode="&#xfb02;" horiz-adv-x="1085" 
d="M666 1182q-71 18 -154 18t-129.5 -39t-65.5 -147h330l-55 -273q-172 11 -313 11q5 -125 35 -428.5t26 -417.5q-4 -128 -61 -199.5t-150 -71.5q-103 0 -156 79.5t-57 256.5l29 6q13 -78 27.5 -105.5t39.5 -27.5q21 0 34 20.5t24 65.5q15 62 38.5 192t57 321t55.5 309
q-117 0 -168 -2v38q164 60 217 213q1 6 4.5 18.5t4.5 18.5q42 193 117 277t192 84q33 0 96 -13zM948 1135q0 26 -23 42.5t-61 16.5q-77 0 -168 -59l-22 28q140 230 241 230q43 0 74 -38.5t31 -99.5q-1 -86 -42 -269.5t-81.5 -359t-40.5 -243.5q0 -104 72 -104q34 0 61 30
t64 113l28 -12q-71 -242 -138.5 -337.5t-151.5 -95.5q-75 0 -126 62.5t-51 150.5q0 78 52 222t115 276.5t115 263t52 183.5z" />
    <glyph glyph-name="W.alt" horiz-adv-x="1769" 
d="M1960 1229l-10 -45l-27 -19q-58 -36 -220.5 -296t-545.5 -920h-37q-48 256 -186 866q-167 -278 -318 -508h-2q-128 -200 -237 -358h-39q-6 78 -33 311.5t-35 314.5q-37 389 -52 469q-17 97 -46 123l-20 17l10 45h557l-10 -45l-56 -6q-132 -19 -135 -105q-2 -68 35 -395
q4 -30 55 -328q225 387 504 914h31q7 -66 21 -154.5t25.5 -153.5t34.5 -184t31 -158.5t35.5 -171.5t28.5 -135q14 30 51.5 107t57.5 118.5t52.5 111.5t51 115.5t38.5 99t30 93.5t12 70q2 75 -19 106.5t-80 40.5l-86 15l11 45h522z" />
    <glyph glyph-name="Wacute.alt" horiz-adv-x="1769" 
d="M1960 1229l-10 -45l-27 -19q-58 -36 -220.5 -296t-545.5 -920h-37q-48 256 -186 866q-167 -278 -318 -508h-2q-128 -200 -237 -358h-39q-6 78 -33 311.5t-35 314.5q-37 389 -52 469q-17 97 -46 123l-20 17l10 45h557l-10 -45l-56 -6q-132 -19 -135 -105q-2 -68 35 -395
q4 -30 55 -328q225 387 504 914h31q7 -66 21 -154.5t25.5 -153.5t34.5 -184t31 -158.5t35.5 -171.5t28.5 -135q14 30 51.5 107t57.5 118.5t52.5 111.5t51 115.5t38.5 99t30 93.5t12 70q2 75 -19 106.5t-80 40.5l-86 15l11 45h522zM1448 1688l-2 -15q-264 -178 -512 -317
l-27 4q195 241 283 385q7 -2 107 -22t151 -35z" />
    <glyph glyph-name="Wcircumflex.alt" horiz-adv-x="1769" 
d="M1960 1229l-10 -45l-27 -19q-58 -36 -220.5 -296t-545.5 -920h-37q-48 256 -186 866q-167 -278 -318 -508h-2q-128 -200 -237 -358h-39q-6 78 -33 311.5t-35 314.5q-37 389 -52 469q-17 97 -46 123l-20 17l10 45h557l-10 -45l-56 -6q-132 -19 -135 -105q-2 -68 35 -395
q4 -30 55 -328q225 387 504 914h31q7 -66 21 -154.5t25.5 -153.5t34.5 -184t31 -158.5t35.5 -171.5t28.5 -135q14 30 51.5 107t57.5 118.5t52.5 111.5t51 115.5t38.5 99t30 93.5t12 70q2 75 -19 106.5t-80 40.5l-86 15l11 45h522zM1214 1733q104 -187 224 -347l-39 -6
q-117 52 -248 142q-176 -90 -328 -142l-35 6q221 178 398 347h28z" />
    <glyph glyph-name="Wdieresis.alt" horiz-adv-x="1769" 
d="M1960 1229l-10 -45l-27 -19q-58 -36 -220.5 -296t-545.5 -920h-37q-48 256 -186 866q-167 -278 -318 -508h-2q-128 -200 -237 -358h-39q-6 78 -33 311.5t-35 314.5q-37 389 -52 469q-17 97 -46 123l-20 17l10 45h557l-10 -45l-56 -6q-132 -19 -135 -105q-2 -68 35 -395
q4 -30 55 -328q225 387 504 914h31q7 -66 21 -154.5t25.5 -153.5t34.5 -184t31 -158.5t35.5 -171.5t28.5 -135q14 30 51.5 107t57.5 118.5t52.5 111.5t51 115.5t38.5 99t30 93.5t12 70q2 75 -19 106.5t-80 40.5l-86 15l11 45h522zM1004 1669q55 0 83.5 -28t28.5 -80
q0 -64 -45.5 -107t-107.5 -43q-55 0 -84 28t-29 79q0 64 46 107.5t108 43.5zM1341 1669q55 0 84 -28t29 -80q0 -64 -46 -107t-108 -43q-55 0 -83.5 27.5t-28.5 79.5q0 64 45.5 107.5t107.5 43.5z" />
    <glyph glyph-name="Wgrave.alt" horiz-adv-x="1769" 
d="M1960 1229l-10 -45l-27 -19q-58 -36 -220.5 -296t-545.5 -920h-37q-48 256 -186 866q-167 -278 -318 -508h-2q-128 -200 -237 -358h-39q-6 78 -33 311.5t-35 314.5q-37 389 -52 469q-17 97 -46 123l-20 17l10 45h557l-10 -45l-56 -6q-132 -19 -135 -105q-2 -68 35 -395
q4 -30 55 -328q225 387 504 914h31q7 -66 21 -154.5t25.5 -153.5t34.5 -184t31 -158.5t35.5 -171.5t28.5 -135q14 30 51.5 107t57.5 118.5t52.5 111.5t51 115.5t38.5 99t30 93.5t12 70q2 75 -19 106.5t-80 40.5l-86 15l11 45h522zM885 1688q77 22 250 57q55 -191 135 -385
l-29 -4q-196 150 -360 317z" />
    <glyph glyph-name="dollar.alt" horiz-adv-x="1036" 
d="M393 -242h-59q4 13 26.5 94t34.5 125q-126 0 -225 39.5t-160 94.5q54 181 101 456h47q-8 -89 16.5 -156.5t69 -108t112 -66t135 -34.5t148.5 -9q219 0 219 141q0 33 -36 65.5t-93.5 60.5t-126.5 57t-138.5 61.5t-127 67.5t-93.5 82t-36 99q0 77 33 149.5t94 132t158.5 97
t216.5 41.5q25 104 45 193h53q-8 -28 -53 -193q89 -1 179.5 -15.5t143.5 -33.5q-59 -229 -104 -465l-45 2q10 56 10.5 95.5t-11 68t-31 45.5t-57.5 27t-81.5 13t-110.5 3q-189 0 -289 -50t-100 -118q0 -29 31.5 -50t82.5 -32.5t116.5 -23t134 -20.5t134 -26t116.5 -39.5
t82.5 -61t31.5 -89.5q0 -67 -46.5 -149.5t-120.5 -155t-176 -127t-202 -65.5q-12 -55 -49 -222z" />
    <glyph glyph-name="cent.alt" horiz-adv-x="804" 
d="M756 436q-29 -94 -69.5 -174t-92.5 -144.5t-118 -101t-138 -36.5q-9 -43 -26 -120.5t-23 -103.5h-56q20 74 60 226q-117 14 -184.5 126t-67.5 310q0 113 36 219t100.5 190.5t163 139t214.5 61.5q4 20 22.5 99t26.5 122h51q-4 -13 -26.5 -94t-34.5 -125h2q68 0 139 -13.5
t115 -31.5q-87 -333 -105 -403l-38 4q14 94 -6.5 136t-104.5 42q-93 0 -182 -27.5t-158 -75.5t-111.5 -119t-42.5 -151q0 -69 55.5 -104t153.5 -35q138 0 256.5 59.5t163.5 153.5z" />
    <glyph glyph-name="periodcentered.case" horiz-adv-x="501" 
d="M281 532q-77 0 -120.5 42t-43.5 118q0 99 59.5 149t157.5 50q79 0 122.5 -40t43.5 -118q0 -97 -61 -149t-158 -52z" />
    <glyph glyph-name="bullet.case" horiz-adv-x="759" 
d="M403 438q-124 0 -193 65.5t-69 186.5q0 156 95 235t253 79q127 0 196 -62t69 -186q0 -153 -97.5 -235.5t-253.5 -82.5z" />
    <glyph glyph-name="guillemotleft.case" horiz-adv-x="1034" 
d="M682 1096l37 -25q-67 -113 -143.5 -211t-190.5 -229q81 -217 117 -422l-45 -23q-144 242 -377 437l10 36q351 210 592 437zM1098 1096l37 -25q-67 -113 -143.5 -211t-190.5 -229q81 -217 117 -422l-46 -23q-145 244 -376 437l10 36q351 210 592 437z" />
    <glyph glyph-name="guillemotright.case" horiz-adv-x="1034" 
d="M436 180l-37 25q67 113 143.5 211t190.5 229q-81 217 -117 422l46 23q145 -244 376 -437l-10 -37q-354 -212 -592 -436zM20 180l-36 25q68 113 144 212t189 228q-80 212 -116 422l45 23q144 -242 377 -437l-11 -37q-354 -212 -592 -436z" />
    <glyph glyph-name="guilsinglleft.case" horiz-adv-x="618" 
d="M680 1094l37 -25q-67 -113 -143.5 -211t-190.5 -229q81 -217 117 -422l-45 -23q-144 242 -377 437l10 36q351 210 592 437z" />
    <glyph glyph-name="guilsinglright.case" horiz-adv-x="618" 
d="M25 184l-37 25q67 113 143.5 211t190.5 229q-81 217 -117 422l45 23q144 -242 377 -437l-11 -36q-348 -208 -591 -437z" />
    <glyph glyph-name="hyphen.case" horiz-adv-x="741" 
d="M119 737q153 -6 307 -6t307 6l-51 -213q-150 6 -305 6q-153 0 -309 -6z" />
    <glyph glyph-name="endash.case" horiz-adv-x="1069" 
d="M119 737q179 -6 469 -6q295 0 473 6l-51 -213q-172 6 -471 6q-287 0 -471 -6z" />
    <glyph glyph-name="emdash.case" horiz-adv-x="1560" 
d="M119 737q190 -6 758 -6q503 0 675 6l-51 -213q-166 6 -674 6q-564 0 -759 -6z" />
    <glyph glyph-name="parenleft.case" horiz-adv-x="612" 
d="M586 -254l-11 -45q-231 25 -363 185t-132 417q0 237 78 451t208.5 369t301.5 257.5t358 130.5l-10 -45q-125 -27 -244 -148.5t-207.5 -298.5t-142 -404t-53.5 -455q0 -360 217 -414z" />
    <glyph glyph-name="parenright.case" horiz-adv-x="612" 
d="M92 1477l10 45q231 -25 363.5 -185t132.5 -417q0 -237 -78 -451t-208.5 -369.5t-301.5 -258t-358 -130.5l10 45q100 22 197.5 104t177.5 210t141.5 285.5t96 341t34.5 366.5q0 360 -217 414z" />
    <glyph glyph-name="bracketleft.case" horiz-adv-x="626" 
d="M483 692q-173 -688 -188 -809q-10 -72 11 -82q5 -2 18 -4l153 -20l-12 -45h-506q123 446 242 923q95 383 200 844h504l-10 -45l-166 -20q-26 -4 -37.5 -14t-39 -87.5t-62.5 -214t-107 -426.5z" />
    <glyph glyph-name="bracketright.case" horiz-adv-x="628" 
d="M221 535q172 688 189 807q10 73 -10 83q-5 3 -19 5l-154 20l13 45h505q-110 -399 -241 -924q-111 -448 -201 -843h-504l11 45l165 20q26 4 37.5 14t39 87.5t62.5 214t107 426.5z" />
    <glyph glyph-name="braceleft.case" horiz-adv-x="632" 
d="M467 -236l-12 -45q-271 21 -373 57.5t-102 108.5q0 46 33.5 111t82 131t96.5 132t81.5 133t33.5 116q0 60 -51.5 82t-179.5 24l14 48q172 3 242.5 62.5t70.5 164.5q0 76 -35.5 200t-35.5 168q0 72 50.5 123t173.5 88t325 54l-7 -43q-92 -18 -143 -44t-68.5 -55.5
t-25.5 -79.5q-7 -43 -4 -185.5t-12 -215.5q-19 -117 -117 -174.5t-262 -73.5l-9 -26q141 -12 213 -41t72 -92q0 -56 -36 -144t-78.5 -165t-78.5 -162.5t-36 -137.5t38.5 -79t139.5 -40z" />
    <glyph glyph-name="braceright.case" horiz-adv-x="632" 
d="M248 1477l12 45q184 -15 286.5 -35.5t145.5 -51.5t43 -79q0 -46 -33.5 -110t-81.5 -128.5t-96.5 -129t-82 -130.5t-33.5 -115q0 -60 52 -82t179 -22l-12 -49q-172 -3 -244 -63.5t-72 -164.5q0 -76 35 -205t35 -173q0 -73 -50 -124t-172.5 -87.5t-324.5 -53.5l6 43
q92 18 142.5 44t68 55.5t25.5 79.5q8 46 6.5 190t11.5 221q11 61 42.5 106.5t83 73.5t112.5 44t141 24l6 27q-137 12 -209.5 41.5t-72.5 91.5q0 56 36 142.5t78.5 161.5t78.5 158.5t36 135.5t-39 79t-139 40z" />
    <glyph glyph-name="exclamdown.case" horiz-adv-x="546" 
d="M-37 2q236 447 361 754l45 -2q-29 -301 -23 -758zM436 1245q77 0 120.5 -42t43.5 -118q0 -99 -59 -148.5t-158 -49.5q-80 0 -123 39.5t-43 117.5q0 97 61 149t158 52z" />
    <glyph glyph-name="questiondown.case" horiz-adv-x="788" 
d="M668 748l6 -39q-572 -235 -572 -385q0 -41 19.5 -61.5t64.5 -20.5q44 0 201 28.5t207 28.5q43 0 64.5 -16.5t21.5 -59.5q0 -22 -5.5 -48.5t-20 -65.5t-24 -61.5t-33.5 -77t-32 -72.5l-39 2q13 57 13 67q0 19 -11.5 28t-40.5 9q-28 0 -76.5 -2t-72.5 -2q-279 0 -279 367
q0 71 28 126.5t77.5 95.5t128 70.5t167.5 50.5t208 38zM668 1243q77 0 120 -42t43 -118q0 -99 -59 -148.5t-158 -49.5q-79 0 -122 39.5t-43 117.5q0 97 61 149t158 52z" />
    <glyph glyph-name="zero.osf" horiz-adv-x="1101" 
d="M702 795q-126 0 -239.5 -33t-191 -86t-122.5 -120.5t-45 -135.5q0 -77 74 -119.5t219 -42.5q130 0 245 34t192 88.5t121 122.5t44 136q0 156 -297 156zM680 1075q164 0 267.5 -123.5t103.5 -339.5q0 -116 -49.5 -230.5t-132 -203t-200.5 -143.5t-245 -55q-161 0 -266 125
t-105 341q0 154 82.5 298.5t229 237.5t315.5 93z" />
    <glyph glyph-name="one.osf" horiz-adv-x="636" 
d="M594 1094l37 -4q-50 -178 -125 -474q-106 -414 -111 -489q-4 -48 18 -57q4 -2 11 -4l94 -21l-10 -45h-604l10 45l111 18q23 3 36 15t34.5 67t46.5 148.5t71 279.5q14 58 23.5 98t14.5 73.5t8 53.5t-1 36t-6.5 23t-15 13t-20.5 8t-28 5l-67 6l10 39q128 15 239.5 52.5
t223.5 113.5z" />
    </font>
</defs>
</svg>
