<?xml version="1.0" standalone="no"?>
<!DOCTYPE svg PUBLIC "-//W3C//DTD SVG 1.1//EN" "http://www.w3.org/Graphics/SVG/1.1/DTD/svg11.dtd" >
<svg xmlns="http://www.w3.org/2000/svg" xmlns:xlink="http://www.w3.org/1999/xlink" version="1.1">
<metadata>
Created by FontForge 20201107 at Fri Sep 20 20:26:06 2024
 By 
(c) Copyright OH no Type Company, LLC. 2020. All rights reserved.
</metadata>
<defs>
<font id="SwearDisplay-BoldItalic" horiz-adv-x="1228" >
  <font-face 
    font-family="Swear Display"
    font-weight="700"
    font-style="italic"
    font-stretch="normal"
    units-per-em="2048"
    panose-1="2 3 7 2 7 4 2 9 2 3"
    ascent="1372"
    descent="-676"
    x-height="1034"
    cap-height="1229"
    bbox="-592 -453 2636 1958"
    underline-thickness="102"
    underline-position="-286"
    unicode-range="U+0020-FB02"
  />
<missing-glyph horiz-adv-x="1751" 
d="M741 76q72 0 127.5 4.5t87 10.5t101.5 20q0 169 46.5 278.5t110.5 142.5q-21 -71 -51 -249q232 139 232 505q0 233 -124 353.5t-366 120.5q-194 0 -333.5 -91.5t-176.5 -240.5q12 2 35 2q106 0 157.5 -64.5t51.5 -156.5q0 -56 -21.5 -101t-56 -71t-73.5 -39t-78 -13
q10 -254 12 -350q28 -28 127.5 -44.5t191.5 -16.5zM745 -68q-326 0 -442 129q-1 26 -8.5 97t-10 119.5t9 112.5t42.5 110q-59 23 -96 77.5t-37 129.5q0 68 33.5 122t91.5 80q-22 140 49 253.5t212 176t322 62.5q313 0 474 -157.5t161 -446.5q0 -104 -22.5 -194.5t-69 -169
t-123.5 -138.5t-180 -94q-21 -137 -21 -183q-138 -86 -385 -86zM932 936q109 0 167 -64t58 -155q0 -104 -73.5 -176t-168.5 -72q-96 0 -159.5 64t-63.5 172q0 93 62.5 162t177.5 69z" />
    <glyph glyph-name=".notdef" horiz-adv-x="1751" 
d="M741 76q72 0 127.5 4.5t87 10.5t101.5 20q0 169 46.5 278.5t110.5 142.5q-21 -71 -51 -249q232 139 232 505q0 233 -124 353.5t-366 120.5q-194 0 -333.5 -91.5t-176.5 -240.5q12 2 35 2q106 0 157.5 -64.5t51.5 -156.5q0 -56 -21.5 -101t-56 -71t-73.5 -39t-78 -13
q10 -254 12 -350q28 -28 127.5 -44.5t191.5 -16.5zM745 -68q-326 0 -442 129q-1 26 -8.5 97t-10 119.5t9 112.5t42.5 110q-59 23 -96 77.5t-37 129.5q0 68 33.5 122t91.5 80q-22 140 49 253.5t212 176t322 62.5q313 0 474 -157.5t161 -446.5q0 -104 -22.5 -194.5t-69 -169
t-123.5 -138.5t-180 -94q-21 -137 -21 -183q-138 -86 -385 -86zM932 936q109 0 167 -64t58 -155q0 -104 -73.5 -176t-168.5 -72q-96 0 -159.5 64t-63.5 172q0 93 62.5 162t177.5 69z" />
    <glyph glyph-name=".null" horiz-adv-x="0" 
 />
    <glyph glyph-name="nonmarkingreturn" horiz-adv-x="682" 
 />
    <glyph glyph-name="space" unicode=" " horiz-adv-x="315" 
 />
    <glyph glyph-name="exclam" unicode="!" horiz-adv-x="557" 
d="M647 1229q-220 -404 -360 -754l-47 2q33 340 22 758zM168 -14q-76 0 -119 41.5t-43 117.5q0 99 58.5 149t156.5 50q81 0 124.5 -40t43.5 -118q0 -97 -61 -148.5t-160 -51.5z" />
    <glyph glyph-name="quotedbl" unicode="&#x22;" horiz-adv-x="688" 
d="M498 1229q-141 -279 -283 -602h-33q26 396 19 602h297zM834 1229q-141 -279 -283 -602h-33q26 396 19 602h297z" />
    <glyph glyph-name="numbersign" unicode="#" horiz-adv-x="1267" 
d="M717 0h-78q17 63 51 185.5t39 142.5h-135h-160q-14 -60 -38 -169.5t-36 -158.5h-75q50 184 90 326q-117 0 -355 -4l54 219q227 -4 354 -6q2 8 6 23.5t6 23.5q3 15 14 60t17 71q-57 -1 -354 -6l53 221q258 -4 352 -6q15 61 39.5 171.5t30.5 135.5h70q-49 -182 -84 -307
h161h138q40 182 69 307h72q-49 -182 -84 -307q245 4 379 6l-56 -221q-128 2 -378 6q-2 -11 -7 -29.5t-6 -21.5q-5 -22 -15 -64l-15 -63q243 4 381 6l-56 -219q-118 2 -373 6q-15 -67 -41 -187.5t-30 -140.5zM645 535h139q2 8 6.5 23.5t6.5 23.5l15 66t15 65h-137h-166
q-6 -27 -12 -51q-5 -22 -15.5 -64t-15.5 -63h164z" />
    <glyph glyph-name="dollar" unicode="$" horiz-adv-x="1017" 
d="M383 -242h-59q46 166 59 219q-137 0 -245.5 24.5t-166.5 59.5q71 277 109 484h41q-8 -100 12.5 -180t64 -132.5t98 -85.5t120.5 -49q59 225 94 357q-148 89 -204 137q-126 106 -126 229q0 82 40 159.5t107 136.5t162.5 94.5t200.5 35.5h10q8 39 24.5 112.5t18.5 80.5h54
q-9 -36 -29 -105.5t-25 -89.5q181 -8 306 -49q-77 -281 -111 -442h-41q-13 171 -56 267.5t-120 133.5q-28 -102 -100 -383q136 -86 172 -113q141 -107 157 -229q2 -17 2 -35q0 -69 -40.5 -140.5t-109 -130t-166.5 -98t-204 -46.5q-6 -28 -49 -222zM412 1024q0 -67 46.5 -121
t133.5 -112q46 191 90 378q-49 11 -90 11q-82 0 -131 -44.5t-49 -111.5zM545 82q196 0 196 133q0 60 -51 110t-151 111q-6 -23 -82 -348q44 -6 88 -6z" />
    <glyph glyph-name="percent" unicode="%" horiz-adv-x="1421" 
d="M752 612q-285 -288 -588 -612h-101l5 14q60 55 202 184t250 229.5t203 195.5q90 90 186 191.5t212.5 227.5t174.5 187h101l-4 -15q-75 -72 -298.5 -278.5t-342.5 -323.5zM772 1010q0 -127 -49.5 -233t-141.5 -170t-208 -64q-105 0 -171.5 62.5t-66.5 185.5
q0 126 49.5 230t141.5 166t209 62q106 0 171.5 -59.5t65.5 -179.5zM492 1210q-40 0 -80.5 -80t-65 -190.5t-24.5 -202.5q0 -72 27 -112.5t73 -40.5q41 0 80.5 70t63.5 180t24 221q0 68 -26 111.5t-72 43.5zM1061 647q-40 0 -80.5 -80t-65 -190.5t-24.5 -202.5q0 -72 27 -113
t73 -41q41 0 80.5 70t63.5 180.5t24 221.5q0 68 -26 111.5t-72 43.5zM1104 686q106 0 172.5 -60t66.5 -180q0 -127 -50 -233t-142 -169.5t-207 -63.5q-105 0 -171 62t-66 185q0 194 110.5 326.5t286.5 132.5z" />
    <glyph glyph-name="ampersand" unicode="&#x26;" horiz-adv-x="1372" 
d="M575 985q0 -118 54 -266q115 51 178 138t63 171q0 78 -33 117t-106 39q-156 0 -156 -199zM1286 465l35 -2q-58 -241 -132 -359t-192 -118q-183 0 -352 184q-42 -41 -77 -69.5t-84 -59t-105.5 -46t-118.5 -15.5q-130 0 -204 65t-74 184q0 61 22.5 114.5t59 93.5t92 76.5
t110.5 62.5t127 53q-33 122 -33 198q0 95 45.5 177t116.5 134t154 81.5t162 29.5q135 0 197.5 -55.5t62.5 -142.5q0 -51 -29 -97.5t-62.5 -76.5t-104.5 -66.5t-108 -51.5t-121 -47q-24 -9 -36 -14q80 -213 205 -344q62 75 101.5 154.5t39.5 128.5q0 32 -12 45t-45 18l-70 11
l8 37h510l-10 -37l-37 -9q-85 -16 -197 -120q-157 -157 -274 -244q118 -115 236 -115q57 0 103.5 52t90.5 190zM440 129q102 0 193 55q-76 88 -136.5 200t-95.5 222q-170 -89 -170 -280q0 -93 55 -145t154 -52z" />
    <glyph glyph-name="quotesingle" unicode="'" horiz-adv-x="352" 
d="M498 1229q-141 -279 -283 -602h-33q26 396 19 602h297z" />
    <glyph glyph-name="parenleft" unicode="(" horiz-adv-x="612" 
d="M571 -317l-10 -45q-231 25 -363 185t-132 417q0 237 78 451t208.5 369t301.5 257.5t358 130.5l-11 -45q-100 -22 -197.5 -104t-177.5 -210t-141.5 -285.5t-96 -341t-34.5 -366.5q0 -359 217 -413z" />
    <glyph glyph-name="parenright" unicode=")" horiz-adv-x="612" 
d="M72 1403l10 45q231 -25 363.5 -185t132.5 -417q0 -237 -78 -451t-209 -369t-302 -257.5t-358 -130.5l11 45q125 27 244 148.5t207.5 298.5t142 404t53.5 455q0 360 -217 414z" />
    <glyph glyph-name="asterisk" unicode="*" horiz-adv-x="927" 
d="M647 1313h25q-33 -170 -23 -350q208 47 363 118l8 -22q-70 -37 -164.5 -103.5t-169.5 -132.5q122 -151 219 -221l-16 -22q-108 63 -303 122q-46 -83 -89 -182.5t-65 -171.5h-24q30 158 20 348q-200 -42 -362 -116l-7 22q69 36 162 102t170 132q-117 148 -219 225l18 22
q109 -63 302 -127q108 194 155 357z" />
    <glyph glyph-name="plus" unicode="+" horiz-adv-x="960" 
d="M317 225q51 183 95 350q-172 0 -353 -6l43 176q179 -6 351 -6q15 66 42 186.5t37 164.5h177l-93 -351q176 0 351 6l-43 -176q-173 6 -349 6q-19 -76 -81 -350h-177z" />
    <glyph glyph-name="comma" unicode="," horiz-adv-x="471" 
d="M-147 -309l-17 30q123 77 193.5 145t70.5 134q0 52 -28.5 89t-104.5 101q99 154 234 154q80 0 123 -44t43 -130q0 -33 -10 -66t-24 -60.5t-43 -58.5t-52 -53.5t-66.5 -52.5t-70.5 -48t-80.5 -48.5t-81.5 -45.5t-86 -46z" />
    <glyph glyph-name="hyphen" unicode="-" horiz-adv-x="741" 
d="M90 625q178 -7 307 -7t308 7l-52 -213q-150 6 -305 6q-153 0 -309 -6z" />
    <glyph glyph-name="period" unicode="." horiz-adv-x="471" 
d="M152 -14q-76 0 -119 41.5t-43 117.5q0 99 58.5 149t156.5 50q81 0 124.5 -40t43.5 -118q0 -97 -61 -148.5t-160 -51.5z" />
    <glyph glyph-name="slash" unicode="/" horiz-adv-x="532" 
d="M-35 -342h-241q472 922 868 1776h233q-514 -1016 -860 -1776z" />
    <glyph glyph-name="zero" unicode="0" horiz-adv-x="1196" 
d="M713 1192q-73 0 -143.5 -83t-120.5 -208t-80.5 -274.5t-30.5 -280.5q0 -140 56.5 -221.5t152.5 -83.5q94 0 180.5 137t136 334.5t49.5 382.5q0 125 -53.5 211t-146.5 86zM766 1249q200 0 319 -124t119 -314q0 -168 -54 -320t-148 -265t-230.5 -179.5t-292.5 -66.5
q-197 0 -311.5 127t-114.5 333q0 234 88.5 418t251 287.5t373.5 103.5z" />
    <glyph glyph-name="one" unicode="1" horiz-adv-x="649" 
d="M631 1260l37 -5q-3 -13 -19.5 -68.5t-55.5 -198t-91 -351.5q-106 -428 -115 -500q-6 -55 14 -66q4 -3 13 -5l96 -21l-10 -45h-604l10 45l110 18q16 2 25 7t22 25t24 50t29.5 93.5t39 143.5t53.5 210q79 319 82 386q2 49 -25 61q-9 4 -39 10l-65 6l8 39q257 27 461 166z
" />
    <glyph glyph-name="two" unicode="2" horiz-adv-x="1107" 
d="M911 0h-1044l10 45q58 37 167 106q143 91 210.5 135t170.5 114.5t150 113t100.5 98.5t73 104.5t19.5 98.5q0 86 -52.5 131t-168.5 45q-164 0 -262 -100t-119 -326h-41q13 343 165.5 513.5t397.5 170.5q195 0 288 -82.5t93 -230.5q0 -68 -26 -132t-66.5 -116
t-106.5 -105.5t-129 -93t-153.5 -85t-160 -76t-165.5 -70.5h408q71 0 113.5 3.5t73.5 9.5t50 23.5t32 37t30 57.5l67 148h39q-91 -257 -164 -537z" />
    <glyph glyph-name="three" unicode="3" horiz-adv-x="964" 
d="M915 449q0 -44 -15 -87.5t-50.5 -89t-88.5 -85t-135 -75t-184.5 -61.5t-242.5 -41t-303 -16l10 49q179 21 315 60t215.5 89t118.5 105t39 115q0 149 -178 149q-72 0 -148 -12l6 45q226 76 324 143.5t98 145.5q0 125 -188 125q-130 0 -219 -66t-117 -209h-43
q22 259 150.5 386.5t328.5 127.5q158 0 242 -68.5t84 -177.5q0 -216 -344 -299l2 -14q168 -10 245.5 -75t77.5 -164z" />
    <glyph glyph-name="four" unicode="4" horiz-adv-x="1095" 
d="M205 0l8 41l184 25q25 3 41.5 23t40 85.5t58.5 196.5q-273 0 -535 -4l-4 43q134 116 484.5 414.5t531.5 455.5l45 -4q-91 -320 -174 -651q-10 -38 -25 -101t-16 -67q85 3 117.5 16.5t52.5 56.5l63 150h29q-27 -80 -66.5 -241t-62.5 -269h-25l9 123q2 47 -21 61t-119 17
q-17 -72 -27.5 -117.5t-16.5 -81t-7 -53.5t3 -30t10 -16t18 -7l112 -25l-10 -41h-698zM590 578q16 65 45.5 183.5t42.5 166.5l-14 6q-83 -73 -261.5 -229.5t-261.5 -229.5l6 -18h412q21 76 31 121z" />
    <glyph glyph-name="five" unicode="5" horiz-adv-x="1009" 
d="M-113 -6l11 49q162 23 289.5 60t208 79t133 91.5t73.5 97t21 96.5q0 62 -43 101t-149 63.5t-294 36.5q76 242 148 561q135 -2 411 -2q133 0 192 5.5t84 19t44 46.5l43 72l35 -2q-17 -50 -57.5 -199.5t-53.5 -205.5q-426 7 -715 4q-14 -60 -37 -179q121 -8 212 -18
t175 -27t141.5 -41t100.5 -58t63.5 -80t20.5 -105q0 -79 -36.5 -146.5t-117.5 -125.5t-203 -99.5t-299.5 -66t-400.5 -27.5z" />
    <glyph glyph-name="six" unicode="6" horiz-adv-x="1107" 
d="M338 418h14q58 150 180 251t281 101q132 0 191 -65t59 -193q0 -141 -90 -264.5t-236 -195.5t-305 -72q-196 0 -295.5 115.5t-99.5 299.5q0 333 295 565.5t811 290.5l-10 -49q-172 -32 -310 -101t-222 -150.5t-143 -181t-84.5 -183t-35.5 -168.5zM330 229
q0 -77 50.5 -129.5t135.5 -52.5q101 0 170.5 108.5t69.5 264.5q0 79 -34.5 118.5t-113.5 39.5q-76 0 -141.5 -54t-101 -134t-35.5 -161z" />
    <glyph glyph-name="seven" unicode="7" horiz-adv-x="962" 
d="M72 39q78 104 208.5 240.5t247.5 248t241.5 236.5t188.5 205q-218 4 -497 4q-32 0 -54 -0.5t-44.5 -3.5t-36 -4.5t-30 -10.5t-24.5 -13.5t-21 -21t-19 -25.5t-19.5 -35t-20.5 -41.5t-24 -51.5l-74 -164h-39q96 266 189 627h897l-11 -43q-183 -286 -374 -616t-305 -570
h-385z" />
    <glyph glyph-name="eight" unicode="8" horiz-adv-x="1030" 
d="M664 743l2 -2q62 44 107.5 118.5t45.5 141.5q0 94 -60 136.5t-159 42.5q-84 0 -132 -45.5t-48 -128.5q0 -70 53.5 -129t190.5 -134zM324 -20q-173 0 -266 58.5t-93 164.5q0 55 28.5 102.5t88 90t129.5 77t174 76.5q-117 68 -169 135t-52 154q0 90 51 169t131.5 130
t177 80.5t189.5 29.5q146 0 234.5 -57t88.5 -162q0 -167 -346 -299q142 -81 204 -148t62 -165q0 -84 -47.5 -163t-129.5 -139.5t-201 -97t-254 -36.5zM457 51q115 0 169 54.5t54 144.5q0 33 -5 58.5t-20 48.5t-30.5 40t-48.5 39.5t-61 38.5t-81 45q-4 2 -12 7.5t-12 7.5
q-93 -62 -148 -139t-55 -154q0 -96 67.5 -143.5t182.5 -47.5z" />
    <glyph glyph-name="nine" unicode="9" horiz-adv-x="1099" 
d="M819 813h-14q-31 -71 -76 -133.5t-103 -115t-133 -83t-155 -30.5q-130 0 -188 64.5t-58 186.5q0 149 87.5 276t231 200t304.5 73q103 0 182 -31.5t127 -88.5t72 -131.5t24 -163.5q0 -333 -296.5 -565.5t-813.5 -290.5l10 49q125 23 232.5 66t185 94.5t140.5 116t104 128
t70.5 133.5t44.5 128.5t22 117.5zM825 997q0 80 -51 133.5t-143 53.5q-100 0 -166 -107t-66 -268q0 -84 33.5 -125t110.5 -41t143.5 55.5t102.5 136.5t36 162z" />
    <glyph glyph-name="colon" unicode=":" horiz-adv-x="559" 
d="M190 -14q-76 0 -118.5 41.5t-42.5 117.5q0 99 58.5 149t156.5 50q81 0 124.5 -40t43.5 -118q0 -96 -61.5 -148t-160.5 -52zM362 678q-75 0 -118 42t-43 118q0 99 58.5 148.5t156.5 49.5q81 0 124.5 -39.5t43.5 -117.5q0 -97 -61.5 -149t-160.5 -52z" />
    <glyph glyph-name="semicolon" unicode=";" horiz-adv-x="561" 
d="M365 678q-76 0 -119 42t-43 118q0 99 58.5 148.5t156.5 49.5q81 0 124.5 -39.5t43.5 -117.5q0 -97 -61 -149t-160 -52zM-106 -309l-17 30q123 77 193.5 145t70.5 134q0 52 -28.5 89t-104.5 101q99 154 234 154q80 0 123 -44t43 -130q0 -33 -10 -66t-24 -60.5t-43 -58.5
t-52 -53.5t-66.5 -52.5t-70.5 -48t-80.5 -48.5t-81.5 -45.5t-86 -46z" />
    <glyph glyph-name="less" unicode="&#x3c;" horiz-adv-x="843" 
d="M662 37q-95 64 -337 218.5t-286 182.5l41 164q742 363 823 404l-53 -220q-29 -13 -169 -73t-249 -109t-211 -98q152 -94 488 -287z" />
    <glyph glyph-name="equal" unicode="=" horiz-adv-x="974" 
d="M70 567q127 -6 430 -6t434 6l-43 -176q-125 6 -428 6t-436 -6zM158 920q148 -7 430 -7q281 0 434 7l-43 -177q-146 7 -428 7q-281 0 -436 -7z" />
    <glyph glyph-name="greater" unicode="&#x3e;" horiz-adv-x="843" 
d="M-14 37l53 219q37 16 132.5 57.5t161.5 70.5t161 72t174 81q-131 81 -488 286l47 183q72 -48 176 -115.5t239.5 -154t207.5 -132.5l-41 -164q-798 -390 -823 -403z" />
    <glyph glyph-name="question" unicode="?" horiz-adv-x="788" 
d="M180 481l-6 39q262 107 416.5 206.5t154.5 178.5q0 41 -19.5 61.5t-63.5 20.5q-42 0 -199 -28.5t-209 -28.5q-42 0 -63 16.5t-21 59.5q-1 22 4.5 48.5t20 66t23 61t33.5 77.5t32 72l39 -2q-13 -57 -13 -67q0 -19 11.5 -28t39.5 -9t77 2t73 2q278 0 278 -367
q0 -71 -28 -126.5t-77 -95.5t-127.5 -70.5t-167.5 -50.5t-208 -38zM172 -14q-76 0 -119 41.5t-43 117.5q0 99 58.5 149t156.5 50q81 0 124.5 -40t43.5 -118q0 -97 -61 -148.5t-160 -51.5z" />
    <glyph glyph-name="at" unicode="@" horiz-adv-x="1622" 
d="M1249 297q88 0 157 115.5t69 316.5q0 306 -101.5 460t-339.5 154q-158 0 -306 -79.5t-256 -211t-173.5 -308.5t-65.5 -363q0 -215 121 -338t357 -123q112 0 205 30.5t184 96.5l16 -27q-38 -37 -67.5 -62t-80.5 -58.5t-101.5 -54t-121.5 -35.5t-149 -15
q-168 0 -292.5 76.5t-187.5 208.5t-63 303q0 180 53 342t146.5 284t217 211.5t268.5 136t296 46.5q312 0 461.5 -143.5t149.5 -399.5q0 -143 -60.5 -282t-149 -235t-187.5 -155t-177 -59q-145 3 -145 162q0 139 135 600l-17 6q-165 -421 -269 -595.5t-195 -174.5
q-71 0 -127 79t-56 202q0 82 25.5 164.5t74.5 161t126 144.5t173 113t223.5 68t270.5 8q-8 -36 -37.5 -165.5t-45.5 -205.5t-32 -168.5t-16 -136.5q0 -94 90 -94zM678 330q38 0 85 60.5t122.5 214t191.5 431.5q-104 -32 -192.5 -103.5t-144.5 -157t-87.5 -174.5t-31.5 -165
q0 -106 57 -106z" />
    <glyph glyph-name="A" unicode="A" horiz-adv-x="1202" 
d="M385 45l-10 -45h-514l10 45l31 14q47 19 141 153.5t437 663.5q154 238 247 381h51q10 -52 129 -593q8 -39 23 -111q55 -268 83.5 -368t69.5 -128l19 -12l-8 -45h-570l11 45l83 10q89 11 89 80q0 68 -45 324q-158 -3 -349 -10q-102 -235 -102 -318q0 -56 76 -68zM649 530
q-35 185 -88 402q-137 -246 -221 -426q103 -6 315 -10q-1 6 -3 17t-3 17z" />
    <glyph glyph-name="B" unicode="B" horiz-adv-x="1165" 
d="M811 449q0 101 -33.5 143.5t-113.5 42.5q-62 0 -175 -10l-4 -21q-79 -311 -102 -414.5t-23 -140.5q230 9 340.5 115.5t110.5 284.5zM537 0h-639l10 45l90 16q53 10 82 85.5t115 422.5q108 434 116 520q7 62 -18 75q-8 4 -25 7l-78 13l13 45h598q195 0 279.5 -51
t84.5 -162q0 -109 -106 -200.5t-260 -139.5v-10q161 -14 224.5 -74.5t63.5 -165.5q0 -181 -156 -303.5t-394 -122.5zM897 999q0 96 -52 133t-204 46q-17 -36 -42.5 -128t-96.5 -382q66 2 196 2h45q65 60 109.5 151t44.5 178z" />
    <glyph glyph-name="C" unicode="C" horiz-adv-x="1173" 
d="M606 37q78 0 152.5 67.5t132.5 186.5l119 248h41q-28 -150 -52 -406q-114 -77 -221.5 -115t-230.5 -38q-234 0 -364 123t-130 339q0 227 97 411t274.5 290t402.5 106q214 0 383 -78q-57 -201 -120 -469h-41l-13 138q-2 47 -20 105t-49.5 114.5t-83.5 94.5t-113 38
q-83 0 -164 -87t-137 -216t-90.5 -275.5t-34.5 -265.5q0 -137 67.5 -224t194.5 -87z" />
    <glyph glyph-name="D" unicode="D" horiz-adv-x="1263" 
d="M494 621q-72 -295 -94.5 -397.5t-26.5 -172.5q142 8 253.5 65t178 138.5t109.5 189t59 207t16 203.5q0 174 -72.5 251t-207.5 77q-33 0 -47 -2q-25 -40 -59 -150t-109 -409zM809 1229q465 0 465 -424q0 -162 -55 -310t-150 -257t-229 -173.5t-285 -64.5h-653l10 45l84 16
q41 7 60 34q31 42 82 239q18 68 67 262q103 415 112 495q6 62 -18 74q-7 4 -23 6l-79 13l12 45h600z" />
    <glyph glyph-name="E" unicode="E" horiz-adv-x="1114" 
d="M483 600q-116 -456 -125 -549q151 8 240.5 32.5t149 71.5t122.5 138l127 196h41q-89 -247 -159 -489h-983l10 45l100 18q35 6 53 34q27 43 83 260q16 60 57 223q107 432 113 518q4 57 -21 67q-7 4 -23 6l-84 13l13 45h983q-47 -214 -86 -461h-41l-29 166
q-17 69 -37.5 109.5t-63.5 72t-109.5 45.5t-174.5 19q-31 -75 -143 -533q95 4 149 20.5t86 48t66 93.5l53 111l29 -2q-29 -100 -72.5 -292t-63.5 -304h-28l-2 110q-6 96 -51 130.5t-179 41.5v-4z" />
    <glyph glyph-name="F" unicode="F" horiz-adv-x="1050" 
d="M498 662q-2 -7 -5.5 -20.5t-5.5 -20.5q98 3 154.5 19t90 47.5t69.5 94.5l55 109h29q-32 -105 -78 -308t-66 -321h-26l-6 111q-5 60 -14.5 93t-35 58.5t-68 36t-114.5 14.5q-47 -193 -67.5 -287t-19 -148t15 -63.5t53.5 -15.5l127 -16l-11 -45h-686l11 45l94 16
q58 10 84.5 78t113.5 414q5 18 7 27q107 428 114 514q5 59 -20 71q-8 3 -27 6l-80 13l13 45h954q-59 -265 -92 -486h-41l-25 187q-13 96 -44 144.5t-102 74t-210 33.5q-29 -65 -141 -520z" />
    <glyph glyph-name="G" unicode="G" horiz-adv-x="1232" 
d="M594 35q82 0 130 39.5t77 148.5q41 146 41 242q0 30 -16 45.5t-54 19.5l-221 29l10 39q318 -7 692 0l-8 -39l-47 -10q-35 -13 -56.5 -50t-45 -123t-66.5 -286q-136 -51 -250 -80.5t-229 -29.5q-233 0 -365.5 122.5t-132.5 337.5q0 234 97 417t279 287.5t419 104.5
q117 0 223.5 -23.5t167.5 -58.5q-21 -76 -61.5 -224t-61.5 -224h-41l-8 137q-1 44 -21.5 99.5t-56 109.5t-93.5 90.5t-124 36.5q-86 0 -165 -81.5t-132 -204.5t-86.5 -259.5t-38.5 -255.5q-11 -165 53.5 -260.5t190.5 -95.5z" />
    <glyph glyph-name="H" unicode="H" horiz-adv-x="1368" 
d="M915 592q1 5 4.5 16.5t4.5 16.5h-88q-42 0 -344 -15q-52 -204 -75 -301.5t-30.5 -158t0 -72.5t29.5 -17l92 -16l-10 -45h-600l10 45l106 18q41 9 69 88.5t120 440.5q105 426 114 503q6 58 -17 69q-5 3 -15 5l-92 15l12 45h598l-10 -45l-105 -17q-15 -2 -24.5 -7
t-21.5 -25t-23 -49t-28 -88t-35.5 -132.5t-47.5 -191.5q198 -10 336 -10h90q92 374 96 444q3 47 -20 57q-5 2 -13 4l-92 15l13 45h598l-11 -45l-104 -17q-23 -2 -36.5 -15.5t-35.5 -73.5t-46.5 -154t-72.5 -287q-54 -215 -78 -317t-32.5 -165.5t-1 -76t29.5 -17.5l93 -16
l-11 -45h-600l11 45l106 18q41 9 68.5 87.5t119.5 441.5z" />
    <glyph glyph-name="I" unicode="I" horiz-adv-x="653" 
d="M201 592q105 426 114 503q6 58 -17 69q-5 3 -15 5l-93 15l13 45h598l-10 -45l-105 -17q-23 -2 -36 -15t-35 -74.5t-46.5 -153.5t-72.5 -287q-54 -215 -78 -317t-32.5 -165.5t-1 -76t29.5 -17.5l92 -16l-10 -45h-600l10 45l106 18q41 9 69 88.5t120 440.5z" />
    <glyph glyph-name="J" unicode="J" horiz-adv-x="628" 
d="M-201 -201l11 62q40 0 64.5 1.5t52.5 14.5t44.5 29.5t39.5 57t39 85t41 127t47.5 169.5t56.5 224q109 440 116 525q6 60 -18 71q-7 4 -21 6l-77 13l10 45h590l-11 -45l-90 -13q-17 -2 -28 -8t-25 -27t-24.5 -49t-28.5 -89t-36 -131t-48 -189q-18 -73 -44.5 -198
t-39.5 -175q-49 -198 -215.5 -338.5t-405.5 -167.5z" />
    <glyph glyph-name="K" unicode="K" horiz-adv-x="1273" 
d="M569 618q261 204 353.5 298.5t97.5 156.5q3 73 -72 96l-76 15l13 45h549l-11 -45l-43 -13q-61 -18 -171.5 -96t-383.5 -299q92 -278 144 -418t102 -227q36 -54 105 -86l-11 -45h-389q-37 96 -99 279.5t-108 338.5zM203 592q105 426 114 503q6 58 -17 69q-5 3 -15 5
l-92 15l12 45h598l-10 -45l-105 -17q-23 -2 -36 -15t-35 -74.5t-46.5 -153.5t-72.5 -287q-54 -215 -78 -317t-32.5 -165.5t-1 -76t29.5 -17.5l92 -16l-10 -45h-600l10 45l106 18q41 9 69 88.5t120 440.5z" />
    <glyph glyph-name="L" unicode="L" horiz-adv-x="983" 
d="M782 0h-880l8 45l94 16q53 10 80 81.5t113 422.5q58 229 84 341t31 175.5t-4.5 74.5t-39.5 15l-78 13l11 45h614l-10 -45l-109 -13q-25 -3 -39 -15t-37 -74.5t-47.5 -153t-74.5 -291.5q-127 -508 -133 -588q86 14 146.5 36.5t110 63t84.5 82.5t87 119l145 246l43 -2
q-141 -384 -199 -594z" />
    <glyph glyph-name="M" unicode="M" horiz-adv-x="1753" 
d="M489 45l-10 -45h-590l11 45l69 14q25 5 40.5 16.5t37 47t44.5 96.5t60 172t85 266.5t119 385.5q20 64 30 98q-30 15 -82 24l-100 19l10 45h528q28 -224 65.5 -407.5t98.5 -407.5q339 501 531 815h448l-10 -45l-86 -13q-54 -9 -79 -77t-98 -390q-5 -20 -7 -30
q-53 -228 -76.5 -339t-29 -178t4 -80.5t37.5 -19.5l68 -12l-11 -45h-675l12 45l153 21q28 4 44 10t34.5 27t30.5 49.5t30 90t34 134t43 196.5q88 399 118 541q-285 -426 -714 -1114h-39q-121 718 -211 1036q-16 50 -35 74q-39 -180 -65.5 -310.5t-45.5 -239t-29 -179
t-12 -126t2 -85.5t18 -51.5t29.5 -30.5t42.5 -16z" />
    <glyph glyph-name="N" unicode="N" horiz-adv-x="1275" 
d="M971 -25h-56q-17 35 -136 283t-211.5 438.5t-149.5 298.5q-22 43 -39 68q-47 -199 -73 -350.5t-30.5 -254.5t3 -172t33.5 -109.5t55.5 -60t74.5 -30.5l187 -41l-11 -45h-718l10 45l70 16q47 13 75 54q45 68 120 343q42 153 169 650q-39 44 -94 59l-74 17l8 45h508
q148 -437 342 -791q45 193 68.5 325t30.5 206t-3.5 115t-25.5 53t-45 18l-144 29l11 45h499l-8 -45l-55 -15q-43 -11 -73.5 -59t-88.5 -233.5t-153 -567.5q-60 -240 -76 -334z" />
    <glyph glyph-name="O" unicode="O" horiz-adv-x="1286" 
d="M754 1192q-79 0 -157 -82t-133.5 -206.5t-89.5 -272t-34 -277.5q0 -145 69 -229t185 -86q77 0 152.5 80.5t129.5 204t87.5 274.5t33.5 289q0 128 -65.5 216.5t-177.5 88.5zM1290 807q0 -174 -57 -327.5t-157 -263t-243 -173t-307 -63.5q-218 0 -345.5 128.5t-127.5 335.5
q0 236 94.5 419t266 284.5t393.5 101.5q220 0 351.5 -125t131.5 -317z" />
    <glyph glyph-name="P" unicode="P" horiz-adv-x="1155" 
d="M498 635l-2 -12q71 -9 145 -9q117 0 197 104.5t80 264.5q0 99 -43.5 148t-147.5 49q-28 0 -78 -4q-42 -98 -151 -541zM606 45l-10 -45h-692l10 45l84 16q31 6 46.5 17.5t40 74t48 151.5t74.5 292q100 403 107 486q6 65 -20 80q-10 5 -32 9l-67 13l10 45h633
q108 0 181.5 -18.5t111.5 -54t53.5 -78t15.5 -101.5q0 -126 -58.5 -233t-158.5 -169.5t-217 -62.5q-146 0 -281 76q-31 -125 -49.5 -205t-28.5 -140.5t-12.5 -91t5.5 -49.5t18.5 -24t32.5 -8z" />
    <glyph glyph-name="Q" unicode="Q" horiz-adv-x="1286" 
d="M754 1192q-79 0 -157 -81.5t-133.5 -205t-89.5 -270.5t-34 -275q0 -142 67 -218t183 -76q99 0 195.5 126.5t155 318t58.5 376.5q0 142 -64.5 223.5t-180.5 81.5zM485 20q-210 -1 -320 114t-110 317q0 234 94 415.5t265 282t393 100.5q223 0 353 -120.5t130 -321.5
q0 -186 -57.5 -331t-179.5 -257t-316.5 -186.5t-464.5 -114.5l-2 -20q86 8 121 6q69 0 210.5 -28.5t232.5 -29.5q107 -2 182.5 71.5t154.5 272.5h31q-83 -287 -165 -412.5t-185 -123.5q-45 1 -100 22.5t-110.5 53t-116 62.5t-136.5 53.5t-151 23.5q-58 0 -102.5 -26
t-92.5 -87q-25 56 -47 133q67 38 272 58q182 20 312 59v23q-46 -9 -95 -9z" />
    <glyph glyph-name="R" unicode="R" horiz-adv-x="1236" 
d="M668 694q116 0 196 96.5t80 215.5q0 83 -57.5 128.5t-159.5 45.5q-43 0 -80 -6q-34 -77 -133 -472q63 -8 154 -8zM498 635q-51 -207 -74.5 -310t-26.5 -163.5t8.5 -73.5t43.5 -18l147 -25l-10 -45h-688l12 45l94 18q28 6 42 17.5t37.5 72.5t48 151.5t75.5 291.5
q101 411 108 494q4 60 -21 74q-8 4 -24 7l-77 13l12 45h651q110 0 185 -17t114 -49.5t54.5 -71.5t15.5 -92q0 -155 -106 -271.5t-257 -131.5q122 -380 211 -487q8 -10 18 -18t16.5 -12t27 -15.5t32.5 -18.5l-10 -45h-389q-75 175 -133 618q-72 18 -129 52q-1 -6 -4 -17.5
t-4 -17.5z" />
    <glyph glyph-name="S" unicode="S" horiz-adv-x="1030" 
d="M690 1247q212 -3 359 -51q-77 -281 -111 -442h-41q-18 230 -90.5 328t-214.5 98q-82 0 -131 -44.5t-49 -111.5q0 -51 30 -97.5t77.5 -83t105 -72.5t115 -75t105 -81t77.5 -98.5t30 -121.5q0 -73 -44.5 -148t-119 -135t-181 -97.5t-220.5 -37.5q-139 0 -248.5 24.5
t-167.5 59.5q71 277 109 484h41q-8 -100 13.5 -180.5t63 -132t100 -86.5t120 -49.5t127.5 -14.5q196 0 196 133q0 44 -31 85.5t-80.5 76.5t-109.5 70.5t-119.5 75t-109 82t-80.5 98.5t-31 118q0 82 40 159.5t107 136.5t162.5 94.5t200.5 35.5z" />
    <glyph glyph-name="T" unicode="T" horiz-adv-x="1222" 
d="M872 45l-10 -45h-749l10 45l125 21q85 15 117 85t118 418q133 532 140 611q-84 -11 -136.5 -38.5t-88.5 -69.5t-95 -134l-182 -293h-39q100 281 186 584h1045q-66 -278 -113 -584h-37l-33 293q-8 57 -14.5 87t-19 60.5t-33 45.5t-52 27.5t-81.5 21.5
q-20 -48 -45.5 -141.5t-91.5 -360.5q-102 -408 -109 -505q-6 -76 26 -95q14 -9 50 -15z" />
    <glyph glyph-name="U" unicode="U" horiz-adv-x="1257" 
d="M1139 682q-15 -57 -31.5 -129.5t-22.5 -97.5q-55 -206 -202 -340.5t-346 -134.5q-206 0 -310 85t-104 240q0 71 57 293q103 414 110 496q5 61 -20 73q-8 4 -24 7l-68 10l12 45h596l-10 -45l-106 -15q-51 -7 -82.5 -97.5t-141.5 -534.5q-26 -114 -26 -181
q0 -131 70.5 -187t216.5 -56q122 0 175 60t99 249q61 241 89 381.5t27 219.5t-21 106t-66 38l-80 17l10 45h477l-10 -45l-76 -17q-23 -7 -36.5 -18t-28.5 -34.5t-32.5 -81.5t-38.5 -134.5t-56 -216.5z" />
    <glyph glyph-name="V" unicode="V" horiz-adv-x="1218" 
d="M530 -29h-43q-43 195 -137 602q-87 386 -101 439q-36 131 -75 159l-18 13l10 45h563l-10 -45l-74 -10q-44 -6 -64.5 -22.5t-23.5 -47.5q-4 -74 61 -416q26 -143 84 -389q150 269 243 480t99 296q11 75 -75 92l-99 17l11 45h524l-10 -45l-25 -10q-43 -16 -131 -139
t-381 -568q-199 -302 -328 -496z" />
    <glyph glyph-name="W" unicode="W" horiz-adv-x="1828" 
d="M1159 1190q-81 0 -92 -49q-7 -39 47 -217q99 139 111 200q7 35 -8 50.5t-58 15.5zM967 580q-6 36 -15 65q-43 -63 -205 -304t-266 -392h-39q-18 106 -118 620q-79 390 -104 475q-28 97 -58 123l-19 17l13 45h573l-10 -45l-64 -6q-98 -16 -110 -88q-16 -89 63 -412
q10 -43 40 -175t40 -175q43 60 131 180.5t127 175.5q-56 273 -82 368.5t-57 121.5l-12 10l12 45h610l-12 -45l-33 -15q-34 -12 -90.5 -75t-157.5 -203q7 -23 20.5 -64t18.5 -57q94 -312 148 -473q130 217 224 409.5t112 288.5q33 153 -70 172l-94 17l12 45h541l-11 -45
l-28 -19q-25 -14 -63 -57.5t-117 -152.5t-155.5 -218.5t-240.5 -344.5t-311 -443h-39q-50 373 -104 631z" />
    <glyph glyph-name="X" unicode="X" horiz-adv-x="1292" 
d="M418 45l-8 -45h-531l12 45l27 12q59 30 217.5 168.5t384.5 362.5q-190 410 -239 496q-34 61 -56 79l-24 21l10 45h580l-11 -45l-73 -8q-83 -12 -80 -66q-1 -18 8.5 -49t35.5 -91t44 -98t63 -132q14 -29 21 -44l8 -16q224 257 246 387q10 51 -3 76.5t-63 32.5l-69 8l8 45
h516l-10 -45l-27 -13q-119 -58 -586 -522q133 -285 205.5 -420t112.5 -163l26 -21l-10 -45h-600l10 45l78 10q42 7 60 20.5t18 37.5q0 68 -172 417q-7 15 -10 25q-232 -261 -254 -391q-11 -51 2 -77.5t63 -33.5z" />
    <glyph glyph-name="Y" unicode="Y" horiz-adv-x="1310" 
d="M870 0h-694l10 45l113 21q75 15 104 79.5t107 380.5q-7 16 -47 109.5t-57 132.5q-96 221 -138.5 302t-81.5 101l-22 13l12 45h596l-10 -45l-72 -6q-52 -6 -76 -20t-24 -42q0 -51 68 -228t130 -315q125 159 216.5 310.5t91.5 210.5q0 35 -24.5 53t-80.5 27l-86 10l10 45
h560l-9 -45l-24 -6q-47 -12 -169.5 -136.5t-479.5 -509.5q-44 -175 -62.5 -260.5t-17 -134.5t14.5 -58t50 -16l103 -18z" />
    <glyph glyph-name="Z" unicode="Z" horiz-adv-x="1218" 
d="M-78 0l12 47q194 212 558.5 632.5t431.5 496.5q-130 -9 -219.5 -25t-153 -38t-110.5 -61.5t-79.5 -84t-72.5 -117.5l-135 -254h-37q133 360 207 633l976 -2l-8 -45q-311 -335 -985 -1129q114 4 190 10.5t146 21.5t116 36.5t91.5 59.5t81.5 87t78 121l133 248h37
q-159 -480 -199 -639z" />
    <glyph glyph-name="bracketleft" unicode="[" horiz-adv-x="626" 
d="M463 618q-172 -687 -189 -807q-10 -72 10 -83q5 -2 19 -4l154 -21l-13 -45h-505q110 399 241 924q111 448 201 843h504l-11 -45l-165 -20q-26 -4 -37.5 -14t-39 -87.5t-62.5 -214t-107 -426.5z" />
    <glyph glyph-name="backslash" unicode="\" horiz-adv-x="532" 
d="M152 -342q28 635 28 1776h234q-26 -819 -19 -1776h-243z" />
    <glyph glyph-name="bracketright" unicode="]" horiz-adv-x="628" 
d="M201 465q173 688 188 809q10 72 -11 82q-5 2 -18 4l-153 20l12 45h506q-123 -446 -242 -923q-95 -383 -200 -844h-504l10 45l166 21q28 4 40 19q30 38 93 275q36 137 113 447z" />
    <glyph glyph-name="asciicircum" unicode="^" horiz-adv-x="964" 
d="M887 418q-35 13 -70.5 31t-59 30.5t-63.5 39t-54 36.5t-62 44.5t-58 41.5q-104 -57 -165.5 -89.5t-149 -71t-166.5 -62.5l-14 37q290 218 555 512h36q130 -314 302 -512z" />
    <glyph glyph-name="underscore" unicode="_" horiz-adv-x="819" 
d="M657 -231h-819l51 211h820z" />
    <glyph glyph-name="grave" unicode="`" horiz-adv-x="608" 
d="M301 1436q77 22 250 57q55 -191 135 -385l-29 -4q-196 150 -360 317z" />
    <glyph glyph-name="a" unicode="a" horiz-adv-x="1060" 
d="M858 246q0 -49 29 -49q40 0 119 110l22 -33q-42 -65 -79 -113t-79.5 -91.5t-86.5 -66.5t-87 -23q-54 0 -84 39.5t-30 117.5q0 148 123 613l-13 4q-148 -407 -267.5 -592t-219.5 -185q-79 0 -139 70.5t-60 194.5q0 95 29.5 191.5t85.5 189t145 171t200.5 134.5t261 82
t316.5 12q-69 -221 -127.5 -453t-58.5 -323zM346 188q31 0 64.5 33t80 117t110.5 240t147 391q-85 -22 -160.5 -75t-129.5 -122t-93.5 -150t-58.5 -162.5t-19 -154.5q0 -117 59 -117z" />
    <glyph glyph-name="b" unicode="b" horiz-adv-x="1034" 
d="M379 31q78 0 150 82.5t117.5 198.5t72 230.5t26.5 188.5q0 88 -55 88q-34 0 -75 -38t-93 -121.5t-115.5 -238.5t-130.5 -366q46 -24 103 -24zM397 -20q-221 0 -409 67q268 941 268 1114q0 47 -27 47q-38 0 -110 -104l-23 33q93 124 168.5 190t155.5 66q56 0 88.5 -40.5
t32.5 -119.5q0 -153 -226 -961l15 -6q146 399 273.5 583.5t252.5 184.5q87 0 129.5 -63t42.5 -176q0 -123 -28 -242t-82.5 -222t-129.5 -182t-176 -124t-215 -45z" />
    <glyph glyph-name="c" unicode="c" horiz-adv-x="903" 
d="M846 637h-12q-79 177 -136.5 260.5t-109.5 83.5q-59 0 -117 -84.5t-94.5 -212.5t-36.5 -250q0 -115 49 -180.5t129 -65.5q161 0 279 220l28 -19q-37 -85 -82 -155.5t-101.5 -129t-126 -91.5t-144.5 -33q-132 0 -229 100t-97 264q0 102 28 202t82.5 188t129.5 155
t176.5 106t214.5 39q121 0 180 -55t59 -139q0 -86 -69 -203z" />
    <glyph glyph-name="d" unicode="d" horiz-adv-x="1071" 
d="M582 137q0 163 123 621l-13 4q-279 -785 -487 -785q-77 0 -136 70.5t-59 194.5q0 99 30 199t92.5 196t150.5 174.5t212 135.5t269 77q27 102 27 152q0 51 -33 51q-35 0 -111 -105l-18 33q177 238 329 238q56 0 88.5 -40.5t32.5 -119.5q0 -58 -55.5 -263.5t-110.5 -422
t-55 -301.5q0 -49 29 -49q40 0 119 110l22 -33q-42 -65 -79 -113t-79.5 -91.5t-86.5 -66.5t-87 -23q-54 0 -84 39.5t-30 117.5zM346 188q31 0 65.5 35t82 120.5t111 243.5t143.5 390q-107 -30 -196.5 -106t-146 -171.5t-87.5 -198.5t-31 -196q0 -117 59 -117z" />
    <glyph glyph-name="e" unicode="e" horiz-adv-x="911" 
d="M602 981q-74 0 -145 -114.5t-101 -270.5q160 51 251 125t91 141q0 47 -28 83t-68 36zM924 864q0 -105 -145.5 -178.5t-426.5 -110.5q-12 -67 -12 -135q0 -129 52 -190.5t134 -61.5q72 0 148 55.5t141 164.5l31 -19q-75 -176 -199 -292.5t-274 -116.5q-134 0 -231 99.5
t-97 264.5q0 105 27.5 205.5t83.5 188t133 154t182.5 104.5t226.5 38q103 0 164.5 -49.5t61.5 -120.5z" />
    <glyph glyph-name="f" unicode="f" horiz-adv-x="557" 
d="M-12 -176q94 296 184 1055q4 29 12 79h-94l14 56h95q28 95 76.5 170.5t104 118.5t110 65.5t102.5 22.5q66 0 83 -50t-1 -141q-127 27 -213 27q-80 0 -121 -30.5t-41 -82.5q0 -66 109 -100h243l-12 -56h-190q-21 -229 -37 -376t-48.5 -355t-72.5 -370
q-28 -109 -141 -160.5t-308 -61.5l-2 43q60 10 94 45.5t54 100.5z" />
    <glyph glyph-name="g" unicode="g" horiz-adv-x="1024" 
d="M-68 -90q249 -62 471 -72q98 -3 140.5 33t56.5 152q4 43 7.5 150t8.5 159q12 126 91 426l-15 4q-141 -399 -255 -581.5t-212 -182.5q-82 0 -144.5 72.5t-62.5 199.5q0 80 21 161t64.5 160t106 149.5t150 128t191 96.5t234.5 54.5t276 2.5q-103 -333 -193 -741
q-36 -163 -151.5 -312t-270 -239t-301.5 -90q-135 0 -198.5 66.5t-14.5 203.5zM354 219q38 0 77.5 42.5t101.5 166.5t143 338v2q24 57 76 203q-104 -27 -193.5 -95.5t-147 -156t-90 -182.5t-32.5 -181q0 -67 17.5 -102t47.5 -35z" />
    <glyph glyph-name="h" unicode="h" horiz-adv-x="1085" 
d="M258 1161q0 47 -27 47q-40 0 -112 -104l-23 33q90 122 167 189t157 67q56 0 88.5 -40.5t32.5 -119.5q0 -52 -15 -137t-44.5 -202t-54 -205.5t-64.5 -228t-54 -190.5l13 -4q149 409 278.5 588.5t255.5 179.5q83 0 126.5 -51.5t43.5 -136.5q0 -74 -40.5 -208t-81.5 -256.5
t-42 -168.5q3 -53 41 -53q21 0 51.5 23t59.5 61l22 -35q-81 -96 -174 -162.5t-168 -66.5q-54 0 -89.5 43t-35.5 112q0 74 42.5 202.5t85 251.5t42.5 183q0 47 -45 47q-182 0 -442 -819h-279q93 304 189 680.5t96 480.5z" />
    <glyph glyph-name="i" unicode="i" horiz-adv-x="577" 
d="M428 1151q-60 0 -95.5 34.5t-35.5 100.5q0 84 50 126t140 42q62 0 98 -32t36 -95q0 -87 -51 -131.5t-142 -44.5zM512 864q0 -72 -36.5 -205t-73 -253t-35.5 -162q0 -47 28 -47q38 0 117 110l23 -31q-89 -138 -169.5 -217t-162.5 -79q-62 0 -97.5 40t-35.5 119
q0 80 76.5 326.5t76.5 310.5q0 41 -30 41q-40 0 -117 -110l-23 34q87 136 167.5 214.5t162.5 78.5q60 0 94.5 -43t34.5 -127z" />
    <glyph glyph-name="j" unicode="j" horiz-adv-x="542" 
d="M428 1151q-60 0 -95.5 34.5t-35.5 100.5q0 84 50 126t140 42q62 0 96.5 -32t34.5 -95q0 -88 -49.5 -132t-140.5 -44zM-186 -324q70 13 105 48.5t61 111.5q69 208 155 527.5t86 410.5q0 43 -28 43q-42 0 -119 -110l-23 32q86 136 168 215.5t164 79.5q60 0 94.5 -43.5
t34.5 -128.5q-1 -113 -79 -437t-152 -548q-40 -121 -153 -177t-312 -65z" />
    <glyph glyph-name="k" unicode="k" horiz-adv-x="1058" 
d="M686 -20q-75 0 -130 91.5t-112 313.5q158 62 241 153.5t83 204.5q0 43 -15 68t-40 25q-188 0 -451 -836h-285q281 980 281 1161q0 47 -27 47q-40 0 -112 -104l-23 33q90 122 167 189t157 67q56 0 88.5 -40.5t32.5 -119.5q0 -54 -19.5 -157t-63.5 -272.5t-66.5 -254
t-76.5 -277.5l15 -4q150 409 281.5 587.5t262.5 178.5q77 0 120.5 -53.5t43.5 -140.5q0 -150 -109 -254t-317 -140q100 -143 157 -198t93 -55q28 0 58.5 27.5t72.5 86.5l23 -33q-92 -140 -170.5 -217t-159.5 -77z" />
    <glyph glyph-name="l" unicode="l" horiz-adv-x="532" 
d="M264 1161q0 47 -26 47q-38 0 -113 -104l-23 33q89 122 166.5 189t157.5 67q56 0 88.5 -40.5t32.5 -119.5q0 -78 -35 -229t-76.5 -290.5t-76.5 -277t-35 -192.5q0 -47 30 -47q38 0 117 110l23 -33q-42 -65 -79 -113t-79.5 -91.5t-86.5 -66.5t-87 -23q-62 0 -97.5 40
t-35.5 119q0 72 36.5 220t81 290t81 291t36.5 221z" />
    <glyph glyph-name="m" unicode="m" horiz-adv-x="1681" 
d="M1464 240q0 -43 29 -43q41 0 117 110l22 -33q-88 -137 -168.5 -215.5t-163.5 -78.5q-63 0 -99 43t-36 127q0 72 42 197.5t84 245.5t42 179q0 49 -43 49q-182 0 -442 -821h-291q76 205 147.5 447.5t71.5 324.5q0 23 -12 36t-31 13q-181 0 -438 -821h-291q69 186 142 439.5
t73 336.5q0 41 -29 41q-39 0 -116 -110l-25 32q89 138 169.5 216.5t162.5 78.5q53 0 83 -43.5t30 -128.5q0 -34 -8.5 -86t-27 -124.5t-32 -124t-39 -140.5t-33.5 -117l11 -2q151 412 274.5 589t249.5 177q78 0 114.5 -49t36.5 -133q1 -34 -7 -85t-25 -119t-31 -121.5
t-37 -136t-33 -118.5l13 -4q150 411 276.5 588.5t255.5 177.5q82 0 126 -51.5t44 -136.5q0 -71 -39.5 -199t-79 -245t-39.5 -162z" />
    <glyph glyph-name="n" unicode="n" horiz-adv-x="1126" 
d="M494 862q0 -34 -8.5 -85t-28 -127.5t-31.5 -121t-40.5 -142.5t-33.5 -116l13 -4q150 412 276.5 590t255.5 178q82 0 127 -52t45 -136q0 -70 -40.5 -200.5t-81 -248.5t-40.5 -157q0 -20 8.5 -31.5t22.5 -11.5q41 0 117 110l22 -33q-87 -136 -168.5 -215t-163.5 -79
q-63 0 -99 43t-36 127q0 73 42.5 198.5t85 245.5t42.5 178q0 23 -12 36t-31 13q-185 0 -442 -821h-291q66 192 140.5 451.5t74.5 324.5q0 41 -29 41q-39 0 -116 -110l-25 32q89 138 169.5 216.5t162.5 78.5q53 0 83 -43.5t30 -128.5z" />
    <glyph glyph-name="o" unicode="o" horiz-adv-x="1046" 
d="M401 -20q-70 0 -131 20.5t-111 61.5t-79 112.5t-29 165.5q0 195 73 352.5t210.5 249.5t314.5 92q70 0 131 -20.5t111 -61.5t79 -112.5t29 -165.5q0 -192 -73 -349.5t-210.5 -251t-314.5 -93.5zM584 983q-61 0 -123 -121t-100.5 -290.5t-38.5 -311.5q0 -105 41.5 -166
t111.5 -61q36 0 74 39t71 109.5t59 160t41 198t15 216.5q0 96 -41.5 161.5t-109.5 65.5z" />
    <glyph glyph-name="p" unicode="p" horiz-adv-x="1083" 
d="M418 31q63 0 123 54.5t102.5 138t75.5 180t49 183t16 144.5q0 90 -59 90q-32 0 -74 -42.5t-94 -130t-114.5 -240t-125.5 -353.5q57 -24 101 -24zM205 -342h-305q100 267 209.5 639t109.5 477q0 43 -29 43q-39 0 -116 -110l-23 32q87 137 167.5 216t162.5 79
q51 0 79.5 -42.5t28.5 -125.5q0 -118 -122 -556q-7 -27 -11 -40l11 -4q134 390 268.5 579t253.5 189q81 0 129.5 -62t48.5 -171q0 -124 -28 -243.5t-82.5 -223.5t-129.5 -183.5t-176.5 -125t-214.5 -45.5q-57 0 -135 20q-43 -143 -96 -342z" />
    <glyph glyph-name="q" unicode="q" horiz-adv-x="1034" 
d="M383 -342q130 386 319 1092l-14 4q-264 -774 -469 -774q-83 0 -145 72.5t-62 201.5q0 80 20.5 162.5t63.5 163.5t104 153t147 131t188 99.5t232 56.5t273 2q-165 -567 -335 -1364h-322zM348 201q41 0 86.5 58t123 231t187.5 479q-107 -28 -197 -98.5t-147 -160
t-88.5 -187t-31.5 -185.5q0 -68 18 -102.5t49 -34.5z" />
    <glyph glyph-name="r" unicode="r" horiz-adv-x="831" 
d="M305 0h-301q69 178 142 431.5t73 344.5q0 41 -29 41q-39 0 -116 -110l-23 32q87 137 166.5 215t161.5 78q47 0 72.5 -41t25.5 -117q0 -158 -125 -624l17 -6q148 443 232.5 616.5t166.5 173.5q121 0 104 -299q-51 -1 -87.5 -6t-76 -18.5t-69.5 -36t-64 -61t-63.5 -91.5
t-63.5 -128.5t-68.5 -172t-74.5 -221.5z" />
    <glyph glyph-name="s" unicode="s" horiz-adv-x="851" 
d="M512 135q0 44 -39 100t-94.5 111.5t-111.5 113t-95 124t-39 125.5q0 135 121.5 229t312.5 94q146 0 214.5 -49t68.5 -123q0 -43 -9.5 -73t-39.5 -70h-10q-73 100 -174 175t-175 75q-40 0 -67 -27.5t-27 -65.5q0 -40 30.5 -86.5t76 -88t98.5 -91.5t98.5 -96t76 -102.5
t30.5 -110.5q0 -131 -138 -225t-354 -94q-157 0 -228 55.5t-71 140.5q0 77 62 162l12 2q71 -112 179.5 -201.5t193.5 -89.5q98 0 98 86z" />
    <glyph glyph-name="t" unicode="t" horiz-adv-x="620" 
d="M51 150q0 29 4.5 67.5t16.5 94.5t22 99.5t31.5 125.5t33.5 126.5t40.5 147.5t40.5 147h-117l14 56h117q76 14 147.5 78.5t163.5 189.5l35 -10q-32 -105 -72 -258h203l-14 -56h-205q-162 -601 -162 -718q0 -43 39 -43q61 0 160 131l24 -31q-83 -142 -180 -229.5
t-200 -87.5q-66 0 -104 43t-38 127z" />
    <glyph glyph-name="u" unicode="u" horiz-adv-x="1116" 
d="M625 139q0 19 3 44.5t9.5 59t12.5 62t18 73.5t19 72t21.5 79t20.5 73t22 74.5t19 64.5l-12 4q-151 -412 -278 -588.5t-257 -176.5q-82 0 -126 51.5t-44 136.5q0 69 41.5 198t83 247.5t41.5 162.5q0 41 -29 41q-41 0 -118 -108l-23 32q87 135 168.5 214t163.5 79
q62 0 96.5 -43t34.5 -129q0 -72 -42.5 -197.5t-85 -245.5t-42.5 -177q0 -22 12 -35.5t31 -13.5q183 0 440 821h287q-72 -222 -138.5 -460t-66.5 -308q0 -47 29 -47q43 0 117 110l22 -33q-87 -138 -167.5 -217t-162.5 -79q-56 0 -88 40t-32 119z" />
    <glyph glyph-name="v" unicode="v" horiz-adv-x="1005" 
d="M147 295q0 81 63 165.5t198 219.5q-62 37 -105.5 54.5t-89.5 17.5q-42 0 -75.5 -37.5t-76.5 -136.5l-36 14q27 87 47 144t48.5 122.5t54 103t59.5 62.5t71 25q48 0 92 -33.5t97 -102.5q6 16 45 129l57 -22q-86 -168 -142.5 -321t-56.5 -244q0 -84 72 -166t156 -82
q67 0 121.5 106t54.5 248q0 113 -66 479q151 3 211 -40t60 -136q0 -77 -35 -191t-97 -233t-138 -223t-167.5 -170.5t-175.5 -66.5q-62 0 -120 51t-92 124t-34 140z" />
    <glyph glyph-name="w" unicode="w" horiz-adv-x="1429" 
d="M1079 238q60 0 106 97t46 230q0 62 -24 204t-54 249q149 34 209.5 -10t60.5 -144q0 -197 -204 -561q-66 -160 -145 -241.5t-159 -81.5q-70 0 -113 111.5t-32 324.5q-88 -198 -190.5 -317t-196.5 -119q-88 0 -159.5 101.5t-71.5 205.5q0 82 64 174t190 221
q-120 70 -199 70q-42 0 -76.5 -37t-77.5 -135l-35 12q27 87 47 144.5t48.5 122t54.5 102.5t60 63t71 25q49 0 92.5 -34t97.5 -106q15 41 46 131l55 -20q-81 -157 -134 -323t-53 -265q0 -84 29 -140t84 -56q120 0 250 243q-27 102 -43 256t-18 277l288 4
q-26 -166 -74.5 -293.5t-121.5 -249.5q101 -235 282 -235z" />
    <glyph glyph-name="x" unicode="x" horiz-adv-x="966" 
d="M895 1034q49 0 75.5 -79.5t8.5 -206.5q-86 -12 -188 -61t-189 -136q37 -143 67 -223t52.5 -106.5t48.5 -26.5q30 0 60.5 27t72.5 85l23 -33q-90 -138 -170.5 -216t-163.5 -78q-26 0 -47 9.5t-39.5 35.5t-33.5 57t-33 88t-33 113.5t-37 148.5q-94 -246 -158.5 -349
t-138.5 -103q-49 0 -74 79.5t-8 208.5q192 27 372 191q-51 225 -74.5 293.5t-60.5 68.5q-50 0 -133 -114l-22 32q187 295 313 295q60 0 102 -95t107 -355l4 -15q97 257 160 361t137 104z" />
    <glyph glyph-name="y" unicode="y" horiz-adv-x="1081" 
d="M512 862q0 -64 -44 -184t-88 -236.5t-44 -171.5q0 -21 12 -34t31 -13q30 0 59.5 16t71.5 66.5t86 134t101.5 230t119.5 344.5h305q-145 -466 -204 -733q-30 -121 -107.5 -238.5t-178 -205.5t-220.5 -142.5t-230 -54.5q-133 0 -195.5 66.5t-13.5 203.5q237 -59 478 -72
q101 -3 143.5 33.5t56.5 153.5q5 49 9.5 157t9.5 156q6 102 92 424l-12 4q-150 -413 -275.5 -585.5t-255.5 -172.5q-83 0 -127.5 52t-44.5 137q0 70 43 191t86 232t43 156q0 41 -29 41q-40 0 -118 -108l-23 32q87 135 168.5 214t163.5 79q62 0 96.5 -43t34.5 -129z" />
    <glyph glyph-name="z" unicode="z" horiz-adv-x="927" 
d="M590 -20q-190 0 -436 200q-121 -129 -177 -198l-57 73q88 73 179 155t206.5 192t155.5 147q49 44 98 92q-81 53 -164 80t-135 27q-49 0 -78.5 -37t-68.5 -144l-37 13q4 16 13 49q14 54 22 82.5t24.5 80.5t30 81.5t35.5 68t43.5 59t51 35.5t62.5 15q84 0 180.5 -56
t221.5 -157q109 109 182 194l53 -69q-79 -64 -165 -139.5t-193.5 -173t-147.5 -132.5q-2 -2 -139 -133q83 -53 179.5 -77.5t158.5 -24.5q51 0 81.5 37t68.5 143l34 -12q-50 -191 -74 -256q-85 -211 -208 -215z" />
    <glyph glyph-name="braceleft" unicode="{" horiz-adv-x="630" 
d="M446 -309l-12 -45q-271 21 -373 57.5t-102 108.5q0 46 34 111t82 130.5t96 132t82 133t34 115.5q0 60 -52 82.5t-180 24.5l15 47q172 3 242.5 62.5t70.5 164.5q0 76 -36 200.5t-36 168.5q0 72 50.5 123t173.5 87.5t325 53.5l-6 -43q-92 -18 -143 -43.5t-69 -55t-26 -79.5
q-7 -43 -4 -186t-12 -216q-10 -61 -41.5 -105.5t-83.5 -73t-113.5 -44.5t-140.5 -24l-8 -27q141 -12 213 -41t72 -92q0 -56 -36 -144t-79 -164.5t-79 -162t-36 -137.5t38.5 -79t139.5 -40z" />
    <glyph glyph-name="bar" unicode="|" horiz-adv-x="499" 
d="M166 -342h-246q138 499 244 928q126 506 201 854h239q-108 -402 -203 -783q-109 -428 -235 -999z" />
    <glyph glyph-name="braceright" unicode="}" horiz-adv-x="630" 
d="M227 1403l13 45q184 -15 286.5 -35.5t145.5 -51.5t43 -79q0 -46 -34 -110t-82 -128t-96 -129t-82 -130.5t-34 -114.5q0 -60 52.5 -82.5t178.5 -22.5l-12 -49q-172 -3 -243.5 -63t-71.5 -164q0 -76 34.5 -205.5t34.5 -173.5q0 -73 -49.5 -124t-172 -87t-324.5 -53l6 43
q92 18 142.5 44t67.5 55t25 79q8 46 7 190.5t12 221.5q11 61 42.5 106t83 73t112.5 44t141 24l6 27q-138 12 -210.5 41.5t-72.5 91.5q0 56 36 142.5t79 161.5t79 158.5t36 135.5t-39.5 79t-139.5 40z" />
    <glyph glyph-name="asciitilde" unicode="~" horiz-adv-x="968" 
d="M375 907q47 0 89.5 -15.5t72.5 -39t63 -51t61 -51t64.5 -39t75.5 -15.5q59 0 99.5 46t76.5 149h41q-25 -77 -46.5 -134t-54.5 -122t-66 -106.5t-78 -69t-95 -27.5q-54 0 -102.5 24.5t-85 59.5t-71.5 70t-76.5 59.5t-84.5 24.5q-58 0 -99.5 -52t-82.5 -169h-41
q24 74 46 133t54.5 122.5t66.5 105.5t79 69.5t94 27.5z" />
    <glyph glyph-name="uni00A0" unicode="&#xa0;" horiz-adv-x="372" 
 />
    <glyph glyph-name="exclamdown" unicode="&#xa1;" horiz-adv-x="546" 
d="M-82 -209q224 411 361 754l47 -2q-33 -349 -23 -758zM397 1034q76 0 119 -42t43 -118q0 -99 -58.5 -148.5t-156.5 -49.5q-81 0 -124.5 40t-43.5 118q0 97 61 148.5t160 51.5z" />
    <glyph glyph-name="cent" unicode="&#xa2;" horiz-adv-x="901" 
d="M352 -244h-55q48 178 59 224q-127 6 -219 105t-92 259q0 97 25 192.5t75 180.5t118 152t160 110t195 53q8 36 25 108.5t25 108.5h51q-10 -36 -30 -107.5t-30 -107.5h17q121 0 180 -55t59 -139q0 -86 -69 -203h-12q-119 269 -195 324q-26 -97 -94 -365q-16 -66 -94 -393
q30 -15 67 -15q161 0 279 220l28 -19q-75 -170 -183 -283t-241 -124q-9 -45 -27.5 -128.5t-21.5 -97.5zM340 434q0 -150 82 -213q14 55 40 158.5t38 150.5q67 271 106 449q-6 2 -18 2q-59 0 -117 -84.5t-94.5 -212.5t-36.5 -250z" />
    <glyph glyph-name="sterling" unicode="&#xa3;" horiz-adv-x="1255" 
d="M225 43q46 0 73.5 66.5t63.5 255.5q-36 8 -73 8q-62 0 -99.5 -57.5t-37.5 -155.5q0 -117 73 -117zM705 668q0 -2 -1.5 -5.5t-1.5 -5.5q230 0 289 2l-10 -43q-59 2 -287 2q-33 -145 -92 -270q29 -9 89.5 -33t107.5 -36.5t98 -12.5q60 0 97.5 18.5t70.5 75.5t61 164h43
q-39 -215 -79 -331.5t-88 -164.5t-121 -48q-49 0 -91.5 37.5t-69 85t-64 114t-68.5 102.5q-85 -162 -199.5 -250.5t-222.5 -88.5q-95 0 -143 49t-48 141q0 117 64.5 183.5t171.5 66.5q87 0 158 -27q5 31 41 225q-142 0 -195 -2l10 43q49 -2 191 -2q32 157 101.5 274
t160.5 182.5t188 96.5t199 31q90 0 172 -24q-58 -220 -98 -451h-39l-13 139q-6 64 -15.5 110.5t-26.5 86t-45 60t-66 20.5q-55 0 -86.5 -33t-64.5 -140.5t-78 -340.5z" />
    <glyph glyph-name="yen" unicode="&#xa5;" horiz-adv-x="1308" 
d="M881 45l-11 -45h-694l10 45l113 21q47 9 69.5 29.5t44.5 78t56 193.5q-44 -1 -177.5 -2.5t-174.5 -2.5l8 39q38 -1 167 -2t185 -2q22 83 31 123q-212 0 -352 -4l8 39q136 -4 336 -4q-17 39 -48.5 113t-45.5 104q-96 221 -138.5 302t-81.5 101l-22 13l12 45h596l-10 -45
l-72 -6q-52 -6 -76 -20t-24 -42q0 -51 68 -228t130 -315q125 159 216.5 310.5t91.5 210.5q0 35 -24.5 53t-80.5 27l-86 10l10 45h560l-9 -45l-24 -6q-47 -13 -176.5 -143t-454.5 -484q221 0 365 4l-11 -39q-41 1 -178.5 2t-195.5 2q-23 -87 -31 -123q59 1 198 2t179 2
l-9 -39q-43 1 -184.5 2.5t-189.5 2.5q-25 -108 -35 -165t-4 -87.5t18.5 -38t44.5 -13.5z" />
    <glyph glyph-name="brokenbar" unicode="&#xa6;" horiz-adv-x="499" 
d="M401 653h-219q109 438 187 787h237q-53 -191 -205 -787zM168 -342h-244q99 356 211 809h219q-88 -364 -186 -809z" />
    <glyph glyph-name="section" unicode="&#xa7;" horiz-adv-x="1126" 
d="M768 1247q202 0 332 -49q-7 -27 -32.5 -120t-41.5 -157.5t-31 -134.5h-41q-17 213 -86 303.5t-204 90.5q-80 0 -127.5 -42.5t-47.5 -105.5q0 -36 18.5 -66.5t59.5 -60t82 -52t111 -56.5q77 -39 126 -68t99.5 -68.5t75 -83t24.5 -92.5q0 -77 -58.5 -156.5t-156.5 -142.5
q58 -61 58 -135q0 -69 -44 -142t-118 -133.5t-182.5 -99t-225.5 -38.5q-116 0 -204.5 21.5t-135.5 51.5q54 209 95 416h43q-9 -86 9 -154.5t54.5 -111.5t88.5 -71.5t106 -40t112 -11.5q99 0 150 40t51 105q0 60 -73.5 113.5t-215.5 116.5q-87 39 -152 75t-124.5 80t-91 93
t-31.5 100q0 89 71 169.5t193 143.5q-33 41 -33 84q0 72 36.5 142t100 125t158.5 88.5t203 33.5zM518 377q248 -95 334 -172q80 71 80 164q0 29 -12 55t-38.5 49t-52.5 40.5t-72.5 38.5t-78.5 34.5t-88 34.5q-201 70 -268 135q-105 -88 -105 -160q0 -62 75 -111t226 -108z
" />
    <glyph glyph-name="dieresis" unicode="&#xa8;" horiz-adv-x="688" 
d="M387 1417q55 0 84 -28t29 -80q0 -64 -46 -107t-108 -43q-55 0 -84 28t-29 79q0 64 46 107.5t108 43.5zM725 1417q55 0 84 -28t29 -80q0 -64 -46 -107t-108 -43q-55 0 -84 28t-29 79q0 64 46 107.5t108 43.5z" />
    <glyph glyph-name="copyright" unicode="&#xa9;" horiz-adv-x="1607" 
d="M741 119q-181 0 -282 98t-101 268q0 175 73.5 318.5t213 229t320.5 85.5q175 0 303 -59q-47 -161 -97 -377h-36l-13 106q-2 34 -16.5 79t-38.5 91t-63 77.5t-84 31.5q-60 0 -118 -66t-97 -164t-64 -206.5t-27 -196.5q-7 -129 40 -195.5t141 -66.5q117 0 219 205l94 188
h35q-25 -155 -39 -327q-172 -119 -363 -119zM686 -94q174 0 329 67t265 180t174 267t64 323q0 94 -22 179t-68.5 159t-113.5 128.5t-163 86t-211 31.5q-170 -1 -322.5 -68t-260.5 -179.5t-171 -266t-63 -321.5q0 -121 34.5 -225.5t101.5 -186t176.5 -128t250.5 -46.5z
M946 1372q153 1 274 -50.5t195.5 -140t113 -199.5t38.5 -237q0 -174 -67.5 -335.5t-183 -282.5t-281.5 -193.5t-353 -72.5q-121 0 -222 33t-172 90.5t-120 137t-72.5 171.5t-23.5 194q0 174 66.5 335.5t181.5 282.5t278.5 193.5t347.5 73.5z" />
    <glyph glyph-name="ordfeminine" unicode="&#xaa;" horiz-adv-x="851" 
d="M860 868q-63 -95 -117.5 -149.5t-109.5 -54.5q-80 0 -80 108q0 114 88 426l-10 2q-195 -538 -346 -538q-55 0 -95 48t-40 134q0 79 28 159t88 153.5t143 128.5t203 82.5t258 16.5q-47 -150 -88 -312.5t-41 -225.5q0 -35 21 -35q27 0 82 82zM385 807q30 0 63 41t88.5 164
t131.5 338q-76 -20 -139.5 -71.5t-103 -118t-61.5 -137.5t-22 -136q0 -80 43 -80z" />
    <glyph glyph-name="guillemotleft" unicode="&#xab;" horiz-adv-x="1034" 
d="M647 954l37 -24q-68 -113 -144.5 -212t-189.5 -229q82 -218 117 -421l-45 -23q-143 240 -377 436l10 37q354 212 592 436zM1063 954l37 -24q-68 -113 -144.5 -212t-189.5 -229q82 -218 117 -421l-45 -23q-143 240 -377 436l10 37q354 212 592 436z" />
    <glyph glyph-name="registered" unicode="&#xae;" horiz-adv-x="1605" 
d="M838 680q86 0 146 73t60 160q0 62 -44.5 95.5t-118.5 33.5q-19 0 -47 -4q-32 -67 -103 -354q66 -4 107 -4zM260 158l6 32l68 15q14 3 22 7t18.5 20t18.5 37.5t22.5 70.5t29.5 107.5t40 158.5q40 160 58 238.5t22 124.5t-3.5 55.5t-29.5 13.5l-51 9l8 34h488
q85 0 143.5 -13.5t90 -39t44.5 -56t13 -71.5q0 -114 -80.5 -201t-194.5 -96q98 -304 164 -373q20 -20 68 -41l-8 -32h-310q-51 122 -90 465q-47 14 -92 36l-6 -24q-38 -155 -55.5 -233.5t-19.5 -123t6 -54.5t32 -15l92 -16l-6 -35h-508zM686 -94q174 0 329 67t265 180
t174 267t64 323q0 94 -22 179t-68.5 159t-113.5 128.5t-163 86t-211 31.5q-170 -1 -322.5 -68t-260.5 -179.5t-171 -266t-63 -321.5q0 -121 34.5 -225.5t101.5 -186t176.5 -128t250.5 -46.5zM946 1372q153 1 274 -50.5t195.5 -140t113 -199.5t38.5 -237q0 -174 -67.5 -335.5
t-183 -282.5t-281.5 -193.5t-353 -72.5q-121 0 -222 33t-172 90.5t-120 137t-72.5 171.5t-23.5 194q0 174 66.5 335.5t181.5 282.5t278.5 193.5t347.5 73.5z" />
    <glyph glyph-name="macron" unicode="&#xaf;" horiz-adv-x="657" 
d="M498 1180q-44 0 -141.5 -1t-141.5 -1l29 114q164 -4 280 -4q111 0 279 4l-29 -114q-43 0 -138.5 1t-137.5 1z" />
    <glyph glyph-name="degree" unicode="&#xb0;" horiz-adv-x="550" 
d="M365 825q83 0 144 54.5t62 146.5q2 69 -36.5 108.5t-112.5 39.5q-83 0 -143.5 -54t-61.5 -149q-2 -67 36 -107t112 -39zM434 1245q102 0 159.5 -57t55.5 -150q-1 -129 -85 -205.5t-206 -76.5q-104 0 -162.5 55.5t-56.5 149.5q1 128 86.5 206t208.5 78z" />
    <glyph glyph-name="twosuperior" unicode="&#xb2;" horiz-adv-x="727" 
d="M696 657h-665l6 27q269 155 324 190q168 108 206 189q15 31 15 63q0 43 -28.5 65.5t-96.5 22.5q-190 0 -248 -229h-27q49 399 398 399q241 0 241 -163q0 -43 -19.5 -83.5t-58 -76t-82.5 -66t-108.5 -62t-119 -54.5t-128.5 -52h238q77 0 111.5 7t49.5 22.5t35 56.5l31 64
h25q-48 -137 -99 -320z" />
    <glyph glyph-name="threesuperior" unicode="&#xb3;" horiz-adv-x="636" 
d="M705 915q0 -36 -17.5 -68.5t-63.5 -66.5t-118 -60.5t-190 -47.5t-271 -31l8 31q113 15 198 43t131 62t67.5 67.5t21.5 66.5q0 38 -21 57t-69 19q-52 0 -111 -16l4 30q137 26 190.5 63.5t53.5 92.5q-2 40 -27.5 59t-87.5 19q-74 0 -121.5 -33.5t-74.5 -109.5h-25
q35 144 121.5 217t237.5 73q211 0 211 -133q0 -83 -83.5 -136t-244.5 -91l2 -10q52 10 104 10q175 0 175 -107z" />
    <glyph glyph-name="acute" unicode="&#xb4;" horiz-adv-x="604" 
d="M760 1436l-2 -15q-264 -178 -512 -317l-27 4q195 241 283 385q7 -2 107 -22t151 -35z" />
    <glyph glyph-name="paragraph" unicode="&#xb6;" horiz-adv-x="1204" 
d="M1094 735q-38 -149 -72 -299t-41 -178q-37 -149 -161.5 -284t-301.5 -223t-364 -105l18 106q63 -1 100.5 -0.5t82 7.5t68 13t55 28.5t47 41.5t40 63.5t38 83.5t36 113t39.5 140t45 176q-141 -53 -260 -53q-169 0 -254 91.5t-82 233.5q3 236 157.5 387.5t383.5 151.5h704
l-10 -45l-80 -15q-62 -10 -86 -67t-99 -356q-2 -7 -3 -11z" />
    <glyph glyph-name="periodcentered" unicode="&#xb7;" horiz-adv-x="501" 
d="M240 324q-76 0 -119 41.5t-43 117.5q0 99 58.5 149t156.5 50q81 0 124.5 -40t43.5 -118q0 -97 -61 -148.5t-160 -51.5z" />
    <glyph glyph-name="cedilla" unicode="&#xb8;" horiz-adv-x="561" 
d="M-160 -305l4 31q157 15 219 36.5t70 61.5q4 25 -11 36t-52 11q-36 0 -86 -6l110 170h15l-76 -141q80 22 170 22q80 0 117 -19.5t30 -60.5q-12 -69 -145 -105t-365 -36z" />
    <glyph glyph-name="onesuperior" unicode="&#xb9;" horiz-adv-x="462" 
d="M541 1391l24 -2q-32 -94 -98 -363q-68 -270 -68 -308q1 -22 16 -25q2 -1 3 -1l59 -8l-6 -27h-418l6 27l78 10q19 3 31 20.5t31.5 81t54.5 208.5q46 184 46.5 221t-38.5 39l-55 2l4 22q103 12 178 33.5t152 69.5z" />
    <glyph glyph-name="ordmasculine" unicode="&#xba;" horiz-adv-x="751" 
d="M406 657q-104 0 -174 62.5t-70 191.5q0 207 116 344.5t302 137.5q105 0 174 -62t69 -190q0 -205 -116 -344.5t-301 -139.5zM535 1354q-43 0 -87 -83t-71 -199.5t-27 -215.5q0 -74 29.5 -115t77.5 -41q43 0 85.5 70.5t69.5 187t27 238.5q0 68 -28 113t-76 45z" />
    <glyph glyph-name="guillemotright" unicode="&#xbb;" horiz-adv-x="1034" 
d="M406 43l-37 25q68 113 144 212t189 228q-80 212 -116 422l45 22q143 -240 377 -436l-11 -37q-351 -210 -591 -436zM-10 43l-37 25q67 113 143.5 211t190.5 229q-81 217 -117 422l45 22q143 -240 377 -436l-10 -37q-354 -212 -592 -436z" />
    <glyph glyph-name="onequarter" unicode="&#xbc;" horiz-adv-x="1179" 
d="M541 1391l24 -2q-32 -94 -98 -363q-68 -270 -68 -308q1 -22 16 -25q2 -1 3 -1l59 -8l-6 -27h-418l6 27l78 10q19 3 31 20.5t31.5 81t54.5 208.5q46 184 46.5 221t-38.5 39l-55 2l4 22q103 12 178 33.5t152 69.5zM561 612q-275 -275 -590 -612h-100l4 14q66 61 204 186
t248 227t205 196q90 90 185.5 190.5t214.5 229t174 186.5h100l-4 -15q-69 -66 -295.5 -275t-345.5 -327zM471 -150l8 27l117 14q24 3 39 32t43 138q-260 0 -346 -2v25q13 10 281 213.5t384 300.5l27 -2q-2 -8 -12.5 -44.5t-34.5 -126.5t-55 -212q-7 -34 -25 -98
q51 1 70.5 10t33.5 35l39 90h21q-43 -134 -76 -305h-18l2 69q0 29 -13.5 37.5t-70.5 9.5q-19 -78 -24 -112.5t-1.5 -45t17.5 -14.5l63 -12l-6 -27h-463zM711 186q12 49 29.5 115.5t19.5 73.5l-10 4q-32 -25 -150 -115t-180 -139l4 -10q28 1 68.5 1t100.5 -0.5t99 -0.5
q1 5 8 30t11 41z" />
    <glyph glyph-name="onehalf" unicode="&#xbd;" horiz-adv-x="1239" 
d="M541 1391l24 -2q-32 -94 -98 -363q-68 -270 -68 -308q1 -22 16 -25q2 -1 3 -1l59 -8l-6 -27h-418l6 27l78 10q19 3 31 20.5t31.5 81t54.5 208.5q46 184 46.5 221t-38.5 39l-55 2l4 22q103 12 178 33.5t152 69.5zM561 612q-275 -275 -590 -612h-100l4 14q66 61 204 186
t248 227t205 196q90 90 185.5 190.5t214.5 229t174 186.5h100l-4 -15q-69 -66 -295.5 -275t-345.5 -327zM989 -150h-665l6 27q269 155 327 192q165 107 203 188q14 31 14 62q0 43 -28 66t-96 23q-190 0 -248 -230h-27q49 400 397 400q242 0 242 -164q0 -43 -19.5 -83.5
t-58 -76t-82.5 -66t-108.5 -62t-119 -54.5t-128.5 -52h238q77 0 111.5 7t49.5 22.5t35 56.5l31 64h24q-44 -124 -98 -320z" />
    <glyph glyph-name="threequarters" unicode="&#xbe;" horiz-adv-x="1179" 
d="M541 1391l24 -2q-32 -94 -98 -363q-68 -270 -68 -308q1 -22 16 -25q2 -1 3 -1l59 -8l-6 -27h-418l6 27l78 10q19 3 31 20.5t31.5 81t54.5 208.5q46 184 46.5 221t-38.5 39l-55 2l4 22q103 12 178 33.5t152 69.5zM561 612q-275 -275 -590 -612h-100l4 14q66 61 204 186
t248 227t205 196q90 90 185.5 190.5t214.5 229t174 186.5h100l-4 -15q-69 -66 -295.5 -275t-345.5 -327zM465 -150l8 27l117 14q24 3 39 32t43 138q-260 0 -346 -2v25q13 10 281 213.5t384 300.5l27 -2q-2 -7 -12.5 -44t-35 -127t-55.5 -212q-11 -51 -24 -98q51 1 70.5 10
t33.5 35l39 90h21q-43 -134 -76 -305h-18l2 69q0 29 -13.5 37.5t-70.5 9.5q-14 -60 -20.5 -91t-7 -49.5t3.5 -23.5t15 -8l64 -12l-6 -27h-463zM705 186q12 49 29.5 115.5t19.5 73.5l-11 4q-26 -20 -146 -112t-183 -142l4 -10q28 1 68.5 1t100.5 -0.5t99 -0.5q1 5 8 30t11 41
z" />
    <glyph glyph-name="questiondown" unicode="&#xbf;" horiz-adv-x="788" 
d="M633 539l6 -39q-262 -107 -416.5 -206.5t-154.5 -178.5q0 -41 19.5 -61.5t64.5 -20.5q42 0 198.5 28.5t208.5 28.5q42 0 63 -16.5t21 -59.5q1 -22 -4.5 -48.5t-20 -66t-23 -61t-33.5 -77.5t-32 -72l-38 2q12 53 12 67q0 19 -11.5 28t-39.5 9t-77 -2t-73 -2
q-278 0 -278 367q0 71 28 126.5t77 95.5t127.5 70.5t167.5 50.5t208 38zM641 1034q76 0 119 -42t43 -118q0 -99 -58.5 -148.5t-156.5 -49.5q-81 0 -124.5 40t-43.5 118q0 97 61 148.5t160 51.5z" />
    <glyph glyph-name="Agrave" unicode="&#xc0;" horiz-adv-x="1202" 
d="M385 45l-10 -45h-514l10 45l31 14q47 19 141 153.5t437 663.5q154 238 247 381h51q10 -52 129 -593q8 -39 23 -111q55 -268 83.5 -368t69.5 -128l19 -12l-8 -45h-570l11 45l83 10q89 11 89 80q0 68 -45 324q-158 -3 -349 -10q-102 -235 -102 -318q0 -56 76 -68zM549 1661
q77 22 250 57q55 -191 135 -385l-29 -4q-192 147 -360 318zM649 530q-35 185 -88 402q-137 -246 -221 -426q103 -6 315 -10q-1 6 -3 17t-3 17z" />
    <glyph glyph-name="Aacute" unicode="&#xc1;" horiz-adv-x="1202" 
d="M385 45l-10 -45h-514l10 45l31 14q47 19 141 153.5t437 663.5q154 238 247 381h51q10 -52 129 -593q8 -39 23 -111q55 -268 83.5 -368t69.5 -128l19 -12l-8 -45h-570l11 45l83 10q89 11 89 80q0 68 -45 324q-158 -3 -349 -10q-102 -235 -102 -318q0 -56 76 -68z
M1141 1661l-2 -14q-272 -184 -512 -318l-27 4q195 241 283 385q7 -2 107 -22t151 -35zM649 530q-35 185 -88 402q-137 -246 -221 -426q103 -6 315 -10q-1 6 -3 17t-3 17z" />
    <glyph glyph-name="Acircumflex" unicode="&#xc2;" horiz-adv-x="1202" 
d="M385 45l-10 -45h-514l10 45l31 14q47 19 141 153.5t437 663.5q154 238 247 381h51q10 -52 129 -593q8 -39 23 -111q55 -268 83.5 -368t69.5 -128l19 -12l-8 -45h-570l11 45l83 10q89 11 89 80q0 68 -45 324q-158 -3 -349 -10q-102 -235 -102 -318q0 -56 76 -68zM870 1706
q102 -184 224 -346l-39 -6q-121 54 -248 141q-170 -88 -328 -141l-35 6q228 184 398 346h28zM649 530q-35 185 -88 402q-137 -246 -221 -426q103 -6 315 -10q-1 6 -3 17t-3 17z" />
    <glyph glyph-name="Atilde" unicode="&#xc3;" horiz-adv-x="1202" 
d="M385 45l-10 -45h-514l10 45l31 14q47 19 141 153.5t437 663.5q154 238 247 381h51q10 -52 129 -593q8 -39 23 -111q55 -268 83.5 -368t69.5 -128l19 -12l-8 -45h-570l11 45l83 10q89 11 89 80q0 68 -45 324q-158 -3 -349 -10q-102 -235 -102 -318q0 -56 76 -68zM723 1681
q39 0 75 -18t63.5 -43.5t53 -51t53 -43.5t54.5 -18q43 0 73 37.5t62 122.5h31q-20 -64 -42.5 -113t-55 -94t-76 -69.5t-96.5 -24.5q-41 0 -78.5 18t-65 43.5t-53 51t-52.5 43.5t-53 18q-44 0 -74.5 -37t-62.5 -121h-30q16 50 32.5 90t41 80.5t52.5 67.5t66 44t82 17z
M649 530q-35 185 -88 402q-137 -246 -221 -426q103 -6 315 -10q-1 6 -3 17t-3 17z" />
    <glyph glyph-name="Adieresis" unicode="&#xc4;" horiz-adv-x="1202" 
d="M385 45l-10 -45h-514l10 45l31 14q47 19 141 153.5t437 663.5q154 238 247 381h51q10 -52 129 -593q8 -39 23 -111q55 -268 83.5 -368t69.5 -128l19 -12l-8 -45h-570l11 45l83 10q89 11 89 80q0 68 -45 324q-158 -3 -349 -10q-102 -235 -102 -318q0 -56 76 -68zM649 530
q-35 185 -88 402q-137 -246 -221 -426q103 -6 315 -10q-1 6 -3 17t-3 17zM664 1642q55 0 83.5 -28t28.5 -80q0 -64 -45.5 -107t-107.5 -43q-55 0 -84 28t-29 79q0 64 46 107.5t108 43.5zM1001 1642q55 0 84 -28t29 -80q0 -64 -45.5 -107t-107.5 -43q-55 0 -84 28t-29 79
q0 64 45.5 107.5t107.5 43.5z" />
    <glyph glyph-name="Aring" unicode="&#xc5;" horiz-adv-x="1202" 
d="M385 45l-10 -45h-514l10 45l31 14q47 19 141 153.5t437 663.5q154 238 247 381h51q10 -52 129 -593q8 -39 23 -111q55 -268 83.5 -368t69.5 -128l19 -12l-8 -45h-570l11 45l83 10q89 11 89 80q0 68 -45 324q-158 -3 -349 -10q-102 -235 -102 -318q0 -56 76 -68zM649 530
q-35 185 -88 402q-137 -246 -221 -426q103 -6 315 -10q-1 6 -3 17t-3 17zM797 1419q56 0 97.5 36t41.5 99q0 45 -25.5 71t-76.5 26q-56 0 -98 -37t-42 -101q0 -43 25.5 -68.5t77.5 -25.5zM842 1716q76 0 119 -42t43 -109q0 -94 -61.5 -151.5t-151.5 -57.5q-78 0 -121 40.5
t-43 106.5q0 95 62.5 154t152.5 59z" />
    <glyph glyph-name="AE" unicode="&#xc6;" horiz-adv-x="1638" 
d="M586 479q55 0 153 4q25 96 25 97q89 355 127 522l-8 2q-294 -399 -447 -621q94 -4 150 -4zM-117 0l11 45l38 25q43 27 127.5 110t273 295.5t445.5 525.5q47 63 47 93q0 28 -24.5 42.5t-91.5 28.5l-107 19l14 45h1106q-54 -245 -88 -461h-41l-24 166q-20 94 -54 141.5
t-109 72.5t-218 32q-34 -80 -144 -533q137 6 197 39t105 123l51 111h26q-27 -100 -64 -291.5t-54 -306.5h-27l-6 110q-9 95 -57 129t-183 43v-4q-117 -473 -125 -549q219 12 318.5 60t189.5 182l123 196h39q-118 -353 -156 -489h-946l12 45l86 25q32 9 49 31.5t40.5 96
t66.5 246.5q-24 0 -75 1t-79 1q-110 0 -167 -2q-175 -265 -177 -319q-1 -27 14.5 -39.5t55.5 -24.5l76 -14l-12 -47h-482z" />
    <glyph glyph-name="Ccedilla" unicode="&#xc7;" horiz-adv-x="1173" 
d="M606 37q78 0 152.5 67.5t132.5 186.5l119 248h41q-28 -150 -52 -406q-114 -77 -221.5 -115t-230.5 -38q-68 0 -115 8l-51 -94q80 22 170 22q80 0 117 -19.5t30 -60.5q-12 -69 -145 -105t-365 -36l5 31q156 15 218 36.5t70 61.5q4 25 -11 36t-52 11q-36 0 -86 -6l82 127
q-173 32 -267 150t-94 300q0 227 97 411t274.5 290t402.5 106q214 0 383 -78q-57 -201 -120 -469h-41l-13 138q-2 47 -20 105t-49.5 114.5t-83.5 94.5t-113 38q-83 0 -164 -87t-137 -216t-90.5 -275.5t-34.5 -265.5q0 -137 67.5 -224t194.5 -87z" />
    <glyph glyph-name="Egrave" unicode="&#xc8;" horiz-adv-x="1114" 
d="M483 600q-116 -456 -125 -549q151 8 240.5 32.5t149 71.5t122.5 138l127 196h41q-89 -247 -159 -489h-983l10 45l100 18q35 6 53 34q27 43 83 260q16 60 57 223q107 432 113 518q4 57 -21 67q-7 4 -23 6l-84 13l13 45h983q-47 -214 -86 -461h-41l-29 166
q-17 69 -37.5 109.5t-63.5 72t-109.5 45.5t-174.5 19q-31 -75 -143 -533q95 4 149 20.5t86 48t66 93.5l53 111l29 -2q-29 -100 -72.5 -292t-63.5 -304h-28l-2 110q-6 96 -51 130.5t-179 41.5v-4zM539 1630q93 26 249 58q53 -182 136 -385l-29 -5q-192 147 -360 318z" />
    <glyph glyph-name="Eacute" unicode="&#xc9;" horiz-adv-x="1114" 
d="M483 600q-116 -456 -125 -549q151 8 240.5 32.5t149 71.5t122.5 138l127 196h41q-89 -247 -159 -489h-983l10 45l100 18q35 6 53 34q27 43 83 260q16 60 57 223q107 432 113 518q4 57 -21 67q-7 4 -23 6l-84 13l13 45h983q-47 -214 -86 -461h-41l-29 166
q-17 69 -37.5 109.5t-63.5 72t-109.5 45.5t-174.5 19q-31 -75 -143 -533q95 4 149 20.5t86 48t66 93.5l53 111l29 -2q-29 -100 -72.5 -292t-63.5 -304h-28l-2 110q-6 96 -51 130.5t-179 41.5v-4zM1130 1630l-2 -14q-272 -184 -512 -318l-26 5q190 236 282 385
q26 -6 78.5 -16.5t97 -20.5t82.5 -21z" />
    <glyph glyph-name="Ecircumflex" unicode="&#xca;" horiz-adv-x="1114" 
d="M483 600q-116 -456 -125 -549q151 8 240.5 32.5t149 71.5t122.5 138l127 196h41q-89 -247 -159 -489h-983l10 45l100 18q35 6 53 34q27 43 83 260q16 60 57 223q107 432 113 518q4 57 -21 67q-7 4 -23 6l-84 13l13 45h983q-47 -214 -86 -461h-41l-29 166
q-17 69 -37.5 109.5t-63.5 72t-109.5 45.5t-174.5 19q-31 -75 -143 -533q95 4 149 20.5t86 48t66 93.5l53 111l29 -2q-29 -100 -72.5 -292t-63.5 -304h-28l-2 110q-6 96 -51 130.5t-179 41.5v-4zM862 1675q105 -189 223 -346l-38 -6q-121 54 -248 141q-170 -88 -328 -141
l-35 6q228 184 398 346h28z" />
    <glyph glyph-name="Edieresis" unicode="&#xcb;" horiz-adv-x="1114" 
d="M483 600q-116 -456 -125 -549q151 8 240.5 32.5t149 71.5t122.5 138l127 196h41q-89 -247 -159 -489h-983l10 45l100 18q35 6 53 34q27 43 83 260q16 60 57 223q107 432 113 518q4 57 -21 67q-7 4 -23 6l-84 13l13 45h983q-47 -214 -86 -461h-41l-29 166
q-17 69 -37.5 109.5t-63.5 72t-109.5 45.5t-174.5 19q-31 -75 -143 -533q95 4 149 20.5t86 48t66 93.5l53 111l29 -2q-29 -100 -72.5 -292t-63.5 -304h-28l-2 110q-6 96 -51 130.5t-179 41.5v-4zM653 1612q55 0 84 -28.5t29 -80.5q0 -64 -46 -106.5t-108 -42.5
q-112 0 -112 106q0 65 45.5 108.5t107.5 43.5zM991 1612q55 0 84 -28.5t29 -80.5q0 -64 -46 -106.5t-108 -42.5q-112 0 -112 106q0 65 45.5 108.5t107.5 43.5z" />
    <glyph glyph-name="Igrave" unicode="&#xcc;" horiz-adv-x="653" 
d="M201 592q105 426 114 503q6 58 -17 69q-5 3 -15 5l-93 15l13 45h598l-10 -45l-105 -17q-23 -2 -36 -15t-35 -74.5t-46.5 -153.5t-72.5 -287q-54 -215 -78 -317t-32.5 -165.5t-1 -76t29.5 -17.5l92 -16l-10 -45h-600l10 45l106 18q41 9 69 88.5t120 440.5zM311 1628
q39 13 226 58q81 -214 180 -383l-27 -5q-183 131 -381 316z" />
    <glyph glyph-name="Iacute" unicode="&#xcd;" horiz-adv-x="653" 
d="M201 592q105 426 114 503q6 58 -17 69q-5 3 -15 5l-93 15l13 45h598l-10 -45l-105 -17q-23 -2 -36 -15t-35 -74.5t-46.5 -153.5t-72.5 -287q-54 -215 -78 -317t-32.5 -165.5t-1 -76t29.5 -17.5l92 -16l-10 -45h-600l10 45l106 18q41 9 69 88.5t120 440.5zM860 1628
l-4 -14q-248 -188 -459 -316l-24 5q158 213 260 383q21 -5 69 -16t86 -21t72 -21z" />
    <glyph glyph-name="Icircumflex" unicode="&#xce;" horiz-adv-x="653" 
d="M201 592q105 426 114 503q6 58 -17 69q-5 3 -15 5l-93 15l13 45h598l-10 -45l-105 -17q-23 -2 -36 -15t-35 -74.5t-46.5 -153.5t-72.5 -287q-54 -215 -78 -317t-32.5 -165.5t-1 -76t29.5 -17.5l92 -16l-10 -45h-600l10 45l106 18q41 9 69 88.5t120 440.5zM627 1661
q68 -171 157 -330l-32 -6q-104 58 -185 125q-124 -73 -252 -125l-30 6q142 135 321 330h21z" />
    <glyph glyph-name="Idieresis" unicode="&#xcf;" horiz-adv-x="653" 
d="M201 592q105 426 114 503q6 58 -17 69q-5 3 -15 5l-93 15l13 45h598l-10 -45l-105 -17q-23 -2 -36 -15t-35 -74.5t-46.5 -153.5t-72.5 -287q-54 -215 -78 -317t-32.5 -165.5t-1 -76t29.5 -17.5l92 -16l-10 -45h-600l10 45l106 18q41 9 69 88.5t120 440.5zM440 1583
q47 0 73 -24.5t26 -67.5q0 -58 -39.5 -95.5t-91.5 -37.5q-49 0 -74 24t-25 68q0 57 39 95t92 38zM723 1583q47 0 72.5 -24.5t25.5 -67.5q0 -58 -39.5 -95.5t-91.5 -37.5q-49 0 -73.5 24t-24.5 68q0 57 39 95t92 38z" />
    <glyph glyph-name="Eth" unicode="&#xd0;" horiz-adv-x="1263" 
d="M737 600q-70 2 -248 6q-68 -280 -90 -383t-26 -172q142 8 253.5 65t178 138.5t109.5 189t59 207t16 203.5q0 174 -72.5 251t-207.5 77q-33 0 -47 -2q-24 -37 -56 -140t-106 -391q130 0 252 4zM809 1229q465 0 465 -424q0 -162 -55 -310t-150 -257t-229 -173.5t-285 -64.5
h-653l10 45l84 16q41 7 60 34q31 42 82 239q18 68 67 262l2 8q-88 0 -170 -4l12 53q82 -4 168 -4q95 380 100 454q4 53 -21 63q-7 3 -20 5l-79 13l12 45h600z" />
    <glyph glyph-name="Ntilde" unicode="&#xd1;" horiz-adv-x="1275" 
d="M971 -25h-56q-17 35 -136 283t-211.5 438.5t-149.5 298.5q-22 43 -39 68q-47 -199 -73 -350.5t-30.5 -254.5t3 -172t33.5 -109.5t55.5 -60t74.5 -30.5l187 -41l-11 -45h-718l10 45l70 16q47 13 75 54q45 68 120 343q42 153 169 650q-39 44 -94 59l-74 17l8 45h508
q148 -437 342 -791q45 193 68.5 325t30.5 206t-3.5 115t-25.5 53t-45 18l-144 29l11 45h499l-8 -45l-55 -15q-43 -11 -73.5 -59t-88.5 -233.5t-153 -567.5q-60 -240 -76 -334zM799 1651q39 0 75 -18t63.5 -43.5t53 -51t53 -43.5t54.5 -18q43 0 73 37t62 122h31
q-20 -64 -43 -113t-55 -94t-76 -69.5t-97 -24.5q-41 0 -78 18t-65 43.5t-53 51t-52 43.5t-53 18q-44 0 -74.5 -36.5t-62.5 -120.5h-31q21 64 43.5 112t55 93.5t77 69.5t99.5 24z" />
    <glyph glyph-name="Ograve" unicode="&#xd2;" horiz-adv-x="1286" 
d="M754 1192q-79 0 -157 -82t-133.5 -206.5t-89.5 -272t-34 -277.5q0 -145 69 -229t185 -86q77 0 152.5 80.5t129.5 204t87.5 274.5t33.5 289q0 128 -65.5 216.5t-177.5 88.5zM1290 807q0 -174 -57 -327.5t-157 -263t-243 -173t-307 -63.5q-218 0 -345.5 128.5t-127.5 335.5
q0 236 94.5 419t266 284.5t393.5 101.5q220 0 351.5 -125t131.5 -317zM631 1651q77 22 250 57q55 -191 135 -385l-29 -4q-196 150 -360 317z" />
    <glyph glyph-name="Oacute" unicode="&#xd3;" horiz-adv-x="1286" 
d="M754 1192q-79 0 -157 -82t-133.5 -206.5t-89.5 -272t-34 -277.5q0 -145 69 -229t185 -86q77 0 152.5 80.5t129.5 204t87.5 274.5t33.5 289q0 128 -65.5 216.5t-177.5 88.5zM1290 807q0 -174 -57 -327.5t-157 -263t-243 -173t-307 -63.5q-218 0 -345.5 128.5t-127.5 335.5
q0 236 94.5 419t266 284.5t393.5 101.5q220 0 351.5 -125t131.5 -317zM1223 1651l-2 -15q-264 -178 -512 -317l-27 4q195 241 283 385q7 -2 107 -22t151 -35z" />
    <glyph glyph-name="Ocircumflex" unicode="&#xd4;" horiz-adv-x="1286" 
d="M754 1192q-79 0 -157 -82t-133.5 -206.5t-89.5 -272t-34 -277.5q0 -145 69 -229t185 -86q77 0 152.5 80.5t129.5 204t87.5 274.5t33.5 289q0 128 -65.5 216.5t-177.5 88.5zM1290 807q0 -174 -57 -327.5t-157 -263t-243 -173t-307 -63.5q-218 0 -345.5 128.5t-127.5 335.5
q0 236 94.5 419t266 284.5t393.5 101.5q220 0 351.5 -125t131.5 -317zM954 1696q102 -184 224 -346l-39 -7q-117 52 -248 142q-176 -90 -328 -142l-35 7q228 184 398 346h28z" />
    <glyph glyph-name="Otilde" unicode="&#xd5;" horiz-adv-x="1286" 
d="M754 1192q-79 0 -157 -82t-133.5 -206.5t-89.5 -272t-34 -277.5q0 -145 69 -229t185 -86q77 0 152.5 80.5t129.5 204t87.5 274.5t33.5 289q0 128 -65.5 216.5t-177.5 88.5zM1290 807q0 -174 -57 -327.5t-157 -263t-243 -173t-307 -63.5q-218 0 -345.5 128.5t-127.5 335.5
q0 236 94.5 419t266 284.5t393.5 101.5q220 0 351.5 -125t131.5 -317zM805 1671q39 0 75 -18t63.5 -43.5t53 -51t53 -43.5t54.5 -18q43 0 73 37.5t62 122.5h31q-20 -64 -43 -113t-55 -94t-76 -69.5t-97 -24.5q-41 0 -78 18t-65 43.5t-53 51t-52 43.5t-53 18q-44 0 -74.5 -37
t-62.5 -121h-31q21 64 43.5 112t55 93.5t77 69.5t99.5 24z" />
    <glyph glyph-name="Odieresis" unicode="&#xd6;" horiz-adv-x="1286" 
d="M754 1192q-79 0 -157 -82t-133.5 -206.5t-89.5 -272t-34 -277.5q0 -145 69 -229t185 -86q77 0 152.5 80.5t129.5 204t87.5 274.5t33.5 289q0 128 -65.5 216.5t-177.5 88.5zM1290 807q0 -174 -57 -327.5t-157 -263t-243 -173t-307 -63.5q-218 0 -345.5 128.5t-127.5 335.5
q0 236 94.5 419t266 284.5t393.5 101.5q220 0 351.5 -125t131.5 -317zM745 1632q55 0 84 -28t29 -80q0 -64 -45.5 -107t-107.5 -43q-55 0 -84 28t-29 79q0 64 45.5 107.5t107.5 43.5zM1083 1632q55 0 84 -28t29 -80q0 -64 -46 -107t-108 -43q-55 0 -83.5 27.5t-28.5 79.5
q0 64 45.5 107.5t107.5 43.5z" />
    <glyph glyph-name="multiply" unicode="&#xd7;" horiz-adv-x="933" 
d="M686 258q-63 91 -205 283q-67 -54 -195 -158.5t-165 -134.5l-101 133q112 84 365 287q-109 148 -213 276l139 111q64 -90 205 -281q142 112 361 293l100 -135q-118 -87 -365 -287q115 -153 213 -274z" />
    <glyph glyph-name="Oslash" unicode="&#xd8;" horiz-adv-x="1286" 
d="M594 39q77 0 152.5 80.5t129.5 204t87.5 274.5t33.5 289q0 23 -4 55q-113 -116 -339.5 -344t-309.5 -313q17 -115 83 -179.5t167 -66.5zM340 354v-28q70 71 301 303.5t346 351.5q-23 95 -83.5 153t-149.5 58q-79 0 -157 -82t-133.5 -206.5t-89.5 -272t-34 -277.5z
M1290 807q0 -174 -57 -327.5t-157 -263t-243 -173t-307 -63.5q-234 0 -366 151q-138 -134 -144 -141l-26 28q19 15 149 138q-86 122 -86 288q0 236 94.5 419t266 284.5t393.5 101.5q219 0 350 -125q26 24 54 51t46 44t25 24l25 -31q-42 -33 -125 -110q108 -120 108 -295z
" />
    <glyph glyph-name="Ugrave" unicode="&#xd9;" horiz-adv-x="1257" 
d="M1139 682q-15 -57 -31.5 -129.5t-22.5 -97.5q-55 -206 -202 -340.5t-346 -134.5q-206 0 -310 85t-104 240q0 71 57 293q103 414 110 496q5 61 -20 73q-8 4 -24 7l-68 10l12 45h596l-10 -45l-106 -15q-51 -7 -82.5 -97.5t-141.5 -534.5q-26 -114 -26 -181
q0 -131 70.5 -187t216.5 -56q122 0 175 60t99 249q61 241 89 381.5t27 219.5t-21 106t-66 38l-80 17l10 45h477l-10 -45l-76 -17q-23 -7 -36.5 -18t-28.5 -34.5t-32.5 -81.5t-38.5 -134.5t-56 -216.5zM655 1630q90 25 250 58q55 -191 135 -385l-28 -5q-196 150 -361 318z
" />
    <glyph glyph-name="Uacute" unicode="&#xda;" horiz-adv-x="1257" 
d="M1139 682q-15 -57 -31.5 -129.5t-22.5 -97.5q-55 -206 -202 -340.5t-346 -134.5q-206 0 -310 85t-104 240q0 71 57 293q103 414 110 496q5 61 -20 73q-8 4 -24 7l-68 10l12 45h596l-10 -45l-106 -15q-51 -7 -82.5 -97.5t-141.5 -534.5q-26 -114 -26 -181
q0 -131 70.5 -187t216.5 -56q122 0 175 60t99 249q61 241 89 381.5t27 219.5t-21 106t-66 38l-80 17l10 45h477l-10 -45l-76 -17q-23 -7 -36.5 -18t-28.5 -34.5t-32.5 -81.5t-38.5 -134.5t-56 -216.5zM1247 1630l-2 -14q-272 -184 -512 -318l-26 5q190 236 282 385
q26 -6 78.5 -16.5t97 -20.5t82.5 -21z" />
    <glyph glyph-name="Ucircumflex" unicode="&#xdb;" horiz-adv-x="1257" 
d="M1139 682q-15 -57 -31.5 -129.5t-22.5 -97.5q-55 -206 -202 -340.5t-346 -134.5q-206 0 -310 85t-104 240q0 71 57 293q103 414 110 496q5 61 -20 73q-8 4 -24 7l-68 10l12 45h596l-10 -45l-106 -15q-51 -7 -82.5 -97.5t-141.5 -534.5q-26 -114 -26 -181
q0 -131 70.5 -187t216.5 -56q122 0 175 60t99 249q61 241 89 381.5t27 219.5t-21 106t-66 38l-80 17l10 45h477l-10 -45l-76 -17q-23 -7 -36.5 -18t-28.5 -34.5t-32.5 -81.5t-38.5 -134.5t-56 -216.5zM979 1675q105 -189 223 -346l-39 -6q-121 54 -248 141
q-172 -89 -327 -141l-35 6q221 178 397 346h29z" />
    <glyph glyph-name="Udieresis" unicode="&#xdc;" horiz-adv-x="1257" 
d="M1139 682q-15 -57 -31.5 -129.5t-22.5 -97.5q-55 -206 -202 -340.5t-346 -134.5q-206 0 -310 85t-104 240q0 71 57 293q103 414 110 496q5 61 -20 73q-8 4 -24 7l-68 10l12 45h596l-10 -45l-106 -15q-51 -7 -82.5 -97.5t-141.5 -534.5q-26 -114 -26 -181
q0 -131 70.5 -187t216.5 -56q122 0 175 60t99 249q61 241 89 381.5t27 219.5t-21 106t-66 38l-80 17l10 45h477l-10 -45l-76 -17q-23 -7 -36.5 -18t-28.5 -34.5t-32.5 -81.5t-38.5 -134.5t-56 -216.5zM770 1612q55 0 84 -28.5t29 -80.5q0 -64 -46 -106.5t-108 -42.5
q-55 0 -84 27.5t-29 78.5q0 64 46 108t108 44zM1108 1612q55 0 84 -28.5t29 -80.5q0 -64 -46 -106.5t-108 -42.5q-55 0 -84 27.5t-29 78.5q0 64 46 108t108 44z" />
    <glyph glyph-name="Yacute" unicode="&#xdd;" horiz-adv-x="1310" 
d="M870 0h-694l10 45l113 21q75 15 104 79.5t107 380.5q-7 16 -47 109.5t-57 132.5q-96 221 -138.5 302t-81.5 101l-22 13l12 45h596l-10 -45l-72 -6q-52 -6 -76 -20t-24 -42q0 -51 68 -228t130 -315q125 159 216.5 310.5t91.5 210.5q0 35 -24.5 53t-80.5 27l-86 10l10 45
h560l-9 -45l-24 -6q-47 -12 -169.5 -136.5t-479.5 -509.5q-44 -175 -62.5 -260.5t-17 -134.5t14.5 -58t50 -16l103 -18zM1229 1630l-2 -14q-272 -184 -512 -318l-27 5q195 241 283 385q26 -6 78.5 -16.5t97 -20.5t82.5 -21z" />
    <glyph glyph-name="Thorn" unicode="&#xde;" horiz-adv-x="1128" 
d="M563 358q118 0 197.5 101t79.5 254q0 200 -183 200q-47 0 -94 -6q-35 -137 -67 -270q-13 -49 -25.5 -98.5t-25 -100.5t-17.5 -73q75 -7 135 -7zM201 594q105 426 114 502q6 58 -16 69q-6 2 -16 4l-93 15l13 47h598l-8 -39l-107 -16q-31 -3 -51 -42t-57 -176h184
q107 0 180 -18t111 -53.5t53.5 -78t15.5 -101.5q0 -186 -127 -319.5t-305 -133.5q-136 0 -270 72q-29 -122 -36.5 -177.5t-1 -71.5t29.5 -22l92 -16l-8 -37h-600l10 45l106 19q41 7 69.5 87t119.5 441z" />
    <glyph glyph-name="germandbls" unicode="&#xdf;" horiz-adv-x="1081" 
d="M743 57q50 0 79.5 34.5t29.5 84.5q0 44 -25.5 89t-64 80.5t-83.5 76t-83.5 76.5t-64 82t-25.5 92q0 159 239 262q83 34 117.5 74.5t34.5 107.5q0 81 -49 130.5t-150 49.5q-91 0 -139.5 -43t-69.5 -131q-30 -108 -111 -634t-112 -629q-35 -108 -144 -161.5t-300 -62.5
l-2 43q60 12 94.5 48.5t52.5 101.5q48 180 132.5 619.5t86.5 449.5q30 130 142 246.5t259 183t283 66.5q140 0 202.5 -48t62.5 -139q0 -90 -76 -163t-207 -113q-86 -26 -116.5 -50t-30.5 -63q0 -36 35 -75t84.5 -78t99.5 -82t85 -101t35 -121q0 -75 -30.5 -144t-84 -121.5
t-131.5 -83.5t-167 -31q-115 0 -168 53t-53 133q0 73 49 147l10 2q59 -106 134 -182t140 -76z" />
    <glyph glyph-name="agrave" unicode="&#xe0;" horiz-adv-x="1060" 
d="M858 246q0 -49 29 -49q40 0 119 110l22 -33q-42 -65 -79 -113t-79.5 -91.5t-86.5 -66.5t-87 -23q-54 0 -84 39.5t-30 117.5q0 148 123 613l-13 4q-148 -407 -267.5 -592t-219.5 -185q-79 0 -139 70.5t-60 194.5q0 95 29.5 191.5t85.5 189t145 171t200.5 134.5t261 82
t316.5 12q-69 -221 -127.5 -453t-58.5 -323zM424 1436q77 22 250 57q55 -191 135 -385l-29 -4q-196 150 -360 317zM346 188q31 0 64.5 33t80 117t110.5 240t147 391q-85 -22 -160.5 -75t-129.5 -122t-93.5 -150t-58.5 -162.5t-19 -154.5q0 -117 59 -117z" />
    <glyph glyph-name="aacute" unicode="&#xe1;" horiz-adv-x="1060" 
d="M858 246q0 -49 29 -49q40 0 119 110l22 -33q-42 -65 -79 -113t-79.5 -91.5t-86.5 -66.5t-87 -23q-54 0 -84 39.5t-30 117.5q0 148 123 613l-13 4q-148 -407 -267.5 -592t-219.5 -185q-79 0 -139 70.5t-60 194.5q0 95 29.5 191.5t85.5 189t145 171t200.5 134.5t261 82
t316.5 12q-69 -221 -127.5 -453t-58.5 -323zM1016 1436l-2 -15q-264 -178 -512 -317l-27 4q195 241 283 385q7 -2 107 -22t151 -35zM346 188q31 0 64.5 33t80 117t110.5 240t147 391q-85 -22 -160.5 -75t-129.5 -122t-93.5 -150t-58.5 -162.5t-19 -154.5q0 -117 59 -117z
" />
    <glyph glyph-name="acircumflex" unicode="&#xe2;" horiz-adv-x="1060" 
d="M858 246q0 -49 29 -49q40 0 119 110l22 -33q-42 -65 -79 -113t-79.5 -91.5t-86.5 -66.5t-87 -23q-54 0 -84 39.5t-30 117.5q0 148 123 613l-13 4q-148 -407 -267.5 -592t-219.5 -185q-79 0 -139 70.5t-60 194.5q0 95 29.5 191.5t85.5 189t145 171t200.5 134.5t261 82
t316.5 12q-69 -221 -127.5 -453t-58.5 -323zM748 1481q105 -189 223 -346l-39 -7q-117 52 -248 142q-176 -90 -328 -142l-34 7q221 178 397 346h29zM346 188q31 0 64.5 33t80 117t110.5 240t147 391q-85 -22 -160.5 -75t-129.5 -122t-93.5 -150t-58.5 -162.5t-19 -154.5
q0 -117 59 -117z" />
    <glyph glyph-name="atilde" unicode="&#xe3;" horiz-adv-x="1060" 
d="M858 246q0 -49 29 -49q40 0 119 110l22 -33q-42 -65 -79 -113t-79.5 -91.5t-86.5 -66.5t-87 -23q-54 0 -84 39.5t-30 117.5q0 148 123 613l-13 4q-148 -407 -267.5 -592t-219.5 -185q-79 0 -139 70.5t-60 194.5q0 95 29.5 191.5t85.5 189t145 171t200.5 134.5t261 82
t316.5 12q-69 -221 -127.5 -453t-58.5 -323zM598 1456q39 0 75 -18t63.5 -43.5t53 -51t53 -43.5t54.5 -18q43 0 73 37.5t62 122.5h31q-20 -64 -42.5 -113t-55 -94t-76 -69.5t-96.5 -24.5q-41 0 -78 18t-65 43.5t-53 51t-52 43.5t-53 18q-44 0 -75 -37t-63 -121h-30
q16 50 32.5 90t41 80.5t52.5 67.5t66 44t82 17zM346 188q31 0 64.5 33t80 117t110.5 240t147 391q-85 -22 -160.5 -75t-129.5 -122t-93.5 -150t-58.5 -162.5t-19 -154.5q0 -117 59 -117z" />
    <glyph glyph-name="adieresis" unicode="&#xe4;" horiz-adv-x="1060" 
d="M858 246q0 -49 29 -49q40 0 119 110l22 -33q-42 -65 -79 -113t-79.5 -91.5t-86.5 -66.5t-87 -23q-54 0 -84 39.5t-30 117.5q0 148 123 613l-13 4q-148 -407 -267.5 -592t-219.5 -185q-79 0 -139 70.5t-60 194.5q0 95 29.5 191.5t85.5 189t145 171t200.5 134.5t261 82
t316.5 12q-69 -221 -127.5 -453t-58.5 -323zM541 1417q55 0 83.5 -28t28.5 -80q0 -64 -45.5 -107t-107.5 -43q-55 0 -84 28t-29 79q0 64 46 107.5t108 43.5zM879 1417q55 0 83.5 -28t28.5 -80q0 -64 -45.5 -107t-107.5 -43q-55 0 -84 28t-29 79q0 64 46 107.5t108 43.5z
M346 188q31 0 64.5 33t80 117t110.5 240t147 391q-85 -22 -160.5 -75t-129.5 -122t-93.5 -150t-58.5 -162.5t-19 -154.5q0 -117 59 -117z" />
    <glyph glyph-name="aring" unicode="&#xe5;" horiz-adv-x="1060" 
d="M858 246q0 -49 29 -49q40 0 119 110l22 -33q-42 -65 -79 -113t-79.5 -91.5t-86.5 -66.5t-87 -23q-54 0 -84 39.5t-30 117.5q0 148 123 613l-13 4q-148 -407 -267.5 -592t-219.5 -185q-79 0 -139 70.5t-60 194.5q0 95 29.5 191.5t85.5 189t145 171t200.5 134.5t261 82
t316.5 12q-69 -221 -127.5 -453t-58.5 -323zM672 1194q56 0 97.5 36t41.5 99q0 44 -25.5 70t-76.5 26q-57 0 -98.5 -36.5t-41.5 -100.5q0 -43 25.5 -68.5t77.5 -25.5zM717 1491q76 0 119 -42.5t43 -109.5q0 -94 -61.5 -151.5t-151.5 -57.5q-78 0 -121 41t-43 107
q0 95 62.5 154t152.5 59zM346 188q31 0 64.5 33t80 117t110.5 240t147 391q-85 -22 -160.5 -75t-129.5 -122t-93.5 -150t-58.5 -162.5t-19 -154.5q0 -117 59 -117z" />
    <glyph glyph-name="ae" unicode="&#xe6;" horiz-adv-x="1484" 
d="M1169 946q-71 0 -140 -103t-99 -247q159 51 250.5 125t91.5 141q0 34 -29.5 59t-73.5 25zM1018 1022q-47 -142 -82 -289l14 -4q56 164 138 234.5t192 70.5q103 0 160 -48.5t57 -119.5q0 -107 -145.5 -180.5t-425.5 -110.5q-13 -70 -13 -135q0 -129 52 -190.5t135 -61.5
q72 0 148 55.5t143 164.5l28 -19q-75 -176 -199 -292.5t-274 -116.5q-65 0 -122 19t-104 57.5t-74.5 105.5t-27.5 155q0 118 89 431l-13 4q-282 -775 -489 -775q-79 0 -139 70.5t-60 194.5q0 114 41 229.5t126.5 221.5t203.5 185t284.5 119t356.5 25zM346 188q31 0 64.5 33
t80 117t110.5 240t147 391q-85 -22 -160.5 -75t-129.5 -122t-93.5 -150t-58.5 -162.5t-19 -154.5q0 -117 59 -117z" />
    <glyph glyph-name="ccedilla" unicode="&#xe7;" horiz-adv-x="903" 
d="M846 637h-12q-79 177 -136.5 260.5t-109.5 83.5q-59 0 -117 -84.5t-94.5 -212.5t-36.5 -250q0 -115 49 -180.5t129 -65.5q161 0 279 220l28 -19q-37 -85 -82 -155.5t-101.5 -129t-126 -91.5t-144.5 -33q-33 0 -78 10l-51 -96q80 22 170 22q80 0 117 -19.5t30 -60.5
q-12 -69 -145 -105t-365 -36l4 31q157 15 219 36.5t70 61.5q4 25 -11 36t-52 11t-86 -6l83 129q-100 32 -165.5 125t-65.5 225q0 102 28 202t82.5 188t129.5 155t176.5 106t214.5 39q121 0 180 -55t59 -139q0 -86 -69 -203z" />
    <glyph glyph-name="egrave" unicode="&#xe8;" horiz-adv-x="911" 
d="M602 981q-74 0 -145 -114.5t-101 -270.5q160 51 251 125t91 141q0 47 -28 83t-68 36zM924 864q0 -105 -145.5 -178.5t-426.5 -110.5q-12 -67 -12 -135q0 -129 52 -190.5t134 -61.5q72 0 148 55.5t141 164.5l31 -19q-75 -176 -199 -292.5t-274 -116.5q-134 0 -231 99.5
t-97 264.5q0 105 27.5 205.5t83.5 188t133 154t182.5 104.5t226.5 38q103 0 164.5 -49.5t61.5 -120.5zM432 1436q77 22 250 57q55 -191 135 -385l-29 -4q-196 150 -360 317z" />
    <glyph glyph-name="eacute" unicode="&#xe9;" horiz-adv-x="911" 
d="M602 981q-74 0 -145 -114.5t-101 -270.5q160 51 251 125t91 141q0 47 -28 83t-68 36zM924 864q0 -105 -145.5 -178.5t-426.5 -110.5q-12 -67 -12 -135q0 -129 52 -190.5t134 -61.5q72 0 148 55.5t141 164.5l31 -19q-75 -176 -199 -292.5t-274 -116.5q-134 0 -231 99.5
t-97 264.5q0 105 27.5 205.5t83.5 188t133 154t182.5 104.5t226.5 38q103 0 164.5 -49.5t61.5 -120.5zM1024 1436l-2 -15q-264 -178 -512 -317l-27 4q195 241 283 385q7 -2 107 -22t151 -35z" />
    <glyph glyph-name="ecircumflex" unicode="&#xea;" horiz-adv-x="911" 
d="M602 981q-74 0 -145 -114.5t-101 -270.5q160 51 251 125t91 141q0 47 -28 83t-68 36zM924 864q0 -105 -145.5 -178.5t-426.5 -110.5q-12 -67 -12 -135q0 -129 52 -190.5t134 -61.5q72 0 148 55.5t141 164.5l31 -19q-75 -176 -199 -292.5t-274 -116.5q-134 0 -231 99.5
t-97 264.5q0 105 27.5 205.5t83.5 188t133 154t182.5 104.5t226.5 38q103 0 164.5 -49.5t61.5 -120.5zM756 1481q105 -189 223 -346l-39 -7q-117 52 -248 142q-178 -91 -327 -142l-35 7q221 178 397 346h29z" />
    <glyph glyph-name="edieresis" unicode="&#xeb;" horiz-adv-x="911" 
d="M602 981q-74 0 -145 -114.5t-101 -270.5q160 51 251 125t91 141q0 47 -28 83t-68 36zM924 864q0 -105 -145.5 -178.5t-426.5 -110.5q-12 -67 -12 -135q0 -129 52 -190.5t134 -61.5q72 0 148 55.5t141 164.5l31 -19q-75 -176 -199 -292.5t-274 -116.5q-134 0 -231 99.5
t-97 264.5q0 105 27.5 205.5t83.5 188t133 154t182.5 104.5t226.5 38q103 0 164.5 -49.5t61.5 -120.5zM549 1417q55 0 84 -28t29 -80q0 -64 -46 -107t-108 -43q-55 0 -84 28t-29 79q0 64 46 107.5t108 43.5zM887 1417q55 0 83.5 -28t28.5 -80q0 -64 -45.5 -107t-107.5 -43
q-55 0 -84 28t-29 79q0 64 46 107.5t108 43.5z" />
    <glyph glyph-name="igrave" unicode="&#xec;" horiz-adv-x="573" 
d="M510 864q0 -72 -36.5 -205t-73 -253t-35.5 -162q0 -47 28 -47q38 0 117 110l22 -31q-90 -139 -169.5 -217.5t-161.5 -78.5q-62 0 -97.5 40t-35.5 119q0 80 76.5 326.5t76.5 310.5q0 41 -31 41q-39 0 -116 -110l-23 34q87 136 167.5 214.5t162.5 78.5q60 0 94.5 -43
t34.5 -127zM209 1434q35 11 71 20.5t86 21t68 15.5q81 -214 180 -383l-26 -4q-188 134 -381 315z" />
    <glyph glyph-name="iacute" unicode="&#xed;" horiz-adv-x="573" 
d="M510 864q0 -72 -36.5 -205t-73 -253t-35.5 -162q0 -47 28 -47q38 0 117 110l22 -31q-90 -139 -169.5 -217.5t-161.5 -78.5q-62 0 -97.5 40t-35.5 119q0 80 76.5 326.5t76.5 310.5q0 41 -31 41q-39 0 -116 -110l-23 34q87 136 167.5 214.5t162.5 78.5q60 0 94.5 -43
t34.5 -127zM758 1434l-4 -15q-242 -183 -459 -315l-25 4q158 213 260 383q24 -6 70 -16t85 -20t73 -21z" />
    <glyph glyph-name="icircumflex" unicode="&#xee;" horiz-adv-x="573" 
d="M510 864q0 -72 -36.5 -205t-73 -253t-35.5 -162q0 -47 28 -47q38 0 117 110l22 -31q-90 -139 -169.5 -217.5t-161.5 -78.5q-62 0 -97.5 40t-35.5 119q0 80 76.5 326.5t76.5 310.5q0 41 -31 41q-39 0 -116 -110l-23 34q87 136 167.5 214.5t162.5 78.5q60 0 94.5 -43
t34.5 -127zM524 1466q64 -161 158 -329l-33 -7q-101 56 -184 125q-124 -73 -252 -125l-31 7q158 150 322 329h20z" />
    <glyph glyph-name="idieresis" unicode="&#xef;" horiz-adv-x="573" 
d="M510 864q0 -72 -36.5 -205t-73 -253t-35.5 -162q0 -47 28 -47q38 0 117 110l22 -31q-90 -139 -169.5 -217.5t-161.5 -78.5q-62 0 -97.5 40t-35.5 119q0 80 76.5 326.5t76.5 310.5q0 41 -31 41q-39 0 -116 -110l-23 34q87 136 167.5 214.5t162.5 78.5q60 0 94.5 -43
t34.5 -127zM338 1389q47 0 72.5 -25t25.5 -68q0 -58 -39.5 -95.5t-91.5 -37.5q-49 0 -73.5 24t-24.5 68q0 57 39.5 95.5t91.5 38.5zM621 1389q47 0 72.5 -25t25.5 -68q0 -58 -39.5 -95.5t-91.5 -37.5q-49 0 -74 24t-25 68q0 57 39.5 95.5t92.5 38.5z" />
    <glyph glyph-name="eth" unicode="&#xf0;" horiz-adv-x="1040" 
d="M588 954q-60 0 -121 -112t-99 -269.5t-38 -291.5q0 -114 38.5 -181t102.5 -67q44 0 90.5 60t82 156t58.5 225t23 259q0 95 -37 158t-100 63zM401 -20q-70 0 -131 20.5t-111 61.5t-79 112.5t-29 165.5q0 185 69.5 337t193 239.5t276.5 87.5q77 0 127 -31q-51 120 -135 201
q-112 -52 -254 -123l-17 32q86 37 250 111q-118 106 -307 178l8 31q268 -29 443 -141q130 64 196 96l17 -33q-92 -39 -185 -82q268 -189 268 -561q0 -196 -73.5 -355.5t-211.5 -253t-315 -93.5z" />
    <glyph glyph-name="ntilde" unicode="&#xf1;" horiz-adv-x="1126" 
d="M494 862q0 -34 -8.5 -85t-28 -127.5t-31.5 -121t-40.5 -142.5t-33.5 -116l13 -4q150 412 276.5 590t255.5 178q82 0 127 -52t45 -136q0 -70 -40.5 -200.5t-81 -248.5t-40.5 -157q0 -20 8.5 -31.5t22.5 -11.5q41 0 117 110l22 -33q-87 -136 -168.5 -215t-163.5 -79
q-63 0 -99 43t-36 127q0 73 42.5 198.5t85 245.5t42.5 178q0 23 -12 36t-31 13q-185 0 -442 -821h-291q66 192 140.5 451.5t74.5 324.5q0 41 -29 41q-39 0 -116 -110l-25 32q89 138 169.5 216.5t162.5 78.5q53 0 83 -43.5t30 -128.5zM674 1456q39 0 75 -18t63.5 -43.5
t53 -51t53 -43.5t54.5 -18q43 0 73 37.5t62 122.5h31q-20 -64 -43 -113t-55 -94t-76 -69.5t-97 -24.5q-41 0 -78 18t-65 43.5t-53 51t-52 43.5t-53 18q-44 0 -74.5 -37t-62.5 -121h-31q21 64 43.5 112t55 93.5t77 69.5t99.5 24z" />
    <glyph glyph-name="ograve" unicode="&#xf2;" horiz-adv-x="1046" 
d="M401 -20q-70 0 -131 20.5t-111 61.5t-79 112.5t-29 165.5q0 195 73 352.5t210.5 249.5t314.5 92q70 0 131 -20.5t111 -61.5t79 -112.5t29 -165.5q0 -192 -73 -349.5t-210.5 -251t-314.5 -93.5zM584 983q-61 0 -123 -121t-100.5 -290.5t-38.5 -311.5q0 -105 41.5 -166
t111.5 -61q36 0 74 39t71 109.5t59 160t41 198t15 216.5q0 96 -41.5 161.5t-109.5 65.5zM449 1436q80 22 249 57q53 -182 136 -385l-29 -4q-200 153 -361 317z" />
    <glyph glyph-name="oacute" unicode="&#xf3;" horiz-adv-x="1046" 
d="M401 -20q-70 0 -131 20.5t-111 61.5t-79 112.5t-29 165.5q0 195 73 352.5t210.5 249.5t314.5 92q70 0 131 -20.5t111 -61.5t79 -112.5t29 -165.5q0 -192 -73 -349.5t-210.5 -251t-314.5 -93.5zM584 983q-61 0 -123 -121t-100.5 -290.5t-38.5 -311.5q0 -105 41.5 -166
t111.5 -61q36 0 74 39t71 109.5t59 160t41 198t15 216.5q0 96 -41.5 161.5t-109.5 65.5zM1040 1436l-2 -15q-264 -178 -512 -317l-26 4q190 236 282 385q7 -2 107 -22t151 -35z" />
    <glyph glyph-name="ocircumflex" unicode="&#xf4;" horiz-adv-x="1046" 
d="M584 983q-61 0 -123 -121t-100.5 -290.5t-38.5 -311.5q0 -105 41.5 -166t111.5 -61q36 0 74 39t71 109.5t59 160t41 198t15 216.5q0 96 -41.5 161.5t-109.5 65.5zM401 -20q-70 0 -131 20.5t-111 61.5t-79 112.5t-29 165.5q0 195 73 352.5t210.5 249.5t314.5 92
q70 0 131 -20.5t111 -61.5t79 -112.5t29 -165.5q0 -192 -73 -349.5t-210.5 -251t-314.5 -93.5zM772 1481q105 -189 223 -346l-39 -7q-114 50 -247 142q-176 -90 -328 -142l-35 7q221 178 397 346h29z" />
    <glyph glyph-name="otilde" unicode="&#xf5;" horiz-adv-x="1046" 
d="M401 -20q-70 0 -131 20.5t-111 61.5t-79 112.5t-29 165.5q0 195 73 352.5t210.5 249.5t314.5 92q70 0 131 -20.5t111 -61.5t79 -112.5t29 -165.5q0 -192 -73 -349.5t-210.5 -251t-314.5 -93.5zM584 983q-61 0 -123 -121t-100.5 -290.5t-38.5 -311.5q0 -105 41.5 -166
t111.5 -61q36 0 74 39t71 109.5t59 160t41 198t15 216.5q0 96 -41.5 161.5t-109.5 65.5zM623 1456q39 0 75 -18t63.5 -43.5t53 -51t53 -43.5t54.5 -18q43 0 73 37.5t62 122.5h30q-20 -64 -42.5 -113t-55 -94t-76 -69.5t-96.5 -24.5q-41 0 -78 18t-65 43.5t-53 51t-52 43.5
t-53 18q-44 0 -74.5 -37t-62.5 -121h-31q21 64 43.5 112t55 93.5t77 69.5t99.5 24z" />
    <glyph glyph-name="odieresis" unicode="&#xf6;" horiz-adv-x="1046" 
d="M401 -20q-70 0 -131 20.5t-111 61.5t-79 112.5t-29 165.5q0 195 73 352.5t210.5 249.5t314.5 92q70 0 131 -20.5t111 -61.5t79 -112.5t29 -165.5q0 -192 -73 -349.5t-210.5 -251t-314.5 -93.5zM584 983q-61 0 -123 -121t-100.5 -290.5t-38.5 -311.5q0 -105 41.5 -166
t111.5 -61q36 0 74 39t71 109.5t59 160t41 198t15 216.5q0 96 -41.5 161.5t-109.5 65.5zM565 1417q55 0 84 -28t29 -80q0 -64 -46 -107t-108 -43q-55 0 -83.5 27.5t-28.5 79.5q0 64 45.5 107.5t107.5 43.5zM903 1417q55 0 84 -28t29 -80q0 -64 -46 -107t-108 -43
q-55 0 -83.5 27.5t-28.5 79.5q0 64 45.5 107.5t107.5 43.5z" />
    <glyph glyph-name="divide" unicode="&#xf7;" horiz-adv-x="960" 
d="M102 745q127 -6 430 -6q304 0 435 6l-43 -176q-125 6 -428 6q-304 0 -437 -6zM578 854q-52 0 -80.5 29t-28.5 82q0 67 39 101t106 34q115 0 115 -109q0 -65 -42 -101t-109 -36zM420 215q-52 0 -80.5 28.5t-28.5 82.5q0 67 39.5 101t106.5 34q114 0 114 -109
q0 -65 -42 -101t-109 -36z" />
    <glyph glyph-name="oslash" unicode="&#xf8;" horiz-adv-x="1046" 
d="M0 16q28 24 109 105q-58 86 -58 219q0 195 73 352.5t210.5 249.5t314.5 92q168 0 264 -102q98 98 105 106l24 -28q-2 -2 -108 -103q65 -90 65 -233q0 -192 -73 -349.5t-210.5 -251t-314.5 -93.5q-181 0 -274 116q-71 -74 -100 -108zM475 33q45 0 91 59t82.5 154.5
t60.5 224.5t26 260q-43 -48 -413 -459v-12q0 -105 41.5 -166t111.5 -61zM584 983q-57 0 -115.5 -107.5t-97.5 -262t-47 -296.5q78 88 226 250t185 203q-5 91 -45.5 152t-105.5 61z" />
    <glyph glyph-name="ugrave" unicode="&#xf9;" horiz-adv-x="1116" 
d="M625 139q0 19 3 44.5t9.5 59t12.5 62t18 73.5t19 72t21.5 79t20.5 73t22 74.5t19 64.5l-12 4q-151 -412 -278 -588.5t-257 -176.5q-82 0 -126 51.5t-44 136.5q0 69 41.5 198t83 247.5t41.5 162.5q0 41 -29 41q-41 0 -118 -108l-23 32q87 135 168.5 214t163.5 79
q62 0 96.5 -43t34.5 -129q0 -72 -42.5 -197.5t-85 -245.5t-42.5 -177q0 -22 12 -35.5t31 -13.5q183 0 440 821h287q-72 -222 -138.5 -460t-66.5 -308q0 -47 29 -47q43 0 117 110l22 -33q-87 -138 -167.5 -217t-162.5 -79q-56 0 -88 40t-32 119zM481 1436q77 22 250 57
q55 -191 135 -385l-28 -4q-200 153 -361 317z" />
    <glyph glyph-name="uacute" unicode="&#xfa;" horiz-adv-x="1116" 
d="M625 139q0 19 3 44.5t9.5 59t12.5 62t18 73.5t19 72t21.5 79t20.5 73t22 74.5t19 64.5l-12 4q-151 -412 -278 -588.5t-257 -176.5q-82 0 -126 51.5t-44 136.5q0 69 41.5 198t83 247.5t41.5 162.5q0 41 -29 41q-41 0 -118 -108l-23 32q87 135 168.5 214t163.5 79
q62 0 96.5 -43t34.5 -129q0 -72 -42.5 -197.5t-85 -245.5t-42.5 -177q0 -22 12 -35.5t31 -13.5q183 0 440 821h287q-72 -222 -138.5 -460t-66.5 -308q0 -47 29 -47q43 0 117 110l22 -33q-87 -138 -167.5 -217t-162.5 -79q-56 0 -88 40t-32 119zM1073 1436l-2 -15
q-264 -178 -512 -317l-27 4q195 241 283 385q7 -2 107 -22t151 -35z" />
    <glyph glyph-name="ucircumflex" unicode="&#xfb;" horiz-adv-x="1116" 
d="M625 139q0 19 3 44.5t9.5 59t12.5 62t18 73.5t19 72t21.5 79t20.5 73t22 74.5t19 64.5l-12 4q-151 -412 -278 -588.5t-257 -176.5q-82 0 -126 51.5t-44 136.5q0 69 41.5 198t83 247.5t41.5 162.5q0 41 -29 41q-41 0 -118 -108l-23 32q87 135 168.5 214t163.5 79
q62 0 96.5 -43t34.5 -129q0 -72 -42.5 -197.5t-85 -245.5t-42.5 -177q0 -22 12 -35.5t31 -13.5q183 0 440 821h287q-72 -222 -138.5 -460t-66.5 -308q0 -47 29 -47q43 0 117 110l22 -33q-87 -138 -167.5 -217t-162.5 -79q-56 0 -88 40t-32 119zM805 1481q105 -189 223 -346
l-39 -7q-117 52 -248 142q-178 -91 -327 -142l-35 7q221 178 397 346h29z" />
    <glyph glyph-name="udieresis" unicode="&#xfc;" horiz-adv-x="1116" 
d="M625 139q0 19 3 44.5t9.5 59t12.5 62t18 73.5t19 72t21.5 79t20.5 73t22 74.5t19 64.5l-12 4q-151 -412 -278 -588.5t-257 -176.5q-82 0 -126 51.5t-44 136.5q0 69 41.5 198t83 247.5t41.5 162.5q0 41 -29 41q-41 0 -118 -108l-23 32q87 135 168.5 214t163.5 79
q62 0 96.5 -43t34.5 -129q0 -72 -42.5 -197.5t-85 -245.5t-42.5 -177q0 -22 12 -35.5t31 -13.5q183 0 440 821h287q-72 -222 -138.5 -460t-66.5 -308q0 -47 29 -47q43 0 117 110l22 -33q-87 -138 -167.5 -217t-162.5 -79q-56 0 -88 40t-32 119zM598 1417q55 0 84 -28t29 -80
q0 -64 -46 -107t-108 -43q-55 0 -84 28t-29 79q0 64 46 107.5t108 43.5zM936 1417q55 0 84 -28t29 -80q0 -64 -46 -107t-108 -43q-55 0 -84 28t-29 79q0 64 46 107.5t108 43.5z" />
    <glyph glyph-name="yacute" unicode="&#xfd;" horiz-adv-x="1081" 
d="M512 862q0 -64 -44 -184t-88 -236.5t-44 -171.5q0 -21 12 -34t31 -13q30 0 59.5 16t71.5 66.5t86 134t101.5 230t119.5 344.5h305q-145 -466 -204 -733q-30 -121 -107.5 -238.5t-178 -205.5t-220.5 -142.5t-230 -54.5q-133 0 -195.5 66.5t-13.5 203.5q237 -59 478 -72
q101 -3 143.5 33.5t56.5 153.5q5 49 9.5 157t9.5 156q6 102 92 424l-12 4q-150 -413 -275.5 -585.5t-255.5 -172.5q-83 0 -127.5 52t-44.5 137q0 70 43 191t86 232t43 156q0 41 -29 41q-40 0 -118 -108l-23 32q87 135 168.5 214t163.5 79q62 0 96.5 -43t34.5 -129z
M1047 1436l-3 -15q-264 -178 -512 -317l-26 4q190 236 282 385q9 -2 108.5 -22t150.5 -35z" />
    <glyph glyph-name="thorn" unicode="&#xfe;" horiz-adv-x="1052" 
d="M387 31q63 0 123 54.5t103 138t75.5 180t49 183t16.5 144.5q0 90 -60 90q-70 0 -177 -188t-230 -576q58 -26 100 -26zM172 -342h-303q128 375 270 881t142 620q0 23 -8.5 36t-20.5 13q-39 0 -111 -104l-22 33q93 124 168 190t155 66q56 0 88.5 -40.5t32.5 -117.5
q0 -62 -28.5 -192t-59 -240.5t-83.5 -291.5t-70 -243l12 -4q134 392 269 581t255 189q80 0 129 -62.5t49 -170.5q0 -124 -27.5 -243.5t-82.5 -223.5t-130 -183.5t-176 -125t-214 -45.5q-56 0 -138 20q-43 -143 -96 -342z" />
    <glyph glyph-name="ydieresis" unicode="&#xff;" horiz-adv-x="1081" 
d="M512 862q0 -64 -44 -184t-88 -236.5t-44 -171.5q0 -21 12 -34t31 -13q30 0 59.5 16t71.5 66.5t86 134t101.5 230t119.5 344.5h305q-145 -466 -204 -733q-30 -121 -107.5 -238.5t-178 -205.5t-220.5 -142.5t-230 -54.5q-133 0 -195.5 66.5t-13.5 203.5q237 -59 478 -72
q101 -3 143.5 33.5t56.5 153.5q5 49 9.5 157t9.5 156q6 102 92 424l-12 4q-150 -413 -275.5 -585.5t-255.5 -172.5q-83 0 -127.5 52t-44.5 137q0 70 43 191t86 232t43 156q0 41 -29 41q-40 0 -118 -108l-23 32q87 135 168.5 214t163.5 79q62 0 96.5 -43t34.5 -129zM571 1417
q55 0 84 -28t29 -80q0 -64 -46 -107t-108 -43q-55 0 -83.5 27.5t-28.5 79.5q0 64 45.5 107.5t107.5 43.5zM909 1417q55 0 84 -28t29 -80q0 -64 -46 -107t-108 -43q-55 0 -83.5 27.5t-28.5 79.5q0 64 45.5 107.5t107.5 43.5z" />
    <glyph glyph-name="Amacron" unicode="&#x100;" horiz-adv-x="1202" 
d="M385 45l-10 -45h-514l10 45l31 14q47 19 141 153.5t437 663.5q154 238 247 381h51q10 -52 129 -593q8 -39 23 -111q55 -268 83.5 -368t69.5 -128l19 -12l-8 -45h-570l11 45l83 10q89 11 89 80q0 68 -45 324q-158 -3 -349 -10q-102 -235 -102 -318q0 -56 76 -68zM784 1405
q-44 0 -141 -1t-141 -1l28 115q205 -5 281 -5q69 0 279 5l-29 -115q-43 0 -139 1t-138 1zM649 530q-35 185 -88 402q-137 -246 -221 -426q103 -6 315 -10q-1 6 -3 17t-3 17z" />
    <glyph glyph-name="amacron" unicode="&#x101;" horiz-adv-x="1060" 
d="M858 246q0 -49 29 -49q40 0 119 110l22 -33q-42 -65 -79 -113t-79.5 -91.5t-86.5 -66.5t-87 -23q-54 0 -84 39.5t-30 117.5q0 148 123 613l-13 4q-148 -407 -267.5 -592t-219.5 -185q-79 0 -139 70.5t-60 194.5q0 95 29.5 191.5t85.5 189t145 171t200.5 134.5t261 82
t316.5 12q-69 -221 -127.5 -453t-58.5 -323zM659 1180q-44 0 -141 -1t-141 -1l29 114q164 -4 280 -4q111 0 279 4l-29 -114q-43 0 -139 1t-138 1zM346 188q31 0 64.5 33t80 117t110.5 240t147 391q-85 -22 -160.5 -75t-129.5 -122t-93.5 -150t-58.5 -162.5t-19 -154.5
q0 -117 59 -117z" />
    <glyph glyph-name="Abreve" unicode="&#x102;" horiz-adv-x="1202" 
d="M385 45l-10 -45h-514l10 45l31 14q47 19 141 153.5t437 663.5q154 238 247 381h51q10 -52 129 -593q8 -39 23 -111q55 -268 83.5 -368t69.5 -128l19 -12l-8 -45h-570l11 45l83 10q89 11 89 80q0 68 -45 324q-158 -3 -349 -10q-102 -235 -102 -318q0 -56 76 -68zM772 1360
q-138 0 -198 71t-33 226h30q-2 -47 16.5 -71t82.5 -38t190 -14q125 0 176 26.5t80 96.5h31q-26 -85 -63.5 -144t-87 -92t-103.5 -47t-121 -14zM649 530q-35 185 -88 402q-137 -246 -221 -426q103 -6 315 -10q-1 6 -3 17t-3 17z" />
    <glyph glyph-name="abreve" unicode="&#x103;" horiz-adv-x="1060" 
d="M858 246q0 -49 29 -49q40 0 119 110l22 -33q-42 -65 -79 -113t-79.5 -91.5t-86.5 -66.5t-87 -23q-54 0 -84 39.5t-30 117.5q0 148 123 613l-13 4q-148 -407 -267.5 -592t-219.5 -185q-79 0 -139 70.5t-60 194.5q0 95 29.5 191.5t85.5 189t145 171t200.5 134.5t261 82
t316.5 12q-69 -221 -127.5 -453t-58.5 -323zM647 1135q-138 0 -198 71t-33 226h30q-2 -47 16.5 -71t82.5 -38t190 -14q125 0 176 26.5t80 96.5h31q-26 -85 -63.5 -144t-87 -92t-103.5 -47t-121 -14zM346 188q31 0 64.5 33t80 117t110.5 240t147 391q-85 -22 -160.5 -75
t-129.5 -122t-93.5 -150t-58.5 -162.5t-19 -154.5q0 -117 59 -117z" />
    <glyph glyph-name="Aogonek" unicode="&#x104;" horiz-adv-x="1202" 
d="M1055 -160q-55 -53 -142 -96t-194 -43q-144 0 -144 94q0 41 35 76t97 59.5t132 41t154 28.5h-469l11 45l83 10q89 11 89 80q0 68 -45 324q-158 -3 -349 -10q-102 -235 -102 -318q0 -56 76 -68l98 -18l-10 -45h-514l10 45l31 14q47 19 141 153.5t437 663.5
q154 238 247 381h51q10 -52 129 -593q8 -39 23 -111q55 -268 83.5 -368t69.5 -128l19 -12l-8 -45h-25q-305 -56 -305 -141q0 -45 86 -45q101 0 194 51zM649 530q-35 185 -88 402q-137 -246 -221 -426q103 -6 315 -10q-1 6 -3 17t-3 17z" />
    <glyph glyph-name="aogonek" unicode="&#x105;" horiz-adv-x="1060" 
d="M346 188q31 0 64.5 33t80 117t110.5 240t147 391q-85 -22 -160.5 -75t-129.5 -122t-93.5 -150t-58.5 -162.5t-19 -154.5q0 -117 59 -117zM858 246q0 -49 29 -49q40 0 119 110l22 -33q-82 -129 -164 -208h4q-53 -51 -116 -93t-92 -63.5t-29 -46.5t19 -37t65 -12
q103 0 196 51l11 -25q-150 -139 -338 -139q-68 0 -106 22.5t-38 63.5q0 26 16.5 48t49.5 41t67 34t84 36.5t84 39.5q-21 -6 -45 -6q-54 0 -84 39.5t-30 117.5q0 148 123 613l-13 4q-148 -407 -267.5 -592t-219.5 -185q-79 0 -139 70.5t-60 194.5q0 95 29.5 191.5t85.5 189
t145 171t200.5 134.5t261 82t316.5 12q-69 -221 -127.5 -453t-58.5 -323z" />
    <glyph glyph-name="Cacute" unicode="&#x106;" horiz-adv-x="1173" 
d="M606 37q78 0 152.5 67.5t132.5 186.5l119 248h41q-28 -150 -52 -406q-114 -77 -221.5 -115t-230.5 -38q-234 0 -364 123t-130 339q0 227 97 411t274.5 290t402.5 106q214 0 383 -78q-57 -201 -120 -469h-41l-13 138q-2 47 -20 105t-49.5 114.5t-83.5 94.5t-113 38
q-83 0 -164 -87t-137 -216t-90.5 -275.5t-34.5 -265.5q0 -137 67.5 -224t194.5 -87zM1212 1651l-2 -15q-264 -178 -512 -317l-26 4q190 236 282 385q7 -2 107 -22t151 -35z" />
    <glyph glyph-name="cacute" unicode="&#x107;" horiz-adv-x="903" 
d="M846 637h-12q-79 177 -136.5 260.5t-109.5 83.5q-59 0 -117 -84.5t-94.5 -212.5t-36.5 -250q0 -115 49 -180.5t129 -65.5q161 0 279 220l28 -19q-37 -85 -82 -155.5t-101.5 -129t-126 -91.5t-144.5 -33q-132 0 -229 100t-97 264q0 102 28 202t82.5 188t129.5 155
t176.5 106t214.5 39q121 0 180 -55t59 -139q0 -86 -69 -203zM1022 1436l-2 -15q-264 -178 -512 -317l-27 4q195 241 283 385q7 -2 107 -22t151 -35z" />
    <glyph glyph-name="Ccircumflex" unicode="&#x108;" horiz-adv-x="1173" 
d="M606 37q78 0 152.5 67.5t132.5 186.5l119 248h41q-28 -150 -52 -406q-114 -77 -221.5 -115t-230.5 -38q-234 0 -364 123t-130 339q0 227 97 411t274.5 290t402.5 106q214 0 383 -78q-57 -201 -120 -469h-41l-13 138q-2 47 -20 105t-49.5 114.5t-83.5 94.5t-113 38
q-83 0 -164 -87t-137 -216t-90.5 -275.5t-34.5 -265.5q0 -137 67.5 -224t194.5 -87zM944 1696q105 -189 223 -346l-39 -7q-114 50 -247 142q-176 -90 -328 -142l-35 7q221 178 397 346h29z" />
    <glyph glyph-name="ccircumflex" unicode="&#x109;" horiz-adv-x="903" 
d="M846 637h-12q-79 177 -136.5 260.5t-109.5 83.5q-59 0 -117 -84.5t-94.5 -212.5t-36.5 -250q0 -115 49 -180.5t129 -65.5q161 0 279 220l28 -19q-37 -85 -82 -155.5t-101.5 -129t-126 -91.5t-144.5 -33q-132 0 -229 100t-97 264q0 102 28 202t82.5 188t129.5 155
t176.5 106t214.5 39q121 0 180 -55t59 -139q0 -86 -69 -203zM752 1481q105 -189 223 -346l-39 -7q-117 52 -248 142q-176 -90 -328 -142l-34 7q221 178 397 346h29z" />
    <glyph glyph-name="Cdotaccent" unicode="&#x10a;" horiz-adv-x="1173" 
d="M606 37q78 0 152.5 67.5t132.5 186.5l119 248h41q-28 -150 -52 -406q-114 -77 -221.5 -115t-230.5 -38q-234 0 -364 123t-130 339q0 227 97 411t274.5 290t402.5 106q214 0 383 -78q-57 -201 -120 -469h-41l-13 138q-2 47 -20 105t-49.5 114.5t-83.5 94.5t-113 38
q-83 0 -164 -87t-137 -216t-90.5 -275.5t-34.5 -265.5q0 -137 67.5 -224t194.5 -87zM897 1630q59 0 90 -29.5t31 -84.5q0 -69 -50 -115.5t-116 -46.5q-59 0 -90 29.5t-31 84.5q0 70 49.5 116t116.5 46z" />
    <glyph glyph-name="cdotaccent" unicode="&#x10b;" horiz-adv-x="903" 
d="M846 637h-12q-79 177 -136.5 260.5t-109.5 83.5q-59 0 -117 -84.5t-94.5 -212.5t-36.5 -250q0 -115 49 -180.5t129 -65.5q161 0 279 220l28 -19q-37 -85 -82 -155.5t-101.5 -129t-126 -91.5t-144.5 -33q-132 0 -229 100t-97 264q0 102 28 202t82.5 188t129.5 155
t176.5 106t214.5 39q121 0 180 -55t59 -139q0 -86 -69 -203zM707 1415q59 0 89.5 -30t30.5 -85q0 -69 -49.5 -115t-115.5 -46q-59 0 -90 29.5t-31 84.5q0 70 49.5 116t116.5 46z" />
    <glyph glyph-name="Ccaron" unicode="&#x10c;" horiz-adv-x="1173" 
d="M606 37q78 0 152.5 67.5t132.5 186.5l119 248h41q-28 -150 -52 -406q-114 -77 -221.5 -115t-230.5 -38q-234 0 -364 123t-130 339q0 227 97 411t274.5 290t402.5 106q214 0 383 -78q-57 -201 -120 -469h-41l-13 138q-2 47 -20 105t-49.5 114.5t-83.5 94.5t-113 38
q-83 0 -164 -87t-137 -216t-90.5 -275.5t-34.5 -265.5q0 -137 67.5 -224t194.5 -87zM819 1319q-105 189 -223 346l39 6q121 -54 248 -141q172 89 327 141l35 -6q-221 -178 -397 -346h-29z" />
    <glyph glyph-name="ccaron" unicode="&#x10d;" horiz-adv-x="903" 
d="M846 637h-12q-79 177 -136.5 260.5t-109.5 83.5q-59 0 -117 -84.5t-94.5 -212.5t-36.5 -250q0 -115 49 -180.5t129 -65.5q161 0 279 220l28 -19q-37 -85 -82 -155.5t-101.5 -129t-126 -91.5t-144.5 -33q-132 0 -229 100t-97 264q0 102 28 202t82.5 188t129.5 155
t176.5 106t214.5 39q121 0 180 -55t59 -139q0 -86 -69 -203zM629 1104q-105 189 -223 346l38 6q121 -54 248 -141q170 88 328 141l35 -6q-228 -184 -398 -346h-28z" />
    <glyph glyph-name="Dcaron" unicode="&#x10e;" horiz-adv-x="1263" 
d="M494 621q-72 -295 -94.5 -397.5t-26.5 -172.5q142 8 253.5 65t178 138.5t109.5 189t59 207t16 203.5q0 174 -72.5 251t-207.5 77q-33 0 -47 -2q-25 -40 -59 -150t-109 -409zM809 1229q465 0 465 -424q0 -162 -55 -310t-150 -257t-229 -173.5t-285 -64.5h-653l10 45l84 16
q41 7 60 34q31 42 82 239q18 68 67 262q103 415 112 495q6 62 -18 74q-7 4 -23 6l-79 13l12 45h600zM786 1298q-107 192 -223 347l39 6q117 -52 248 -142q176 90 328 142l34 -6q-214 -173 -397 -347h-29z" />
    <glyph glyph-name="dcaron" unicode="&#x10f;" horiz-adv-x="1427" 
d="M582 137q0 163 123 621l-13 4q-279 -785 -487 -785q-77 0 -136 70.5t-59 194.5q0 99 30 199t92.5 196t150.5 174.5t212 135.5t269 77q27 102 27 152q0 51 -33 51q-35 0 -111 -105l-18 33q177 238 329 238q56 0 88.5 -40.5t32.5 -119.5q0 -58 -55.5 -263.5t-110.5 -422
t-55 -301.5q0 -49 29 -49q40 0 119 110l22 -33q-42 -65 -79 -113t-79.5 -91.5t-86.5 -66.5t-87 -23q-54 0 -84 39.5t-30 117.5zM1049 700l-25 19q184 216 221 391q27 138 -53 211q68 72 151 72q115 0 84 -160q-18 -90 -78 -187.5t-130 -175t-170 -170.5zM346 188
q31 0 65.5 35t82 120.5t111 243.5t143.5 390q-107 -30 -196.5 -106t-146 -171.5t-87.5 -198.5t-31 -196q0 -117 59 -117z" />
    <glyph glyph-name="Dcroat" unicode="&#x110;" horiz-adv-x="1263" 
d="M737 600q-70 2 -248 6q-68 -280 -90 -383t-26 -172q142 8 253.5 65t178 138.5t109.5 189t59 207t16 203.5q0 174 -72.5 251t-207.5 77q-33 0 -47 -2q-24 -37 -56 -140t-106 -391q130 0 252 4zM809 1229q465 0 465 -424q0 -162 -55 -310t-150 -257t-229 -173.5t-285 -64.5
h-653l10 45l84 16q41 7 60 34q31 42 82 239q18 68 67 262l2 8q-88 0 -170 -4l12 53q82 -4 168 -4q95 380 100 454q4 53 -21 63q-7 3 -20 5l-79 13l12 45h600z" />
    <glyph glyph-name="dcroat" unicode="&#x111;" horiz-adv-x="1105" 
d="M582 137q0 148 125 621l-13 4q-281 -785 -489 -785q-77 0 -136 70.5t-59 194.5q0 97 30 195.5t92 193t149 172t211 133.5t268 76q3 11 8.5 33.5t7.5 31.5q-39 -1 -125 -2t-114 -2l8 37q27 -1 112.5 -2t124.5 -2q11 61 11 80q0 47 -35 47q-34 0 -107 -64l-14 25
q98 100 170.5 149.5t150.5 49.5q56 0 88.5 -40.5t32.5 -119.5q0 -33 -20 -125q88 0 121 2l-9 -37q-15 0 -55 1t-63 1q-18 -77 -73 -274.5t-88.5 -341.5t-33.5 -213q0 -49 29 -49q40 0 119 110l22 -33q-42 -65 -79 -113t-79.5 -91.5t-86.5 -66.5t-87 -23q-54 0 -84 39.5
t-30 117.5zM346 188q42 0 90 62t126 239.5t183 481.5q-86 -24 -161.5 -78t-128.5 -123.5t-92 -150.5t-57.5 -161.5t-18.5 -152.5q0 -117 59 -117z" />
    <glyph glyph-name="Emacron" unicode="&#x112;" horiz-adv-x="1114" 
d="M483 600q-116 -456 -125 -549q151 8 240.5 32.5t149 71.5t122.5 138l127 196h41q-89 -247 -159 -489h-983l10 45l100 18q35 6 53 34q27 43 83 260q16 60 57 223q107 432 113 518q4 57 -21 67q-7 4 -23 6l-84 13l13 45h983q-47 -214 -86 -461h-41l-29 166
q-17 69 -37.5 109.5t-63.5 72t-109.5 45.5t-174.5 19q-31 -75 -143 -533q95 4 149 20.5t86 48t66 93.5l53 111l29 -2q-29 -100 -72.5 -292t-63.5 -304h-28l-2 110q-6 96 -51 130.5t-179 41.5v-4zM774 1374q-44 0 -141 -1t-141 -1l28 115q164 -4 281 -4q110 0 278 4l-28 -115
q-43 0 -139 1t-138 1z" />
    <glyph glyph-name="emacron" unicode="&#x113;" horiz-adv-x="911" 
d="M602 981q-74 0 -145 -114.5t-101 -270.5q160 51 251 125t91 141q0 47 -28 83t-68 36zM924 864q0 -105 -145.5 -178.5t-426.5 -110.5q-12 -67 -12 -135q0 -129 52 -190.5t134 -61.5q72 0 148 55.5t141 164.5l31 -19q-75 -176 -199 -292.5t-274 -116.5q-134 0 -231 99.5
t-97 264.5q0 105 27.5 205.5t83.5 188t133 154t182.5 104.5t226.5 38q103 0 164.5 -49.5t61.5 -120.5zM668 1180q-44 0 -141.5 -1t-141.5 -1l29 114q164 -4 280 -4q111 0 279 4l-29 -114q-43 0 -138.5 1t-137.5 1z" />
    <glyph glyph-name="Ebreve" unicode="&#x114;" horiz-adv-x="1114" 
d="M483 600q-116 -456 -125 -549q151 8 240.5 32.5t149 71.5t122.5 138l127 196h41q-89 -247 -159 -489h-983l10 45l100 18q35 6 53 34q27 43 83 260q16 60 57 223q107 432 113 518q4 57 -21 67q-7 4 -23 6l-84 13l13 45h983q-47 -214 -86 -461h-41l-29 166
q-17 69 -37.5 109.5t-63.5 72t-109.5 45.5t-174.5 19q-31 -75 -143 -533q95 4 149 20.5t86 48t66 93.5l53 111l29 -2q-29 -100 -72.5 -292t-63.5 -304h-28l-2 110q-6 96 -51 130.5t-179 41.5v-4zM762 1329q-138 0 -198.5 71t-33.5 226h31q-2 -47 16.5 -71t82.5 -38t190 -14
q125 0 176 26.5t80 96.5h31q-26 -85 -63.5 -144t-87 -92t-103.5 -47t-121 -14z" />
    <glyph glyph-name="ebreve" unicode="&#x115;" horiz-adv-x="911" 
d="M602 981q-74 0 -145 -114.5t-101 -270.5q160 51 251 125t91 141q0 47 -28 83t-68 36zM924 864q0 -105 -145.5 -178.5t-426.5 -110.5q-12 -67 -12 -135q0 -129 52 -190.5t134 -61.5q72 0 148 55.5t141 164.5l31 -19q-75 -176 -199 -292.5t-274 -116.5q-134 0 -231 99.5
t-97 264.5q0 105 27.5 205.5t83.5 188t133 154t182.5 104.5t226.5 38q103 0 164.5 -49.5t61.5 -120.5zM655 1135q-138 0 -198 71t-33 226h31q-2 -47 16.5 -71t82 -38t189.5 -14q125 0 176 26.5t80 96.5h31q-26 -85 -63.5 -144t-87 -92t-103.5 -47t-121 -14z" />
    <glyph glyph-name="Edotaccent" unicode="&#x116;" horiz-adv-x="1114" 
d="M483 600q-116 -456 -125 -549q151 8 240.5 32.5t149 71.5t122.5 138l127 196h41q-89 -247 -159 -489h-983l10 45l100 18q35 6 53 34q27 43 83 260q16 60 57 223q107 432 113 518q4 57 -21 67q-7 4 -23 6l-84 13l13 45h983q-47 -214 -86 -461h-41l-29 166
q-17 69 -37.5 109.5t-63.5 72t-109.5 45.5t-174.5 19q-31 -75 -143 -533q95 4 149 20.5t86 48t66 93.5l53 111l29 -2q-29 -100 -72.5 -292t-63.5 -304h-28l-2 110q-6 96 -51 130.5t-179 41.5v-4zM815 1610q59 0 90 -30t31 -85q0 -69 -50 -115.5t-116 -46.5q-59 0 -90 30
t-31 85q0 70 49.5 116t116.5 46z" />
    <glyph glyph-name="edotaccent" unicode="&#x117;" horiz-adv-x="911" 
d="M602 981q-74 0 -145 -114.5t-101 -270.5q160 51 251 125t91 141q0 47 -28 83t-68 36zM924 864q0 -105 -145.5 -178.5t-426.5 -110.5q-12 -67 -12 -135q0 -129 52 -190.5t134 -61.5q72 0 148 55.5t141 164.5l31 -19q-75 -176 -199 -292.5t-274 -116.5q-134 0 -231 99.5
t-97 264.5q0 105 27.5 205.5t83.5 188t133 154t182.5 104.5t226.5 38q103 0 164.5 -49.5t61.5 -120.5zM709 1415q59 0 89.5 -30t30.5 -85q0 -69 -49.5 -115t-115.5 -46q-59 0 -90 29.5t-31 84.5q0 70 49.5 116t116.5 46z" />
    <glyph glyph-name="Eogonek" unicode="&#x118;" horiz-adv-x="1114" 
d="M483 600q-116 -456 -125 -549q151 8 240.5 32.5t149 71.5t122.5 138l127 196h41q-89 -247 -159 -489h-2q-306 -56 -306 -141q0 -45 86 -45q102 0 195 51l10 -25q-55 -53 -142 -96t-194 -43q-143 0 -143 94q0 41 35 76t97 59.5t132 41t154 28.5h-905l10 45l100 18
q35 6 53 34q27 43 83 260q16 60 57 223q107 432 113 518q4 57 -21 67q-7 4 -23 6l-84 13l13 45h983q-47 -214 -86 -461h-41l-29 166q-17 69 -37.5 109.5t-63.5 72t-109.5 45.5t-174.5 19q-31 -75 -143 -533q95 4 149 20.5t86 48t66 93.5l53 111l29 -2q-29 -100 -72.5 -292
t-63.5 -304h-28l-2 110q-6 96 -51 130.5t-179 41.5v-4z" />
    <glyph glyph-name="eogonek" unicode="&#x119;" horiz-adv-x="911" 
d="M602 981q-74 0 -145 -114.5t-101 -270.5q160 51 251 125t91 141q0 47 -28 83t-68 36zM924 864q0 -105 -145.5 -178.5t-426.5 -110.5q-12 -67 -12 -135q0 -129 52 -190.5t134 -61.5q72 0 148 55.5t141 164.5l31 -19q-76 -178 -197 -291q-28 -26 -70 -64t-61 -56t-41.5 -42
t-30.5 -41.5t-8 -35.5q0 -45 86 -45q102 0 195 51l10 -25q-55 -53 -142 -96t-194 -43q-145 0 -145 94q0 26 12 48.5t41 44.5t52 35.5t72 39t73 39.5q-61 -22 -125 -22q-134 0 -231 99.5t-97 264.5q0 105 27.5 205.5t83.5 188t133 154t182.5 104.5t226.5 38
q103 0 164.5 -49.5t61.5 -120.5z" />
    <glyph glyph-name="Ecaron" unicode="&#x11a;" horiz-adv-x="1114" 
d="M483 600q-116 -456 -125 -549q151 8 240.5 32.5t149 71.5t122.5 138l127 196h41q-89 -247 -159 -489h-983l10 45l100 18q35 6 53 34q27 43 83 260q16 60 57 223q107 432 113 518q4 57 -21 67q-7 4 -23 6l-84 13l13 45h983q-47 -214 -86 -461h-41l-29 166
q-17 69 -37.5 109.5t-63.5 72t-109.5 45.5t-174.5 19q-31 -75 -143 -533q95 4 149 20.5t86 48t66 93.5l53 111l29 -2q-29 -100 -72.5 -292t-63.5 -304h-28l-2 110q-6 96 -51 130.5t-179 41.5v-4zM737 1298q-107 192 -223 347l39 6q117 -52 248 -142q178 91 327 142l35 -6
q-214 -173 -397 -347h-29z" />
    <glyph glyph-name="ecaron" unicode="&#x11b;" horiz-adv-x="911" 
d="M602 981q-74 0 -145 -114.5t-101 -270.5q160 51 251 125t91 141q0 47 -28 83t-68 36zM924 864q0 -105 -145.5 -178.5t-426.5 -110.5q-12 -67 -12 -135q0 -129 52 -190.5t134 -61.5q72 0 148 55.5t141 164.5l31 -19q-75 -176 -199 -292.5t-274 -116.5q-134 0 -231 99.5
t-97 264.5q0 105 27.5 205.5t83.5 188t133 154t182.5 104.5t226.5 38q103 0 164.5 -49.5t61.5 -120.5zM631 1104q-105 189 -223 346l38 6q121 -54 248 -141q170 88 328 141l35 -6q-228 -184 -398 -346h-28z" />
    <glyph glyph-name="Gcircumflex" unicode="&#x11c;" horiz-adv-x="1232" 
d="M594 35q82 0 130 39.5t77 148.5q41 146 41 242q0 30 -16 45.5t-54 19.5l-221 29l10 39q318 -7 692 0l-8 -39l-47 -10q-35 -13 -56.5 -50t-45 -123t-66.5 -286q-136 -51 -250 -80.5t-229 -29.5q-233 0 -365.5 122.5t-132.5 337.5q0 234 97 417t279 287.5t419 104.5
q117 0 223.5 -23.5t167.5 -58.5q-21 -76 -61.5 -224t-61.5 -224h-41l-8 137q-1 44 -21.5 99.5t-56 109.5t-93.5 90.5t-124 36.5q-86 0 -165 -81.5t-132 -204.5t-86.5 -259.5t-38.5 -255.5q-11 -165 53.5 -260.5t190.5 -95.5zM926 1696q105 -189 223 -346l-39 -7
q-117 52 -248 142q-178 -91 -327 -142l-35 7q221 178 397 346h29z" />
    <glyph glyph-name="gcircumflex" unicode="&#x11d;" horiz-adv-x="1024" 
d="M-68 -90q249 -62 471 -72q98 -3 140.5 33t56.5 152q4 43 7.5 150t8.5 159q12 126 91 426l-15 4q-141 -399 -255 -581.5t-212 -182.5q-82 0 -144.5 72.5t-62.5 199.5q0 80 21 161t64.5 160t106 149.5t150 128t191 96.5t234.5 54.5t276 2.5q-103 -333 -193 -741
q-36 -163 -151.5 -312t-270 -239t-301.5 -90q-135 0 -198.5 66.5t-14.5 203.5zM752 1481q105 -189 223 -346l-39 -7q-117 52 -248 142q-176 -90 -328 -142l-34 7q221 178 397 346h29zM354 219q38 0 77.5 42.5t101.5 166.5t143 338v2q24 57 76 203q-104 -27 -193.5 -95.5
t-147 -156t-90 -182.5t-32.5 -181q0 -67 17.5 -102t47.5 -35z" />
    <glyph glyph-name="Gbreve" unicode="&#x11e;" horiz-adv-x="1232" 
d="M594 35q82 0 130 39.5t77 148.5q41 146 41 242q0 30 -16 45.5t-54 19.5l-221 29l10 39q318 -7 692 0l-8 -39l-47 -10q-35 -13 -56.5 -50t-45 -123t-66.5 -286q-136 -51 -250 -80.5t-229 -29.5q-233 0 -365.5 122.5t-132.5 337.5q0 234 97 417t279 287.5t419 104.5
q117 0 223.5 -23.5t167.5 -58.5q-21 -76 -61.5 -224t-61.5 -224h-41l-8 137q-1 44 -21.5 99.5t-56 109.5t-93.5 90.5t-124 36.5q-86 0 -165 -81.5t-132 -204.5t-86.5 -259.5t-38.5 -255.5q-11 -165 53.5 -260.5t190.5 -95.5zM827 1350q-138 0 -198 71t-33 226h31
q-2 -47 16.5 -71t82 -38t189.5 -14q125 0 176 26.5t80 96.5h31q-26 -85 -63.5 -144t-87 -92t-103.5 -47t-121 -14z" />
    <glyph glyph-name="gbreve" unicode="&#x11f;" horiz-adv-x="1024" 
d="M-68 -90q249 -62 471 -72q98 -3 140.5 33t56.5 152q4 43 7.5 150t8.5 159q12 126 91 426l-15 4q-141 -399 -255 -581.5t-212 -182.5q-82 0 -144.5 72.5t-62.5 199.5q0 80 21 161t64.5 160t106 149.5t150 128t191 96.5t234.5 54.5t276 2.5q-103 -333 -193 -741
q-36 -163 -151.5 -312t-270 -239t-301.5 -90q-135 0 -198.5 66.5t-14.5 203.5zM354 219q38 0 77.5 42.5t101.5 166.5t143 338v2q24 57 76 203q-104 -27 -193.5 -95.5t-147 -156t-90 -182.5t-32.5 -181q0 -67 17.5 -102t47.5 -35zM651 1135q-138 0 -198 71t-33 226h31
q-2 -47 16.5 -71t82 -38t189.5 -14q125 0 176 26.5t80 96.5h31q-26 -85 -63.5 -144t-87 -92t-103.5 -47t-121 -14z" />
    <glyph glyph-name="Gdotaccent" unicode="&#x120;" horiz-adv-x="1232" 
d="M594 35q82 0 130 39.5t77 148.5q41 146 41 242q0 30 -16 45.5t-54 19.5l-221 29l10 39q318 -7 692 0l-8 -39l-47 -10q-35 -13 -56.5 -50t-45 -123t-66.5 -286q-136 -51 -250 -80.5t-229 -29.5q-233 0 -365.5 122.5t-132.5 337.5q0 234 97 417t279 287.5t419 104.5
q117 0 223.5 -23.5t167.5 -58.5q-21 -76 -61.5 -224t-61.5 -224h-41l-8 137q-1 44 -21.5 99.5t-56 109.5t-93.5 90.5t-124 36.5q-86 0 -165 -81.5t-132 -204.5t-86.5 -259.5t-38.5 -255.5q-11 -165 53.5 -260.5t190.5 -95.5zM881 1630q59 0 89.5 -29.5t30.5 -84.5
q0 -69 -49.5 -115.5t-115.5 -46.5q-59 0 -90 29.5t-31 84.5q0 70 49.5 116t116.5 46z" />
    <glyph glyph-name="gdotaccent" unicode="&#x121;" horiz-adv-x="1024" 
d="M-68 -90q249 -62 471 -72q98 -3 140.5 33t56.5 152q4 43 7.5 150t8.5 159q12 126 91 426l-15 4q-141 -399 -255 -581.5t-212 -182.5q-82 0 -144.5 72.5t-62.5 199.5q0 80 21 161t64.5 160t106 149.5t150 128t191 96.5t234.5 54.5t276 2.5q-103 -333 -193 -741
q-36 -163 -151.5 -312t-270 -239t-301.5 -90q-135 0 -198.5 66.5t-14.5 203.5zM707 1415q59 0 89.5 -30t30.5 -85q0 -69 -49.5 -115t-115.5 -46q-59 0 -90 29.5t-31 84.5q0 70 49.5 116t116.5 46zM354 219q38 0 77.5 42.5t101.5 166.5t143 338v2q24 57 76 203
q-104 -27 -193.5 -95.5t-147 -156t-90 -182.5t-32.5 -181q0 -67 17.5 -102t47.5 -35z" />
    <glyph glyph-name="Gcommaaccent" unicode="&#x122;" horiz-adv-x="1232" 
d="M594 35q82 0 130 39.5t77 148.5q41 146 41 242q0 30 -16 45.5t-54 19.5l-221 29l10 39q318 -7 692 0l-8 -39l-47 -10q-35 -13 -56.5 -50t-45 -123t-66.5 -286q-136 -51 -250 -80.5t-229 -29.5q-233 0 -365.5 122.5t-132.5 337.5q0 234 97 417t279 287.5t419 104.5
q117 0 223.5 -23.5t167.5 -58.5q-21 -76 -61.5 -224t-61.5 -224h-41l-8 137q-1 44 -21.5 99.5t-56 109.5t-93.5 90.5t-124 36.5q-86 0 -165 -81.5t-132 -204.5t-86.5 -259.5t-38.5 -255.5q-11 -165 53.5 -260.5t190.5 -95.5zM281 -449l-5 15q146 84 154 153q8 52 -63 111
q26 34 65.5 57t85.5 23q54 0 79 -28.5t17 -76.5q-17 -138 -333 -254z" />
    <glyph glyph-name="gcommaaccent" unicode="&#x123;" horiz-adv-x="1024" 
d="M-68 -90q249 -62 471 -72q98 -3 140.5 33t56.5 152q4 43 7.5 150t8.5 159q12 126 91 426l-15 4q-141 -399 -255 -581.5t-212 -182.5q-82 0 -144.5 72.5t-62.5 199.5q0 80 21 161t64.5 160t106 149.5t150 128t191 96.5t234.5 54.5t276 2.5q-103 -333 -193 -741
q-36 -163 -151.5 -312t-270 -239t-301.5 -90q-135 0 -198.5 66.5t-14.5 203.5zM883 1522l4 -15q-146 -84 -154 -153q-8 -51 64 -111q-26 -34 -66 -57t-86 -23q-54 0 -79 28.5t-17 76.5q17 138 334 254zM354 219q38 0 77.5 42.5t101.5 166.5t143 338v2q24 57 76 203
q-104 -27 -193.5 -95.5t-147 -156t-90 -182.5t-32.5 -181q0 -67 17.5 -102t47.5 -35z" />
    <glyph glyph-name="Hcircumflex" unicode="&#x124;" horiz-adv-x="1368" 
d="M915 592q1 5 4.5 16.5t4.5 16.5h-88q-42 0 -344 -15q-52 -204 -75 -301.5t-30.5 -158t0 -72.5t29.5 -17l92 -16l-10 -45h-600l10 45l106 18q41 9 69 88.5t120 440.5q105 426 114 503q6 58 -17 69q-5 3 -15 5l-92 15l12 45h598l-10 -45l-105 -17q-15 -2 -24.5 -7
t-21.5 -25t-23 -49t-28 -88t-35.5 -132.5t-47.5 -191.5q198 -10 336 -10h90q92 374 96 444q3 47 -20 57q-5 2 -13 4l-92 15l13 45h598l-11 -45l-104 -17q-23 -2 -36.5 -15.5t-35.5 -73.5t-46.5 -154t-72.5 -287q-54 -215 -78 -317t-32.5 -165.5t-1 -76t29.5 -17.5l93 -16
l-11 -45h-600l11 45l106 18q41 9 68.5 87.5t119.5 441.5zM981 1675q105 -189 223 -346l-39 -6q-118 52 -247 141q-170 -88 -328 -141l-35 6q221 178 397 346h29z" />
    <glyph glyph-name="hcircumflex" unicode="&#x125;" horiz-adv-x="1085" 
d="M258 1161q0 47 -27 47q-40 0 -112 -104l-23 33q90 122 167 189t157 67q56 0 88.5 -40.5t32.5 -119.5q0 -52 -15 -137t-44.5 -202t-54 -205.5t-64.5 -228t-54 -190.5l13 -4q149 409 278.5 588.5t255.5 179.5q83 0 126.5 -51.5t43.5 -136.5q0 -74 -40.5 -208t-81.5 -256.5
t-42 -168.5q3 -53 41 -53q21 0 51.5 23t59.5 61l22 -35q-81 -96 -174 -162.5t-168 -66.5q-54 0 -89.5 43t-35.5 112q0 74 42.5 202.5t85 251.5t42.5 183q0 47 -45 47q-182 0 -442 -819h-279q93 304 189 680.5t96 480.5zM532 1757q102 -184 224 -346l-39 -6q-121 54 -248 141
q-170 -88 -328 -141l-35 6q228 184 398 346h28z" />
    <glyph glyph-name="Hbar" unicode="&#x126;" horiz-adv-x="1359" 
d="M838 653h94q35 138 55 224h-215h-215q-29 -120 -53 -213q218 -11 334 -11zM918 592l4 20h-95q-100 0 -338 -12q-50 -199 -72.5 -296t-29.5 -155.5t0 -70.5t29 -17l92 -16l-10 -45h-600l10 45l106 18q41 9 69 88.5t120 440.5q22 88 69 282q-78 0 -176 -4l13 48
q118 -5 172 -5q26 114 33 167t0.5 69t-29.5 20l-90 15l10 45h598l-10 -45l-105 -17q-23 -2 -38 -19t-34 -70.5t-49 -166.5h217h211q26 114 32.5 168.5t-0.5 70t-30 19.5l-90 15l11 45h598l-11 -45l-104 -17q-22 -2 -37 -18.5t-35 -70.5t-49 -165q56 0 174 5l-14 -48
q-90 4 -170 4q-1 -3 -23 -91.5t-37 -145.5q-105 -426 -113 -504q-5 -56 18 -67q6 -3 15 -5l91 -16l-11 -45h-598l11 45l104 18q23 5 36 18t35 74.5t46.5 152t73.5 284.5z" />
    <glyph glyph-name="hbar" unicode="&#x127;" horiz-adv-x="1140" 
d="M315 1184q0 51 -30 51q-40 0 -109 -66l-10 21q91 101 161.5 152t147.5 51q56 0 88.5 -40.5t32.5 -119.5q0 -51 -12 -121q168 0 227 4l-8 -37q-118 4 -225 4q-18 -102 -53.5 -237t-93.5 -333t-71 -243l13 -4q147 403 277 580.5t257 177.5q82 0 126 -51.5t44 -136.5
q0 -72 -39.5 -203.5t-79.5 -252.5t-40 -167q0 -59 43 -59q44 0 110 90l19 -35q-81 -97 -173.5 -163t-166.5 -66q-56 0 -90.5 43t-34.5 112q0 72 41.5 198.5t83 247.5t41.5 181q0 23 -12.5 35t-33.5 12q-183 0 -438 -809h-278q73 237 159 570.5t115 510.5q-34 0 -88 -1
t-68 -1l9 37q14 0 66.5 -1t86.5 -1q6 44 6 70z" />
    <glyph glyph-name="Itilde" unicode="&#x128;" horiz-adv-x="653" 
d="M201 592q105 426 114 503q6 58 -17 69q-5 3 -15 5l-93 15l13 45h598l-10 -45l-105 -17q-23 -2 -36 -15t-35 -74.5t-46.5 -153.5t-72.5 -287q-54 -215 -78 -317t-32.5 -165.5t-1 -76t29.5 -17.5l92 -16l-10 -45h-600l10 45l106 18q41 9 69 88.5t120 440.5zM481 1651
q39 0 75 -18t63.5 -43.5t53 -51t53 -43.5t54.5 -18q43 0 73 37t62 122h31q-20 -64 -42.5 -113t-55 -94t-76 -69.5t-96.5 -24.5q-41 0 -78 18t-65 43.5t-53 51t-52 43.5t-53 18q-44 0 -74.5 -36.5t-62.5 -120.5h-31q16 50 32.5 90t41 80.5t52.5 67.5t66 44t82 17z" />
    <glyph glyph-name="itilde" unicode="&#x129;" horiz-adv-x="573" 
d="M510 864q0 -72 -36.5 -205t-73 -253t-35.5 -162q0 -47 28 -47q38 0 117 110l22 -31q-90 -139 -169.5 -217.5t-161.5 -78.5q-62 0 -97.5 40t-35.5 119q0 80 76.5 326.5t76.5 310.5q0 41 -31 41q-39 0 -116 -110l-23 34q87 136 167.5 214.5t162.5 78.5q60 0 94.5 -43
t34.5 -127zM414 1446q34 0 65 -24t50 -52t44.5 -52t49.5 -24q28 0 48 30t48 106h33q-19 -61 -38.5 -107t-47 -89.5t-64.5 -67t-80 -23.5q-36 0 -67.5 23.5t-51 52t-44 52t-48.5 23.5q-28 0 -49 -31.5t-47 -105.5h-33q20 63 39.5 108.5t47.5 90t64.5 67.5t80.5 23z" />
    <glyph glyph-name="Imacron" unicode="&#x12a;" horiz-adv-x="653" 
d="M201 592q105 426 114 503q6 58 -17 69q-5 3 -15 5l-93 15l13 45h598l-10 -45l-105 -17q-23 -2 -36 -15t-35 -74.5t-46.5 -153.5t-72.5 -287q-54 -215 -78 -317t-32.5 -165.5t-1 -76t29.5 -17.5l92 -16l-10 -45h-600l10 45l106 18q41 9 69 88.5t120 440.5zM498 1376
q-170 0 -246 -2l29 117q222 -6 243 -6q24 0 246 6l-29 -117q-76 2 -243 2z" />
    <glyph glyph-name="imacron" unicode="&#x12b;" horiz-adv-x="573" 
d="M510 864q0 -72 -36.5 -205t-73 -253t-35.5 -162q0 -47 28 -47q38 0 117 110l22 -31q-90 -139 -169.5 -217.5t-161.5 -78.5q-62 0 -97.5 40t-35.5 119q0 80 76.5 326.5t76.5 310.5q0 41 -31 41q-39 0 -116 -110l-23 34q87 136 167.5 214.5t162.5 78.5q60 0 94.5 -43
t34.5 -127zM395 1182q-169 0 -245 -2l28 116q222 -6 244 -6q24 0 246 6l-29 -116q-76 2 -244 2z" />
    <glyph glyph-name="Ibreve" unicode="&#x12c;" horiz-adv-x="653" 
d="M201 592q105 426 114 503q6 58 -17 69q-5 3 -15 5l-93 15l13 45h598l-10 -45l-105 -17q-23 -2 -36 -15t-35 -74.5t-46.5 -153.5t-72.5 -287q-54 -215 -78 -317t-32.5 -165.5t-1 -76t29.5 -17.5l92 -16l-10 -45h-600l10 45l106 18q41 9 69 88.5t120 440.5zM549 1329
q-117 0 -164 69t-23 218h33q-5 -63 37.5 -87t179.5 -24q64 0 102 12t58 34t39 65h31q-47 -158 -120 -222.5t-173 -64.5z" />
    <glyph glyph-name="ibreve" unicode="&#x12d;" horiz-adv-x="573" 
d="M510 864q0 -72 -36.5 -205t-73 -253t-35.5 -162q0 -47 28 -47q38 0 117 110l22 -31q-90 -139 -169.5 -217.5t-161.5 -78.5q-62 0 -97.5 40t-35.5 119q0 80 76.5 326.5t76.5 310.5q0 41 -31 41q-39 0 -116 -110l-23 34q87 136 167.5 214.5t162.5 78.5q60 0 94.5 -43
t34.5 -127zM446 1135q-117 0 -163.5 68.5t-22.5 217.5h33q-5 -63 37.5 -86.5t179.5 -23.5q64 0 102 11.5t58 33.5t39 65h30q-47 -158 -120 -222t-173 -64z" />
    <glyph glyph-name="Iogonek" unicode="&#x12e;" horiz-adv-x="653" 
d="M201 592q105 426 114 503q6 58 -17 69q-5 3 -15 5l-93 15l13 45h598l-10 -45l-105 -17q-23 -2 -36 -15t-35 -74.5t-46.5 -153.5t-72.5 -287q-54 -215 -78 -317t-32.5 -165.5t-1 -76t29.5 -17.5l92 -16l-10 -45h-11q-305 -56 -305 -141q0 -45 86 -45q102 0 195 51l10 -25
q-55 -53 -142 -96t-194 -43q-143 0 -143 94q0 41 35 76t97 59.5t132 41t154 28.5h-514l10 45l106 18q41 9 69 88.5t120 440.5z" />
    <glyph glyph-name="iogonek" unicode="&#x12f;" horiz-adv-x="577" 
d="M428 1151q-60 0 -95.5 34.5t-35.5 100.5q0 84 50 126t140 42q62 0 98 -32t36 -95q0 -87 -51 -131.5t-142 -44.5zM512 864q0 -72 -36.5 -205t-73 -253t-35.5 -162q0 -47 28 -47q38 0 117 110l23 -31q-157 -243 -277 -286q-74 -39 -107.5 -68.5t-33.5 -62.5q0 -45 78 -45
q87 0 180 51l12 -25q-144 -139 -324 -139q-65 0 -101 23t-36 65q0 101 260 191q-116 13 -116 159q0 80 76.5 326.5t76.5 310.5q0 41 -30 41q-40 0 -117 -110l-23 34q87 136 167.5 214.5t162.5 78.5q60 0 94.5 -43t34.5 -127z" />
    <glyph glyph-name="Idotaccent" unicode="&#x130;" horiz-adv-x="653" 
d="M201 592q105 426 114 503q6 58 -17 69q-5 3 -15 5l-93 15l13 45h598l-10 -45l-105 -17q-23 -2 -36 -15t-35 -74.5t-46.5 -153.5t-72.5 -287q-54 -215 -78 -317t-32.5 -165.5t-1 -76t29.5 -17.5l92 -16l-10 -45h-600l10 45l106 18q41 9 69 88.5t120 440.5zM584 1610
q59 0 90 -30t31 -85q0 -69 -50 -115.5t-116 -46.5q-59 0 -90 30t-31 85q0 70 49.5 116t116.5 46z" />
    <glyph glyph-name="dotlessi" unicode="&#x131;" horiz-adv-x="573" 
d="M510 864q0 -72 -36.5 -205t-73 -253t-35.5 -162q0 -47 28 -47q38 0 117 110l22 -31q-90 -139 -169.5 -217.5t-161.5 -78.5q-62 0 -97.5 40t-35.5 119q0 80 76.5 326.5t76.5 310.5q0 41 -31 41q-39 0 -116 -110l-23 34q87 136 167.5 214.5t162.5 78.5q60 0 94.5 -43
t34.5 -127z" />
    <glyph glyph-name="IJ" unicode="&#x132;" horiz-adv-x="1282" 
d="M201 592q105 426 114 503q6 58 -17 69q-5 3 -15 5l-93 15l13 45h598l-10 -45l-105 -17q-23 -2 -36 -15t-35 -74.5t-46.5 -153.5t-72.5 -287q-54 -215 -78 -317t-32.5 -165.5t-1 -76t29.5 -17.5l92 -16l-10 -45h-600l10 45l106 18q41 9 69 88.5t120 440.5zM453 -201l10 62
q40 0 64.5 1.5t52.5 14.5t44.5 29.5t39.5 57t39 85t41 127t47.5 169.5t56.5 224q109 440 117 524q6 61 -17 72q-7 4 -22 6l-78 13l10 45h590l-10 -45l-90 -13q-13 -2 -22 -5.5t-19 -14t-18 -24t-19 -42t-21 -61t-25 -86.5t-30 -113t-37 -147q-18 -73 -44.5 -198t-39.5 -175
q-49 -198 -215.5 -338.5t-404.5 -167.5z" />
    <glyph glyph-name="ij" unicode="&#x133;" horiz-adv-x="1118" 
d="M428 1151q-60 0 -95.5 34.5t-35.5 100.5q0 84 50 126t140 42q62 0 98 -32t36 -95q0 -87 -51 -131.5t-142 -44.5zM512 864q0 -72 -36.5 -205t-73 -253t-35.5 -162q0 -47 28 -47q38 0 117 110l23 -31q-89 -138 -169.5 -217t-162.5 -79q-62 0 -97.5 40t-35.5 119
q0 80 76.5 326.5t76.5 310.5q0 41 -30 41q-40 0 -117 -110l-23 34q87 136 167.5 214.5t162.5 78.5q60 0 94.5 -43t34.5 -127zM1006 1151q-60 0 -96 34.5t-36 100.5q0 84 50.5 126t140.5 42q62 0 96.5 -32t34.5 -95q0 -88 -49.5 -132t-140.5 -44zM391 -324q70 13 105 48.5
t61 111.5q70 210 156 528.5t86 409.5q0 43 -29 43q-42 0 -119 -110l-22 32q86 136 168 215.5t164 79.5q60 0 94.5 -43.5t34.5 -128.5q-1 -112 -79.5 -436t-152.5 -549q-40 -121 -153 -177t-312 -65z" />
    <glyph glyph-name="Jcircumflex" unicode="&#x134;" horiz-adv-x="628" 
d="M-201 -201l11 62q40 0 64.5 1.5t52.5 14.5t44.5 29.5t39.5 57t39 85t41 127t47.5 169.5t56.5 224q109 440 116 525q6 60 -18 71q-7 4 -21 6l-77 13l10 45h590l-11 -45l-90 -13q-17 -2 -28 -8t-25 -27t-24.5 -49t-28.5 -89t-36 -131t-48 -189q-18 -73 -44.5 -198
t-39.5 -175q-49 -198 -215.5 -338.5t-405.5 -167.5zM625 1661q68 -171 157 -330l-32 -6q-104 58 -185 125q-124 -73 -252 -125l-30 6q142 135 321 330h21z" />
    <glyph glyph-name="jcircumflex" unicode="&#x135;" horiz-adv-x="475" 
d="M-184 -365l-2 41q70 13 105 48.5t61 111.5q69 208 155 527.5t86 410.5q0 43 -28 43q-42 0 -119 -110l-23 32q86 136 168 215.5t164 79.5q60 0 94.5 -43.5t34.5 -128.5q-1 -113 -79 -437t-152 -548q-40 -121 -153 -177t-312 -65zM518 1466q64 -161 158 -329l-33 -7
q-101 56 -184 125q-124 -73 -252 -125l-31 7q158 150 322 329h20z" />
    <glyph glyph-name="Kcommaaccent" unicode="&#x136;" horiz-adv-x="1273" 
d="M569 618q261 204 353.5 298.5t97.5 156.5q3 73 -72 96l-76 15l13 45h549l-11 -45l-43 -13q-61 -18 -171.5 -96t-383.5 -299q92 -278 144 -418t102 -227q36 -54 105 -86l-11 -45h-389q-37 96 -99 279.5t-108 338.5zM203 592q105 426 114 503q6 58 -17 69q-5 3 -15 5
l-92 15l12 45h598l-10 -45l-105 -17q-23 -2 -36 -15t-35 -74.5t-46.5 -153.5t-72.5 -287q-54 -215 -78 -317t-32.5 -165.5t-1 -76t29.5 -17.5l92 -16l-10 -45h-600l10 45l106 18q41 9 69 88.5t120 440.5zM270 -449l-4 15q146 84 154 153q8 51 -64 111q26 34 66 57t86 23
q54 0 79 -28.5t17 -76.5q-17 -138 -334 -254z" />
    <glyph glyph-name="kcommaaccent" unicode="&#x137;" horiz-adv-x="1058" 
d="M686 -20q-75 0 -130 91.5t-112 313.5q158 62 241 153.5t83 204.5q0 43 -15 68t-40 25q-188 0 -451 -836h-285q281 980 281 1161q0 47 -27 47q-40 0 -112 -104l-23 33q90 122 167 189t157 67q56 0 88.5 -40.5t32.5 -119.5q0 -54 -19.5 -157t-63.5 -272.5t-66.5 -254
t-76.5 -277.5l15 -4q150 409 281.5 587.5t262.5 178.5q77 0 120.5 -53.5t43.5 -140.5q0 -150 -109 -254t-317 -140q100 -143 157 -198t93 -55q28 0 58.5 27.5t72.5 86.5l23 -33q-92 -140 -170.5 -217t-159.5 -77zM199 -449l-4 15q145 83 153 153q8 52 -63 111q26 34 65.5 57
t85.5 23q54 0 79 -28.5t17 -76.5q-17 -138 -333 -254z" />
    <glyph glyph-name="kgreenlandic" unicode="&#x138;" horiz-adv-x="1085" 
d="M713 -20q-75 0 -130 91.5t-112 313.5q158 62 241 153t83 205q0 42 -15.5 66.5t-40.5 24.5q-188 0 -450 -834h-285q5 15 22.5 70t28.5 89.5t30.5 96t32.5 105t30 101.5t28.5 101t22 86.5t15.5 75t5 51.5q0 41 -29 41q-41 0 -118 -110l-23 32q86 136 168 215.5t164 79.5
q53 0 83 -43t30 -127q0 -27 -9 -75t-28.5 -120t-34.5 -124.5t-42.5 -145.5t-37.5 -127l14 -4q150 408 282 587t263 179q77 0 120.5 -53t43.5 -141q0 -152 -109.5 -255.5t-316.5 -135.5q100 -144 157 -200t93 -56q29 0 58.5 27.5t72.5 88.5l22 -35q-93 -141 -170.5 -217.5
t-158.5 -76.5z" />
    <glyph glyph-name="Lacute" unicode="&#x139;" horiz-adv-x="983" 
d="M782 0h-880l8 45l94 16q53 10 80 81.5t113 422.5q58 229 84 341t31 175.5t-4.5 74.5t-39.5 15l-78 13l11 45h614l-10 -45l-109 -13q-25 -3 -39 -15t-37 -74.5t-47.5 -153t-74.5 -291.5q-127 -508 -133 -588q86 14 146.5 36.5t110 63t84.5 82.5t87 119l145 246l43 -2
q-141 -384 -199 -594zM909 1630l-2 -14q-272 -184 -512 -318l-26 5q190 236 282 385q26 -6 78.5 -16.5t97 -20.5t82.5 -21z" />
    <glyph glyph-name="lacute" unicode="&#x13a;" horiz-adv-x="532" 
d="M264 1161q0 47 -26 47q-38 0 -113 -104l-23 33q89 122 166.5 189t157.5 67q56 0 88.5 -40.5t32.5 -119.5q0 -78 -35 -229t-76.5 -290.5t-76.5 -277t-35 -192.5q0 -47 30 -47q38 0 117 110l23 -33q-42 -65 -79 -113t-79.5 -91.5t-86.5 -66.5t-87 -23q-62 0 -97.5 40
t-35.5 119q0 72 36.5 220t81 290t81 291t36.5 221zM938 1794l-2 -14q-272 -184 -512 -318l-27 4q195 241 283 385q7 -2 107 -22t151 -35z" />
    <glyph glyph-name="Lcommaaccent" unicode="&#x13b;" horiz-adv-x="983" 
d="M782 0h-880l8 45l94 16q53 10 80 81.5t113 422.5q58 229 84 341t31 175.5t-4.5 74.5t-39.5 15l-78 13l11 45h614l-10 -45l-109 -13q-25 -3 -39 -15t-37 -74.5t-47.5 -153t-74.5 -291.5q-127 -508 -133 -588q86 14 146.5 36.5t110 63t84.5 82.5t87 119l145 246l43 -2
q-141 -384 -199 -594zM160 -453l-4 15q145 83 153 153q8 52 -63 111q26 34 65.5 57t85.5 23q54 0 79.5 -28.5t17.5 -76.5q-17 -138 -334 -254z" />
    <glyph glyph-name="lcommaaccent" unicode="&#x13c;" horiz-adv-x="532" 
d="M264 1161q0 47 -26 47q-38 0 -113 -104l-23 33q89 122 166.5 189t157.5 67q56 0 88.5 -40.5t32.5 -119.5q0 -78 -35 -229t-76.5 -290.5t-76.5 -277t-35 -192.5q0 -47 30 -47q38 0 117 110l23 -33q-42 -65 -79 -113t-79.5 -91.5t-86.5 -66.5t-87 -23q-62 0 -97.5 40
t-35.5 119q0 72 36.5 220t81 290t81 291t36.5 221zM-68 -449l-4 15q146 84 154 153q8 51 -64 111q26 34 66 57t86 23q54 0 79 -28.5t17 -76.5q-17 -138 -334 -254z" />
    <glyph glyph-name="Lcaron" unicode="&#x13d;" horiz-adv-x="983" 
d="M782 0h-880l8 45l94 16q53 10 80 81.5t113 422.5q58 229 84 341t31 175.5t-4.5 74.5t-39.5 15l-78 13l11 45h614l-10 -45l-109 -13q-25 -3 -39 -15t-37 -74.5t-47.5 -153t-74.5 -291.5q-127 -508 -133 -588q86 14 146.5 36.5t110 63t84.5 82.5t87 119l145 246l43 -2
q-141 -384 -199 -594zM760 700l-25 19q184 216 221 391q27 138 -53 211q68 72 152 72q115 0 84 -160q-27 -130 -125 -259t-254 -274z" />
    <glyph glyph-name="lcaron" unicode="&#x13e;" horiz-adv-x="901" 
d="M264 1161q0 47 -26 47q-38 0 -113 -104l-23 33q89 122 166.5 189t157.5 67q56 0 88.5 -40.5t32.5 -119.5q0 -78 -35 -229t-76.5 -290.5t-76.5 -277t-35 -192.5q0 -47 30 -47q38 0 117 110l23 -33q-42 -65 -79 -113t-79.5 -91.5t-86.5 -66.5t-87 -23q-62 0 -97.5 40
t-35.5 119q0 72 36.5 220t81 290t81 291t36.5 221zM520 700l-24 19q184 216 221 391q27 138 -53 211q68 72 151 72q115 0 84 -160q-27 -130 -125 -259t-254 -274z" />
    <glyph glyph-name="Ldot" unicode="&#x13f;" horiz-adv-x="983" 
d="M782 0h-880l8 45l94 16q53 10 80 81.5t113 422.5q58 229 84 341t31 175.5t-4.5 74.5t-39.5 15l-78 13l11 45h614l-10 -45l-109 -13q-25 -3 -39 -15t-37 -74.5t-47.5 -153t-74.5 -291.5q-127 -508 -133 -588q86 14 146.5 36.5t110 63t84.5 82.5t87 119l145 246l43 -2
q-141 -384 -199 -594zM887 942q59 0 90 -30t31 -85q0 -69 -50 -115t-116 -46q-59 0 -90 29.5t-31 84.5q0 70 49.5 116t116.5 46z" />
    <glyph glyph-name="ldot" unicode="&#x140;" horiz-adv-x="782" 
d="M264 1161q0 47 -26 47q-38 0 -113 -104l-23 33q89 122 166.5 189t157.5 67q56 0 88.5 -40.5t32.5 -119.5q0 -78 -35 -229t-76.5 -290.5t-76.5 -277t-35 -192.5q0 -47 30 -47q38 0 117 110l23 -33q-42 -65 -79 -113t-79.5 -91.5t-86.5 -66.5t-87 -23q-62 0 -97.5 40
t-35.5 119q0 72 36.5 220t81 290t81 291t36.5 221zM666 766q59 0 89.5 -30t30.5 -85q0 -69 -49.5 -115.5t-115.5 -46.5q-59 0 -90 30t-31 85q0 70 49.5 116t116.5 46z" />
    <glyph glyph-name="Lslash" unicode="&#x141;" horiz-adv-x="983" 
d="M782 0h-880l8 45l94 16q34 6 52.5 30.5t41 95t64.5 241.5q-145 -83 -152 -88l-16 37q10 6 73 38t107 56q4 17 13 52.5t10 41.5q58 229 84 341t31 175.5t-4.5 74.5t-39.5 15l-78 13l11 45h614l-10 -45l-109 -13q-25 -3 -39 -15t-37 -74.5t-47.5 -153t-74.5 -291.5
q-1 -4 -3 -13.5t-3 -13.5q75 44 253 152l21 -37q-18 -8 -287 -158q-107 -428 -114 -518q86 14 146.5 36.5t110 63t84.5 82.5t87 119l145 246l43 -2q-141 -384 -199 -594z" />
    <glyph glyph-name="lslash" unicode="&#x142;" horiz-adv-x="532" 
d="M264 1161q0 47 -26 47q-38 0 -113 -104l-23 33q89 122 166.5 189t157.5 67q56 0 88.5 -40.5t32.5 -119.5q0 -59 -21.5 -163.5t-44 -188t-61.5 -219.5q13 7 110 61l15 -37q-32 -11 -135 -65q-86 -296 -86 -377q0 -47 30 -47q38 0 117 110l23 -33q-42 -65 -79 -113
t-79.5 -91.5t-86.5 -66.5t-87 -23q-62 0 -97.5 40t-35.5 119q0 105 71 353q-69 -42 -104 -62l-16 35q7 4 53 27.5t80 42.5q6 21 40 136.5t44.5 155t31 120t28 129t7.5 85.5z" />
    <glyph glyph-name="Nacute" unicode="&#x143;" horiz-adv-x="1275" 
d="M971 -25h-56q-17 35 -136 283t-211.5 438.5t-149.5 298.5q-22 43 -39 68q-47 -199 -73 -350.5t-30.5 -254.5t3 -172t33.5 -109.5t55.5 -60t74.5 -30.5l187 -41l-11 -45h-718l10 45l70 16q47 13 75 54q45 68 120 343q42 153 169 650q-39 44 -94 59l-74 17l8 45h508
q148 -437 342 -791q45 193 68.5 325t30.5 206t-3.5 115t-25.5 53t-45 18l-144 29l11 45h499l-8 -45l-55 -15q-43 -11 -73.5 -59t-88.5 -233.5t-153 -567.5q-60 -240 -76 -334zM1217 1630l-3 -14q-272 -184 -512 -318l-26 5q190 236 282 385q26 -6 78.5 -16.5t97.5 -20.5
t83 -21z" />
    <glyph glyph-name="nacute" unicode="&#x144;" horiz-adv-x="1126" 
d="M494 862q0 -34 -8.5 -85t-28 -127.5t-31.5 -121t-40.5 -142.5t-33.5 -116l13 -4q150 412 276.5 590t255.5 178q82 0 127 -52t45 -136q0 -70 -40.5 -200.5t-81 -248.5t-40.5 -157q0 -20 8.5 -31.5t22.5 -11.5q41 0 117 110l22 -33q-87 -136 -168.5 -215t-163.5 -79
q-63 0 -99 43t-36 127q0 73 42.5 198.5t85 245.5t42.5 178q0 23 -12 36t-31 13q-185 0 -442 -821h-291q66 192 140.5 451.5t74.5 324.5q0 41 -29 41q-39 0 -116 -110l-25 32q89 138 169.5 216.5t162.5 78.5q53 0 83 -43.5t30 -128.5zM1092 1436l-2 -15q-264 -178 -512 -317
l-27 4q195 241 283 385q7 -2 107 -22t151 -35z" />
    <glyph glyph-name="Ncommaaccent" unicode="&#x145;" horiz-adv-x="1275" 
d="M971 -25h-56q-17 35 -136 283t-211.5 438.5t-149.5 298.5q-22 43 -39 68q-47 -199 -73 -350.5t-30.5 -254.5t3 -172t33.5 -109.5t55.5 -60t74.5 -30.5l187 -41l-11 -45h-718l10 45l70 16q47 13 75 54q45 68 120 343q42 153 169 650q-39 44 -94 59l-74 17l8 45h508
q148 -437 342 -791q45 193 68.5 325t30.5 206t-3.5 115t-25.5 53t-45 18l-144 29l11 45h499l-8 -45l-55 -15q-43 -11 -73.5 -59t-88.5 -233.5t-153 -567.5q-60 -240 -76 -334zM305 -449l-4 15q146 84 154 153q8 51 -64 111q26 34 66 57t86 23q54 0 79 -28.5t17 -76.5
q-17 -138 -334 -254z" />
    <glyph glyph-name="ncommaaccent" unicode="&#x146;" horiz-adv-x="1126" 
d="M494 862q0 -34 -8.5 -85t-28 -127.5t-31.5 -121t-40.5 -142.5t-33.5 -116l13 -4q150 412 276.5 590t255.5 178q82 0 127 -52t45 -136q0 -70 -40.5 -200.5t-81 -248.5t-40.5 -157q0 -20 8.5 -31.5t22.5 -11.5q41 0 117 110l22 -33q-87 -136 -168.5 -215t-163.5 -79
q-63 0 -99 43t-36 127q0 73 42.5 198.5t85 245.5t42.5 178q0 23 -12 36t-31 13q-185 0 -442 -821h-291q66 192 140.5 451.5t74.5 324.5q0 41 -29 41q-39 0 -116 -110l-25 32q89 138 169.5 216.5t162.5 78.5q53 0 83 -43.5t30 -128.5zM229 -449l-4 15q146 84 154 153
q8 51 -64 111q26 34 66 57t86 23q54 0 79 -28.5t17 -76.5q-17 -138 -334 -254z" />
    <glyph glyph-name="Ncaron" unicode="&#x147;" horiz-adv-x="1275" 
d="M971 -25h-56q-17 35 -136 283t-211.5 438.5t-149.5 298.5q-22 43 -39 68q-47 -199 -73 -350.5t-30.5 -254.5t3 -172t33.5 -109.5t55.5 -60t74.5 -30.5l187 -41l-11 -45h-718l10 45l70 16q47 13 75 54q45 68 120 343q42 153 169 650q-39 44 -94 59l-74 17l8 45h508
q148 -437 342 -791q45 193 68.5 325t30.5 206t-3.5 115t-25.5 53t-45 18l-144 29l11 45h499l-8 -45l-55 -15q-43 -11 -73.5 -59t-88.5 -233.5t-153 -567.5q-60 -240 -76 -334zM823 1298q-107 192 -223 347l39 6q117 -52 248 -142q178 91 327 142l35 -6q-214 -173 -397 -347
h-29z" />
    <glyph glyph-name="ncaron" unicode="&#x148;" horiz-adv-x="1126" 
d="M494 862q0 -34 -8.5 -85t-28 -127.5t-31.5 -121t-40.5 -142.5t-33.5 -116l13 -4q150 412 276.5 590t255.5 178q82 0 127 -52t45 -136q0 -70 -40.5 -200.5t-81 -248.5t-40.5 -157q0 -20 8.5 -31.5t22.5 -11.5q41 0 117 110l22 -33q-87 -136 -168.5 -215t-163.5 -79
q-63 0 -99 43t-36 127q0 73 42.5 198.5t85 245.5t42.5 178q0 23 -12 36t-31 13q-185 0 -442 -821h-291q66 192 140.5 451.5t74.5 324.5q0 41 -29 41q-39 0 -116 -110l-25 32q89 138 169.5 216.5t162.5 78.5q53 0 83 -43.5t30 -128.5zM698 1104q-105 189 -223 346l39 6
q121 -54 248 -141q170 88 328 141l34 -6q-221 -178 -397 -346h-29z" />
    <glyph glyph-name="napostrophe" unicode="&#x149;" horiz-adv-x="1503" 
d="M870 862q0 -29 -7.5 -75.5t-16.5 -88.5t-27 -110t-29 -106l-33 -114t-28 -98l12 -4q150 411 277 589.5t256 178.5q82 0 127 -52t45 -136q0 -70 -40.5 -200.5t-81 -248.5t-40.5 -157q0 -20 8.5 -31.5t22.5 -11.5q41 0 117 110l22 -33q-87 -136 -168.5 -215t-163.5 -79
q-63 0 -99 43t-36 127q0 73 42.5 198.5t85 245.5t42.5 178q0 23 -12 36t-31 13q-185 0 -442 -821h-291q66 192 140.5 451.5t74.5 324.5q0 41 -29 41q-39 0 -116 -110l-25 32q89 138 169.5 216.5t162.5 78.5q53 0 82.5 -43.5t29.5 -128.5zM88 618l-14 27q213 145 213 275
q0 51 -30 98.5t-97 109.5q41 58 86 89.5t110 31.5q75 0 113.5 -44t38.5 -126q0 -57 -22 -111t-58.5 -99t-92.5 -90.5t-114 -82.5t-133 -78z" />
    <glyph glyph-name="Eng" unicode="&#x14a;" horiz-adv-x="1296" 
d="M496 -223l34 149q181 1 251.5 22.5t107.5 84.5q-31 64 -134.5 285.5t-189 400t-139.5 278.5q-11 22 -45 70q-45 -194 -71.5 -339t-33 -248.5t0.5 -172t33 -113.5t59 -68.5t84 -39.5l157 -41l-12 -45h-698l12 45l72 16q24 6 40 18.5t38.5 53t44 103.5t57 185t77.5 281.5
t105 407.5q-40 40 -96 57l-72 17l10 45h510q52 -155 146 -370t207 -413q45 190 68.5 321t30.5 204t-5 113.5t-27.5 52.5t-46.5 18l-143 29l10 45h508l-12 -45l-54 -15q-36 -11 -59.5 -38.5t-62.5 -126t-91 -288.5t-135 -523q-44 -181 -182.5 -292t-353.5 -124z" />
    <glyph glyph-name="eng" unicode="&#x14b;" horiz-adv-x="1089" 
d="M504 -164q276 780 276 936q0 23 -12 36t-31 13q-185 0 -442 -821h-293q66 185 141.5 447.5t75.5 326.5q0 43 -29 43q-41 0 -118 -110l-21 32q87 137 167.5 216t162.5 79q53 0 83 -43.5t30 -128.5q0 -34 -8.5 -85.5t-28 -126.5t-32.5 -122t-41 -141.5t-34 -116.5l12 -2
q151 410 279 588t256 178q82 0 126 -51.5t44 -136.5q0 -111 -79 -388t-183 -581q-41 -121 -154.5 -177t-310.5 -65l-2 41q69 13 104 48t62 112z" />
    <glyph glyph-name="Omacron" unicode="&#x14c;" horiz-adv-x="1286" 
d="M754 1192q-79 0 -157 -82t-133.5 -206.5t-89.5 -272t-34 -277.5q0 -145 69 -229t185 -86q77 0 152.5 80.5t129.5 204t87.5 274.5t33.5 289q0 128 -65.5 216.5t-177.5 88.5zM1290 807q0 -174 -57 -327.5t-157 -263t-243 -173t-307 -63.5q-218 0 -345.5 128.5t-127.5 335.5
q0 236 94.5 419t266 284.5t393.5 101.5q220 0 351.5 -125t131.5 -317zM866 1395q-44 0 -141 -1t-141 -1l28 114q164 -4 281 -4q110 0 278 4l-28 -114q-43 0 -139 1t-138 1z" />
    <glyph glyph-name="omacron" unicode="&#x14d;" horiz-adv-x="1046" 
d="M401 -20q-70 0 -131 20.5t-111 61.5t-79 112.5t-29 165.5q0 195 73 352.5t210.5 249.5t314.5 92q70 0 131 -20.5t111 -61.5t79 -112.5t29 -165.5q0 -192 -73 -349.5t-210.5 -251t-314.5 -93.5zM584 983q-61 0 -123 -121t-100.5 -290.5t-38.5 -311.5q0 -105 41.5 -166
t111.5 -61q36 0 74 39t71 109.5t59 160t41 198t15 216.5q0 96 -41.5 161.5t-109.5 65.5zM684 1180q-44 0 -141.5 -1t-141.5 -1l29 114q164 -4 281 -4q110 0 278 4l-28 -114q-43 0 -139 1t-138 1z" />
    <glyph glyph-name="Obreve" unicode="&#x14e;" horiz-adv-x="1286" 
d="M754 1192q-79 0 -157 -82t-133.5 -206.5t-89.5 -272t-34 -277.5q0 -145 69 -229t185 -86q77 0 152.5 80.5t129.5 204t87.5 274.5t33.5 289q0 128 -65.5 216.5t-177.5 88.5zM1290 807q0 -174 -57 -327.5t-157 -263t-243 -173t-307 -63.5q-218 0 -345.5 128.5t-127.5 335.5
q0 236 94.5 419t266 284.5t393.5 101.5q220 0 351.5 -125t131.5 -317zM854 1350q-138 0 -198 71t-33 226h30q-2 -47 16.5 -71t82.5 -38t190 -14q125 0 176 26.5t80 96.5h31q-26 -85 -63.5 -144t-87 -92t-103.5 -47t-121 -14z" />
    <glyph glyph-name="obreve" unicode="&#x14f;" horiz-adv-x="1046" 
d="M401 -20q-70 0 -131 20.5t-111 61.5t-79 112.5t-29 165.5q0 195 73 352.5t210.5 249.5t314.5 92q70 0 131 -20.5t111 -61.5t79 -112.5t29 -165.5q0 -192 -73 -349.5t-210.5 -251t-314.5 -93.5zM584 983q-61 0 -123 -121t-100.5 -290.5t-38.5 -311.5q0 -105 41.5 -166
t111.5 -61q36 0 74 39t71 109.5t59 160t41 198t15 216.5q0 96 -41.5 161.5t-109.5 65.5zM672 1135q-138 0 -198.5 71t-33.5 226h31q-2 -47 16.5 -71t82.5 -38t190 -14q125 0 176 26.5t80 96.5h31q-26 -85 -63.5 -144t-87 -92t-103.5 -47t-121 -14z" />
    <glyph glyph-name="Ohungarumlaut" unicode="&#x150;" horiz-adv-x="1286" 
d="M754 1192q-79 0 -157 -82t-133.5 -206.5t-89.5 -272t-34 -277.5q0 -145 69 -229t185 -86q77 0 152.5 80.5t129.5 204t87.5 274.5t33.5 289q0 128 -65.5 216.5t-177.5 88.5zM1290 807q0 -174 -57 -327.5t-157 -263t-243 -173t-307 -63.5q-218 0 -345.5 128.5t-127.5 335.5
q0 236 94.5 419t266 284.5t393.5 101.5q220 0 351.5 -125t131.5 -317zM1026 1679l-2 -14q-144 -161 -348 -344l-27 2q92 159 187 379q106 -10 190 -23zM1290 1679l-2 -14q-166 -181 -350 -344l-25 2q100 172 185 379q110 -10 192 -23z" />
    <glyph glyph-name="ohungarumlaut" unicode="&#x151;" horiz-adv-x="1046" 
d="M401 -20q-70 0 -131 20.5t-111 61.5t-79 112.5t-29 165.5q0 195 73 352.5t210.5 249.5t314.5 92q70 0 131 -20.5t111 -61.5t79 -112.5t29 -165.5q0 -192 -73 -349.5t-210.5 -251t-314.5 -93.5zM584 983q-61 0 -123 -121t-100.5 -290.5t-38.5 -311.5q0 -105 41.5 -166
t111.5 -61q36 0 74 39t71 109.5t59 160t41 198t15 216.5q0 96 -41.5 161.5t-109.5 65.5zM844 1464l-2 -14q-144 -161 -348 -344l-27 2q88 152 186 379q108 -10 191 -23zM1108 1464l-2 -14q-166 -181 -350 -344l-25 2q96 166 184 379q113 -10 193 -23z" />
    <glyph glyph-name="OE" unicode="&#x152;" horiz-adv-x="1720" 
d="M774 1174q-75 0 -146 -52.5t-124.5 -138.5t-94.5 -193t-62 -220.5t-21 -215.5q0 -136 72 -214.5t196 -80.5q49 0 116 188t115.5 405.5t63.5 351.5q8 46 7.5 76t-6.5 49t-23 29t-37.5 13t-55.5 3zM535 0q-227 0 -360.5 123t-133.5 321q0 231 94.5 409t270 277t405.5 99
h975q-47 -214 -86 -461h-41l-29 166q-17 70 -38 110t-63.5 71.5t-109 45.5t-174.5 19q-31 -75 -143 -533q136 6 194 38.5t107 123.5l53 111l29 -2q-29 -99 -72 -290.5t-63 -305.5h-29l-2 110q-6 96 -50.5 130.5t-178.5 41.5v-4q-114 -446 -125 -549q151 8 240.5 32.5
t149 71.5t122.5 138l127 196h41q-94 -262 -160 -489h-950z" />
    <glyph glyph-name="oe" unicode="&#x153;" horiz-adv-x="1568" 
d="M584 981q-59 0 -119.5 -116.5t-97.5 -280.5t-37 -303q0 -115 39 -180.5t106 -65.5q44 0 89 60t80.5 156.5t58 226.5t22.5 261q0 102 -38.5 172t-102.5 70zM1260 981q-74 0 -145 -114.5t-101 -270.5q160 51 251 125t91 141q0 47 -28 83t-68 36zM1581 864
q0 -106 -145.5 -179t-425.5 -110q-13 -73 -13 -135q0 -129 52 -190.5t135 -61.5q72 0 149 55.5t142 164.5l28 -19q-75 -175 -190 -292t-244 -117q-95 0 -166 61t-100 172q-71 -110 -174 -171.5t-228 -61.5q-70 0 -131 20.5t-111 61.5t-79 112.5t-29 165.5q0 195 73 352.5
t210.5 249.5t314.5 92q108 0 181.5 -56t95.5 -175q75 108 185 169.5t245 61.5q103 0 164 -49.5t61 -120.5z" />
    <glyph glyph-name="Racute" unicode="&#x154;" horiz-adv-x="1236" 
d="M668 694q116 0 196 96.5t80 215.5q0 83 -57.5 128.5t-159.5 45.5q-43 0 -80 -6q-34 -77 -133 -472q63 -8 154 -8zM498 635q-51 -207 -74.5 -310t-26.5 -163.5t8.5 -73.5t43.5 -18l147 -25l-10 -45h-688l12 45l94 18q28 6 42 17.5t37.5 72.5t48 151.5t75.5 291.5
q101 411 108 494q4 60 -21 74q-8 4 -24 7l-77 13l12 45h651q110 0 185 -17t114 -49.5t54.5 -71.5t15.5 -92q0 -155 -106 -271.5t-257 -131.5q122 -380 211 -487q8 -10 18 -18t16.5 -12t27 -15.5t32.5 -18.5l-10 -45h-389q-75 175 -133 618q-72 18 -129 52q-1 -6 -4 -17.5
t-4 -17.5zM1194 1630l-2 -14q-272 -184 -512 -318l-27 5q195 241 283 385q26 -6 78.5 -16.5t97 -20.5t82.5 -21z" />
    <glyph glyph-name="racute" unicode="&#x155;" horiz-adv-x="831" 
d="M305 0h-301q69 178 142 431.5t73 344.5q0 41 -29 41q-39 0 -116 -110l-23 32q87 137 166.5 215t161.5 78q47 0 72.5 -41t25.5 -117q0 -158 -125 -624l17 -6q148 443 232.5 616.5t166.5 173.5q121 0 104 -299q-51 -1 -87.5 -6t-76 -18.5t-69.5 -36t-64 -61t-63.5 -91.5
t-63.5 -128.5t-68.5 -172t-74.5 -221.5zM924 1436l-2 -15q-264 -178 -512 -317l-27 4q195 241 283 385q7 -2 107 -22t151 -35z" />
    <glyph glyph-name="Rcommaaccent" unicode="&#x156;" horiz-adv-x="1236" 
d="M668 694q116 0 196 96.5t80 215.5q0 83 -57.5 128.5t-159.5 45.5q-43 0 -80 -6q-34 -77 -133 -472q63 -8 154 -8zM498 635q-51 -207 -74.5 -310t-26.5 -163.5t8.5 -73.5t43.5 -18l147 -25l-10 -45h-688l12 45l94 18q28 6 42 17.5t37.5 72.5t48 151.5t75.5 291.5
q101 411 108 494q4 60 -21 74q-8 4 -24 7l-77 13l12 45h651q110 0 185 -17t114 -49.5t54.5 -71.5t15.5 -92q0 -155 -106 -271.5t-257 -131.5q122 -380 211 -487q8 -10 18 -18t16.5 -12t27 -15.5t32.5 -18.5l-10 -45h-389q-75 175 -133 618q-72 18 -129 52q-1 -6 -4 -17.5
t-4 -17.5zM283 -449l-4 15q145 83 153 153q8 52 -63 111q26 34 65.5 57t85.5 23q54 0 79 -28.5t17 -76.5q-17 -138 -333 -254z" />
    <glyph glyph-name="rcommaaccent" unicode="&#x157;" horiz-adv-x="831" 
d="M305 0h-301q69 178 142 431.5t73 344.5q0 41 -29 41q-39 0 -116 -110l-23 32q87 137 166.5 215t161.5 78q47 0 72.5 -41t25.5 -117q0 -158 -125 -624l17 -6q148 443 232.5 616.5t166.5 173.5q121 0 104 -299q-51 -1 -87.5 -6t-76 -18.5t-69.5 -36t-64 -61t-63.5 -91.5
t-63.5 -128.5t-68.5 -172t-74.5 -221.5zM-86 -449l-4 15q145 83 153 153q8 52 -63 111q26 34 66 57t86 23q54 0 79 -28.5t17 -76.5q-17 -138 -334 -254z" />
    <glyph glyph-name="Rcaron" unicode="&#x158;" horiz-adv-x="1236" 
d="M668 694q116 0 196 96.5t80 215.5q0 83 -57.5 128.5t-159.5 45.5q-43 0 -80 -6q-34 -77 -133 -472q63 -8 154 -8zM498 635q-51 -207 -74.5 -310t-26.5 -163.5t8.5 -73.5t43.5 -18l147 -25l-10 -45h-688l12 45l94 18q28 6 42 17.5t37.5 72.5t48 151.5t75.5 291.5
q101 411 108 494q4 60 -21 74q-8 4 -24 7l-77 13l12 45h651q110 0 185 -17t114 -49.5t54.5 -71.5t15.5 -92q0 -155 -106 -271.5t-257 -131.5q122 -380 211 -487q8 -10 18 -18t16.5 -12t27 -15.5t32.5 -18.5l-10 -45h-389q-75 175 -133 618q-72 18 -129 52q-1 -6 -4 -17.5
t-4 -17.5zM801 1298q-107 192 -223 347l38 6q117 -52 248 -142q176 90 328 142l35 -6q-221 -178 -398 -347h-28z" />
    <glyph glyph-name="rcaron" unicode="&#x159;" horiz-adv-x="831" 
d="M305 0h-301q69 178 142 431.5t73 344.5q0 41 -29 41q-39 0 -116 -110l-23 32q87 137 166.5 215t161.5 78q47 0 72.5 -41t25.5 -117q0 -158 -125 -624l17 -6q148 443 232.5 616.5t166.5 173.5q121 0 104 -299q-51 -1 -87.5 -6t-76 -18.5t-69.5 -36t-64 -61t-63.5 -91.5
t-63.5 -128.5t-68.5 -172t-74.5 -221.5zM532 1104q-105 189 -223 346l39 6q121 -54 248 -141q170 88 328 141l34 -6q-221 -178 -397 -346h-29z" />
    <glyph glyph-name="Sacute" unicode="&#x15a;" horiz-adv-x="1030" 
d="M690 1247q212 -3 359 -51q-77 -281 -111 -442h-41q-18 230 -90.5 328t-214.5 98q-82 0 -131 -44.5t-49 -111.5q0 -51 30 -97.5t77.5 -83t105 -72.5t115 -75t105 -81t77.5 -98.5t30 -121.5q0 -73 -44.5 -148t-119 -135t-181 -97.5t-220.5 -37.5q-139 0 -248.5 24.5
t-167.5 59.5q71 277 109 484h41q-8 -100 13.5 -180.5t63 -132t100 -86.5t120 -49.5t127.5 -14.5q196 0 196 133q0 44 -31 85.5t-80.5 76.5t-109.5 70.5t-119.5 75t-109 82t-80.5 98.5t-31 118q0 82 40 159.5t107 136.5t162.5 94.5t200.5 35.5zM1100 1649l-2 -15
q-264 -178 -512 -317l-27 4q195 241 283 385q7 -2 107 -22t151 -35z" />
    <glyph glyph-name="sacute" unicode="&#x15b;" horiz-adv-x="851" 
d="M512 135q0 44 -39 100t-94.5 111.5t-111.5 113t-95 124t-39 125.5q0 135 121.5 229t312.5 94q146 0 214.5 -49t68.5 -123q0 -43 -9.5 -73t-39.5 -70h-10q-73 100 -174 175t-175 75q-40 0 -67 -27.5t-27 -65.5q0 -40 30.5 -86.5t76 -88t98.5 -91.5t98.5 -96t76 -102.5
t30.5 -110.5q0 -131 -138 -225t-354 -94q-157 0 -228 55.5t-71 140.5q0 77 62 162l12 2q71 -112 179.5 -201.5t193.5 -89.5q98 0 98 86zM952 1436l-2 -15q-264 -178 -512 -317l-26 4q190 236 282 385q7 -2 107 -22t151 -35z" />
    <glyph glyph-name="Scircumflex" unicode="&#x15c;" horiz-adv-x="1030" 
d="M690 1247q212 -3 359 -51q-77 -281 -111 -442h-41q-18 230 -90.5 328t-214.5 98q-82 0 -131 -44.5t-49 -111.5q0 -51 30 -97.5t77.5 -83t105 -72.5t115 -75t105 -81t77.5 -98.5t30 -121.5q0 -73 -44.5 -148t-119 -135t-181 -97.5t-220.5 -37.5q-139 0 -248.5 24.5
t-167.5 59.5q71 277 109 484h41q-8 -100 13.5 -180.5t63 -132t100 -86.5t120 -49.5t127.5 -14.5q196 0 196 133q0 44 -31 85.5t-80.5 76.5t-109.5 70.5t-119.5 75t-109 82t-80.5 98.5t-31 118q0 82 40 159.5t107 136.5t162.5 94.5t200.5 35.5zM829 1694q102 -184 224 -346
l-39 -7q-117 52 -248 142q-176 -90 -328 -142l-35 7q228 184 398 346h28z" />
    <glyph glyph-name="scircumflex" unicode="&#x15d;" horiz-adv-x="851" 
d="M512 135q0 44 -39 100t-94.5 111.5t-111.5 113t-95 124t-39 125.5q0 135 121.5 229t312.5 94q146 0 214.5 -49t68.5 -123q0 -43 -9.5 -73t-39.5 -70h-10q-73 100 -174 175t-175 75q-40 0 -67 -27.5t-27 -65.5q0 -40 30.5 -86.5t76 -88t98.5 -91.5t98.5 -96t76 -102.5
t30.5 -110.5q0 -131 -138 -225t-354 -94q-157 0 -228 55.5t-71 140.5q0 77 62 162l12 2q71 -112 179.5 -201.5t193.5 -89.5q98 0 98 86zM682 1481q105 -189 223 -346l-39 -7q-117 52 -248 142q-178 -91 -327 -142l-35 7q221 178 397 346h29z" />
    <glyph glyph-name="Scedilla" unicode="&#x15e;" horiz-adv-x="1030" 
d="M690 1247q212 -3 359 -51q-77 -281 -111 -442h-41q-18 230 -90.5 328t-214.5 98q-82 0 -131 -44.5t-49 -111.5q0 -51 30 -97.5t77.5 -83t105 -72.5t115 -75t105 -81t77.5 -98.5t30 -121.5q0 -73 -44.5 -148t-119 -135t-181 -97.5t-220.5 -37.5q-37 0 -72 3l-47 -86
q80 22 170 22q81 0 118 -19.5t30 -60.5q-12 -69 -145 -105t-365 -36l4 31q157 15 219 36.5t70 61.5q4 25 -11.5 36t-52.5 11t-86 -6l76 117q-225 15 -324 79q71 277 109 484h41q-8 -100 13.5 -180.5t63 -132t100 -86.5t120 -49.5t127.5 -14.5q196 0 196 133q0 44 -31 85.5
t-80.5 76.5t-109.5 70.5t-119.5 75t-109 82t-80.5 98.5t-31 118q0 82 40 159.5t107 136.5t162.5 94.5t200.5 35.5z" />
    <glyph glyph-name="scedilla" unicode="&#x15f;" horiz-adv-x="851" 
d="M512 135q0 44 -39 100t-94.5 111.5t-111.5 113t-95 124t-39 125.5q0 135 121.5 229t312.5 94q146 0 214.5 -49t68.5 -123q0 -43 -9.5 -73t-39.5 -70h-10q-73 100 -174 175t-175 75q-40 0 -67 -27.5t-27 -65.5q0 -40 30.5 -86.5t76 -88t98.5 -91.5t98.5 -96t76 -102.5
t30.5 -110.5q0 -131 -138 -225t-354 -94q-33 0 -47 2l-47 -88q80 22 170 22q80 0 117 -19.5t30 -60.5q-12 -70 -144.5 -105.5t-364.5 -35.5l4 31q156 15 218 36.5t70 61.5q4 25 -11 36t-52 11t-86 -6l76 119q-121 11 -176.5 64t-55.5 128q0 77 62 162l12 2
q71 -112 179.5 -201.5t193.5 -89.5q98 0 98 86z" />
    <glyph glyph-name="Scaron" unicode="&#x160;" horiz-adv-x="1030" 
d="M690 1247q212 -3 359 -51q-77 -281 -111 -442h-41q-18 230 -90.5 328t-214.5 98q-82 0 -131 -44.5t-49 -111.5q0 -51 30 -97.5t77.5 -83t105 -72.5t115 -75t105 -81t77.5 -98.5t30 -121.5q0 -73 -44.5 -148t-119 -135t-181 -97.5t-220.5 -37.5q-139 0 -248.5 24.5
t-167.5 59.5q71 277 109 484h41q-8 -100 13.5 -180.5t63 -132t100 -86.5t120 -49.5t127.5 -14.5q196 0 196 133q0 44 -31 85.5t-80.5 76.5t-109.5 70.5t-119.5 75t-109 82t-80.5 98.5t-31 118q0 82 40 159.5t107 136.5t162.5 94.5t200.5 35.5zM707 1317q-102 184 -224 346
l39 6q121 -54 248 -141q170 88 328 141l35 -6q-228 -184 -398 -346h-28z" />
    <glyph glyph-name="scaron" unicode="&#x161;" horiz-adv-x="851" 
d="M512 135q0 44 -39 100t-94.5 111.5t-111.5 113t-95 124t-39 125.5q0 135 121.5 229t312.5 94q146 0 214.5 -49t68.5 -123q0 -43 -9.5 -73t-39.5 -70h-10q-73 100 -174 175t-175 75q-40 0 -67 -27.5t-27 -65.5q0 -40 30.5 -86.5t76 -88t98.5 -91.5t98.5 -96t76 -102.5
t30.5 -110.5q0 -131 -138 -225t-354 -94q-157 0 -228 55.5t-71 140.5q0 77 62 162l12 2q71 -112 179.5 -201.5t193.5 -89.5q98 0 98 86zM559 1104q-105 189 -223 346l39 6q121 -54 248 -141q172 89 327 141l35 -6q-221 -178 -397 -346h-29z" />
    <glyph glyph-name="uni0162" unicode="&#x162;" horiz-adv-x="1222" 
d="M676 -164q-12 -69 -145 -105t-365 -36l4 31q157 15 219 36.5t70 61.5q4 25 -11.5 36t-52.5 11t-86 -6l88 135h-284l10 45l125 21q85 15 117 85t118 418q133 532 140 611q-84 -11 -136.5 -38.5t-88.5 -69.5t-95 -134l-182 -293h-39q100 281 186 584h1045
q-66 -278 -113 -584h-37l-33 293q-8 57 -14.5 87t-19 60.5t-33 45.5t-52 27.5t-81.5 21.5q-20 -48 -45.5 -141.5t-91.5 -360.5q-102 -408 -109 -505q-6 -76 26 -95q14 -9 50 -15l112 -18l-10 -45h-446l-58 -106q80 22 170 22q81 0 118 -19.5t30 -60.5z" />
    <glyph glyph-name="uni0163" unicode="&#x163;" horiz-adv-x="620" 
d="M51 150q0 29 4.5 67.5t16.5 94.5t22 99.5t31.5 125.5t33.5 126.5t40.5 147.5t40.5 147h-117l14 56h117q76 14 147.5 78.5t163.5 189.5l35 -10q-32 -105 -72 -258h203l-14 -56h-205q-162 -601 -162 -718q0 -43 39 -43q61 0 160 131l24 -31q-83 -142 -180 -229.5
t-200 -87.5q-43 0 -68 14l-55 -100q80 22 170 22q80 0 117 -19.5t30 -60.5q-12 -69 -145 -105t-365 -36l4 31q157 15 219 36.5t70 61.5q4 25 -11.5 36t-52.5 11q-36 0 -86 -6l91 137q-60 44 -60 148z" />
    <glyph glyph-name="Tcaron" unicode="&#x164;" horiz-adv-x="1222" 
d="M872 45l-10 -45h-749l10 45l125 21q85 15 117 85t118 418q133 532 140 611q-84 -11 -136.5 -38.5t-88.5 -69.5t-95 -134l-182 -293h-39q100 281 186 584h1045q-66 -278 -113 -584h-37l-33 293q-8 57 -14.5 87t-19 60.5t-33 45.5t-52 27.5t-81.5 21.5
q-20 -48 -45.5 -141.5t-91.5 -360.5q-102 -408 -109 -505q-6 -76 26 -95q14 -9 50 -15zM793 1298q-104 187 -224 347l39 6q117 -52 248 -142q176 90 328 142l35 -6q-221 -178 -398 -347h-28z" />
    <glyph glyph-name="tcaron" unicode="&#x165;" horiz-adv-x="638" 
d="M668 1108l-23 16q113 134 113 254q0 67 -43 107q52 45 110 45q82 0 82 -78q0 -121 -239 -344zM51 150q0 29 4.5 67.5t16.5 94.5t22 99.5t31.5 125.5t33.5 126.5t40.5 147.5t40.5 147h-117l14 56h117q76 14 147.5 78.5t163.5 189.5l35 -10q-32 -105 -72 -258h203l-14 -56
h-205q-162 -601 -162 -718q0 -43 39 -43q61 0 160 131l24 -31q-83 -142 -180 -229.5t-200 -87.5q-66 0 -104 43t-38 127z" />
    <glyph glyph-name="Tbar" unicode="&#x166;" horiz-adv-x="1222" 
d="M872 45l-10 -45h-749l10 45l125 21q61 11 87 38q35 37 76 182q18 65 68 267q-42 -1 -129 -2t-119 -2l13 53q63 -2 245 -6q126 498 134 584q-63 -9 -104.5 -23t-78.5 -46t-63.5 -67t-73.5 -106l-178 -283h-39q85 243 182 574h1045q-66 -283 -111 -574h-37l-35 283
q-8 57 -14.5 87t-19 60.5t-33 45.5t-52 27.5t-81.5 21.5q-20 -48 -45.5 -141.5t-91.5 -360.5q-3 -15 -10.5 -42.5t-10.5 -39.5q179 4 246 6l-14 -53q-31 1 -116 2t-126 2q-29 -120 -46.5 -195t-25 -132t-8.5 -84.5t11 -46t25.5 -23t41.5 -9.5z" />
    <glyph glyph-name="tbar" unicode="&#x167;" horiz-adv-x="620" 
d="M51 150q0 106 88 442q-21 0 -56 -1t-44 -1l12 49q9 0 43.5 -1t57.5 -1q68 247 88 321h-117l14 56h117q76 14 147.5 78.5t163.5 189.5l35 -10q-32 -105 -72 -258h203l-14 -56h-205q-41 -155 -82 -321q135 0 172 2l-12 -49q-37 2 -170 2q-70 -287 -70 -352q0 -43 39 -43
q61 0 160 131l24 -31q-83 -142 -180 -229.5t-200 -87.5q-66 0 -104 43t-38 127z" />
    <glyph glyph-name="Utilde" unicode="&#x168;" horiz-adv-x="1257" 
d="M1139 682q-15 -57 -31.5 -129.5t-22.5 -97.5q-55 -206 -202 -340.5t-346 -134.5q-206 0 -310 85t-104 240q0 71 57 293q103 414 110 496q5 61 -20 73q-8 4 -24 7l-68 10l12 45h596l-10 -45l-106 -15q-51 -7 -82.5 -97.5t-141.5 -534.5q-26 -114 -26 -181
q0 -131 70.5 -187t216.5 -56q122 0 175 60t99 249q61 241 89 381.5t27 219.5t-21 106t-66 38l-80 17l10 45h477l-10 -45l-76 -17q-23 -7 -36.5 -18t-28.5 -34.5t-32.5 -81.5t-38.5 -134.5t-56 -216.5zM829 1651q39 0 75 -18t63.5 -43.5t53 -51t53 -43.5t54.5 -18
q43 0 73.5 37t62.5 122h30q-20 -64 -42.5 -113t-55 -94t-76 -69.5t-96.5 -24.5q-41 0 -78 18t-65 43.5t-53 51t-52 43.5t-53 18q-44 0 -74.5 -36.5t-62.5 -120.5h-31q16 50 32.5 90t41 80.5t52.5 67.5t66 44t82 17z" />
    <glyph glyph-name="utilde" unicode="&#x169;" horiz-adv-x="1116" 
d="M625 139q0 19 3 44.5t9.5 59t12.5 62t18 73.5t19 72t21.5 79t20.5 73t22 74.5t19 64.5l-12 4q-151 -412 -278 -588.5t-257 -176.5q-82 0 -126 51.5t-44 136.5q0 69 41.5 198t83 247.5t41.5 162.5q0 41 -29 41q-41 0 -118 -108l-23 32q87 135 168.5 214t163.5 79
q62 0 96.5 -43t34.5 -129q0 -72 -42.5 -197.5t-85 -245.5t-42.5 -177q0 -22 12 -35.5t31 -13.5q183 0 440 821h287q-72 -222 -138.5 -460t-66.5 -308q0 -47 29 -47q43 0 117 110l22 -33q-87 -138 -167.5 -217t-162.5 -79q-56 0 -88 40t-32 119zM655 1456q39 0 75 -18
t63.5 -43.5t53 -51t53 -43.5t54.5 -18q43 0 73.5 37.5t62.5 122.5h30q-20 -64 -42.5 -113t-55 -94t-76 -69.5t-96.5 -24.5q-41 0 -78 18t-65 43.5t-53 51t-52 43.5t-53 18q-44 0 -74.5 -37t-62.5 -121h-31q16 50 32.5 90t41 80.5t52.5 67.5t66 44t82 17z" />
    <glyph glyph-name="Umacron" unicode="&#x16a;" horiz-adv-x="1257" 
d="M1139 682q-15 -57 -31.5 -129.5t-22.5 -97.5q-55 -206 -202 -340.5t-346 -134.5q-206 0 -310 85t-104 240q0 71 57 293q103 414 110 496q5 61 -20 73q-8 4 -24 7l-68 10l12 45h596l-10 -45l-106 -15q-51 -7 -82.5 -97.5t-141.5 -534.5q-26 -114 -26 -181
q0 -131 70.5 -187t216.5 -56q122 0 175 60t99 249q61 241 89 381.5t27 219.5t-21 106t-66 38l-80 17l10 45h477l-10 -45l-76 -17q-23 -7 -36.5 -18t-28.5 -34.5t-32.5 -81.5t-38.5 -134.5t-56 -216.5zM891 1374q-44 0 -141.5 -1t-141.5 -1l29 115q164 -4 281 -4q110 0 278 4
l-29 -115q-43 0 -138.5 1t-137.5 1z" />
    <glyph glyph-name="umacron" unicode="&#x16b;" horiz-adv-x="1116" 
d="M625 139q0 19 3 44.5t9.5 59t12.5 62t18 73.5t19 72t21.5 79t20.5 73t22 74.5t19 64.5l-12 4q-151 -412 -278 -588.5t-257 -176.5q-82 0 -126 51.5t-44 136.5q0 69 41.5 198t83 247.5t41.5 162.5q0 41 -29 41q-41 0 -118 -108l-23 32q87 135 168.5 214t163.5 79
q62 0 96.5 -43t34.5 -129q0 -72 -42.5 -197.5t-85 -245.5t-42.5 -177q0 -22 12 -35.5t31 -13.5q183 0 440 821h287q-72 -222 -138.5 -460t-66.5 -308q0 -47 29 -47q43 0 117 110l22 -33q-87 -138 -167.5 -217t-162.5 -79q-56 0 -88 40t-32 119zM717 1180q-44 0 -141.5 -1
t-141.5 -1l29 114q164 -4 280 -4q111 0 279 4l-29 -114q-43 0 -138.5 1t-137.5 1z" />
    <glyph glyph-name="Ubreve" unicode="&#x16c;" horiz-adv-x="1257" 
d="M1139 682q-15 -57 -31.5 -129.5t-22.5 -97.5q-55 -206 -202 -340.5t-346 -134.5q-206 0 -310 85t-104 240q0 71 57 293q103 414 110 496q5 61 -20 73q-8 4 -24 7l-68 10l12 45h596l-10 -45l-106 -15q-51 -7 -82.5 -97.5t-141.5 -534.5q-26 -114 -26 -181
q0 -131 70.5 -187t216.5 -56q122 0 175 60t99 249q61 241 89 381.5t27 219.5t-21 106t-66 38l-80 17l10 45h477l-10 -45l-76 -17q-23 -7 -36.5 -18t-28.5 -34.5t-32.5 -81.5t-38.5 -134.5t-56 -216.5zM879 1329q-138 0 -198.5 71t-33.5 226h31q-2 -47 16.5 -71t82.5 -38
t190 -14q125 0 176 26.5t80 96.5h30q-50 -165 -143 -231t-231 -66z" />
    <glyph glyph-name="ubreve" unicode="&#x16d;" horiz-adv-x="1116" 
d="M625 139q0 19 3 44.5t9.5 59t12.5 62t18 73.5t19 72t21.5 79t20.5 73t22 74.5t19 64.5l-12 4q-151 -412 -278 -588.5t-257 -176.5q-82 0 -126 51.5t-44 136.5q0 69 41.5 198t83 247.5t41.5 162.5q0 41 -29 41q-41 0 -118 -108l-23 32q87 135 168.5 214t163.5 79
q62 0 96.5 -43t34.5 -129q0 -72 -42.5 -197.5t-85 -245.5t-42.5 -177q0 -22 12 -35.5t31 -13.5q183 0 440 821h287q-72 -222 -138.5 -460t-66.5 -308q0 -47 29 -47q43 0 117 110l22 -33q-87 -138 -167.5 -217t-162.5 -79q-56 0 -88 40t-32 119zM705 1135q-138 0 -198.5 71
t-33.5 226h31q-2 -47 16.5 -71t82.5 -38t190 -14q125 0 176 26.5t80 96.5h30q-50 -165 -143 -231t-231 -66z" />
    <glyph glyph-name="Uring" unicode="&#x16e;" horiz-adv-x="1257" 
d="M1139 682q-15 -57 -31.5 -129.5t-22.5 -97.5q-55 -206 -202 -340.5t-346 -134.5q-206 0 -310 85t-104 240q0 71 57 293q103 414 110 496q5 61 -20 73q-8 4 -24 7l-68 10l12 45h596l-10 -45l-106 -15q-51 -7 -82.5 -97.5t-141.5 -534.5q-26 -114 -26 -181
q0 -131 70.5 -187t216.5 -56q122 0 175 60t99 249q61 241 89 381.5t27 219.5t-21 106t-66 38l-80 17l10 45h477l-10 -45l-76 -17q-23 -7 -36.5 -18t-28.5 -34.5t-32.5 -81.5t-38.5 -134.5t-56 -216.5zM903 1389q56 0 97.5 36t41.5 99q0 44 -25.5 70t-76.5 26
q-56 0 -97.5 -36.5t-41.5 -100.5q0 -43 25 -68.5t77 -25.5zM948 1686q76 0 119 -42.5t43 -109.5q0 -94 -61.5 -151.5t-151.5 -57.5q-78 0 -121 41t-43 107q0 95 62.5 154t152.5 59z" />
    <glyph glyph-name="uring" unicode="&#x16f;" horiz-adv-x="1116" 
d="M625 139q0 19 3 44.5t9.5 59t12.5 62t18 73.5t19 72t21.5 79t20.5 73t22 74.5t19 64.5l-12 4q-151 -412 -278 -588.5t-257 -176.5q-82 0 -126 51.5t-44 136.5q0 69 41.5 198t83 247.5t41.5 162.5q0 41 -29 41q-41 0 -118 -108l-23 32q87 135 168.5 214t163.5 79
q62 0 96.5 -43t34.5 -129q0 -72 -42.5 -197.5t-85 -245.5t-42.5 -177q0 -22 12 -35.5t31 -13.5q183 0 440 821h287q-72 -222 -138.5 -460t-66.5 -308q0 -47 29 -47q43 0 117 110l22 -33q-87 -138 -167.5 -217t-162.5 -79q-56 0 -88 40t-32 119zM731 1194q56 0 97.5 36
t41.5 99q0 44 -25.5 70t-76.5 26q-56 0 -97.5 -36.5t-41.5 -100.5q0 -43 25 -68.5t77 -25.5zM776 1491q76 0 119 -42.5t43 -109.5q0 -94 -61.5 -151.5t-151.5 -57.5q-78 0 -121 41t-43 107q0 95 62.5 154t152.5 59z" />
    <glyph glyph-name="Uhungarumlaut" unicode="&#x170;" horiz-adv-x="1257" 
d="M1139 682q-15 -57 -31.5 -129.5t-22.5 -97.5q-55 -206 -202 -340.5t-346 -134.5q-206 0 -310 85t-104 240q0 71 57 293q103 414 110 496q5 61 -20 73q-8 4 -24 7l-68 10l12 45h596l-10 -45l-106 -15q-51 -7 -82.5 -97.5t-141.5 -534.5q-26 -114 -26 -181
q0 -131 70.5 -187t216.5 -56q122 0 175 60t99 249q61 241 89 381.5t27 219.5t-21 106t-66 38l-80 17l10 45h477l-10 -45l-76 -17q-23 -7 -36.5 -18t-28.5 -34.5t-32.5 -81.5t-38.5 -134.5t-56 -216.5zM1051 1659l-2 -14q-145 -161 -349 -345l-26 3q89 155 186 378
q123 -11 191 -22zM1315 1659l-2 -14q-171 -186 -350 -345l-25 3q97 169 184 378q127 -12 193 -22z" />
    <glyph glyph-name="uhungarumlaut" unicode="&#x171;" horiz-adv-x="1116" 
d="M625 139q0 19 3 44.5t9.5 59t12.5 62t18 73.5t19 72t21.5 79t20.5 73t22 74.5t19 64.5l-12 4q-151 -412 -278 -588.5t-257 -176.5q-82 0 -126 51.5t-44 136.5q0 69 41.5 198t83 247.5t41.5 162.5q0 41 -29 41q-41 0 -118 -108l-23 32q87 135 168.5 214t163.5 79
q62 0 96.5 -43t34.5 -129q0 -72 -42.5 -197.5t-85 -245.5t-42.5 -177q0 -22 12 -35.5t31 -13.5q183 0 440 821h287q-72 -222 -138.5 -460t-66.5 -308q0 -47 29 -47q43 0 117 110l22 -33q-87 -138 -167.5 -217t-162.5 -79q-56 0 -88 40t-32 119zM877 1464l-3 -14
q-144 -161 -348 -344l-26 2q88 152 186 379q108 -10 191 -23zM1141 1464l-2 -14q-162 -176 -351 -344l-24 2q96 166 184 379q113 -10 193 -23z" />
    <glyph glyph-name="Uogonek" unicode="&#x172;" horiz-adv-x="1257" 
d="M1139 682q-15 -57 -31.5 -129.5t-22.5 -97.5q-42 -160 -143.5 -280t-241.5 -169q-15 -7 -43 -19q-36 -16 -52.5 -23.5t-41.5 -20t-36.5 -20.5t-24 -19t-17 -21.5t-4.5 -23.5q0 -45 86 -45q102 0 195 51l10 -25q-55 -53 -142 -96t-194 -43q-145 0 -145 94q0 22 10.5 41.5
t35 37t46 30t64.5 28.5t67.5 24.5t75.5 25.5q-16 -2 -53 -2q-206 0 -310 85t-104 240q0 71 57 293q103 414 110 496q5 61 -20 73q-8 4 -24 7l-68 10l12 45h596l-10 -45l-106 -15q-51 -7 -82.5 -97.5t-141.5 -534.5q-26 -114 -26 -181q0 -131 70.5 -187t216.5 -56
q122 0 175 60t99 249q61 241 89 381.5t27 219.5t-21 106t-66 38l-80 17l10 45h477l-10 -45l-76 -17q-23 -7 -36.5 -18t-28.5 -34.5t-32.5 -81.5t-38.5 -134.5t-56 -216.5z" />
    <glyph glyph-name="uogonek" unicode="&#x173;" horiz-adv-x="1116" 
d="M625 139q0 19 3 44.5t9.5 59t12.5 62t18 73.5t19 72t21.5 79t20.5 73t22 74.5t19 64.5l-12 4q-151 -412 -278 -588.5t-257 -176.5q-82 0 -126 51.5t-44 136.5q0 69 41.5 198t83 247.5t41.5 162.5q0 41 -29 41q-41 0 -118 -108l-23 32q87 135 168.5 214t163.5 79
q62 0 96.5 -43t34.5 -129q0 -72 -42.5 -197.5t-85 -245.5t-42.5 -177q0 -22 12 -35.5t31 -13.5q183 0 440 821h287q-72 -222 -138.5 -460t-66.5 -308q0 -47 29 -47q43 0 117 110l22 -33q-89 -139 -162 -210h2q-53 -51 -116.5 -93t-92 -63.5t-28.5 -46.5t19 -37t65 -12
q101 0 194 51l13 -25q-150 -139 -338 -139q-68 0 -106 22.5t-38 63.5q0 26 16.5 48t49.5 41t66 34t83 36.5t84 39.5q-21 -6 -41 -6q-56 0 -88 40t-32 119z" />
    <glyph glyph-name="Wcircumflex" unicode="&#x174;" horiz-adv-x="1828" 
d="M1159 1190q-81 0 -92 -49q-7 -39 47 -217q99 139 111 200q7 35 -8 50.5t-58 15.5zM967 580q-6 36 -15 65q-43 -63 -205 -304t-266 -392h-39q-18 106 -118 620q-79 390 -104 475q-28 97 -58 123l-19 17l13 45h573l-10 -45l-64 -6q-98 -16 -110 -88q-16 -89 63 -412
q10 -43 40 -175t40 -175q43 60 131 180.5t127 175.5q-56 273 -82 368.5t-57 121.5l-12 10l12 45h610l-12 -45l-33 -15q-34 -12 -90.5 -75t-157.5 -203q7 -23 20.5 -64t18.5 -57q94 -312 148 -473q130 217 224 409.5t112 288.5q33 153 -70 172l-94 17l12 45h541l-11 -45
l-28 -19q-25 -14 -63 -57.5t-117 -152.5t-155.5 -218.5t-240.5 -344.5t-311 -443h-39q-50 373 -104 631zM1245 1675q105 -189 223 -346l-38 -6q-121 54 -248 141q-170 -88 -328 -141l-35 6q228 184 398 346h28z" />
    <glyph glyph-name="wcircumflex" unicode="&#x175;" horiz-adv-x="1429" 
d="M1079 238q60 0 106 97t46 230q0 62 -24 204t-54 249q149 34 209.5 -10t60.5 -144q0 -197 -204 -561q-66 -160 -145 -241.5t-159 -81.5q-70 0 -113 111.5t-32 324.5q-88 -198 -190.5 -317t-196.5 -119q-88 0 -159.5 101.5t-71.5 205.5q0 82 64 174t190 221
q-120 70 -199 70q-42 0 -76.5 -37t-77.5 -135l-35 12q27 87 47 144.5t48.5 122t54.5 102.5t60 63t71 25q49 0 92.5 -34t97.5 -106q15 41 46 131l55 -20q-81 -157 -134 -323t-53 -265q0 -84 29 -140t84 -56q120 0 250 243q-27 102 -43 256t-18 277l288 4
q-26 -166 -74.5 -293.5t-121.5 -249.5q101 -235 282 -235zM1022 1481q105 -189 223 -346l-39 -7q-117 52 -248 142q-178 -91 -327 -142l-35 7q221 178 397 346h29z" />
    <glyph glyph-name="Ycircumflex" unicode="&#x176;" horiz-adv-x="1310" 
d="M870 0h-694l10 45l113 21q75 15 104 79.5t107 380.5q-7 16 -47 109.5t-57 132.5q-96 221 -138.5 302t-81.5 101l-22 13l12 45h596l-10 -45l-72 -6q-52 -6 -76 -20t-24 -42q0 -51 68 -228t130 -315q125 159 216.5 310.5t91.5 210.5q0 35 -24.5 53t-80.5 27l-86 10l10 45
h560l-9 -45l-24 -6q-47 -12 -169.5 -136.5t-479.5 -509.5q-44 -175 -62.5 -260.5t-17 -134.5t14.5 -58t50 -16l103 -18zM961 1675q105 -189 223 -346l-39 -6q-121 54 -248 141q-170 -88 -328 -141l-34 6q221 178 397 346h29z" />
    <glyph glyph-name="ycircumflex" unicode="&#x177;" horiz-adv-x="1081" 
d="M512 862q0 -64 -44 -184t-88 -236.5t-44 -171.5q0 -21 12 -34t31 -13q30 0 59.5 16t71.5 66.5t86 134t101.5 230t119.5 344.5h305q-145 -466 -204 -733q-30 -121 -107.5 -238.5t-178 -205.5t-220.5 -142.5t-230 -54.5q-133 0 -195.5 66.5t-13.5 203.5q237 -59 478 -72
q101 -3 143.5 33.5t56.5 153.5q5 49 9.5 157t9.5 156q6 102 92 424l-12 4q-150 -413 -275.5 -585.5t-255.5 -172.5q-83 0 -127.5 52t-44.5 137q0 70 43 191t86 232t43 156q0 41 -29 41q-40 0 -118 -108l-23 32q87 135 168.5 214t163.5 79q62 0 96.5 -43t34.5 -129zM778 1481
q105 -189 223 -346l-38 -7q-117 52 -248 142q-176 -90 -328 -142l-35 7q228 184 398 346h28z" />
    <glyph glyph-name="Ydieresis" unicode="&#x178;" horiz-adv-x="1310" 
d="M752 1612q55 0 83.5 -28.5t28.5 -80.5q0 -64 -45.5 -106.5t-107.5 -42.5q-55 0 -84 27.5t-29 78.5q0 64 46 108t108 44zM1090 1612q55 0 83.5 -28.5t28.5 -80.5q0 -64 -45.5 -106.5t-107.5 -42.5q-55 0 -84 27.5t-29 78.5q0 64 46 108t108 44zM870 0h-694l10 45l113 21
q75 15 104 79.5t107 380.5q-7 16 -47 109.5t-57 132.5q-96 221 -138.5 302t-81.5 101l-22 13l12 45h596l-10 -45l-72 -6q-52 -6 -76 -20t-24 -42q0 -51 68 -228t130 -315q125 159 216.5 310.5t91.5 210.5q0 35 -24.5 53t-80.5 27l-86 10l10 45h560l-9 -45l-24 -6
q-47 -12 -169.5 -136.5t-479.5 -509.5q-44 -175 -62.5 -260.5t-17 -134.5t14.5 -58t50 -16l103 -18z" />
    <glyph glyph-name="Zacute" unicode="&#x179;" horiz-adv-x="1218" 
d="M-78 0l12 47q194 212 558.5 632.5t431.5 496.5q-130 -9 -219.5 -25t-153 -38t-110.5 -61.5t-79.5 -84t-72.5 -117.5l-135 -254h-37q133 360 207 633l976 -2l-8 -45q-311 -335 -985 -1129q114 4 190 10.5t146 21.5t116 36.5t91.5 59.5t81.5 87t78 121l133 248h37
q-159 -480 -199 -639zM1200 1630l-2 -14q-272 -184 -512 -318l-27 5q195 241 283 385q26 -6 78.5 -16.5t97 -20.5t82.5 -21z" />
    <glyph glyph-name="zacute" unicode="&#x17a;" horiz-adv-x="927" 
d="M590 -20q-190 0 -436 200q-121 -129 -177 -198l-57 73q88 73 179 155t206.5 192t155.5 147q49 44 98 92q-81 53 -164 80t-135 27q-49 0 -78.5 -37t-68.5 -144l-37 13q4 16 13 49q14 54 22 82.5t24.5 80.5t30 81.5t35.5 68t43.5 59t51 35.5t62.5 15q84 0 180.5 -56
t221.5 -157q109 109 182 194l53 -69q-79 -64 -165 -139.5t-193.5 -173t-147.5 -132.5q-2 -2 -139 -133q83 -53 179.5 -77.5t158.5 -24.5q51 0 81.5 37t68.5 143l34 -12q-50 -191 -74 -256q-85 -211 -208 -215zM973 1436l-2 -15q-264 -178 -512 -317l-27 4q195 241 283 385
q7 -2 107 -22t151 -35z" />
    <glyph glyph-name="Zdotaccent" unicode="&#x17b;" horiz-adv-x="1218" 
d="M-78 0l12 47q194 212 558.5 632.5t431.5 496.5q-130 -9 -219.5 -25t-153 -38t-110.5 -61.5t-79.5 -84t-72.5 -117.5l-135 -254h-37q133 360 207 633l976 -2l-8 -45q-311 -335 -985 -1129q114 4 190 10.5t146 21.5t116 36.5t91.5 59.5t81.5 87t78 121l133 248h37
q-159 -480 -199 -639zM887 1610q59 0 90 -30t31 -85q0 -69 -50 -115.5t-116 -46.5q-59 0 -90 30t-31 85q0 70 49.5 116t116.5 46z" />
    <glyph glyph-name="zdotaccent" unicode="&#x17c;" horiz-adv-x="927" 
d="M590 -20q-190 0 -436 200q-121 -129 -177 -198l-57 73q88 73 179 155t206.5 192t155.5 147q49 44 98 92q-81 53 -164 80t-135 27q-49 0 -78.5 -37t-68.5 -144l-37 13q4 16 13 49q14 54 22 82.5t24.5 80.5t30 81.5t35.5 68t43.5 59t51 35.5t62.5 15q84 0 180.5 -56
t221.5 -157q109 109 182 194l53 -69q-79 -64 -165 -139.5t-193.5 -173t-147.5 -132.5q-2 -2 -139 -133q83 -53 179.5 -77.5t158.5 -24.5q51 0 81.5 37t68.5 143l34 -12q-50 -191 -74 -256q-85 -211 -208 -215zM659 1415q59 0 90 -30t31 -85q0 -69 -50 -115t-116 -46
q-59 0 -89.5 29.5t-30.5 84.5q0 70 49 116t116 46z" />
    <glyph glyph-name="Zcaron" unicode="&#x17d;" horiz-adv-x="1218" 
d="M-78 0l12 47q194 212 558.5 632.5t431.5 496.5q-130 -9 -219.5 -25t-153 -38t-110.5 -61.5t-79.5 -84t-72.5 -117.5l-135 -254h-37q133 360 207 633l976 -2l-8 -45q-311 -335 -985 -1129q114 4 190 10.5t146 21.5t116 36.5t91.5 59.5t81.5 87t78 121l133 248h37
q-159 -480 -199 -639zM809 1298q-107 192 -223 347l39 6q114 -50 247 -142q176 90 328 142l35 -6q-214 -173 -397 -347h-29z" />
    <glyph glyph-name="zcaron" unicode="&#x17e;" horiz-adv-x="927" 
d="M590 -20q-190 0 -436 200q-121 -129 -177 -198l-57 73q88 73 179 155t206.5 192t155.5 147q49 44 98 92q-81 53 -164 80t-135 27q-49 0 -78.5 -37t-68.5 -144l-37 13q4 16 13 49q14 54 22 82.5t24.5 80.5t30 81.5t35.5 68t43.5 59t51 35.5t62.5 15q84 0 180.5 -56
t221.5 -157q109 109 182 194l53 -69q-79 -64 -165 -139.5t-193.5 -173t-147.5 -132.5q-2 -2 -139 -133q83 -53 179.5 -77.5t158.5 -24.5q51 0 81.5 37t68.5 143l34 -12q-50 -191 -74 -256q-85 -211 -208 -215zM582 1104q-102 184 -224 346l39 6q121 -54 248 -141
q170 88 328 141l35 -6q-228 -184 -398 -346h-28z" />
    <glyph glyph-name="Aringacute" unicode="&#x1fa;" horiz-adv-x="1202" 
d="M649 530q-35 185 -88 402q-137 -246 -221 -426q103 -6 315 -10q-1 6 -3 17t-3 17zM754 1262q56 0 97.5 36t41.5 99q0 44 -25.5 70t-76.5 26q-57 0 -98.5 -36.5t-41.5 -100.5q0 -43 25.5 -68.5t77.5 -25.5zM799 1559q76 0 119 -42.5t43 -109.5q0 -83 -48.5 -138
t-124.5 -67q14 -69 119 -538q8 -39 23 -111q55 -268 83.5 -368t69.5 -128l19 -12l-8 -45h-570l11 45l83 10q89 11 89 80q0 68 -45 324q-158 -3 -349 -10q-102 -235 -102 -318q0 -56 76 -68l98 -18l-10 -45h-514l10 45l31 14q46 19 134 144.5t429 651.5q142 218 227 349
q-53 13 -80.5 50.5t-27.5 91.5q0 95 62.5 154t152.5 59zM1212 1901l-2 -15q-264 -178 -512 -317l-26 4q190 236 282 385q7 -2 107 -22t151 -35z" />
    <glyph glyph-name="aringacute" unicode="&#x1fb;" horiz-adv-x="1060" 
d="M858 246q0 -49 29 -49q40 0 119 110l22 -33q-42 -65 -79 -113t-79.5 -91.5t-86.5 -66.5t-87 -23q-54 0 -84 39.5t-30 117.5q0 148 123 613l-13 4q-148 -407 -267.5 -592t-219.5 -185q-79 0 -139 70.5t-60 194.5q0 95 29.5 191.5t85.5 189t145 171t200.5 134.5t261 82
t316.5 12q-69 -221 -127.5 -453t-58.5 -323zM662 1120q56 0 97.5 36t41.5 99q0 44 -26 70.5t-77 26.5q-56 0 -97.5 -37t-41.5 -101q0 -43 25.5 -68.5t77.5 -25.5zM707 1417q76 0 118.5 -42t42.5 -109q0 -94 -61.5 -151.5t-151.5 -57.5q-78 0 -120.5 40.5t-42.5 106.5
q0 95 62.5 154t152.5 59zM1110 1767l-2 -14q-264 -178 -512 -317l-27 4q195 241 283 385q26 -6 78.5 -16.5t97 -20.5t82.5 -21zM346 188q31 0 64.5 33t80 117t110.5 240t147 391q-85 -22 -160.5 -75t-129.5 -122t-93.5 -150t-58.5 -162.5t-19 -154.5q0 -117 59 -117z" />
    <glyph glyph-name="AEacute" unicode="&#x1fc;" horiz-adv-x="1638" 
d="M-117 0l11 45l38 25q43 27 127.5 110t273 295.5t445.5 525.5q47 63 47 93q0 28 -24.5 42.5t-91.5 28.5l-107 19l14 45h1106q-54 -245 -88 -461h-41l-24 166q-20 94 -54 141.5t-109 72.5t-218 32q-34 -80 -144 -533q137 6 197 39t105 123l51 111h26q-27 -100 -64 -291.5
t-54 -306.5h-27l-6 110q-9 95 -57 129t-183 43v-4q-117 -473 -125 -549q219 12 318.5 60t189.5 182l123 196h39q-118 -353 -156 -489h-946l12 45l86 25q32 9 49 31.5t40.5 96t66.5 246.5q-24 0 -75 1t-79 1q-110 0 -167 -2q-175 -265 -177 -319q-1 -27 14.5 -39.5
t55.5 -24.5l76 -14l-12 -47h-482zM586 479q55 0 153 4q25 96 25 97q89 355 127 522l-8 2q-294 -399 -447 -621q94 -4 150 -4zM1444 1630l-2 -14q-272 -184 -512 -318l-27 5q195 241 283 385q26 -6 78.5 -16.5t97 -20.5t82.5 -21z" />
    <glyph glyph-name="aeacute" unicode="&#x1fd;" horiz-adv-x="1484" 
d="M1169 946q-71 0 -140 -103t-99 -247q159 51 250.5 125t91.5 141q0 34 -29.5 59t-73.5 25zM1018 1022q-47 -142 -82 -289l14 -4q56 164 138 234.5t192 70.5q103 0 160 -48.5t57 -119.5q0 -107 -145.5 -180.5t-425.5 -110.5q-13 -70 -13 -135q0 -129 52 -190.5t135 -61.5
q72 0 148 55.5t143 164.5l28 -19q-75 -176 -199 -292.5t-274 -116.5q-65 0 -122 19t-104 57.5t-74.5 105.5t-27.5 155q0 118 89 431l-13 4q-282 -775 -489 -775q-79 0 -139 70.5t-60 194.5q0 114 41 229.5t126.5 221.5t203.5 185t284.5 119t356.5 25zM1294 1436l-2 -15
q-264 -178 -512 -317l-26 4q190 236 282 385q7 -2 107 -22t151 -35zM346 188q31 0 64.5 33t80 117t110.5 240t147 391q-85 -22 -160.5 -75t-129.5 -122t-93.5 -150t-58.5 -162.5t-19 -154.5q0 -117 59 -117z" />
    <glyph glyph-name="Oslashacute" unicode="&#x1fe;" horiz-adv-x="1286" 
d="M594 39q77 0 152.5 80.5t129.5 204t87.5 274.5t33.5 289q0 23 -4 55q-113 -116 -339.5 -344t-309.5 -313q17 -115 83 -179.5t167 -66.5zM340 354v-28q70 71 301 303.5t346 351.5q-23 95 -83.5 153t-149.5 58q-79 0 -157 -82t-133.5 -206.5t-89.5 -272t-34 -277.5z
M1290 807q0 -174 -57 -327.5t-157 -263t-243 -173t-307 -63.5q-234 0 -366 151q-138 -134 -144 -141l-26 28q19 15 149 138q-86 122 -86 288q0 236 94.5 419t266 284.5t393.5 101.5q219 0 350 -125q26 24 54 51t46 44t25 24l25 -31q-42 -33 -125 -110q108 -120 108 -295z
M1190 1653l-2 -15q-264 -178 -512 -317l-27 4q195 241 283 385q7 -2 107 -22t151 -35z" />
    <glyph glyph-name="oslashacute" unicode="&#x1ff;" horiz-adv-x="1046" 
d="M0 16q28 24 109 105q-58 86 -58 219q0 195 73 352.5t210.5 249.5t314.5 92q168 0 264 -102q98 98 105 106l24 -28q-2 -2 -108 -103q65 -90 65 -233q0 -192 -73 -349.5t-210.5 -251t-314.5 -93.5q-181 0 -274 116q-71 -74 -100 -108zM475 33q45 0 91 59t82.5 154.5
t60.5 224.5t26 260q-43 -48 -413 -459v-12q0 -105 41.5 -166t111.5 -61zM584 983q-57 0 -115.5 -107.5t-97.5 -262t-47 -296.5q78 88 226 250t185 203q-5 91 -45.5 152t-105.5 61zM961 1436l-3 -15q-264 -178 -512 -317l-26 4q190 236 282 385q9 -2 108.5 -22t150.5 -35z
" />
    <glyph glyph-name="Scommaaccent" unicode="&#x218;" horiz-adv-x="1030" 
d="M690 1247q212 -3 359 -51q-77 -281 -111 -442h-41q-18 230 -90.5 328t-214.5 98q-82 0 -131 -44.5t-49 -111.5q0 -51 30 -97.5t77.5 -83t105 -72.5t115 -75t105 -81t77.5 -98.5t30 -121.5q0 -73 -44.5 -148t-119 -135t-181 -97.5t-220.5 -37.5q-139 0 -248.5 24.5
t-167.5 59.5q71 277 109 484h41q-8 -100 13.5 -180.5t63 -132t100 -86.5t120 -49.5t127.5 -14.5q196 0 196 133q0 44 -31 85.5t-80.5 76.5t-109.5 70.5t-119.5 75t-109 82t-80.5 98.5t-31 118q0 82 40 159.5t107 136.5t162.5 94.5t200.5 35.5zM184 -449l-4 15
q146 84 154 153q8 51 -64 111q26 34 66 57t86 23q54 0 79 -28.5t17 -76.5q-17 -138 -334 -254z" />
    <glyph glyph-name="scommaaccent" unicode="&#x219;" horiz-adv-x="851" 
d="M512 135q0 44 -39 100t-94.5 111.5t-111.5 113t-95 124t-39 125.5q0 135 121.5 229t312.5 94q146 0 214.5 -49t68.5 -123q0 -43 -9.5 -73t-39.5 -70h-10q-73 100 -174 175t-175 75q-40 0 -67 -27.5t-27 -65.5q0 -40 30.5 -86.5t76 -88t98.5 -91.5t98.5 -96t76 -102.5
t30.5 -110.5q0 -131 -138 -225t-354 -94q-157 0 -228 55.5t-71 140.5q0 77 62 162l12 2q71 -112 179.5 -201.5t193.5 -89.5q98 0 98 86zM90 -449l-4 15q146 84 154 153q8 51 -64 111q26 34 66 57t86 23q54 0 79 -28.5t17 -76.5q-17 -138 -334 -254z" />
    <glyph glyph-name="uni021A" unicode="&#x21a;" horiz-adv-x="1222" 
d="M872 45l-10 -45h-749l10 45l125 21q85 15 117 85t118 418q133 532 140 611q-84 -11 -136.5 -38.5t-88.5 -69.5t-95 -134l-182 -293h-39q100 281 186 584h1045q-66 -278 -113 -584h-37l-33 293q-8 57 -14.5 87t-19 60.5t-33 45.5t-52 27.5t-81.5 21.5
q-20 -48 -45.5 -141.5t-91.5 -360.5q-102 -408 -109 -505q-6 -76 26 -95q14 -9 50 -15zM276 -449l-4 15q146 84 154 153q8 51 -64 111q26 34 66 57t86 23q54 0 79 -28.5t17 -76.5q-17 -138 -334 -254z" />
    <glyph glyph-name="uni021B" unicode="&#x21b;" horiz-adv-x="620" 
d="M51 150q0 29 4.5 67.5t16.5 94.5t22 99.5t31.5 125.5t33.5 126.5t40.5 147.5t40.5 147h-117l14 56h117q76 14 147.5 78.5t163.5 189.5l35 -10q-32 -105 -72 -258h203l-14 -56h-205q-162 -601 -162 -718q0 -43 39 -43q61 0 160 131l24 -31q-83 -142 -180 -229.5
t-200 -87.5q-66 0 -104 43t-38 127zM-14 -449l-4 15q145 83 153 153q8 52 -63 111q26 34 65.5 57t85.5 23q54 0 79 -28.5t17 -76.5q-17 -138 -333 -254z" />
    <glyph glyph-name="circumflex" unicode="&#x2c6;" horiz-adv-x="706" 
d="M610 1481q102 -184 224 -346l-39 -7q-117 52 -248 142q-176 -90 -328 -142l-35 7q228 184 398 346h28z" />
    <glyph glyph-name="caron" unicode="&#x2c7;" horiz-adv-x="706" 
d="M477 1104q-105 189 -223 346l39 6q121 -54 248 -141q172 89 327 141l35 -6q-221 -178 -397 -346h-29z" />
    <glyph glyph-name="breve" unicode="&#x2d8;" horiz-adv-x="679" 
d="M500 1135q-138 0 -198.5 71t-33.5 226h31q-2 -47 16.5 -71t82.5 -38t190 -14q125 0 176 26.5t80 96.5h30q-50 -165 -143 -231t-231 -66z" />
    <glyph glyph-name="dotaccent" unicode="&#x2d9;" horiz-adv-x="358" 
d="M391 1415q59 0 90 -30t31 -85q0 -69 -50 -115t-116 -46q-59 0 -90 29.5t-31 84.5q0 70 49.5 116t116.5 46z" />
    <glyph glyph-name="ring" unicode="&#x2da;" horiz-adv-x="454" 
d="M408 1194q56 0 97.5 36t41.5 99q0 44 -26 70t-77 26q-56 0 -97.5 -36.5t-41.5 -100.5q0 -43 25.5 -68.5t77.5 -25.5zM453 1491q76 0 118.5 -42.5t42.5 -109.5q0 -94 -61.5 -151.5t-151.5 -57.5q-78 0 -120.5 41t-42.5 107q0 95 62.5 154t152.5 59z" />
    <glyph glyph-name="ogonek" unicode="&#x2db;" horiz-adv-x="542" 
d="M332 -135l10 -25q-55 -53 -142 -96t-194 -43q-143 0 -143 94q0 45 42.5 82.5t116 62.5t153 41.5t171.5 26.5l10 -8q-305 -56 -305 -141q0 -45 86 -45q102 0 195 51z" />
    <glyph glyph-name="tilde" unicode="&#x2dc;" horiz-adv-x="751" 
d="M477 1456q39 0 75 -18t63.5 -43.5t53 -51t53 -43.5t54.5 -18q43 0 73 37.5t62 122.5h31q-20 -64 -42.5 -113t-55 -94t-76 -69.5t-96.5 -24.5q-41 0 -78 18t-65 43.5t-53 51t-52 43.5t-53 18q-44 0 -75 -37t-63 -121h-30q16 50 32.5 90t41 80.5t52.5 67.5t66 44t82 17z
" />
    <glyph glyph-name="hungarumlaut" unicode="&#x2dd;" horiz-adv-x="663" 
d="M596 1464l-2 -14q-144 -161 -348 -344l-27 2q92 159 187 379q106 -10 190 -23zM860 1464l-2 -14q-166 -181 -350 -344l-25 2q100 172 185 379q110 -10 192 -23z" />
    <glyph glyph-name="Wgrave" unicode="&#x1e80;" horiz-adv-x="1828" 
d="M1159 1190q-81 0 -92 -49q-7 -39 47 -217q99 139 111 200q7 35 -8 50.5t-58 15.5zM967 580q-6 36 -15 65q-43 -63 -205 -304t-266 -392h-39q-18 106 -118 620q-79 390 -104 475q-28 97 -58 123l-19 17l13 45h573l-10 -45l-64 -6q-98 -16 -110 -88q-16 -89 63 -412
q10 -43 40 -175t40 -175q43 60 131 180.5t127 175.5q-56 273 -82 368.5t-57 121.5l-12 10l12 45h610l-12 -45l-33 -15q-34 -12 -90.5 -75t-157.5 -203q7 -23 20.5 -64t18.5 -57q94 -312 148 -473q130 217 224 409.5t112 288.5q33 153 -70 172l-94 17l12 45h541l-11 -45
l-28 -19q-25 -14 -63 -57.5t-117 -152.5t-155.5 -218.5t-240.5 -344.5t-311 -443h-39q-50 373 -104 631zM922 1630q93 26 249 58q53 -182 136 -385l-29 -5q-192 147 -360 318z" />
    <glyph glyph-name="wgrave" unicode="&#x1e81;" horiz-adv-x="1429" 
d="M1079 238q60 0 106 97t46 230q0 62 -24 204t-54 249q149 34 209.5 -10t60.5 -144q0 -197 -204 -561q-66 -160 -145 -241.5t-159 -81.5q-70 0 -113 111.5t-32 324.5q-88 -198 -190.5 -317t-196.5 -119q-88 0 -159.5 101.5t-71.5 205.5q0 82 64 174t190 221
q-120 70 -199 70q-42 0 -76.5 -37t-77.5 -135l-35 12q27 87 47 144.5t48.5 122t54.5 102.5t60 63t71 25q49 0 92.5 -34t97.5 -106q15 41 46 131l55 -20q-81 -157 -134 -323t-53 -265q0 -84 29 -140t84 -56q120 0 250 243q-27 102 -43 256t-18 277l288 4
q-26 -166 -74.5 -293.5t-121.5 -249.5q101 -235 282 -235zM698 1436q77 22 250 57q55 -191 135 -385l-28 -4q-200 153 -361 317z" />
    <glyph glyph-name="Wacute" unicode="&#x1e82;" horiz-adv-x="1828" 
d="M1159 1190q-81 0 -92 -49q-7 -39 47 -217q99 139 111 200q7 35 -8 50.5t-58 15.5zM967 580q-6 36 -15 65q-43 -63 -205 -304t-266 -392h-39q-18 106 -118 620q-79 390 -104 475q-28 97 -58 123l-19 17l13 45h573l-10 -45l-64 -6q-98 -16 -110 -88q-16 -89 63 -412
q10 -43 40 -175t40 -175q43 60 131 180.5t127 175.5q-56 273 -82 368.5t-57 121.5l-12 10l12 45h610l-12 -45l-33 -15q-34 -12 -90.5 -75t-157.5 -203q7 -23 20.5 -64t18.5 -57q94 -312 148 -473q130 217 224 409.5t112 288.5q33 153 -70 172l-94 17l12 45h541l-11 -45
l-28 -19q-25 -14 -63 -57.5t-117 -152.5t-155.5 -218.5t-240.5 -344.5t-311 -443h-39q-50 373 -104 631zM1513 1630l-2 -14q-272 -184 -512 -318l-26 5q190 236 282 385q26 -6 78.5 -16.5t97 -20.5t82.5 -21z" />
    <glyph glyph-name="wacute" unicode="&#x1e83;" horiz-adv-x="1429" 
d="M1079 238q60 0 106 97t46 230q0 62 -24 204t-54 249q149 34 209.5 -10t60.5 -144q0 -197 -204 -561q-66 -160 -145 -241.5t-159 -81.5q-70 0 -113 111.5t-32 324.5q-88 -198 -190.5 -317t-196.5 -119q-88 0 -159.5 101.5t-71.5 205.5q0 82 64 174t190 221
q-120 70 -199 70q-42 0 -76.5 -37t-77.5 -135l-35 12q27 87 47 144.5t48.5 122t54.5 102.5t60 63t71 25q49 0 92.5 -34t97.5 -106q15 41 46 131l55 -20q-81 -157 -134 -323t-53 -265q0 -84 29 -140t84 -56q120 0 250 243q-27 102 -43 256t-18 277l288 4
q-26 -166 -74.5 -293.5t-121.5 -249.5q101 -235 282 -235zM1290 1436l-2 -15q-264 -178 -512 -317l-26 4q190 236 282 385q7 -2 107 -22t151 -35z" />
    <glyph glyph-name="Wdieresis" unicode="&#x1e84;" horiz-adv-x="1828" 
d="M967 580q-6 36 -15 65q-43 -63 -205 -304t-266 -392h-39q-18 106 -118 620q-79 390 -104 475q-28 97 -58 123l-19 17l13 45h573l-10 -45l-64 -6q-98 -16 -110 -88q-16 -89 63 -412q10 -43 40 -175t40 -175q43 60 131 180.5t127 175.5q-56 273 -82 368.5t-57 121.5l-12 10
l12 45h610l-12 -45l-33 -15q-34 -12 -90.5 -75t-157.5 -203q7 -23 20.5 -64t18.5 -57q94 -312 148 -473q130 217 224 409.5t112 288.5q33 153 -70 172l-94 17l12 45h541l-11 -45l-28 -19q-25 -14 -63 -57.5t-117 -152.5t-155.5 -218.5t-240.5 -344.5t-311 -443h-39
q-50 373 -104 631zM1067 1141q-7 -39 47 -217q99 139 111 200q7 35 -8 50.5t-58 15.5q-81 0 -92 -49zM1036 1612q55 0 84 -28.5t29 -80.5q0 -64 -46 -106.5t-108 -42.5q-112 0 -112 106q0 65 45.5 108.5t107.5 43.5zM1374 1612q55 0 84 -28.5t29 -80.5q0 -64 -46 -106.5
t-108 -42.5q-112 0 -112 106q0 65 45.5 108.5t107.5 43.5z" />
    <glyph glyph-name="wdieresis" unicode="&#x1e85;" horiz-adv-x="1429" 
d="M1079 238q60 0 106 97t46 230q0 62 -24 204t-54 249q149 34 209.5 -10t60.5 -144q0 -197 -204 -561q-66 -160 -145 -241.5t-159 -81.5q-70 0 -113 111.5t-32 324.5q-88 -198 -190.5 -317t-196.5 -119q-88 0 -159.5 101.5t-71.5 205.5q0 82 64 174t190 221
q-120 70 -199 70q-42 0 -76.5 -37t-77.5 -135l-35 12q27 87 47 144.5t48.5 122t54.5 102.5t60 63t71 25q49 0 92.5 -34t97.5 -106q15 41 46 131l55 -20q-81 -157 -134 -323t-53 -265q0 -84 29 -140t84 -56q120 0 250 243q-27 102 -43 256t-18 277l288 4
q-26 -166 -74.5 -293.5t-121.5 -249.5q101 -235 282 -235zM815 1417q55 0 84 -28t29 -80q0 -64 -46 -107t-108 -43q-55 0 -83.5 27.5t-28.5 79.5q0 64 45.5 107.5t107.5 43.5zM1153 1417q55 0 84 -28t29 -80q0 -64 -46 -107t-108 -43q-55 0 -84 28t-29 79q0 64 46 107.5
t108 43.5z" />
    <glyph glyph-name="uni1E9E" unicode="&#x1e9e;" horiz-adv-x="1304" 
d="M203 1229h1173l-8 -45q-106 -50 -232.5 -140t-230.5 -178q172 -76 257 -165t85 -207q0 -130 -68 -249t-182 -192t-241 -73q-92 0 -166 26t-117 60q88 304 117 415h37q-11 -155 15.5 -238.5t89 -114t179.5 -30.5q80 0 122 46.5t42 125.5q0 98 -102 192t-291 195
q140 188 336 347q-9 24 -21.5 46.5t-35.5 47t-51.5 42.5t-71.5 30t-93 12q-64 0 -92 -22q-38 -32 -77 -164q-23 -77 -82 -318q-133 -530 -158 -678h-440l10 45l98 23q29 6 44 19.5t33 56t40.5 129t58.5 230.5q10 40 15 62q109 441 120 517q9 66 -13 79q-7 5 -26 8l-86 15z
" />
    <glyph glyph-name="endash" unicode="&#x2013;" horiz-adv-x="1069" 
d="M90 625q208 -7 469 -7q265 0 473 7l-51 -213q-173 6 -471 6q-287 0 -471 -6z" />
    <glyph glyph-name="emdash" unicode="&#x2014;" horiz-adv-x="1560" 
d="M90 625q222 -7 758 -7q475 0 676 7l-51 -213q-166 6 -674 6q-565 0 -760 -6z" />
    <glyph glyph-name="quoteleft" unicode="&#x2018;" horiz-adv-x="430" 
d="M502 1260l14 -27q-213 -145 -213 -275q0 -51 30 -98.5t97 -109.5q-41 -57 -86.5 -89t-110.5 -32q-74 0 -112.5 44t-38.5 126q0 57 22 111t58.5 99t92.5 90.5t114 82.5t133 78z" />
    <glyph glyph-name="quoteright" unicode="&#x2019;" horiz-adv-x="430" 
d="M88 618l-14 27q213 145 213 275q0 51 -30 98.5t-97 109.5q41 58 86 89.5t110 31.5q75 0 113.5 -44t38.5 -126q0 -57 -22 -111t-58.5 -99t-92.5 -90.5t-114 -82.5t-133 -78z" />
    <glyph glyph-name="quotesinglbase" unicode="&#x201a;" horiz-adv-x="434" 
d="M-102 -281l-15 27q213 145 213 274q0 51 -30 99t-97 110q41 57 86.5 89t110.5 32q74 0 112.5 -44t38.5 -126q0 -71 -31.5 -135.5t-93 -122t-130.5 -104.5t-164 -99z" />
    <glyph glyph-name="quotedblleft" unicode="&#x201c;" horiz-adv-x="837" 
d="M915 1260l15 -27q-213 -145 -213 -275q0 -51 30 -98.5t97 -109.5q-41 -57 -86.5 -89t-110.5 -32q-74 0 -112.5 44t-38.5 126q0 71 31.5 135.5t93 122t130.5 104.5t164 99zM530 1260l15 -27q-213 -145 -213 -275q0 -51 30 -98.5t97 -109.5q-41 -57 -86.5 -89t-110.5 -32
q-74 0 -112.5 44t-38.5 126q0 71 31.5 135.5t93 122t130.5 104.5t164 99z" />
    <glyph glyph-name="quotedblright" unicode="&#x201d;" horiz-adv-x="837" 
d="M111 618l-15 27q213 145 213 275q0 51 -30 98.5t-97 109.5q41 57 86.5 89t110.5 32q74 0 112.5 -44t38.5 -126q0 -71 -31.5 -135.5t-93 -122t-130.5 -104.5t-164 -99zM496 618l-15 27q213 145 213 275q0 51 -30 98.5t-97 109.5q41 57 86.5 89t110.5 32q74 0 112.5 -44
t38.5 -126q0 -71 -31.5 -135.5t-93 -122t-130.5 -104.5t-164 -99z" />
    <glyph glyph-name="quotedblbase" unicode="&#x201e;" horiz-adv-x="819" 
d="M-100 -283l-15 27q213 145 213 274q0 51 -30 99t-97 110q41 57 86.5 89t110.5 32q74 0 112.5 -44t38.5 -126q0 -71 -31.5 -135.5t-93 -122t-130.5 -104.5t-164 -99zM285 -283l-15 27q213 145 213 274q0 51 -30 99t-97 110q41 57 86.5 89t110.5 32q75 0 113.5 -44
t38.5 -126q0 -57 -22 -111t-58.5 -99t-92.5 -90.5t-114 -82.5t-133 -78z" />
    <glyph glyph-name="dagger" unicode="&#x2020;" horiz-adv-x="1144" 
d="M862 1372q-64 -176 -129 -373q354 0 443 31q-2 -11 -32 -158t-53 -265.5t-28 -162.5h-29l2 189q1 41 -20 59.5t-102 28.5t-257 10q-24 -139 70 -299q-175 -343 -236 -483q-69 -160 -106 -291h-37q25 116 35.5 254t9 259t-1.5 261q170 156 221 299q-176 0 -264 -10.5
t-117 -28.5t-49 -59l-90 -189h-31q41 107 181 586q77 -31 428 -31q10 57 19 117t20 140t16 116h137z" />
    <glyph glyph-name="daggerdbl" unicode="&#x2021;" horiz-adv-x="1161" 
d="M725 1372h137q-43 -117 -131 -385q354 0 443 31q-3 -17 -25 -124.5t-39.5 -196.5t-22.5 -128h-28l-4 97q-1 22 -4.5 34t-19 23.5t-38.5 17t-70 9.5t-106.5 5t-154.5 1q-8 -56 6.5 -120.5t50.5 -119.5q-135 -120 -176 -240q114 0 181.5 2.5t115.5 7t73 16t38.5 25
t27.5 38.5l53 98h29q-14 -40 -42 -131.5t-58.5 -192.5t-38.5 -125q-85 31 -426 31q-44 -250 -62 -387h-137q82 228 133 387q-338 0 -440 -31q70 348 82 449h30l7 -98q1 -22 4.5 -34.5t19 -24t37.5 -16.5t70 -8.5t105 -4.5t153 -1q16 122 -58 240q64 55 110 119.5t66 120.5
q-141 0 -213.5 -2.5t-120.5 -13.5t-65 -26.5t-35 -47.5l-53 -97h-31q31 86 142 449q74 -31 424 -31q35 185 61 385z" />
    <glyph glyph-name="bullet" unicode="&#x2022;" horiz-adv-x="759" 
d="M350 240q-121 0 -189.5 66t-68.5 186q0 157 93 235t251 78q130 0 199.5 -62t69.5 -186q0 -153 -98.5 -235t-256.5 -82z" />
    <glyph glyph-name="ellipsis" unicode="&#x2026;" horiz-adv-x="1413" 
d="M152 -14q-76 0 -119 41.5t-43 117.5q0 99 58.5 149t156.5 50q81 0 124.5 -40t43.5 -118q0 -97 -61 -148.5t-160 -51.5zM623 -14q-76 0 -119 41.5t-43 117.5q0 99 58.5 149t156.5 50q81 0 124.5 -40t43.5 -118q0 -97 -61 -148.5t-160 -51.5zM1094 -14q-76 0 -119 41.5
t-43 117.5q0 99 58.5 149t156.5 50q81 0 124.5 -40t43.5 -118q0 -97 -61 -148.5t-160 -51.5z" />
    <glyph glyph-name="guilsinglleft" unicode="&#x2039;" horiz-adv-x="618" 
d="M647 954l37 -24q-68 -113 -144.5 -212t-189.5 -229q82 -218 117 -421l-45 -23q-143 240 -377 436l10 37q354 212 592 436z" />
    <glyph glyph-name="guilsinglright" unicode="&#x203a;" horiz-adv-x="618" 
d="M-6 45l-37 25q67 113 143.5 211t190.5 229q-81 217 -117 422l45 22q143 -240 377 -436l-10 -37q-354 -212 -592 -436z" />
    <glyph glyph-name="fraction" unicode="&#x2044;" horiz-adv-x="182" 
d="M98 612q-275 -275 -590 -612h-100l4 14q68 63 204.5 186.5t247.5 226t206 196.5q90 90 186 191.5t212.5 227.5t174.5 187h100l-4 -15q-69 -66 -295.5 -275t-345.5 -327z" />
    <glyph glyph-name="Euro" unicode="&#x20ac;" horiz-adv-x="1280" 
d="M723 37q78 0 152.5 67.5t132.5 186.5l118 248h41q-26 -139 -51 -406q-114 -77 -221.5 -115t-230.5 -38q-234 0 -364 123t-130 339q0 31 4 97q-21 -1 -71.5 -2t-65.5 -2l10 38q37 0 131 -4q8 56 25 123q-20 -1 -66.5 -2t-60.5 -2l8 39q14 -1 61 -2t68 -2q78 238 272.5 382
t458.5 144q214 0 383 -78q-63 -221 -121 -469h-41l-12 138q-2 47 -20 105t-49.5 114.5t-83.5 94.5t-113 38q-73 0 -144.5 -67.5t-125 -170t-93.5 -229.5q59 0 156.5 1t122.5 1l-10 -39q-25 0 -122.5 1t-156.5 1q-23 -90 -29 -119q59 0 156.5 1t122.5 1l-8 -38
q-25 0 -122.5 1t-154.5 1q-18 -99 -18 -189q0 -137 67.5 -224t194.5 -87z" />
    <glyph glyph-name="uni2116" unicode="&#x2116;" horiz-adv-x="2179" 
d="M1264 43q38 -1 105.5 -2.5t123.5 -2.5t106 -1t106.5 1t125 2.5t106.5 2.5l-10 -43q-333 6 -334 6q-49 0 -105.5 -1t-126 -2.5t-108.5 -2.5zM971 -25h-56q-17 35 -136 283t-211.5 438.5t-149.5 298.5q-22 43 -39 68q-47 -199 -73 -350.5t-30.5 -254.5t3 -172t33.5 -109.5
t55.5 -60t74.5 -30.5l187 -41l-11 -45h-718l10 45l70 16q47 13 75 54q45 68 120 343q42 153 169 650q-39 44 -94 59l-74 17l8 45h508q148 -437 342 -791q45 193 68.5 325t30.5 206t-3.5 115t-25.5 53t-45 18l-144 29l11 45h499l-8 -45l-55 -15q-43 -11 -73.5 -59
t-88.5 -233.5t-153 -567.5q-60 -240 -76 -334zM1878 1202q-59 0 -120 -117.5t-98.5 -282.5t-37.5 -304q0 -102 41 -162t109 -60q60 0 118.5 100t96.5 265t38 340q0 94 -40 157.5t-107 63.5zM1700 223q-69 0 -128.5 20t-108 60.5t-77 110t-28.5 161.5q0 142 42 266.5
t117.5 215.5t185.5 143.5t239 52.5q69 0 128.5 -20t108 -60.5t77 -110t28.5 -161.5q0 -140 -42 -264t-117 -215.5t-185 -145t-240 -53.5z" />
    <glyph glyph-name="trademark" unicode="&#x2122;" horiz-adv-x="1720" 
d="M250 1229h584q-36 -162 -58 -305l-31 -2l-14 153q-10 70 -27 92t-77 29q-26 -77 -70 -256q-29 -117 -41.5 -173t-12.5 -88.5t7.5 -38.5t30.5 -11l53 -11l-10 -34h-406l8 34l62 13q23 5 33.5 11t25 34t26 70.5t34.5 136.5q65 260 71 313q-62 -6 -90 -28.5t-72 -90.5
l-94 -155l-30 2q41 117 98 305zM901 1229h303q40 -258 86 -416q25 36 73.5 105.5t73.5 106.5t62.5 93.5t69.5 110.5h274l-10 -39l-51 -12q-28 -7 -40.5 -41.5t-47.5 -200.5q-25 -117 -35.5 -172.5t-12.5 -87.5t2.5 -37.5t17.5 -9.5h1l45 -11l-10 -34h-397l10 34l82 13
q41 7 53.5 33t40.5 164q8 36 12 57q52 227 60 268q-58 -86 -187.5 -272t-204.5 -297h-24q-5 25 -19.5 103.5t-22.5 119t-21.5 104t-25.5 113t-24 90.5q-6 25 -16 37q-39 -179 -57 -276.5t-19 -151t9 -68t36 -22.5l68 -15l-11 -34h-313l10 34l39 9q35 9 63.5 84t145.5 458
q-22 9 -41 11l-57 10z" />
    <glyph glyph-name="arrowleft" unicode="&#x2190;" horiz-adv-x="1824" 
d="M76 668q475 257 878 587l23 -20q-186 -248 -502 -557q240 8 614.5 69t733.5 138l-113 -457q-315 75 -662.5 136t-582.5 69q163 -315 223 -555l-33 -21q-267 352 -583 588z" />
    <glyph glyph-name="arrowup" unicode="&#x2191;" horiz-adv-x="1282" 
d="M680 1481q126 -200 280.5 -392t307.5 -339l-21 -27q-142 71 -271.5 156.5t-285.5 205.5q8 -238 69 -596.5t138 -699.5h-457q76 335 136.5 696t68.5 600q-163 -124 -289.5 -208.5t-265.5 -153.5l-20 27q346 349 587 731h23z" />
    <glyph glyph-name="arrowright" unicode="&#x2192;" horiz-adv-x="1824" 
d="M1845 645q-472 -255 -878 -588l-23 21q186 248 502 557q-240 -8 -614.5 -69t-733.5 -138l113 457q315 -75 662.5 -136t582.5 -69q-163 315 -223 555l33 20q122 -161 271.5 -313.5t311.5 -273.5z" />
    <glyph glyph-name="arrowdown" unicode="&#x2193;" horiz-adv-x="1282" 
d="M928 1522q-75 -335 -136 -696.5t-69 -600.5q165 126 291 210t264 153l20 -27q-346 -349 -587 -731h-23q-126 200 -280.5 392t-307.5 339l21 27q238 -118 557 -363q-8 238 -69 597t-138 700h457z" />
    <glyph glyph-name="minus" unicode="&#x2212;" horiz-adv-x="960" 
d="M102 745q127 -6 430 -6q304 0 435 6l-43 -176q-125 6 -428 6q-304 0 -437 -6z" />
    <glyph glyph-name="commaaccent" unicode="&#xf6c3;" horiz-adv-x="360" 
d="M-201 -449l-4 15q146 84 154 153q8 51 -64 111q26 34 66 57t86 23q54 0 79 -28.5t17 -76.5q-17 -138 -334 -254z" />
    <glyph glyph-name="uniF8FF" unicode="&#xf8ff;" horiz-adv-x="2635" 
d="M1942 16q-13 -30 -123 -30l-50 2q9 212 13 508.5t8 406.5q-52 -160 -110.5 -387t-93.5 -364.5t-48 -147.5q-14 -12 -43 -12q-13 0 -50.5 5t-64.5 7q4 127 4 420q-63 2 -190 2q2 -51 2 -164q0 -244 -20 -256q-12 -10 -54 -10q-22 0 -59 3t-45 3h-6q14 232 14 422
q-30 0 -84 -1t-78 -1v-92q0 -57 1 -146.5t1 -111.5q0 -37 -2 -41q-10 -26 -39 -33.5t-123 -9.5q-2 59 -2 162q0 71 5 266q-114 -4 -132 -4q-54 -92 -120 -214.5t-95 -193.5q-14 4 -45 4q-20 0 -41.5 -2.5t-33.5 -5.5l-11 -2q-5 51 -32 102q-8 16 -98 156t-95 160
q-4 16 -4 24q0 34 27 90q-11 22 -11 50q0 35 17 98q12 38 47.5 121.5t93 213t92.5 212.5q68 0 144 20q90 -231 180 -667q10 -1 121 -5v25q0 41 -1 160t-1 182q0 239 16 262q16 29 147 31q-6 -123 -6 -236q0 -70 2 -191t2 -171v-64q25 0 78 -1t80 -1q0 183 -3 357.5t-3 185.5
q0 52 4 69.5t16 26.5q16 13 78 13h64q0 -27 -1 -78.5t-1 -75.5q0 -168 10 -496q114 3 194 9q0 53 -1 149.5t-1 138.5q0 321 17 344q20 29 86 29q14 0 40.5 -2t35.5 -2q-17 -121 -17 -541v-164q203 673 250 697q16 8 61 8l95 -6q-6 -147 -6 -350q0 -132 3 -370.5t3 -315.5
q0 -166 -8 -179zM2359 948q-24 -71 -68.5 -181t-71 -181.5t-26.5 -96.5v-4q2 -29 70 -141.5t80 -140.5q29 68 59 143t45 116l15 40q-23 127 -60.5 273.5t-42.5 172.5zM143 520q0 -16 24.5 -60.5t64.5 -116t65 -128.5q24 63 58 136.5t52.5 115.5t18.5 61v4q-1 23 -36 178.5
t-60 252.5q-187 -404 -187 -443zM2292 1245q24 -12 57 -12q40 0 61 24q149 -474 226 -763q-187 -488 -246 -500q-6 -2 -18 -2q-46 0 -136 37q-1 35 -23 87.5t-45 91t-58.5 94.5t-43.5 69q-22 40 -22 61q0 12 4.5 21.5t12.5 18.5t10 13q6 9 6 21q0 28 -35 37q187 458 250 702
z" />
    <glyph glyph-name="fi" unicode="&#xfb01;" horiz-adv-x="1134" 
d="M-12 -176q94 296 184 1055q4 29 12 79h-94l14 56h95q28 95 76.5 170.5t104 118.5t110 65.5t102.5 22.5q66 0 83 -50t-1 -141q-127 27 -213 27q-80 0 -121 -30.5t-41 -82.5q0 -66 109 -100h243l-12 -56h-190q-21 -229 -37 -376t-48.5 -355t-72.5 -370
q-28 -109 -141 -160.5t-308 -61.5l-2 43q60 10 94 45.5t54 100.5zM985 1151q-60 0 -95.5 34.5t-35.5 100.5q0 84 50 126t140 42q62 0 98 -32t36 -95q0 -87 -51 -131.5t-142 -44.5zM1069 864q0 -72 -36.5 -205t-73 -253t-35.5 -162q0 -47 28 -47q38 0 117 110l23 -31
q-89 -138 -169.5 -217t-162.5 -79q-62 0 -97.5 40t-35.5 119q0 80 76.5 326.5t76.5 310.5q0 41 -30 41q-40 0 -117 -110l-23 34q87 136 167.5 214.5t162.5 78.5q60 0 94.5 -43t34.5 -127z" />
    <glyph glyph-name="fl" unicode="&#xfb02;" horiz-adv-x="1089" 
d="M-12 -176q94 296 184 1055q4 29 12 79h-94l14 56h95q28 95 76.5 170.5t104 118.5t110 65.5t102.5 22.5q66 0 83 -50t-1 -141q-127 27 -213 27q-80 0 -121 -30.5t-41 -82.5q0 -66 109 -100h243l-12 -56h-190q-21 -229 -37 -376t-48.5 -355t-72.5 -370
q-28 -109 -141 -160.5t-308 -61.5l-2 43q60 10 94 45.5t54 100.5zM821 1161q0 47 -26 47q-38 0 -113 -104l-23 33q89 122 166.5 189t157.5 67q56 0 88.5 -40.5t32.5 -119.5q0 -78 -35 -229t-76.5 -290.5t-76.5 -277t-35 -192.5q0 -47 30 -47q38 0 117 110l23 -33
q-42 -65 -79 -113t-79.5 -91.5t-86.5 -66.5t-87 -23q-62 0 -97.5 40t-35.5 119q0 72 36.5 220t81 290t81 291t36.5 221z" />
    <glyph glyph-name="W.alt" horiz-adv-x="1769" 
d="M1960 1229l-10 -45l-27 -19q-58 -36 -220.5 -296t-545.5 -920h-37q-48 256 -186 866q-167 -278 -318 -508h-2q-128 -200 -237 -358h-39q-6 78 -33 311.5t-35 314.5q-37 389 -52 469q-17 97 -46 123l-20 17l10 45h557l-10 -45l-56 -6q-132 -19 -135 -105q-2 -68 35 -395
q4 -30 55 -328q225 387 504 914h31q7 -66 21 -154.5t25.5 -153.5t34.5 -184t31 -158.5t35.5 -171.5t28.5 -135q14 30 51.5 107t57.5 118.5t52.5 111.5t51 115.5t38.5 99t30 93.5t12 70q2 75 -19 106.5t-80 40.5l-86 15l11 45h522z" />
    <glyph glyph-name="Wacute.alt" horiz-adv-x="1769" 
d="M1960 1229l-10 -45l-27 -19q-58 -36 -220.5 -296t-545.5 -920h-37q-48 256 -186 866q-167 -278 -318 -508h-2q-128 -200 -237 -358h-39q-6 78 -33 311.5t-35 314.5q-37 389 -52 469q-17 97 -46 123l-20 17l10 45h557l-10 -45l-56 -6q-132 -19 -135 -105q-2 -68 35 -395
q4 -30 55 -328q225 387 504 914h31q7 -66 21 -154.5t25.5 -153.5t34.5 -184t31 -158.5t35.5 -171.5t28.5 -135q14 30 51.5 107t57.5 118.5t52.5 111.5t51 115.5t38.5 99t30 93.5t12 70q2 75 -19 106.5t-80 40.5l-86 15l11 45h522zM1448 1688l-2 -15q-264 -178 -512 -317
l-27 4q195 241 283 385q7 -2 107 -22t151 -35z" />
    <glyph glyph-name="Wcircumflex.alt" horiz-adv-x="1769" 
d="M1960 1229l-10 -45l-27 -19q-58 -36 -220.5 -296t-545.5 -920h-37q-48 256 -186 866q-167 -278 -318 -508h-2q-128 -200 -237 -358h-39q-6 78 -33 311.5t-35 314.5q-37 389 -52 469q-17 97 -46 123l-20 17l10 45h557l-10 -45l-56 -6q-132 -19 -135 -105q-2 -68 35 -395
q4 -30 55 -328q225 387 504 914h31q7 -66 21 -154.5t25.5 -153.5t34.5 -184t31 -158.5t35.5 -171.5t28.5 -135q14 30 51.5 107t57.5 118.5t52.5 111.5t51 115.5t38.5 99t30 93.5t12 70q2 75 -19 106.5t-80 40.5l-86 15l11 45h522zM1214 1733q104 -187 224 -347l-39 -6
q-117 52 -248 142q-176 -90 -328 -142l-35 6q221 178 398 347h28z" />
    <glyph glyph-name="Wdieresis.alt" horiz-adv-x="1769" 
d="M1960 1229l-10 -45l-27 -19q-58 -36 -220.5 -296t-545.5 -920h-37q-48 256 -186 866q-167 -278 -318 -508h-2q-128 -200 -237 -358h-39q-6 78 -33 311.5t-35 314.5q-37 389 -52 469q-17 97 -46 123l-20 17l10 45h557l-10 -45l-56 -6q-132 -19 -135 -105q-2 -68 35 -395
q4 -30 55 -328q225 387 504 914h31q7 -66 21 -154.5t25.5 -153.5t34.5 -184t31 -158.5t35.5 -171.5t28.5 -135q14 30 51.5 107t57.5 118.5t52.5 111.5t51 115.5t38.5 99t30 93.5t12 70q2 75 -19 106.5t-80 40.5l-86 15l11 45h522zM1004 1669q55 0 83.5 -28t28.5 -80
q0 -64 -45.5 -107t-107.5 -43q-55 0 -84 28t-29 79q0 64 46 107.5t108 43.5zM1341 1669q55 0 84 -28t29 -80q0 -64 -46 -107t-108 -43q-55 0 -83.5 27.5t-28.5 79.5q0 64 45.5 107.5t107.5 43.5z" />
    <glyph glyph-name="Wgrave.alt" horiz-adv-x="1769" 
d="M1960 1229l-10 -45l-27 -19q-58 -36 -220.5 -296t-545.5 -920h-37q-48 256 -186 866q-167 -278 -318 -508h-2q-128 -200 -237 -358h-39q-6 78 -33 311.5t-35 314.5q-37 389 -52 469q-17 97 -46 123l-20 17l10 45h557l-10 -45l-56 -6q-132 -19 -135 -105q-2 -68 35 -395
q4 -30 55 -328q225 387 504 914h31q7 -66 21 -154.5t25.5 -153.5t34.5 -184t31 -158.5t35.5 -171.5t28.5 -135q14 30 51.5 107t57.5 118.5t52.5 111.5t51 115.5t38.5 99t30 93.5t12 70q2 75 -19 106.5t-80 40.5l-86 15l11 45h522zM885 1688q77 22 250 57q55 -191 135 -385
l-29 -4q-196 150 -360 317z" />
    <glyph glyph-name="dollar.alt" horiz-adv-x="1032" 
d="M379 -244h-57q25 101 57 221q-137 1 -244 25t-164 59q71 277 109 484h41q-8 -100 13.5 -180.5t63 -132t100 -86.5t120 -49.5t127.5 -14.5q196 0 196 133q0 44 -31 85.5t-80.5 76.5t-109.5 70.5t-119.5 75t-109 82t-80.5 98.5t-31 118q0 82 40 159.5t107 136.5t162.5 94.5
t200.5 35.5h6q8 39 24.5 112.5t18.5 80.5h52q-7 -27 -25 -93t-27 -102q181 -8 310 -49q-77 -281 -111 -442h-41q-18 230 -90.5 328t-214.5 98q-82 0 -131 -44.5t-49 -111.5q0 -51 30 -97.5t77.5 -83t105 -72.5t115 -75t105 -81t77.5 -98.5t30 -121.5q0 -94 -68.5 -186.5
t-191.5 -156.5t-266 -72q-46 -217 -47 -224z" />
    <glyph glyph-name="cent.alt" horiz-adv-x="901" 
d="M825 389q-75 -170 -183 -283t-241 -124q-25 -104 -51 -226h-55q4 11 61 224q-127 6 -219 105t-92 259q0 97 25.5 192.5t75.5 180.5t118.5 152t160.5 110t196 53l47 217h51q-2 -8 -25.5 -90t-34.5 -125h17q121 0 180 -55t59 -139q0 -86 -69 -203h-12q-79 177 -136.5 260.5
t-109.5 83.5q-59 0 -117 -84.5t-94.5 -212.5t-36.5 -250q0 -115 49 -180.5t129 -65.5q161 0 279 220z" />
    <glyph glyph-name="periodcentered.case" horiz-adv-x="501" 
d="M268 457q-76 0 -119 41.5t-43 117.5q0 99 59 149t157 50q81 0 124 -40t43 -118q0 -97 -61 -148.5t-160 -51.5z" />
    <glyph glyph-name="bullet.case" horiz-adv-x="759" 
d="M385 369q-121 0 -189.5 66t-68.5 186q0 157 93 235t251 78q130 0 199 -62t69 -186q0 -153 -98 -235t-256 -82z" />
    <glyph glyph-name="guillemotleft.case" horiz-adv-x="1034" 
d="M682 1096l37 -25q-67 -113 -143.5 -211t-190.5 -229q81 -217 117 -422l-45 -23q-144 242 -377 437l10 36q351 210 592 437zM1098 1096l37 -25q-67 -113 -143.5 -211t-190.5 -229q81 -217 117 -422l-46 -23q-145 244 -376 437l10 36q351 210 592 437z" />
    <glyph glyph-name="guillemotright.case" horiz-adv-x="1034" 
d="M436 180l-37 25q67 113 143.5 211t190.5 229q-81 217 -117 422l46 23q145 -244 376 -437l-10 -37q-354 -212 -592 -436zM20 180l-36 25q68 113 144 212t189 228q-80 212 -116 422l45 23q144 -242 377 -437l-11 -37q-354 -212 -592 -436z" />
    <glyph glyph-name="guilsinglleft.case" horiz-adv-x="618" 
d="M680 1094l37 -25q-67 -113 -143.5 -211t-190.5 -229q81 -217 117 -422l-45 -23q-144 242 -377 437l10 36q351 210 592 437z" />
    <glyph glyph-name="guilsinglright.case" horiz-adv-x="618" 
d="M25 184l-37 25q67 113 143.5 211t190.5 229q-81 217 -117 422l45 23q144 -242 377 -437l-11 -36q-348 -208 -591 -437z" />
    <glyph glyph-name="hyphen.case" horiz-adv-x="741" 
d="M119 737q153 -6 307 -6t307 6l-51 -213q-150 6 -305 6q-153 0 -309 -6z" />
    <glyph glyph-name="endash.case" horiz-adv-x="1069" 
d="M119 737q179 -6 469 -6q295 0 473 6l-51 -213q-172 6 -471 6q-287 0 -471 -6z" />
    <glyph glyph-name="emdash.case" horiz-adv-x="1560" 
d="M119 737q190 -6 758 -6q503 0 675 6l-51 -213q-166 6 -674 6q-564 0 -759 -6z" />
    <glyph glyph-name="parenleft.case" horiz-adv-x="612" 
d="M586 -254l-11 -45q-231 25 -363 185t-132 417q0 237 78 451t208.5 369t301.5 257.5t358 130.5l-10 -45q-125 -27 -244 -148.5t-207.5 -298.5t-142 -404t-53.5 -455q0 -360 217 -414z" />
    <glyph glyph-name="parenright.case" horiz-adv-x="612" 
d="M92 1477l10 45q231 -25 363.5 -185t132.5 -417q0 -237 -78 -451t-208.5 -369.5t-301.5 -258t-358 -130.5l10 45q100 22 197.5 104t177.5 210t141.5 285.5t96 341t34.5 366.5q0 360 -217 414z" />
    <glyph glyph-name="bracketleft.case" horiz-adv-x="626" 
d="M483 692q-173 -688 -188 -809q-10 -72 11 -82q5 -2 18 -4l153 -20l-12 -45h-506q123 446 242 923q95 383 200 844h504l-10 -45l-166 -20q-26 -4 -37.5 -14t-39 -87.5t-62.5 -214t-107 -426.5z" />
    <glyph glyph-name="bracketright.case" horiz-adv-x="628" 
d="M221 535q172 688 189 807q10 73 -10 83q-5 3 -19 5l-154 20l13 45h505q-110 -399 -241 -924q-111 -448 -201 -843h-504l11 45l165 20q26 4 37.5 14t39 87.5t62.5 214t107 426.5z" />
    <glyph glyph-name="braceleft.case" horiz-adv-x="630" 
d="M467 -236l-12 -45q-271 21 -373 57.5t-102 108.5q0 46 33.5 111t82 131t96.5 132t81.5 133t33.5 116q0 60 -51.5 82t-179.5 24l14 48q172 3 242.5 62.5t70.5 164.5q0 76 -35.5 200t-35.5 168q0 72 50.5 123t173.5 88t325 54l-7 -43q-92 -18 -143 -44t-68.5 -55.5
t-25.5 -79.5q-7 -43 -4 -185.5t-12 -215.5q-19 -117 -117 -174.5t-262 -73.5l-9 -26q141 -12 213 -41t72 -92q0 -56 -36 -144t-78.5 -165t-78.5 -162.5t-36 -137.5t38.5 -79t139.5 -40z" />
    <glyph glyph-name="braceright.case" horiz-adv-x="630" 
d="M248 1477l12 45q184 -15 286.5 -35.5t145.5 -51.5t43 -79q0 -46 -33.5 -110t-81.5 -128.5t-96.5 -129t-82 -130.5t-33.5 -115q0 -60 52 -82t179 -22l-12 -49q-172 -3 -244 -63.5t-72 -164.5q0 -76 35 -205t35 -173q0 -73 -50 -124t-172.5 -87.5t-324.5 -53.5l6 43
q92 18 142.5 44t68 55.5t25.5 79.5q8 46 6.5 190t11.5 221q11 61 42.5 106.5t83 73.5t112.5 44t141 24l6 27q-137 12 -209.5 41.5t-72.5 91.5q0 56 36 142.5t78.5 161.5t78.5 158.5t36 135.5t-39 79t-139 40z" />
    <glyph glyph-name="exclamdown.case" horiz-adv-x="546" 
d="M-27 2q224 411 361 754l47 -2q-33 -349 -23 -758zM453 1245q75 0 118 -42t43 -118q0 -99 -58.5 -148.5t-156.5 -49.5q-81 0 -124.5 39.5t-43.5 117.5q0 97 61.5 149t160.5 52z" />
    <glyph glyph-name="questiondown.case" horiz-adv-x="788" 
d="M682 748l6 -39q-262 -107 -416.5 -206.5t-154.5 -178.5q0 -41 19.5 -61.5t64.5 -20.5q43 0 199 28.5t208 28.5q42 0 63 -16.5t21 -59.5q0 -19 -4.5 -44t-10.5 -45.5t-20 -56t-22.5 -54.5t-28 -63.5t-26.5 -61.5l-39 2q12 52 12 67q0 19 -11.5 28t-39.5 9t-77 -2t-73 -2
q-278 0 -278 367q0 71 28 126.5t77 95.5t127.5 70.5t167.5 50.5t208 38zM690 1243q76 0 119 -42t43 -118q0 -99 -58.5 -148.5t-156.5 -49.5q-81 0 -124.5 39.5t-43.5 117.5q0 97 61 149t160 52z" />
    <glyph glyph-name="zero.osf" horiz-adv-x="1103" 
d="M625 1024q-81 0 -158 -119t-121.5 -287.5t-44.5 -320.5q0 -122 50 -191t136 -71q80 0 154.5 116.5t118 287t43.5 331.5q0 106 -48 180t-130 74zM674 1077q175 0 280 -108t105 -273q0 -196 -80.5 -359.5t-226 -260t-326.5 -96.5q-173 0 -275 110.5t-102 290.5
q0 202 79 360.5t221.5 247t324.5 88.5z" />
    <glyph glyph-name="one.osf" horiz-adv-x="634" 
d="M594 1094l37 -4q-50 -178 -125 -474q-106 -414 -111 -489q-4 -48 18 -57q4 -2 11 -4l94 -21l-10 -45h-604l10 45l111 18q23 3 36 15t34.5 67t46.5 148.5t71 279.5q14 58 23.5 98t14.5 73.5t8 53.5t-1 36t-6.5 23t-15 13t-20.5 8t-28 5l-67 6l10 39q128 15 239.5 52.5
t223.5 113.5z" />
    <glyph glyph-name="two.osf" horiz-adv-x="1058" 
d="M129 520q9 278 143 414.5t355 136.5q190 0 281 -73.5t91 -204.5q0 -43 -15 -84.5t-37 -76t-64 -71.5t-77 -64t-97 -60.5t-103 -54.5t-115 -53t-114.5 -48.5t-118.5 -47.5h383q84 0 128.5 4t76.5 19.5t46 35.5t36 64l59 127h39q-80 -220 -152 -483h-989l11 45
q76 46 175.5 105.5t161.5 96t138 84t121.5 79.5t93.5 71t73 70.5t41.5 66.5t16.5 70q0 154 -213 154q-152 0 -237 -74.5t-99 -247.5h-39z" />
    <glyph glyph-name="three.osf" horiz-adv-x="942" 
d="M870 283q0 -44 -15 -87.5t-50.5 -89t-89 -85t-135.5 -75t-184.5 -61.5t-242.5 -41t-303 -16l11 49q179 21 315 60t215.5 89t118.5 105t39 115q0 149 -178 149q-71 0 -148 -12l6 45q226 76 324 143.5t98 145.5q0 125 -188 125q-130 0 -219 -66t-117 -209h-43
q22 259 150.5 386.5t328.5 127.5q158 0 242 -68t84 -177q0 -216 -344 -299l2 -15q168 -10 245.5 -75t77.5 -164z" />
    <glyph glyph-name="four.osf" horiz-adv-x="1095" 
d="M152 -184l8 41l184 24q25 3 41.5 23t39.5 85t58 197q-272 0 -534 -4l-4 43q129 112 481 412t535 459l45 -4q-1 -4 -11.5 -39t-23 -78.5t-32 -114t-47.5 -179.5t-61 -241q-9 -36 -22.5 -93.5t-17.5 -74.5q85 3 117.5 17t52.5 57l63 150h29q-27 -80 -66.5 -241t-62.5 -269
h-25l8 123q1 33 -6.5 46.5t-36.5 21t-96 9.5q-17 -72 -27.5 -117.5t-16.5 -81t-7 -53.5t3 -30t10 -16t18 -7l112 -24l-10 -41h-698zM537 393q16 65 45.5 183.5t42.5 166.5l-15 7q-83 -72 -260.5 -229t-261.5 -230l6 -19h412q21 76 31 121z" />
    <glyph glyph-name="five.osf" horiz-adv-x="983" 
d="M-166 -178l10 49q162 23 289.5 60t208 79t133 91.5t73.5 97t21 96.5q0 63 -42.5 101t-148.5 63t-294 37q72 230 147 561q135 -2 412 -2q133 0 192 5.5t84 19t44 46.5l43 72l34 -2q-17 -49 -56.5 -197.5t-53.5 -207.5q-426 7 -715 4q-14 -60 -37 -179q121 -8 212 -18
t175 -27t141.5 -41t100.5 -58t63.5 -80t20.5 -105q0 -79 -36.5 -146.5t-117.5 -125.5t-203 -99.5t-299.5 -66t-400.5 -27.5z" />
    <glyph glyph-name="six.osf" horiz-adv-x="1101" 
d="M334 418h14q58 150 180 251t281 101q132 0 191 -65t59 -193q0 -141 -90 -264.5t-236 -195.5t-305 -72q-196 0 -295.5 115.5t-99.5 299.5q0 333 295 565.5t811 290.5l-11 -49q-172 -32 -310 -101.5t-222 -150.5t-142.5 -180.5t-84 -183t-35.5 -168.5zM326 229
q0 -77 50.5 -129.5t135.5 -52.5q101 0 170.5 108.5t69.5 264.5q0 79 -34.5 118.5t-113.5 39.5q-76 0 -141.5 -54t-101 -134t-35.5 -161z" />
    <glyph glyph-name="seven.osf" horiz-adv-x="978" 
d="M27 -133q78 104 208.5 240.5t247.5 248t241.5 236.5t188.5 205q-218 4 -497 4q-32 0 -54 -0.5t-44.5 -3.5t-36 -4.5t-30 -10.5t-24.5 -13.5t-21 -21t-19 -25.5t-19.5 -35t-20.5 -41.5t-24 -51.5l-74 -164h-39q96 266 189 627h897l-11 -43q-183 -286 -374 -616t-305 -570
h-386z" />
    <glyph glyph-name="eight.osf" horiz-adv-x="1021" 
d="M664 743l2 -2q62 44 107.5 118.5t45.5 141.5q0 94 -60 136.5t-159 42.5q-84 0 -132 -45.5t-48 -128.5q0 -70 53.5 -129t190.5 -134zM324 -20q-173 0 -266 58.5t-93 164.5q0 55 28.5 102.5t88 90t129.5 77t174 76.5q-117 68 -169 135t-52 154q0 90 51 169t131.5 130
t177 80.5t189.5 29.5q146 0 234.5 -57t88.5 -162q0 -167 -346 -299q142 -81 204 -148t62 -165q0 -84 -47.5 -163t-129.5 -139.5t-201 -97t-254 -36.5zM457 51q115 0 169 54.5t54 144.5q0 33 -5 58.5t-20 48.5t-30.5 40t-48.5 39.5t-61 38.5t-81 45q-4 2 -12 7.5t-12 7.5
q-93 -62 -148 -139t-55 -154q0 -96 67.5 -143.5t182.5 -47.5z" />
    <glyph glyph-name="nine.osf" horiz-adv-x="1099" 
d="M778 641h-14q-31 -71 -76 -133.5t-103 -115t-133 -83t-155 -30.5q-130 0 -188 64.5t-58 186.5q0 149 87.5 276t231 200t304.5 73q103 0 182 -31.5t127 -88.5t72 -131.5t24 -163.5q0 -333 -296.5 -566t-813.5 -291l11 50q173 32 311 101.5t222.5 150t143.5 181t85 183.5
t36 168zM784 825q0 80 -51 133.5t-143 53.5q-100 0 -166 -107t-66 -268q0 -84 33.5 -125t110.5 -41t143.5 55.5t102.5 136.5t36 162z" />
    </font>
</defs>
</svg>
